/* XPM */
static char *result[] = {
/* columns rows colors chars-per-pixel */
"32 32 58 1 ",
"  c #010201",
". c #0D0D05",
"X c #040609",
"o c gray4",
"O c #595846",
"+ c #57574D",
"@ c #59574A",
"# c #5C5C4D",
"$ c #595752",
"% c #5D5D53",
"& c #555F5E",
"* c #615F4D",
"= c #615E52",
"- c #615F5B",
"; c #5E604E",
": c #5F6052",
"> c #54605E",
", c #64634F",
"< c #626255",
"1 c #62625B",
"2 c #596461",
"3 c #7F7D6E",
"4 c #817E6D",
"5 c #84836F",
"6 c #858473",
"7 c #898774",
"8 c #878876",
"9 c #8C8975",
"0 c #868579",
"q c #898779",
"w c #878879",
"e c #8C8B7A",
"r c #908E7C",
"t c #92917D",
"y c #8E8D80",
"u c #918F82",
"i c #949381",
"p c #9C9A8E",
"a c #9E9F93",
"s c #A19E94",
"d c #A29F98",
"f c #A4A396",
"g c #A6A49A",
"h c #A9A49B",
"j c #ABA99D",
"k c #AAA7A1",
"l c #AEAAA3",
"z c #B0AEA2",
"x c #C4BFB5",
"c c #C4C2B6",
"v c #C9C6B7",
"b c #C6C3BA",
"n c #CAC5BC",
"m c #CBC9BE",
"M c #CCC6C1",
"N c #CDCBC2",
"B c #D2CBC4",
"V c #D3D0C4",
/* pixels */
" X            2>>2              ",
"  X         <%mbcm::         X  ",
"Xo  X   X 1$bMmMmbMb$-     X  o ",
"        -$BMnbmccmbmBB$2        ",
"X     1$nBxbBnnBNmMBxnMM&1     X",
"    1%NbMBMMxBxBmcBxnMMMbN%>    ",
"X >:bNMMxBxxBBnxnMMBMxBMMnMb%:  ",
"::bbNbMbxBBBnxBnnMxBMMMxbMmMbm%:",
"::NcnmvnmvnnmmvxMMxBvmnvmbNmcv<:",
":a::mmvmcmxMnbBMBBBxMnnmvcvc<<w:",
",jgg#*mcmmBvNnbmxMmvmxmvvV,Oe86:",
"#ajgjh*,nxmxNbNMBxmnnMvv=#6r6ie+",
"#jfhhhpz==vmmmbcnMMnmc<,7r67e5e<",
"<hhhhjfhhh#<ccVNxxNM#:6895r7ee5<",
"=dshfhzshfjf:<ccmm#+ey8rr677r99*",
"=jhhhffjhgjffg%<%:0i65t5799994r*",
"*hhhhhhhhghfhfh%%wew99999999999*",
"*hhhhddhhhhhhfh=:8e999999999997*",
"=dshhhhhhhhhhgh==qee99999999997*",
"*hhhshhhhdhghgh==7e799999999897*",
"*ggghhhhhhhhhhh=*799999999999e8;",
"%gfgshhhhhhhhfh**799999999799e8;",
",ffjhhhhhhhhhhh=*999999999w70ee;",
";hfhhhhhhhhhhhh=*7999999r97eeew:",
";<fgjgkgdkddzdf=,59794rwr4qqqe=%",
" X1#hhalkkkldkl#*r57ir7q4uyq-+  ",
"    -&kkkakhdzd<#99e74wuu7==    ",
"X  X  -$kkakhhs<,5eerqy0--      ",
"       X:%khkga;;8886w%%    X   ",
" X        2$ajk:Oe6y<%.   X     ",
"    X      .>:f;:8:;     X    XX",
"X             >::;        X  X  "
};
