/* XPM */
static char *_9b6cd7f4dce4eb3e513aee63ed15933T22v7qQXrzUHj1Iw[] = {
/* columns rows colors chars-per-pixel */
"66 96 154 2 ",
"   c None",
".  c #4D2713",
"X  c #4E2812",
"o  c #4F2913",
"O  c #4F2B17",
"+  c #512E1A",
"@  c #4F311E",
"#  c #53321E",
"$  c #53321F",
"%  c #56321C",
"&  c #4F3625",
"*  c #4F3626",
"=  c #543421",
"-  c #543623",
";  c #543624",
":  c #543625",
">  c #543725",
",  c #543726",
"<  c #543826",
"1  c #553826",
"2  c #543827",
"3  c #553827",
"4  c #553927",
"5  c #5A3B27",
"6  c #553928",
"7  c #563B2A",
"8  c #563B2B",
"9  c #563C2C",
"0  c #573D2D",
"q  c #573D2E",
"w  c #573E2E",
"e  c #5A3D29",
"r  c #583F31",
"t  c #72751B",
"y  c #5A402E",
"u  c #5C402C",
"i  c #584031",
"p  c #5B4130",
"a  c #5B4230",
"s  c #5B4231",
"d  c #584132",
"f  c #5C4332",
"g  c #594537",
"h  c #5A4536",
"j  c #5A4537",
"k  c #5A4538",
"l  c #5A4639",
"z  c #5A4739",
"x  c #5B483B",
"c  c #5B493C",
"v  c #5B493D",
"b  c #5B4A3D",
"n  c #5C4B3F",
"m  c #604734",
"M  c #634D3C",
"N  c #644E3C",
"B  c #66513F",
"V  c #5C4C40",
"C  c #5C4C41",
"Z  c #5C4D41",
"A  c #5D4D42",
"S  c #5D4D43",
"D  c #5D4E42",
"F  c #5E5146",
"G  c #5C5247",
"H  c #5D5248",
"J  c #5D5348",
"K  c #5D5349",
"L  c #5E5348",
"P  c #5E5349",
"I  c #5F5349",
"U  c #5D5449",
"Y  c #5E5449",
"T  c #5D544A",
"R  c #5E544A",
"E  c #5F544A",
"W  c #5E554A",
"Q  c #5F554A",
"!  c #675240",
"~  c #675341",
"^  c #675443",
"/  c #655444",
"(  c #675544",
")  c #675545",
"_  c #695645",
"`  c #62554B",
"'  c #64574A",
"]  c #64574B",
"[  c #64584C",
"{  c #64594D",
"}  c #65594D",
"|  c #65594E",
" . c #615851",
".. c #655F57",
"X. c #665F58",
"o. c #666057",
"O. c #686157",
"+. c #666058",
"@. c #676058",
"#. c #676158",
"$. c #676159",
"%. c #676259",
"&. c #696158",
"*. c #686159",
"=. c #696258",
"-. c #686259",
";. c #696259",
":. c #686359",
">. c #696359",
",. c #68625A",
"<. c #69625A",
"1. c #68635A",
"2. c #69635A",
"3. c #69635B",
"4. c #6A635A",
"5. c #6A635B",
"6. c #69645A",
"7. c #69645B",
"8. c #6A655B",
"9. c #69645C",
"0. c #6A645C",
"q. c #6A655C",
"w. c #6B655D",
"e. c #6A665C",
"r. c #6B665D",
"t. c #6B675D",
"y. c #6C665E",
"u. c #6C675E",
"i. c #6C675F",
"p. c #6D675F",
"a. c #6C685E",
"s. c #6C685F",
"d. c #6D685F",
"f. c #6D695F",
"g. c #6D6960",
"h. c #6D6861",
"j. c #6E6860",
"k. c #6E6960",
"l. c #6E6A60",
"z. c #6F6A61",
"x. c #6F6B61",
"c. c #706B62",
"v. c #706C63",
"b. c #767469",
"n. c #76726C",
"m. c #868579",
"M. c #86847B",
"N. c #8B8A7F",
"B. c #908E86",
"V. c #918F87",
"C. c #918F88",
"Z. c #929088",
"A. c #94928B",
"S. c #99978F",
/* pixels */
"! 5 5 5 5 5 5 5 5 5 5 5 5 5 5 5 5 5 5 5 5 B 5 5 5 5 5 5 5 5 5 5 5 5 5 5 5 5 5 5 5 5 5 5 ! 5 5 5 5 5 5 5 5 5 5 5 5 5 5 5 5 5 5 5 5 ! ",
"! m.m.m.m.m.m.m.m.m.m.m.m.m.m.m.m.m.m.m.m.! m.m.m.m.m.m.m.m.m.m.m.m.m.m.m.m.m.m.m.m.m.m.! m.m.m.m.m.m.m.m.m.m.m.m.m.m.m.m.m.m.m.m.! ",
"B m.m.m.m.m.m.m.m.m.m.m.m.m.m.m.m.m.m.M.m.! m.m.m.m.m.m.m.m.m.m.m.m.m.m.m.m.m.m.m.m.m.m.! m.m.m.m.m.m.m.m.m.m.m.m.m.m.m.m.m.m.m.m.! ",
"u m.m.m.m.m.m.m.m.m.m.m.m.m.m.m.m.m.m.M.m.e m.m.m.m.m.m.m.m.m.m.m.m.m.m.m.m.m.m.m.m.m.m.u m.m.m.m.m.m.m.m.m.m.m.m.m.m.m.m.m.m.m.m.u ",
"e A.A.A.A.A.A.A.A.A.A.A.A.A.A.A.A.A.A.A.A.e A.A.A.A.A.A.A.A.A.A.A.A.A.A.A.A.A.A.A.A.A.A.e A.A.A.A.A.A.A.A.A.A.A.A.A.A.A.A.A.A.A.A.e ",
"o ;.;.%.%.;.%.;.;.3.;.;.;.0.8.;.;.3.3.%.,.o ;.;.;.;.O.O.O.} } [ ] ] [ } } O.O.;.;.;.;.;.o ,.;.;.;.;.3.;.0.;.;.3.%.3.%.;.;.;.;.;.;.o ",
"o ;.;.;.;.%.;.%.3.%.;.0.;.0.;.;.3.;.;.3.,.o ;.;.8.O.;.O.O.} } [ ] ] [ [ } O.O.O.;.;.;.;.o ,.;.;.;.3.;.3.;.8.;.;.3.%.3.%.%.;.%.;.;.o ",
"  o o o o o o o o o o o o o o o o o o o o   o o o o o o o o o o o o o o o o o o o o o o   o o o o o o o o o o o o o o o o o o o o   ",
"t t t t t t t t t t t t t t t t t t t t t t t t t t t t t t t t t t t t t t t t t t t t t t t t t t t t t t t t t t t t t t t t t t ",
"t t t t t t t t t t t t t t t t t t t t t t t t t t t t t t t t t t t t t t t t t t t t t t t t t t t t t t t t t t t t t t t t t t ",
"t t t t t t t t t t t t t t t t t t t t t t t t t t t t t t t t t t t t t t t t t t t t t t t t t t t t t t t t t t t t t t t t t t ",
"t t t t t t t t t t t t t t t t t t t t t t t t t t t t t t t t t t t t t t t t t t t t t t t t t t t t t t t t t t t t t t t t t t ",
"t t t t t t t t t t t t t t t t t t t t t t t t t t t t t t t t t t t t t t t t t t t t t t t t t t t t t t t t t t t t t t t t t t ",
"t t t t t t t t t t t t t t t t t t t t t t t t t t t t t t t t t t t t t t t t t t t t t t t t t t t t t t t t t t t t t t t t t t ",
"t t t t t t t t t t t t t t t t t t t t t t t t t t t t t t t t t t t t t t t t t t t t t t t t t t t t t t t t t t t t t t t t t t ",
"t t t t t t t t t t t t t t t t t t t t t t t t t t t t t t t t t t t t t t t t t t t t t t t t t t t t t t t t t t t t t t t t t t ",
"t t t t t t t t t t t t t t t t t t t t t t t t t t t t t t t t t t t t t t t t t t t t t t t t t t t t t t t t t t t t t t t t t t ",
"t t t t t t t t t t t t t t t t t t t t t t t t t t t t t t t t t t t t t t t t t t t t t t t t t t t t t t t t t t t t t t t t t t ",
"t t t t t t t t t t t t t t t t t t t t t t t t t t t t t t t t t t t t t t t t t t t t t t t t t t t t t t t t t t t t t t t t t t ",
"t t t t t t t t t t t t t t t t t t t t t t t t t t t t t t t t t t t t t t t t t t t t t t t t t t t t t t t t t t t t t t t t t t ",
"t t t t t t t t t t t t t t t t t t t t t t t t t t t t t t t t t t t t t t t t t t t t t t t t t t t t t t t t t t t t t t t t t t ",
"t t t t t t t t t t t t t t t t t t t t t t t t t t t t t t t t t t t t t t t t t t t t t t t t t t t t t t t t t t t t t t t t t t ",
"t t t t t t t t t t t t t t t t t t t t t t t t t t t t t t t t t t t t t t t t t t t t t t t t t t t t t t t t t t t t t t t t t t ",
"t t t t t t t t t t t t t t t t t t t t t t t t t t t t t t t t t t t t t t t t t t t t t t t t t t t t t t t t t t t t t t t t t t ",
"t t t t t t t t t t t t t t t t t t t t t t t t t t t t t t t t t t t t t t t t t t t t t t t t t t t t t t t t t t t t t t t t t t ",
"t t t t t t t t t t t t t t t t t t t t t t t t t t t t t t t t t t t t t t t t t t t t t t t t t t t t t t t t t t t t t t t t t t ",
"t t t t t t t t t t t t t t t t t t t t t t t t t t t t t t t t t t t t t t t t t t t t t t t t t t t t t t t t t t t t t t t t t t ",
"t t t t t t t t t t t t t t t t t t t t t t t t t t t t t t t t t t t t t t t t t t t t t t t t t t t t t t t t t t t t t t t t t t ",
"t t t t t t t t t t t t t t t t t t t t t t t t t t t t t t t t t t t t t t t t t t t t t t t t t t t t t t t t t t t t t t t t t t ",
"t t t t t t t t t t t t t t t t t t t t t t t t t t t t t t t t t t t t t t t t t t t t t t t t t t t t t t t t t t t t t t t t t t ",
"t t t t t t t t t t t t t t t t t t t t t t t t t t t t t t t t t t t t t t t t t t t t t t t t t t t t t t t t t t t t t t t t t t ",
"t t t t t t t t t t t t t t t t t t t t t t t t t t t t t t t t t t t t t t t t t t t t t t t t t t t t t t t t t t t t t t t t t t ",
"  5 5 5 5 5 5 5 5 5 5 5 5 5 5 e 5 5 5 5 5   5 5 5 5 5 5 5 5 5 5 5 5 5 5 5 5 5 5 5 5 5 5   5 5 5 5 5 5 5 5 5 5 5 5 5 5 5 5 5 5 5 5   ",
"N m.m.m.m.m.m.m.m.m.m.m.m.m.m.m.m.m.m.m.N.m N.m.m.m.m.m.m.m.m.m.m.m.m.m.m.m.m.m.m.m.m.N.m N.m.m.m.m.m.m.m.m.m.m.m.m.m.m.m.m.m.m.m.N ",
"~ m.m.m.m.m.m.m.m.m.m.m.m.m.m.m.m.m.m.m.N.M N.m.m.m.m.m.m.m.m.m.m.m.m.m.m.m.m.m.m.m.m.N.M N.m.m.m.m.m.m.m.m.m.m.m.m.m.m.m.m.m.m.m.! ",
"_ m.m.m.m.m.m.m.m.m.m.m.m.m.m.m.m.m.m.m.B./ N.m.m.m.m.m.m.m.m.m.m.m.m.m.m.m.m.m.m.m.m.N./ B.m.m.m.m.m.m.m.m.m.m.m.m.m.m.m.m.m.m.m._ ",
"~ S.S.S.A.Z.B.Z.B.Z.Z.A.A.A.A.A.A.A.S.S.S./ S.S.S.A.A.A.A.A.A.A.A.A.A.A.A.A.A.A.A.S.S.S./ S.S.S.A.A.A.A.A.A.A.Z.Z.B.B.Z.Z.A.S.S.S._ ",
"s c.c.c.c.c.c.f.g.g.f.f.a.a.a.a.y.y.f.f.f.s f.f.a.a.a.a.a.a.a.a.y.f.0.f.h.0.f.f.0.f.g.f.s g.a.g.y.y.a.a.a.a.f.f.f.c.f.c.c.c.c.c.v.a ",
"f x.x.x.c.c.f.c.g.g.f.f.f.a.a.a.f.f.y.f.a.s f.y.f.g.0.g.a.0.0.a.0.0.0.a.0.f.0.f.y.f.f.0.s f.a.a.f.f.0.f.a.f.a.f.f.f.c.g.c.c.x.x.c.a ",
"f c.c.g.f.c.f.c.g.f.f.0.0.a.a.a.0.0.f.8.a.f 0.f.0.0.g.0.a.0.a.0.0.f.a.0.a.0.y.y.f.0.f.f.s 0.a.a.8.f.f.y.0.f.0.f.f.c.x.f.f.f.g.x.g.a ",
"s f.g.g.c.g.c.y.f.a.g.0.a.0.a.0.a.8.a.0.a.f 0.a.0.a.0.0.a.0.a.e.0.0.0.f.e.0.a.a.0.0.a.0.s 0.a.0.a.0.a.0.a.0.a.a.f.f.g.g.g.f.f.c.g.s ",
"a f.g.g.f.g.c.y.a.a.0.a.0.a.0.a.f.0.0.a.0.f a.0.a.0.0.a.a.0.7.a.a.8.0.0.a.0.0.0.0.a.0.a.s a.0.a.0.a.0.a.0.a.0.0.f.f.y.f.g.c.f.f.f.s ",
"u f.g.f.y.f.y.y.a.a.a.a.0.0.a.0.0.0.0.0.0.f 8.0.8.0.0.0.0.a.7.0.8.8.0.a.8.0.0.0.a.0.0.0.s 0.0.0.0.a.0.0.0.a.a.a.y.f.f.f.y.y.y.g.0.s ",
"= 0.y.y.y.y.0.y.a.0.7.0.0.0.7.7.8.8.0.0.8.f 0.0.7.a.0.0.0.0.7.8.;.8.8.8.7.a.0.0.7.0.0.a.f 0.0.e.7.0.7.7.7.7.0.0.8.y.8.0.y.y.y.y.0.= ",
"# 7.0.0.8.0.0.0.0.0.0.7.7.0.7.7.7.7.7.0.8.# 0.0.0.0.0.7.3.3.;.3.;.8.3.;.3.0.0.0.7.0.0.0.# 7.0.0.7.7.7.7.7.7.7.0.0.0.0.0.y.0.0.0.,.= ",
"# 0.0.3.8.8.8.8.7.0.7.7.7.0.%.0.7.7.7.0.7.# 7.7.0.3.0.7.3.3.3.;.%.%.;.3.3.3.3.3.7.7.e.0.# 7.%.e.7.7.7.7.7.0.7.7.7.0.0.3.8.;.8.0.,.= ",
"+ %.%.3.%.%.;.0.3.3.3.3.7.%.0.3.7.%.3.3.0.# 7.7.3.3.3.3.3.;.;.3.3.%.3.;.;.3.3.3.7.%.0.,.# 0.,.0.3.0.%.0.0.3.0.%.7.7.3.3.3.%.;.;.,.+ ",
"O %.%.%.%.%.%.%.%.%.%.7.%.7.%.7.%.7.3.3.3.# %.7.3.3.3.3.3.%.%.%.%.%.%.%.%.0.3.3.7.7.,.0.# %.0.,.%.%.7.%.%.7.%.%.%.%.%.%.%.%.%.%.%.O ",
"o %.%.X.%.%.X.X.,.%.%.%.X.%.%.%.%.%.%.;.%.# ;.%.3.%.3.%.;.%.;.%.%.%.%.;.%.3.3.3.,.;.%.;.# %.;.%.%.%.%.%.%.%.%.%.%.X.%.X.%.;.%.X.%.o ",
"o X.%.%.X.X.%.%.,.X.X.%.,.%.,.X.%.;.%.%.%.# %.%.%.%.%.X.%.;.X.%.X.X.X.X.%.X.%.%.%.%.%.;.# %.%.%.%.%.%.%.%.;.%.X.%.;.%.X.%.X.%.,.,.o ",
"H o o o o o o o o o o o o o o o o o o o o H o o o o o o o o o o o o o o o o o o o o o o H o o o o o o o o o o o o o o o o o o o o H ",
"R H @ G G G G G H G G H H H H H H G U G H H H H R H R R R R R R o o R R R H R R U H G U H H L L H H H H H H H G H G G G G G H @ R H ",
"G R & F G G G G G G G H H H H H H U G U U G G G H R R R R R R R o o R R R R R R U ` H H G U G G H H G H H H H G G G G G G G H & H R ",
"T T * G G G G G G G G H H H H H G J U G G U H ` ` U R R R R R R o o R R R H R R U U U H U G ` G H H U G H H H G G G G G G G S & U R ",
"T G * G G G G G G G G H H H H U L J L L U G H U U U ` R R R R R o o R R U ` ` U U L H U G U H U H U H U H H H G G G G G G G G * H R ",
"T T * R G G G G G G H H H H U H L L L G G ` H H U U H R R R R R o o R R U U U U U ` U H U H U H U H U G H H H G G G G G G G H * U U ",
"U U * H G H G G G G H H H H H H H H H H H U H H R H R R R H H ` o o U R R R R R H U H H H H H H H H H H H H H G G G H G G H H * H U ",
"X.X.k ;.%.X.%.%.%.%.X.%.%.%.X.%.X.%.%.%.%.%.%.%.;.X.%.%.%.%.%.X.o o X.%.;.%.X.%.;.X.;.%.%.%.X.%.%.%.%.%.X.%.%.X.%.%.%.%.X.%.%.k ....",
"X...l ;.%.X.X.X.%.;.%.;.%.3.;.%.X.%.%.%.%.%.X.%.%.%.;.X.%.%.%.%.o o ;.%.X.;.;.%.%.%.%.%.%.%.X.%.%.X.%.X.;.%.X.%.%.X.%.3.X.;.%.k ....",
"g g l d H H / G G S H H H H d r ; = ; ; , , , , 2 2 2 6 6 2 o .  . .o . 2 6 2 2 , , , , 2 , , , = , d r ` H ` G F F H S G G g k g g ",
"f.y.y.g.h.h.y.y.y.h.h.h.h.h.h.0.h.; A A A A A A S S A A A S o  . . . .o S S S A A A A A A A A A , h.y.y.h.h.h.y.g.y.h.h.y.y.g.y.h.y.",
"%.%.%.%.3.X.%.%.;.X.%.X.X.;.%.%.;.8 A  . . . . . . . . . . .o  . . . . . . . . . . . . . . . .A 6 %.X.%.X.%.X.%.;.%.X.3.;.;.%.;.%.%.",
"%.%.%.X.%.%.X.%.%.%.,.%.X.%.X.%.X.q  . . . . . . . . . . . .o  . . . . . . . . . . . . . . . . .r X.%.%.X.;.%.;.%.X.%.X.;.X.%.%.%.X.",
"X.X.%.;.X.%.;.%.X.%.X.%.,.;.X.%.%.k  . . . . . . . . . . . .o  . . . . . . . . . . . . . . . . .k %.;.X.%.%.X.X.%.%.%.X.%.%.%.X.%.%.",
";.%.%.X.3.%.X.3.%.X.,.,.%.X.,.%.X.k  . . . . . . . . . . . .o  . . . . . . . . . . . . . . . . .k ;.%.X.%.3.X.%.X.;.%.%.X.;.%.X.,.%.",
"%.X.%.X.X.%.%.X.;.X.%.X.%.,.X.%.,.H  . . . . . . . . . . . .o  . . . . . . . . . . . . . . . . .H %.;.X.%.X.X.%.%.%.X.%.X.%.,.X.,.X.",
"%.X.%.3.X.%.%.X.%.%.%.%.X.X.,.,.%.H  . . . . . . . . . . . .o  . . . . . . . . . . . . . . . . .` %.%.%.X.3.3.X.%.X.%.%.,.,.%.%.%.%.",
"X.3.%.X.3.%.X.3.X.%.%.;.,.%.%.X.X.`  . . . . . . . . . . . .o  . . . . . . . . . . . . . . . . .H ;.X.%.%.X.%.%.%.X.%.%.%.X.X.,.X.,.",
"S k 8 8 8 6 C v v v x U ` H ` H ` H H ` H H H ` U H d s . o o o o . o o o o d s H H U ` H ` H H H ` H H H H ` k v v v Z 8 6 6 q k S ",
"n.n.n., h.h.0.h.h.0.0.0.0.y.y.h.h.h.h.0.y.h.y.h.h.0.h.y.y.y.X...X.X.X.X.0.0.h.y.0.h.0.h.h.0.h.y.y.y.h.h.h.h.h.3.3.h.0.g.h.h., n.n.n.",
"g.h.h., X.X.X.X.X.X.X.X.X.X.X.X.X.X.X.X.X.X.X.X.X.X.X.X.X.X.X.X.X.X.X.X.%.X.X.X.%.X.X.X.X.X.X.X.X.X.X.X.X.X.X.X.X.X.X.X.X.X.; h.h.h.",
"h.h.g.q X.X.X.X.X.X.X.X.X.X.X.X.X.X.X.X.X.X.X.X.X.X.X.X.X.X.X.X.X.X.X.X.X.X.X.X.X.X.X.X.X.X.X.X.X.X.X.X.X.X.X.X.X.X.X.X.X.X.q h.h.h.",
"h.h.h.r X.X.X.X.X.X.X.X.X.X.X.X.X.X.X.X.X.X.X.X.X.X.X.X.X.X.X.X.X.X.X.X.X.X.X.X.X.X.X.X.X.X.X.X.X.X.X.X.X.X.X.X.X.X.X.X.X.X.d h.h.h.",
"h.h.g.r X.X.X.X.X.X.X.X.X.X.X.X.X.X.X.X.X.X.X.X.X.X.X.X.X.X.X.X.X.X.X.X.X.X.X.X.X.X.X.X.X.X.X.X.X.X.X.X.X.X.X.X.X.X.X.X.X.X.r h.h.h.",
"h.h.h.C X.X.X.X.X.X.X.X.X.X.X.X.X.X.X.X.X.X.X.X.X.X.X.X.X.X.X.X.X.X.X.X.X.X.X.X.X.X.X.X.X.X.X.X.X.X.X.X.X.X.X.X.X.X.X.X.X.X.v h.h.h.",
"h.h.h.C X.X.X.X.X.X.X.X.X.X.X.X.X.X.X.X.X.X.X.X.X.X.X.X.X.X.X.X.X.X.X...X.X.X.X.X.X.X.X.X.X.X.X.X.X.X.X.X.X.X.X.X.X.X.X.X.X.A g.h.h.",
"h.h.v v X.X.X.X.X.X.X.X.X.X.%.X.X.X.X.X.%.X.X.X.X.X.X.X.X.X.X.X...X.X...X.X.X.X.X.X.X.X...X.X.X.X.X.X.X.X.X.X.X.X.X...X.X.X.A v h.h.",
"k A C C ` H H H H ` H A A A U d s - 8 r H H ` H H H d s o . . o . o o . . o d s H H H ` ` H s 8 ; s s H A Z Z H H H ` H ` H v A S k ",
"` ` ` h.0.h.0.h.h.y.y.h.y.y.f.0.h., h.0.y.h.y.h.h.y.y.h.y.c.....X.X.X.X.x.h.h.y.0.h.h.y.y.h.y.h., 0.g.h.h.0.g.h.g.h.y.h.0.h.y.` ` ` ",
"X.X.X.X.%.X.%.X.X.X.X.X.X.X.X.X.X.q X.%.X.X.X.X.X.X.X.X.%.X.X.X.X.X.X.X.X.X.X.X.X.X.X.X.X.X.X.X.q X.X.X.X.X.X.X.X.X.X.X.X.X.X.X.X.X.",
"X.X.X.X.X.X.X.X.X.X.X.X.X.X.X.X.X.H X.X.X.X.X.X.X.X.X.X.X.X.X.X.X.X.X.X.X.X.X.X.X.X.X.X.X.X.X.X.H X.X.X.X.X.X.X.X.X.X.X.X.X.X.X.X.X.",
"X.X.X.X.X.X.X.X.X.X.X.X.X.X.X.X.X.H X.X.X.X.X.X.X.X.X.X.X.X.X.X.X.X.X.X.X.X.X.X.X.X.X.X.X.X.X.X.H X.X.X.X.X.X.X.X.X.X.X.X.X.X.X.X.X.",
"X.X.X.X.X.X.X.X.X.X.X.X.X.X.X.X.X.H X.X.X.X.X.X.X.X.X.X.X.X.X.X.X.X.X.X.X.X.X.X.X.X.X.X.X.X.X.X.` X.X.X.X.X.X.X.X.X.X.X.X.X.X.X.X.X.",
"X.X.X.X.X.X.X.X.X.X.X.X.X.X.X.X.X.` X.X.X.X.X.X.X.X.X.X.X.X.X.X.X.X.X.X.X.X.X.X.X.X.X.X.X.X.X.X.H X.X.X.X.X.X.X.X.X.X.X.X.X.X.X.X.X.",
"X.X.X.X.X.X.X.X.X.X.X.X.X.X.X.X.X.s X.X.X.X.X.X.X.X.X.X.X.X.X.X.X.X.X.X.X.X.X.X.X.X.X.X.X.X.X.X.d X.X.X.X.X.X.X.X.X.X.X.X.X.X.X.X.X.",
"X.X.X.X.X.X.X.X.X.X.X.X.X.X.X.X.X.6 X.X.X.X.X.X.X.X.X.X.X.X.X.X.X.X.X.X.X.X.X.X.X.X.X.X.X.X.X.X.8 X.X.X.X.X.X.X.X.X.X.X.X.X.X.X.X.X.",
"X.% % % % % % % % % % % % % % % % % % % % X.% % % % % % % % b.b.b.b.b.b.% % % % % % % % X.% % % % % % % % % % % % % % % % % % % % X.",
"o b.b.b.b.b.b.b.b.b.b.b.b.b.b.b.b.b.b.b.b.% b.b.b.b.b.b.b.b.b.b.b.b.b.b.b.b.b.b.b.b.b.b.% b.b.b.b.b.b.b.b.b.b.b.b.b.b.b.b.b.b.b.b.o ",
"/ b.b.b.b.b.b.b.b.b.b.b.b.b.b.b.b.b.b.b.b./ b.b.b.b.b.b.b.b.b.b.b.b.b.b.b.b.b.b.b.b.b.b./ b.b.b.b.b.b.b.b.b.b.b.b.b.b.b.b.b.b.b.b./ ",
"/ b.b.b.b.b.b.b.b.b.b.b.b.b.b.b.b.b.b.b.b./ b.b.b.b.b.b.b.b.b.b.b.b.b.b.b.b.b.b.b.b.b.b./ b.b.b.b.b.b.b.b.b.b.b.b.b.b.b.b.b.b.b.b./ ",
"/ b.b.b.b.b.b.b.b.b.b.b.b.b.b.b.b.b.b.b.b./ b.b.b.b.b.b.b.b.b.b.b.b.b.b.b.b.b.b.b.b.b.b./ b.b.b.b.b.b.b.b.b.b.b.b.b.b.b.b.b.b.b.b./ ",
"/ M.M.M.M.M.M.M.M.M.M.m.M.M.M.M.M.M.M.M.M./ M.m.M.M.M.M.M.M.M.M.M.M.M.m.M.M.M.M.M.M.M.M./ M.M.m.M.M.M.M.M.M.M.M.M.M.M.m.M.M.M.M.M./ ",
"/ o.o.o.X.o.o.o.o.o.o.o.o.o.o.o.X...o.o.o./ o.o.o.o.o.o.%.o.o.o.o.o.o.o.o.o.o.o.X...O.../ o.o.o.o.o.o.o.%.o.o.o.o.o.o.o.o.o.o.o.%./ ",
"/ o.o.o.o.o.o.o.o.o.o.o.o.o.o.o.%...o.o.o./ o.o.o.o.o.o.X.o.o.o.o.o.o.o.o.o.o.o.%...o.o./ o.o.o.o.o.o.o.....o.o.o.o.o.o.o.o.o.o.../ ",
"o o.o.o.o.o.o.o.o.o.o.o.o.o.o.o.o.o.o.o.o.o o.o.o.o.o.o.o.o.o.o.o.o.o.o.o.o.o.o.o.o.o.o.o o.o.o.o.o.o.o.o.o.o.o.o.o.o.o.o.o.o.o...o ",
"o o o o o o o o o o o o o o o o o o o o o o o o o o o o o o o o o o o o o o o o o o o o o o o o o o o o o o o o o o o o o o o o o o "
};
