/* XPM */
static char *_99b35141623423dbf822596e01322ddWRrlFqmIrR9JWqS6[] = {
/* columns rows colors chars-per-pixel */
"52 79 78 1 ",
"  c None",
". c #4F2913",
"X c #502B15",
"o c #522F1A",
"O c #573A15",
"+ c #53311D",
"@ c #553522",
"# c #563926",
"$ c #5A3B27",
"% c #563B2A",
"& c #593D2C",
"* c #573F30",
"= c #583F30",
"- c #5B4216",
"; c #61511D",
": c #665C18",
"> c #695F1C",
", c #6A621F",
"< c #6F6F1C",
"1 c #72751B",
"2 c #5C412E",
"3 c #554133",
"4 c #5A4434",
"5 c #594638",
"6 c #5C4A3B",
"7 c #614634",
"8 c #614836",
"9 c #644E3D",
"0 c #66503F",
"q c #68503F",
"w c #6D5F3E",
"e c #5E4E42",
"r c #5D5246",
"t c #5E5449",
"y c #614F40",
"u c #625144",
"i c #695546",
"p c #6B5847",
"a c #62554B",
"s c #63594C",
"d c #6C5A4B",
"f c #725D4D",
"g c #645B52",
"h c #6C5F51",
"j c #665F58",
"k c #725F51",
"l c #6E6140",
"z c #666057",
"x c #6A6155",
"c c #676159",
"v c #6A645B",
"b c #6D695E",
"n c #736456",
"m c #72675A",
"M c #776C5E",
"N c #786C5E",
"B c #6E6961",
"V c #716D63",
"C c #796F60",
"Z c #736F68",
"A c #747166",
"S c #7C7265",
"D c #767469",
"F c #79766B",
"G c #7B786F",
"H c #7E7B72",
"J c #81756A",
"K c #837A6E",
"L c #837D74",
"P c #848177",
"I c #868579",
"U c #89867D",
"Y c #8B897F",
"T c #8E8D84",
"R c #918F87",
"E c #929087",
"W c #94928A",
"Q c #9A9891",
/* pixels */
"  &&22222222222228#$$$$$$$$$#$$$$$9$$$$$#$$$$$$$$%  ",
" idSMCMCCSCCCCMMNpNNNNMNMNMCNNNNNNdNMMMNNNNNNNSpdp8 ",
"dAWIIIIIIIIIIIIIInPUIUIIIIIIIIIUIInIIIIIPIUPIIIIUPb8",
"mIIIIYYYYYYYYYYYYpYYYYYYYYYYYYYRTUiYYYYYYYYTYYUIIYL0",
"JTIIIJKKPLPPPIIIUyUUIIIIIIIIILULII9IIIIILLILLJPIIITp",
"JYIII739uaszxxczc%xcjcccccvvvcjvjc&cxvxjhssa9OnIIIEf",
"JYIII8++###%#2%%&;%%%%%%%%&&=%%&%%;&%&%%%###@XnIIIEp",
"JYIII8,11111111111111111111111111111111111111-mIIITp",
"KYYYYq,11111111111111111111111111111111111111-fPLLJ9",
"qfkff2:11111111111111111111111111111111111111-qSSSS9",
"kJJNN7:11111111111111111111111111111111111111-nIIITd",
"JYIIIq,11111111111111111111111111111111111111-nIIITf",
"JYIIIq,11111111111111111111111111111111111111-nIIIEf",
"JYIII9:11111111111111111111111111111111111111-nPIIEp",
"JYIIIq,11111111111111111111111111111111111111-mUIIYf",
"JYIII9>11111111111111111111111111111111111111-mUIIEp",
"JYIII8,11111111111111111111111111111111111111-nIIIEp",
"JYIIIw,11111111111111111111111111111111111111-nIIIEp",
"JYIIPq:11111111111111111111111111111111111111-nIIIEp",
"JYIIIq>11111111111111111111111111111111111111-nIIIEp",
"JYIIIq,11111111111111111111111111111111111111-nIIIRp",
"JYYYYq:11111111111111111111111111111111111111-pPKPJq",
"fPJJJ7,11111111111111111111111111111111111111-2nnni2",
"lJNJJ7:11111111111111111111111111111111111111-nIIITp",
"JYIIIq,11111111111111111111111111111111111111-nIIIRp",
"JYIII9,11111111111111111111111111111111111111-mIIIRf",
"JYIII0;,,,,,,,,,,1,,,,,,,,,,,,,,<,1,,,,,,,,,:OmIIIRp",
"JYIIISmmNNNmMMMMMlMMNMMNNMMMNNNVNNwCMNNNMMMMnnKIIIEp",
"JYIIIIIIIIIIIIIIInIIIIIIIIIIIIIIIUxYIIIIIIIIIIIIIIEf",
"NYQIIIIIIIIIIIIIInIIIIIIIIIIIIIIIUnUIIIIIIIIIIIIIYL0",
"fGGEYYUYIUUYIUYUYnYYIIIIIIUIUIIIYYnUTUIUUUUIIUUYYIF2",
"fSLLbbBBmbVBVbBAbubVVVBBBBbbbbBBbbybvvbbvBvBvvvvvFL2",
"sHDvbBBBBBBBBBBBbuBVBbBBBBbBBBcBbvybbbcBbcbbvvbvcbI8",
"sHBBvbvBBvbBBBBBbrbBBBBBbBvvccBBvbyvcbBvbcbvvbvbbcH8",
"mABcvvbvvbvBBbvBbuBBBbBbbvBvBvBcbbybvBcBcbvbvvcccvF4",
"nVvvcvvvvvBvvvBBv9vBBvbBBvvvvvjBvvevvcbcbvvvcvvvvvA4",
"xVjcvcvvvvvvcBcvv4vvvvvvvvvvvvjBbv6vvcvcvvcvccccxcA4",
"hVcccvvcvvcvcBvvv4vvvvvvvvvvvvBjcx4vcbcBvcvcvccxxcV2",
"dbjzzczvcvcvccccv3xcvccvvvcvvvvvcv4ccjcvbccccczzczV4",
"svjjzzzzccczccczz&ccccccccvcjvjvvc4jBBcvcvcccczzzjB2",
"9jjjgccczzzccczzc%zcccccjjjjjjjjcc4ccccvxcccxzzgjhs&",
" @####%###%#%%%%%4%%%%%%%%=%%=%*&%4&%3%%%%%%#2#2%%@ ",
" .drr0rr535535555e#*35553553=5=555e55555555+55555&  ",
" .Gbvbbvt5tstttttr%5rrrrtrrtttttrrrtttttttt%sssss5  ",
" .Dbbvbbt5ttttttrr3errrrrrttttttrrtrttttttt%sssss6  ",
" .Fbbbbbt5ttgttttr35rrrrrtrrrrttttttttttttt#sssss5  ",
" XDbbbbbt6tttttttt35rrrrtttttratrttrttttttt#ttsts6  ",
" oSbbbbbttvjjjjjjjrgccccjjjjjjjjccccccccccv%sssss6  ",
" oFbmbbbl00rttstgaeajgjgjjgjaaaetrttttttrr94ssstg6  ",
" +Fbbbbbx544r0uteeeeaaajaagate=%=******33++sstszs0  ",
" oFbbbbbs0bbvvbcjBjBjBjvvvjjvva=tttgttttt#6ssstzz6  ",
" oFbVbbbssccccccjBjjjjjvjvjjjja5gatggjgts%6ssstgs6  ",
" +FMbbbViavczcccjjBjjBjjjjvjjvaeggtgggtgt%5sssxlx6  ",
" +FbbbVbusvcccccjjjjBjjjvjjjjjgetgggtgggg%6ssstxs6  ",
" +vAVbbbaavcccccjjjjjjjjjjvjvjjagttgggtgt#6sszszx6  ",
" +xAbVVViibcczccjBjjjjjjvjjvjjjagjtgtgggg#6sssxss6  ",
" +gvDAMmp+@@eeeeee==%=eee5tttatatttttt5*..5sgzxss6  ",
"  +raxxx3AZAZZZZZZZ5jjjBjBjBjBjjjjvvBjjjvB390suss9  ",
"  p908964BBBBBBBBBB5jjjjjjjjjjjjjjjjjjjjzb2%344462  ",
" #PVMAMV2VBBBBBBBBBejjjjjjjjjjjjjjjjjjjjzb2zsxxxbd  ",
" +IAVVVV=ZBBjBBBBBBejjjjjjjjjjjjjjjjjjjjzb2sxssxmn  ",
" #PAVCVA=BBBBBBBBBBtjjjjjjjjjjjjjjjjjjjjzb2zzxxzGm  ",
" +PAZZZZ6vvBBBBBBBjtjjjjjjjjjjjjjjjjjjjjzt2zzxgvGn  ",
" +PAZZSZB5*eeetrtteeaaajaattae55ettgtge524ssxxzFGn  ",
" #PAAADAx46eyeytyutgjjjjjjjjhgy=ghjjjcgsi4ihzxbFFx  ",
" +PAFADDdavjjjjjjjjjjjjjjjjjjjayjjjjjjjjc=yzxzMAFn  ",
" @IFDDDAsdcjjjjjjjjjjjjjjjjjjjgajjjjjjjjv&yxzADDGn  ",
" @IFDDFDstBjjjjjjjjjjjjjjjjjjjjajjjjjjjjc&uccADDFm  ",
" +IDFDDFdpBjjjzzjjjjjjjjjjjjjjgajjjjjjjzv49cbFDDGn  ",
" #IFDFDDspcjjjjzjjjjjjjjjjjjjjgejjjjjjjzc&uVADADFn  ",
" #UFFFFFx6yuuuuuygyyuuuuuuuuuu5=uuguuruua8gFAFDDGm  ",
" +YFFFFFFd8887668e88888877888888479887767mFAFADDGM  ",
" @TFFFFFFFDDFDDDFuDDDDFAZFDDDDDDDDpFAFDDDDDDDDDDGM  ",
" @RFFFFFFDGFDDDDFgDDDDAFFZDDDDDDDDzADADDDDDDDDDDPd  ",
" +RFFFFFDDDDDDDDDxDDDDFAZZFZDDDDDDdDDDDDDDADDDFUxe  ",
" +ILLLHGHGHHGGGFFxGGFHGGHGGHGGGGFHxGGGGGHFHGHHHmc5  ",
" XBjzzzzzzzzzzzzzaxzzzzzzzccjjjczzszzzccczzzzzzAB9  ",
" .Vzzzzjzzcczzzzz4zzzzzzzjjhjjzjcc4zjzjczzzzzzzzvs  ",
"  2%%%%%%%%%%%%%%+$%%%%%%%%%%%%%%%o%#%&#%%#%%%%%&&  "
};
