/* XPM */
static char *_e19ae03d6844b10925accc484cbe9cb3kouQGysNM7li0SG[] = {
/* columns rows colors chars-per-pixel */
"64 96 119 2 ",
"   c None",
".  c #4B2511",
"X  c #4F2913",
"o  c #502B16",
"O  c #522E1A",
"+  c #4F311E",
"@  c #55331D",
"#  c #4F3626",
"$  c #553522",
"%  c #583724",
"&  c #553827",
"*  c #5A3B27",
"=  c #563C2C",
"-  c #5B3C29",
";  c #583F31",
":  c #72751B",
">  c #5C412D",
",  c #5A4333",
"<  c #5A4639",
"1  c #5C4A3D",
"2  c #604734",
"3  c #654935",
"4  c #614E3E",
"5  c #66513F",
"6  c #5D4D42",
"7  c #5C5247",
"8  c #5E5449",
"9  c #665443",
"0  c #695645",
"q  c #62564B",
"w  c #63594C",
"e  c #645C52",
"r  c #685F55",
"t  c #665F58",
"y  c #666057",
"u  c #686155",
"i  c #676159",
"p  c #6A645C",
"a  c #6D695E",
"s  c #70675B",
"d  c #70685C",
"f  c #71685C",
"g  c #736B5F",
"h  c #6D6960",
"j  c #6E6860",
"k  c #6E6960",
"l  c #6D6A60",
"z  c #6E6A60",
"x  c #6E6A61",
"c  c #6F6A61",
"v  c #6F6B61",
"b  c #6F6A62",
"n  c #6F6C61",
"m  c #6F6C62",
"M  c #6D6861",
"N  c #706A62",
"B  c #706B62",
"V  c #706B63",
"C  c #716B63",
"Z  c #706C62",
"A  c #706D62",
"S  c #706C63",
"D  c #716C63",
"F  c #766F63",
"G  c #726F67",
"H  c #746F67",
"J  c #716D63",
"K  c #767064",
"L  c #777064",
"P  c #747266",
"I  c #787165",
"U  c #767169",
"Y  c #767269",
"T  c #76726A",
"R  c #77726A",
"E  c #76736B",
"W  c #767469",
"Q  c #78736B",
"!  c #79756D",
"~  c #7A756D",
"^  c #7A776C",
"/  c #79766E",
"(  c #7B766E",
")  c #7A776F",
"_  c #79766B",
"`  c #7B786F",
"'  c #7C7870",
"]  c #7E7B73",
"[  c #7F7C74",
"{  c #827F77",
"}  c #837F77",
"|  c #828076",
" . c #828078",
".. c #848179",
"X. c #85827A",
"o. c #868579",
"O. c #86847B",
"+. c #89877E",
"@. c #8B8A7F",
"#. c #8D8B82",
"$. c #8F8E84",
"%. c #8D8B82",
"&. c #908E85",
"*. c #908E86",
"=. c #918F87",
"-. c #908E86",
";. c #918F88",
":. c #929088",
">. c #929089",
",. c #939189",
"<. c #93918A",
"1. c #93928A",
"2. c #949289",
"3. c #94928A",
"4. c #94928B",
"5. c #97958E",
"6. c #99978F",
"7. c #9A9891",
"8. c #9C9A92",
/* pixels */
"    - - - - > > > , > 2 > > > > , > - % - 0 % * * * * * - - * * * * * * * * * * - % 9 % % - * * * * * * % - - % - * % * * *     ",
"  - L L ;.o.o.o.o.o.o.o.o.o.o.o.o.o.o.o.o.5 o.o.o.o.o.o.o.o.o.o.o.o.o.o.o.o.o.o.o.o.0 o.o.+.o.o.o.o.o.o.o.o.o.o.o.4.s f g f *   ",
"- F L =.o.o.o.o.o.o.o.o.o.o.o.o.o.o.o.o.o.5 o.o.o.o.o.o.o.o.o.O.o.o.o.o.o.o.o.o.o.o.9 o.o.o.o.o.o.o.o.o.o.o.o.o.o.o.o.o.&.g s * ",
"- g $.o.o.o.o.o.o.o.o.o.o.o.o.o.o.o.o.O.o.> o.o.o.o.o.o.o.o.o.O.o.o.o.o.o.o.o.o.o.o.- O.o.o.o.o.o.o.o.o.o.o.o.o.o.o.o.o.o.4.s * ",
"- 1.o.o.o.o.o.4.4.4.4.4.6.4.4.4.<.<.4.4.4.- 4.4.5.4.<.<.4.4.5.<.4.4.4.4.4.4.4.4.4.4.- 4.4.;.4.5.3.3.3.3.5.3.;.4.4.o.o.o.o.o.4.* ",
"- 1.o.o.o.o.o.X 9 6 9 q q w r u p t i i u o p u u u i p i i i i p p p p p u i i u p o i r p p r u u w w q 0 4 4 o o.o.o.o.o.4.- ",
"- 4.o.o.o.o.o.X 1 6 q q q q r r u p u u p o u u p u u u p i i u p r u i u u p i u i o r p p p r u u w q q q 6 4 X o.o.o.o.o.4.- ",
"- 4.o.o.o.o.o.X o o X X o X o o X X X X o : o o o o X X X X o o X X X o o o o o X X : X X X X X o o o o o o o o X o.o.o.o.o.4.- ",
"- 4.o.o.o.o.o.o : : : : : : : : : : : : : : : : : : : : : : : : : : : : : : : : : : : : : : : : : : : : : : : : X o.o.o.o.o.4.* ",
"- 4.o.o.o.o.o.@ : : : : : : : : : : : : : : : : : : : : : : : : : : : : : : : : : : : : : : : : : : : : : : : : X 4.4.4.4.4.4.- ",
"- 3.3.4.3.3.4.@ : : : : : : : : : : : : : : : : : : : : : : : : : : : : : : : : : : : : : : : : : : : : : : : : X X 9 9 9 0 o % ",
"- % 3 3 3 3 @ % : : : : : : : : : : : : : : : : : : : : : : : : : : : : : : : : : : : : : : : : : : : : : : : : X o.o.o.o.o.4.- ",
"- 4.o.o.o.o.o.@ : : : : : : : : : : : : : : : : : : : : : : : : : : : : : : : : : : : : : : : : : : : : : : : : o o.o.o.o.o.4.* ",
"- 4.o.o.o.o.o.@ : : : : : : : : : : : : : : : : : : : : : : : : : : : : : : : : : : : : : : : : : : : : : : : : o o.o.o.o.o.4.- ",
"- 4.o.o.o.o.o.@ : : : : : : : : : : : : : : : : : : : : : : : : : : : : : : : : : : : : : : : : : : : : : : : : X o.o.o.o.o.4.- ",
"- 4.o.o.o.o.o.@ : : : : : : : : : : : : : : : : : : : : : : : : : : : : : : : : : : : : : : : : : : : : : : : : X o.o.o.o.o.4.- ",
"- 4.o.o.o.o.o.@ : : : : : : : : : : : : : : : : : : : : : : : : : : : : : : : : : : : : : : : : : : : : : : : : X o.o.o.o.o.4.* ",
"- 4.o.o.o.o.o.% : : : : : : : : : : : : : : : : : : : : : : : : : : : : : : : : : : : : : : : : : : : : : : : : X o.o.o.o.o.4.- ",
"- 3.o.o.o.o.o.@ : : : : : : : : : : : : : : : : : : : : : : : : : : : : : : : : : : : : : : : : : : : : : : : : X o.o.o.o.o.4.- ",
"- 3.o.o.o.o.o.@ : : : : : : : : : : : : : : : : : : : : : : : : : : : : : : : : : : : : : : : : : : : : : : : : X o.o.o.o.o.4.- ",
"- 4.o.o.o.o.o.% : : : : : : : : : : : : : : : : : : : : : : : : : : : : : : : : : : : : : : : : : : : : : : : : X o.o.o.o.o.4.- ",
"- 5.o.o.o.o.o.@ : : : : : : : : : : : : : : : : : : : : : : : : : : : : : : : : : : : : : : : : : : : : : : : : X o.o.o.o.o.4.- ",
"- 4.o.o.o.o.o.@ : : : : : : : : : : : : : : : : : : : : : : : : : : : : : : : : : : : : : : : : : : : : : : : : X o.o.o.o.o.4.- ",
"- 4.o.o.o.o.o.@ : : : : : : : : : : : : : : : : : : : : : : : : : : : : : : : : : : : : : : : : : : : : : : : : X o.o.o.o.o.4.- ",
"% 4.o.o.o.o.o.@ : : : : : : : : : : : : : : : : : : : : : : : : : : : : : : : : : : : : : : : : : : : : : : : : X o.o.o.o.o.4.- ",
"% 4.o.o.o.o.o.@ : : : : : : : : : : : : : : : : : : : : : : : : : : : : : : : : : : : : : : : : : : : : : : : : X 4.4.4.4.4.4.- ",
"% 3.4.4.4.4.4.% : : : : : : : : : : : : : : : : : : : : : : : : : : : : : : : : : : : : : : : : : : : : : : : : X X 9 9 9 9 X - ",
"% @ 3 3 3 3 @ @ : : : : : : : : : : : : : : : : : : : : : : : : : : : : : : : : : : : : : : : : : : : : : : : : X o.o.o.o.o.4.- ",
"% 5.o.o.o.o.o.@ : : : : : : : : : : : : : : : : : : : : : : : : : : : : : : : : : : : : : : : : : : : : : : : : X o.o.o.o.o.4.- ",
"% 4.o.o.o.o.o.@ : : : : : : : : : : : : : : : : : : : : : : : : : : : : : : : : : : : : : : : : : : : : : : : : X o.o.o.o.o.4.- ",
"% 4.o.o.o.o.o.% : : : : : : : : : : : : : : : : : : : : : : : : : : : : : : : : : : : : : : : : : : : : : : : : X o.o.o.o.o.4.- ",
"% 4.o.o.o.o.o.@ : : : : : : : : : : : : : : : : : : : : : : : : : : : : : : : : : : : : : : : : : : : : : : : : X o.o.o.o.o.4.- ",
"@ 4.o.o.o.o.o.@ @ @ * * * % - % * * * * * : * * * * * * * * * * - % - - % - % - * * : * * * * * * * * * * * X X X o.o.o.o.o.4.- ",
"@ 4.o.o.o.o.o.o.o.o.o.o.o.o.o.o.o.o.o.o.o.4 o.o.o.o.o.o.o.o.o.o.o.o.o.o.o.o.o.o.o.@., @.o.o.o.o.o.o.o.o.o.o.o.o.o.o.o.o.o.o.4.- ",
"@ 7.o.o.o.o.o.o.o.o.o.o.o.o.o.o.o.o.o.o.o.5 o.o.o.o.o.o.o.o.o.o.o.o.o.o.o.o.o.o.o.@.4 @.o.o.o.o.o.o.o.o.o.o.o.o.o.o.o.o.o.o.6.- ",
"@ o.7.7.o.o.o.o.o.o.o.o.o.o.o.o.o.o.o.o.o.0 o.o.o.o.o.o.o.o.o.o.o.o.o.o.o.o.o.o.o.@.0 %.o.o.o.o.o.o.o.o.o.o.o.o.o.o.o.o.o.6.R - ",
"X ) / ( 8.8.6.4.4.4.1.1.4.1.;.;.4.2.4.6.6.0 6.6.6.4.1.$.1.$.;.1.<.<.<.<.6.4.4.6.6.6.0 6.7.4.<.<.3.3.<.4.4.4.<.4.4.4.6.7.6./ R X ",
"X / / ( 4.B a a h B B B B B C G Z Z F Z Z > B B B B B B l l h h h a h a p g j a a h , p h h h a a a a j h p j h a p p a p 6.R X ",
"X Q ~ #.h a a B h h a h B B h h Z B a Z Z , B B a B h B h l h h a p a a p a p h a a , p p h p h a h a a p p p p p a p p p 7.G X ",
"X Q } p h p j p h a B p h h h h a h h B B , h h B B h h h h h p p h h p h h p a p a , h p a h h p p p p p j h p p p p p p u 6.X ",
"X U o.j i p j j p h h h M i j j h h h B h , d h l l l M l M l l a p p p p l p p p p , p a p p p a p a p p p h p p p p p p p [ X ",
"X o.p j p p p p p M p h M h j j p a j j h , a h l l l M l p l p p h p h p l p l p l , p p h h p p p p p p p p i p p p p i i [ X ",
"X { i p i i p p p p p p i i h i h p j j p , p B l l l l p p l l a p p p p p l p p p , p p p p p p p p a p p p i p i p i p i ) X ",
". } i i p i u p p p p p i h i M p p p p p $ p p l p p p p l p p p p p p p p i p p a , p p p p p p p p p p p p p u p i p i i ) X ",
". [ i i i p p u p p p p p p p p p p p p p @ i p p p p p p p p p p p i p p i p i p p $ p p p p i p p p p p u p i i i i i u i ) X ",
". ] t y i i i i i p i p p i p p p i p p p @ p p p p p p p p p p i p p p p p p p i p @ i p i p p p p p i p i p i u i i u u i W X ",
". W u u t i i i p t p p t p p i p i i i i O i i p i y p p p p p p p i p i p i p p i $ p p p p p p i i p p i i i u u u y y y W X ",
". W e t t t i p y y y y y t i i i i i i i O i i i y i p y y i i i p p i i p i p p p + i i p i p p p i i i i i t t p y t t t P X ",
"X W t u y e y y y y u y p i i i i i i i i . i i i i i i i i i i p t t p t p t t p t $ t t p t p i i i i i i i i t y y e u y A X ",
"  X e t u u y y y y y y y i i i i i i i i X i i i i i i i p i i t p t t t t p t t t + t t p t p i i i i i i u u t t y y e y X   ",
"    . . . . . . . . . . . X . . . . . + . 8 X . X X X X . . . + . X X X o X o o o o 8 o o . . . X X X X X X X X X X X X X X     ",
"    X _ a u a a a a p X 8 8 8 8 8 8 7 8 8 8 8 # 7 7 7 7 7 7 7 7 8 8 7 7 8 8 8 7 8 8 8 8 8 8 8 e 8 8 8 8 8 X 8 w 8 w w w w X     ",
"    X ^ a a u a p a l X 8 8 8 8 8 8 8 8 8 7 7 # 7 7 8 7 7 7 7 7 8 7 7 8 7 8 7 8 7 7 8 7 8 8 8 8 8 8 8 8 w o 8 w w w 8 q w X     ",
"    X ^ a p a a p a a X e 8 e 8 8 8 8 8 8 7 7 # 8 7 7 7 7 7 7 7 8 7 7 8 8 7 8 7 8 8 7 8 8 8 8 8 8 8 8 8 8 o w w w w w w w X     ",
"    X ^ p s a p a a a . 8 8 8 8 8 8 8 8 8 8 7 # 7 7 7 7 7 7 7 7 7 8 7 8 7 8 q 7 7 7 8 7 8 8 8 8 8 8 w 8 8 X 8 w w w w w w X     ",
"    X ) a a a a a a a + 8 e 8 8 8 e 8 8 8 8 8 # 8 7 7 7 7 7 7 7 8 7 7 7 8 7 7 7 8 7 7 7 8 8 8 8 8 8 8 8 8 o e e w w w w w X     ",
"    o ^ a d a d a a a X 7 w w 8 7 7 8 8 8 8 7 # 8 7 8 8 7 8 8 8 7 8 8 8 8 8 8 8 8 8 8 8 8 8 8 8 8 8 8 8 8 X w w w w w w w X     ",
"    o ^ a a d a a a a X n y y y t t y y t t e < t i t i y t t i t t t p t t i t t t t t M t t t i i i i i X 0 w 8 w w w u X     ",
"    o ^ a a a a a a a X l y y y t t t t t e t < y i p t y y p t t t i t t t i i t t t t t t t t i i i i i X w w w w w w e X     ",
"    O P a a a a a a a a X + + , < , , , < < < < , 8 7 6 7 8 6 8 8 8 q ; ; & $ & # # # # # = = # & & & X X w e w w w w u w X     ",
"    @ ^ a a a g a a a X n A A A j h h j h h j h h h h p h h h h h h h h p h & 6 6 6 6 6 6 7 6 7 7 7 6 X w w w w w w w e e X     ",
"    @ ^ a a a a a a l X n i i i i i t i t i i i i i i i i i t t t t t i i i = 6 t 8 8 t 8 e 8 e w w w X w e w w w 0 u e u o     ",
"    O _ a a n a n a l O m i i i i i i i i i i i i i i i i i i i t i i i t p = 8 8 t e e e e e 8 e 8 w o w w w w w u e e e X     ",
"    O _ n a a n n n l + m i i i i i i i i i i i i i i i i i i i i i t t p t < e t 8 8 e e 8 e 8 e e e X w w w w w w e e w X     ",
"    O _ n n a n g a a X l i i i i i i i i i i i i i i i i i i i i i i i i i ; e e 8 e e t 8 t 8 e 8 t . 8 8 8 e w w u w e o     ",
"    O _ n n a a a Z P X Z i i i i i i i i i i i i i i i i i i i i i i i i i 7 e e e e 8 8 t 8 t 8 t 8 + e e 8 e u e w u w X     ",
"    @ u ^ a n a a a h X Z i i i i i i i i i t t i i i i i i i i i i t t i t 8 q 8 e e 8 e 8 t 8 t 8 t . e q 8 t e w u e u X     ",
"    @ e ^ n n g g Z B X Z i i i i i i i i i t t i i i i i i i i i i i t t M 8 e 8 e e e e 8 e e 8 t 8 . q q 8 t e w w e w o     ",
"    O e w _ A n C B B O + + + 6 7 6 6 6 6 6 < ; = # # 6 6 6 < < 7 7 8 7 8 7 8 7 8 8 8 8 8 8 8 ; ; X X o e q e e e u w 8 e X     ",
"      O w w ^ _ ~ ~ X R R E E U R R E R E E E E & M h M M M M t M j j j j j j h M M t M M M M M p j j C . t p t u s s s a X     ",
"      , > > > > & $ O R M M M M h M M M M M M M & t t t t t t t t t t t t t t t t t t t t t t t t t r C O O O % > & & = * @     ",
"    @ o.A A n a H C . R M M M M j M M M M M M M = t t t t t t t t t t t t t t t t t t t t t t t t t r C X e e e w u u u w X     ",
"    % o.P g A A F A o W M M M M M p M M M M M M ; t t t t t t t t t t t t t t t t t t t t t t t t t t C X e w w u u w u o..     ",
"    @ o.Z Z A A A A o W M M M M M M M M M M M M ; t t t t t t t t t t t t t t t t t t t t t t t t t t C X u u u u w 0 u o.X     ",
"    $ o.l P A P P Z o R M M h h M M M M M M M M 6 t t t t t t t t t t t t t t t t t t t t t t t t t t C X e r r u u u ^ o..     ",
"    @ o.P P P P Z P X R M M M h M M M M M M M p 6 t t t t t t t t t t t t t t t t t t t t t t t t t t C o 0 e r e e u W o.o     ",
"    $ o.L P P L P P P o a a h h M M M M M M M 6 6 t t t t t t t t t t t t t t t t t t t r t t t t t t X t r r r u u W W | X     ",
"    $ | P P P P P P P P X O ; = ; < < < 6 ; 6 6 6 8 7 7 7 8 8 8 6 6 6 7 ; ; & = , 8 8 8 7 7 q ; ; . . t e e u u u u W W | X     ",
"    $ | P P P P P P P X q q q q q q 8 q q q q 8 p j j M p j j j i j M h h h & i M M j h j h h p M M C o u u u u u P W W | X     ",
"    $ o.R P W P P P _ o Z i t t t t t t t t t t t t t t t t t t t t t t t t = t t t t t t t t t t t C X u u u u u I W W | X     ",
"    $ O._ P _ P W R W X m t t t t t t t t t t t t t t t t t t t t t t t t t q t t t t t t t t t y y A X u u u u W W W P | X     ",
"    $ O._ W _ W W W W X m t t t t t t t t t t t t t t t t t t t t t t t t t 7 t t t t t t t t t y y A X u i s u W W W W | X     ",
"    @ o.W W _ _ W W W X m t t t t t t t t t t t t t t t t t t t t t t t t t 7 t t t t t t t t t y y A X u u u W W W W W | X     ",
"    $ O.W _ P _ W W E X m t t y t t t t t t t t t t t t t t t t t t t t t t 7 t t t t t t t t t y y A o u a i W P _ W W | X     ",
"    $ o._ _ W W _ W W X A y y y t t t t t t t t t t t t t t t t t t t t y y , y t t t t t t t t t t m X s P W W W W _ P | X     ",
"    $ O._ ^ _ _ _ _ ^ X y y y y t t t t t t t t t t t t t t t t t t t t y y & y t t t t t t i u t t m X i W W W _ P W W | X     ",
"    $ #._ _ _ _ _ _ _ _ @ @ @ @ @ @ @ @ @ t @ @ @ O @ @ @ O @ @ @ @ @ @ @ @ @ @ @ @ t @ @ @ @ @ @ @ $ R W W W W W W _ P #.X     ",
"    $ #._ _ ) _ _ _ W _ _ _ W _ R R R R R X U U _ I _ Q Q Q Q U W W W W W W W W R W @ W L W P W R W W W W W W W W P _ W #.X     ",
"    $ #.W ^ ^ ^ _ ) _ W _ _ W W W W W W W 9 W W P W W W W W W W W W W W W W W W W W 9 W W W W W P W W W W W W W W W W P #.X     ",
"    @ =.) ^ ^ ^ _ _ W ) W _ ) W _ W W W W 9 W W P _ W W W W W W W W W W W W W W W W 9 W W W W W W W W W W W W W W W W #.p X     ",
"    $ =.) E _ _ _ _ W _ _ ) W W W W W W W 9 W W W W W W W R W W W W W W W W W W W W 9 W W W W W W W W W W W W W P W +.i i X     ",
"    $ =.#.$.$.#.+.+.O.O.o.O.o.O.O.O.O.O.O.9 O.O.o.o.o.O.O.O.o.o.O.O.O.O.o.O.O.O.O.O.9 O.O.O.O.O.o.o.O.O.O.o.o.%.%.#.p i 7 X     ",
"    o Z u y y y y y y y y y y y i y y y y 9 y y y y y y i i t u y y y y y y y y y y 9 y y y y y y y y y i y y y y y ) ) 7 X     ",
"    X h i y y y y y y y y y y y i y y y y 9 y y y y y y u t y y y y y y y y y y y y 9 y y y y y y y y y y y y y y t u y ) X     ",
"    X l y y y y y y y y y y y y y y y y y X y y y y y y y y t y y y y y y y y y y y X y y y y y y y y y y y y y t u i u Z X     ",
"      X X X X X X X X X X X X X X X X X X X X X X X X X X X X X X X X X X X X X X X X X X X X X X X X X X X X X X X X X X       "
};
