/* XPM */
static char *result[] = {
/* columns rows colors chars-per-pixel */
"42 50 65 1 ",
"  c #4D2712",
". c #4F2812",
"X c #522B14",
"o c #532F18",
"O c #5A3117",
"+ c #56321A",
"@ c #5A351D",
"# c #5E391E",
"$ c #603A1F",
"% c #5B3720",
"& c #5E3A21",
"* c #623D23",
"= c #644126",
"- c #664529",
"; c #69462A",
": c #67482B",
"> c #6A4A2D",
", c #6C4E31",
"< c #644F3C",
"1 c #704E31",
"2 c #6E5234",
"3 c #66523F",
"4 c #6C563E",
"5 c #715537",
"6 c #765837",
"7 c #735738",
"8 c #755A3A",
"9 c #795E3E",
"0 c #7A603F",
"q c #675240",
"w c #695642",
"e c #6C5A46",
"r c #6D5C48",
"t c #715C45",
"y c #7A5F40",
"u c #715E48",
"i c #7D6241",
"p c #74624C",
"a c #756551",
"s c #786751",
"d c #7B6A55",
"f c #7E6E5A",
"g c #7F705B",
"h c #7F7262",
"j c #806545",
"k c #836947",
"l c #856B4B",
"z c #886E4E",
"x c #8A714F",
"c c #876E50",
"v c #886F51",
"b c #8C7455",
"n c #81715C",
"m c #907756",
"M c #907857",
"N c #947C5D",
"B c #847562",
"V c #867966",
"C c #897B67",
"Z c #8C7F6C",
"A c #977F61",
"S c #8E806C",
"D c #9A8365",
"F c #938574",
"G c None",
/* pixels */
"GGGGGGGGGGGGGGG>1>11$11111GGGGGGGGGGGGGGGG",
"GGGGGGGGGGG;1;*xzxzzOlzlll$===GGGGGGGGGGGG",
"GGGGGGGGG1;mmm$zxxzkOzzkll$999*=GGGGGGGGGG",
"GGGGGGG*$bmmmM$DDNNN$NNDDxO999y6O&GGGGGGGG",
"GGGGGG;l$zDDDD$6696k$99690@bbvm7*5&GGGGGGG",
"GGGGG>zz$A6vkk$ij66j$99iij*;;jyb*12&GGGGGG",
"GGGG;kzN$66zji$iii6i;99iii;-lyyy=c55@GGGGG",
"GGGG;lN9$6zkjj;iiiij;6iiii;kyjyy-yl5%GGGGG",
"GGG=yb86*6cjjj*iii0j;0iiii>0i00y>i9z2@GGGG",
"GGG;b899=kjjjj>i0ii0;iiiii>i00yy>0i0l@GGGG",
"GG;yb698>ijjjj>y000j;0iiii>iy9yi>900c,@GGG",
"GG*c8869>iijjj>y000j;jjiii>iiii05000yboGGG",
"GG-z8888>jjjjj;y00ij;kiii01yii9020999b+GGG",
"GG@68866>ijk*j1yii9j>kiiij;9*i00,90999XGGG",
"GG@@@$*$****Z*19009j>kjiii1*F***$#@@@@XGGG",
"GG+fdnnnBBBBnZ*j000j;kiiii*FdBnnfnngddXGGG",
"GGOttippddddddZ=0y9j:kii0=FdssspupupwwXGGG",
"GGottpppssddcdOy99yy;kii0jXddsppppputtXGGG",
"GGOXXXoXXOoOdo,y99yi;k0jji;OsOXXXXXXXXXGGG",
"GGo;==;:$;>>o,,y999j;kji0i>>X>>>>>>:;:XGGG",
"GGo67877&9ii>,,y99yy;liiii>i>009277777XGGG",
"GGX67887=yy9y,,y9y8j;ciiii:i0090277777XGGG",
"GGo67787>yy9y>,y98yj;lyiii>i0909277777XGGG",
"GGX77777>i98y>,8899y-lii0i>i9009277772XGGG",
"GGX77777>y8y8y,y999i-z00i0>ii808,77277XGGG",
"GGX77777>y8888,8888i-z000i,i898i,72772oGGG",
"GGX77777:y8888,888@$&*$00020088i,55525oGGG",
"GGo77777,y8786,88&SCZCC#002089t8,22722.GGG",
"GGX77557,y6777,88%pappp#002i8088-22227XGGG",
"GG.25755,y7777,88@ppXpp@79,08888-42222 GGG",
"GG.75575>y5757,66XtuXurX77208888-22222.GGG",
"GGX27575,y7575,76X44444.87>00888-22,22XGGG",
"GG.77727>i77&7>77:...o.:07,0$008-2,,22.GGG",
"GG.+OO@%&%#&S&,787::+::777,&S#@@#@@+++.GGG",
"GG.ssfdfBBBBaZ&77877=07750&Saggdddfdad.GGG",
"GGXw4uuupppassC&5877=7777&Saaaprurrr44.GGG",
"GG.4wruupaadssX75547=77775.appprrrrt44.GGG",
"GG...X..X...aX=75577=77755-.r.  .......GGG",
"GG.**=--@:::.:*25555=55255&:.---=-==&* GGG",
"GG.22,,2@252:5*75555#72252&0:070=,,:2, GGG",
"GG 22,22*52525&52277%24224&88888&,<>,, GGG",
"GG.2222<&42554*54w22+22227&7t878&,,>,, GGG",
"GG.o+@&&&#%%%%++ooo ooo+@@@%@@%+@ooo   GGG",
"GG.pppaaasaadadddahh hhffaddaaaaaaapaa GGG",
"GG.BhhShShhhhSSSVZFF FFSZSZVVVVVVVVVBB GGG",
"GG.3333wqqerrreerrra arreerrewwwq<<<<< GGG",
"GG.3333w3qwweeeerrra arrrrerrewww<<<<<.GGG",
"GG.3333wwwwwwweerrra arrrrrewwwwwqw<<3.GGG",
"GG.<<<wwwwwweeeeeera arrrrrreewwwwww<< GGG",
"GG........... ..      X    X           GGG"
};
