/* XPM */
static char *_fb2ff1410ab462ff4f1e01bc526fd940dka6Av1gf8lB9qC[] = {
/* columns rows colors chars-per-pixel */
"21 96 239 2 ",
"   c None",
".  c #4B2511",
"X  c #4C2611",
"o  c #4D2712",
"O  c #4E2812",
"+  c #4F2913",
"@  c #502A15",
"#  c #502C16",
"$  c #502D18",
"%  c #512D18",
"&  c #512E19",
"*  c #522E19",
"=  c #512F1B",
"-  c #522E1A",
";  c #522F1A",
":  c #53301A",
">  c #52301C",
",  c #52301D",
"<  c #52311D",
"1  c #54321D",
"2  c #55321D",
"3  c #56321C",
"4  c #54331F",
"5  c #56331E",
"6  c #55341F",
"7  c #56341E",
"8  c #56341F",
"9  c #533320",
"0  c #563521",
"q  c #573521",
"w  c #583723",
"e  c #583724",
"r  c #593A26",
"t  c #583A27",
"y  c #593B27",
"u  c #5A3B27",
"i  c #573E2F",
"p  c #593B28",
"a  c #593C29",
"s  c #5A3C28",
"d  c #5A3C29",
"f  c #5B3C29",
"g  c #5B3D29",
"h  c #5B3F2D",
"j  c #72751B",
"k  c #5B402D",
"l  c #5D402C",
"z  c #5C402D",
"x  c #5D412E",
"c  c #5E422F",
"v  c #5E4330",
"b  c #5D4432",
"n  c #594435",
"m  c #5A4436",
"M  c #5A4639",
"N  c #5A463A",
"B  c #5A473A",
"V  c #5B473A",
"C  c #5F4E3F",
"Z  c #654935",
"A  c #5F4F40",
"S  c #5F4F41",
"D  c #5D4D42",
"F  c #5D4E42",
"G  c #5F5041",
"H  c #5E5349",
"J  c #5E5449",
"K  c #5E544A",
"L  c #5E554A",
"P  c #5F554A",
"I  c #5E554B",
"U  c #5F554B",
"Y  c #5E574B",
"T  c #5E554C",
"R  c #5F554C",
"E  c #5E564C",
"W  c #5F564D",
"Q  c #635549",
"!  c #62554B",
"~  c #63564A",
"^  c #64574B",
"/  c #60584C",
"(  c #64584D",
")  c #635C50",
"_  c #645D51",
"`  c #655E52",
"'  c #655F53",
"]  c #655E55",
"[  c #655F55",
"{  c #655F56",
"}  c #655F57",
"|  c #665F56",
" . c #665F57",
".. c #685F56",
"X. c #665F58",
"o. c #666057",
"O. c #686057",
"+. c #666058",
"@. c #676058",
"#. c #666158",
"$. c #676158",
"%. c #676159",
"&. c #676258",
"*. c #676259",
"=. c #686158",
"-. c #686159",
";. c #686259",
":. c #686359",
">. c #696359",
",. c #68625A",
"<. c #69625A",
"1. c #68635A",
"2. c #69635A",
"3. c #69635B",
"4. c #6A635B",
"5. c #68645A",
"6. c #69645B",
"7. c #6A645B",
"8. c #69645C",
"9. c #6A645C",
"0. c #6B645C",
"q. c #6A655C",
"w. c #6B655C",
"e. c #6A655D",
"r. c #6B655D",
"t. c #6A665D",
"y. c #6B665D",
"u. c #6B665E",
"i. c #6C665D",
"p. c #6C665E",
"a. c #6C675E",
"s. c #6D675F",
"d. c #6C685C",
"f. c #6D685C",
"g. c #6D685D",
"h. c #6C695D",
"j. c #6D695D",
"k. c #6C685E",
"l. c #6D695E",
"z. c #6D685F",
"x. c #6D695F",
"c. c #6E695E",
"v. c #6D6A5F",
"b. c #6E6A5E",
"n. c #6E6A5F",
"m. c #6F6A5F",
"M. c #6E6B5F",
"N. c #6F6B5F",
"B. c #736B5F",
"V. c #6D6960",
"C. c #6D6861",
"Z. c #6E6960",
"A. c #6D6A60",
"S. c #6E6A60",
"D. c #6F6B60",
"F. c #6E6A61",
"G. c #6F6A61",
"H. c #6F6B61",
"J. c #6F6A62",
"K. c #6F6C60",
"L. c #6F6C61",
"P. c #6F6C62",
"I. c #706B60",
"U. c #706A62",
"Y. c #706B62",
"T. c #706B63",
"R. c #716B63",
"E. c #706C60",
"W. c #706C61",
"Q. c #706D61",
"!. c #706C62",
"~. c #706D62",
"^. c #706C63",
"/. c #716C63",
"(. c #716E62",
"). c #726E62",
"_. c #726F63",
"`. c #736F63",
"'. c #766F63",
"]. c #737064",
"[. c #737065",
"{. c #737166",
"}. c #767064",
"|. c #777064",
" X c #747166",
".X c #747266",
"XX c #757266",
"oX c #757367",
"OX c #787165",
"+X c #757368",
"@X c #767368",
"#X c #77726A",
"$X c #76736B",
"%X c #767469",
"&X c #77756A",
"*X c #76726C",
"=X c #78736B",
"-X c #78756A",
";X c #78766A",
":X c #79766A",
">X c #78766B",
",X c #79766B",
"<X c #79756D",
"1X c #7A756D",
"2X c #79776C",
"3X c #7A776C",
"4X c #7B766E",
"5X c #7C7870",
"6X c #7E7B73",
"7X c #7F7C74",
"8X c #827F77",
"9X c #837F77",
"0X c #838177",
"qX c #828078",
"wX c #838178",
"eX c #848179",
"rX c #848278",
"tX c #85827A",
"yX c #868579",
"uX c #86847B",
"iX c #87857C",
"pX c #89877E",
"aX c #8C8A81",
"sX c #8D8B82",
"dX c #8D8B83",
"fX c #8E8C84",
"gX c #8F8E84",
"hX c #908E86",
"jX c #918F87",
"kX c #939189",
"lX c #93918A",
"zX c #93928A",
"xX c #949289",
"cX c #94928A",
"vX c #94928B",
"bX c #97958E",
"nX c #99978F",
"mX c #9A9891",
"MX c #9C9A92",
/* pixels */
"    d d u d z z z v v v v z z v z h f f s ",
"  d |.OXjXyXyXyXyXyXyXyXyXyXyXyXyXyXyXyXyX",
"d '.|.jXyXyXyXyXyXyXyXyXyXyXyXyXyXyXyXyXyX",
"d B.gXyXyXyXyXyXyXyXyXyXyXyXyXyXyXyXyXyXyX",
"d zXyXyXyXyXyXvXxXxXvXvXvXvXvXvXvXvXvXvXvX",
"d vXyXyXyXyXyX@ Q C Q Q ( ( O.O.$.>.>.$.>.",
"f vXyXyXyXyXyXO C C Q Q ~ ~ ..O.O.>.$.>.>.",
"f vXyXyXyXyXyX@ O O O @ @ @ @ @ O @ O @ O ",
"d vXyXyXyXyXyXO j j j j j j j j j j j j j ",
"f vXyXyXyXyXyX5 j j j j j j j j j j j j j ",
"f vXvXvXvXvXvX0 j j j j j j j j j j j j j ",
"f w Z Z Z Z 7 7 j j j j j j j j j j j j j ",
"f vXyXyXyXyXyX7 j j j j j j j j j j j j j ",
"f vXyXyXyXyXyX7 j j j j j j j j j j j j j ",
"f vXyXyXyXyXyX7 j j j j j j j j j j j j j ",
"f vXyXyXyXyXyX7 j j j j j j j j j j j j j ",
"f vXyXyXyXyXyX5 j j j j j j j j j j j j j ",
"f vXyXyXyXyXyX7 j j j j j j j j j j j j j ",
"f vXyXyXyXyXyX0 j j j j j j j j j j j j j ",
"f vXyXyXyXyXyX5 j j j j j j j j j j j j j ",
"d vXyXyXyXyXyX7 j j j j j j j j j j j j j ",
"f vXyXyXyXyXyX0 j j j j j j j j j j j j j ",
"f vXyXyXyXyXyX5 j j j j j j j j j j j j j ",
"f vXyXyXyXyXyX7 j j j j j j j j j j j j j ",
"e vXyXyXyXyXyX0 j j j j j j j j j j j j j ",
"w vXyXyXyXyXyX7 j j j j j j j j j j j j j ",
"w vXvXvXvXvXvX5 j j j j j j j j j j j j j ",
"w w Z Z Z Z 7 0 j j j j j j j j j j j j j ",
"w vXyXyXyXyXyX5 j j j j j j j j j j j j j ",
"e vXyXyXyXyXyX5 j j j j j j j j j j j j j ",
"e vXyXyXyXyXyX0 j j j j j j j j j j j j j ",
"e vXyXyXyXyXyX5 j j j j j j j j j j j j j ",
"7 zXyXyXyXyXyX0 : : u u u u u u u u u u f ",
"5 zXyXyXyXyXyXyXyXyXyXyXrXyXyXyXyXyXyXyXyX",
"5 nXrXyXyXyXyXyXyXyXyXyXyXyXyXyXyXyXyXyXyX",
"5 eXMXMXyXyXyXyXyXyXyXyXyXyXyXyXyXyXyXyXyX",
"O 5X<X<XMXMXbXzXzXzXzXzXzXzXzXvXzXzXvXnXnX",
"O <X<X5XzXc.J.c.J.Y.Y.Y.P.J.Y.Y.Y.P./.Y.P.",
"o =X<XdXJ.k.k.k.c.J.J.p.J.J.J.J.c.J.Y.P.J.",
"o =XrXp.k.k.p.J.c.p.C.c.k.J.c.c.J.J.Y.c.J.",
"O =X9Xu.7.7.p.p.p.p.p.p.C.p.J.c.c.J.J.Y.c.",
"O eXu.u.7.p.7.p.u.p.c.p.p.p.p.p.c.k.p.p.c.",
"O 9X7.u.$.8.7.7.u.8.u.8.p.u.u.u.u.u.u.u.u.",
"O 9X7.$.7.>.>.7.8.8.8.8.7.7.>.8.8.8.u.u.u.",
"O 6XO.o.$.5.5.$.>.8.8.>.u.$.8.8.u.$.u.,.>.",
"O 6Xo.o.$.$.$.>.8.8.>.8.$.u.,.8.$.u.$.u.u.",
"o $X} } $.$.$.$.$.$.,.8.$.,.,.,.$.,.,.,.$.",
"X $X} } } X.$.$.$.$.$.$.,.$.,.$.,.$.$.$.$.",
"O &X} } o.o.o.o.o.o.$.$.$.$.,.$.>.$.$.$.$.",
"  O ` } o.o.` o.$.$.$.$.$.$.$.,.o.o.$.$.,.",
"    o . . . . X X X X X X X . . . . . . o ",
"    O ,Xd.d.d.d.p.f.7.O T T T T I I H K K ",
"    O 3Xf.f.d.d.d.d.c.O T T T I I K K K K ",
"    @ 3Xd.f.d.d.d.f.c.O T T I I I K K K K ",
"    O 3Xd.d.d.d.d.d.k.O T ! I I ! K K K K ",
"    @ <Xd.k.d.k.d.k.k.+ T T T I I K K K K ",
"    + 3Xd.c.f.c.h.h.h.@ Y T T ! I K K K K ",
"    # 3Xc.d.c.f.h.h.h.+ /.o.o.$.} } } } } ",
"    # 3Xd.c.c.c.h.c.h.O J.} } } } } } X.} ",
"    & 3Xc.d.c.c.B.c.h.B.O < < n n n n n n ",
"    : 2Xh.B.h.c.c.c.c.+ P.^.^.^.C.C.u.C.c.",
"    : 2Xh.h.h.P.h.c.c.+ P.$.,.$.,.$.$.$.>.",
"    : 2Xh.P.h.h.h.P.c.& J.,.$.,.X.,.$.$.X.",
"    : 2XB.h.P.B./.h.J.= P.$.,.$.,.$.,.$.$.",
"    & 3XB.h.B.h.h.].h.+ (.5.,.$.,.$.,.X.+.",
"    : ,Xh.P.h./.h.B.B.+ P.$.$.,.X.,.+.,.,.",
"    & } 2Xh.B.h.h./.P.+ P.$.,.$.,.+.,.+.+.",
"    : ` 3X/.h.].P.h.B.O P.$.$.,.+.,.+.,.,.",
"    : ) o.3XB.h.P./.h.: = = 9 D D D D D D ",
"      : / Y 3X3X3X3X@ &X*X*X*X*X*X*X*X*X*X",
"      v k k k s u 1 = *XJ.C.C.C.C.C.C.C.C.",
"    0 yXh.].B.]././.o *XC.C.C.C.C.C.C.C.C.",
"    0 eXB.(.].].].h.@ &XC.C.C.C.C.C.C.C.C.",
"    0 yX]./.h.].B.].+ $XC.C.C.C.C.C.C.C.C.",
"    0 0X].].].]./.].+ *XC.C.C.C.C.C.C.C.C.",
"    0 0X/.{.].{.].{.+ *XC.C.C.C.C.C.C.C.C.",
"    0 0X{.|.{.|.{.{.oXO A.A.C.C.C.C.C.C.J.",
"    0 eXoX{.oX{.|.oXoX&XO = i i i N N N N ",
"    0 0XoX|.oXoXoXoXoXO ! ! ! ! ! ! ! ! T ",
"    0 eX&X{.+X+XoXoXoXO J.$.X.X.X.X.X.X.+.",
"    0 eX|.&X&XoXoXoX|.@ ^.X.X.X.X.X.X.X.X.",
"    0 uX&X&X&X&X&X&X&XO ^.X.X.X.X.X.X.X...",
"    0 uX&X&X&X&X&X&XoX@ ^.X.X.X.X.X.X.X.} ",
"    0 uX&X&X&X&X&X&X$X@ ^.X.X.X.X.X.X.X.} ",
"    0 uX&X,X&X,X&X&X,XO Y.X.X.X.X.X.X.X.X.",
"    0 uX,X2X,X,X&X,X,XO } >.X.X.X.X.$.o.X.",
"    0 sX2X2X2X2X2X&X,X&X5 : 5 5 5 5 : : 5 ",
"    0 aX2X2X2X2X2X2X&X2X&X&X&X&X&X&X&X$X$X",
"    0 aX,X3X>X2X2X2X>X>X>X>X&X&X&X&XoX$X&X",
"    0 zX,X<X2X2X2X2X>X>X>X>X&X&X&X&X&X&X|.",
"    0 gX2X$X2X2X2X>X$X$X>X$X3X&X&X&X&X&X&X",
"    0 jXgXgXgXsXpXpXuXyXyXuXyXuXeXyXuXuXuX",
"    O J.$.o.o.o.o.o.o.o.o.o.o.o.$.o.o.o.o.",
"    O J.$.} o.o.o.o.o.o.o.o.o.o.o.o.o.o.} ",
"    + ^.o.$.o.o.$.$.o.$.o.o.$.o.o.$.o.o.} ",
"      + O + + O + + O + + O + + O + O O @ "
};
