/* XPM */
static char *_a57e9262b794ccdb72c6bd7ae977d52b80Jxa1lAtxPbftq[] = {
/* columns rows colors chars-per-pixel */
"20 96 232 2 ",
"   c None",
".  c #4B2511",
"X  c #4C2611",
"o  c #4D2712",
"O  c #4E2812",
"+  c #4F2913",
"@  c #502A15",
"#  c #502C16",
"$  c #502D18",
"%  c #512D18",
"&  c #512E19",
"*  c #522E19",
"=  c #512F1B",
"-  c #522E1A",
";  c #522F1A",
":  c #53301A",
">  c #52301C",
",  c #52301D",
"<  c #52311D",
"1  c #54321D",
"2  c #55321D",
"3  c #56321C",
"4  c #54331F",
"5  c #56331E",
"6  c #55341F",
"7  c #56341E",
"8  c #56341F",
"9  c #533320",
"0  c #563521",
"q  c #573521",
"w  c #583723",
"e  c #583724",
"r  c #593A26",
"t  c #583A27",
"y  c #593B27",
"u  c #5A3B27",
"i  c #573E2F",
"p  c #593B28",
"a  c #593C29",
"s  c #5A3C29",
"d  c #5B3C29",
"f  c #5B3D29",
"g  c #5B3F2D",
"h  c #72751B",
"j  c #5B402D",
"k  c #5D402C",
"l  c #5C402D",
"z  c #5D412E",
"x  c #5E422F",
"c  c #5E4330",
"v  c #5D4432",
"b  c #594435",
"n  c #5A463A",
"m  c #5A473A",
"M  c #5B473A",
"N  c #5F4E3F",
"B  c #654935",
"V  c #5F4F40",
"C  c #5F4F41",
"Z  c #5D4D42",
"A  c #5D4E42",
"S  c #5F5041",
"D  c #5E5349",
"F  c #5E544A",
"G  c #5E554A",
"H  c #5F554A",
"J  c #5E554B",
"K  c #5F554B",
"L  c #5E574B",
"P  c #5E554C",
"I  c #5F554C",
"U  c #5E564C",
"Y  c #5F564D",
"T  c #635549",
"R  c #62554B",
"E  c #63564A",
"W  c #64574B",
"Q  c #60584C",
"!  c #64584D",
"~  c #635C50",
"^  c #645D51",
"/  c #655E52",
"(  c #655F53",
")  c #655E55",
"_  c #655F55",
"`  c #655F56",
"'  c #655F57",
"]  c #665F56",
"[  c #665F57",
"{  c #685F56",
"}  c #665F58",
"|  c #666057",
" . c #686057",
".. c #666058",
"X. c #676058",
"o. c #666158",
"O. c #676158",
"+. c #676159",
"@. c #676258",
"#. c #676259",
"$. c #686158",
"%. c #686159",
"&. c #686259",
"*. c #686359",
"=. c #68625A",
"-. c #69625A",
";. c #68635A",
":. c #69635A",
">. c #69635B",
",. c #6A635B",
"<. c #68645A",
"1. c #69645B",
"2. c #6A645B",
"3. c #69645C",
"4. c #6A645C",
"5. c #6B645C",
"6. c #6A655C",
"7. c #6B655C",
"8. c #6A655D",
"9. c #6B655D",
"0. c #6A665D",
"q. c #6B665D",
"w. c #6B665E",
"e. c #6C665D",
"r. c #6C665E",
"t. c #6C675E",
"y. c #6D675F",
"u. c #6C685C",
"i. c #6D685C",
"p. c #6D685D",
"a. c #6C695D",
"s. c #6D695D",
"d. c #6C685E",
"f. c #6D695E",
"g. c #6D685F",
"h. c #6D695F",
"j. c #6E695E",
"k. c #6D6A5F",
"l. c #6E6A5E",
"z. c #6E6A5F",
"x. c #6F6A5F",
"c. c #6E6B5F",
"v. c #6F6B5F",
"b. c #736B5F",
"n. c #6D6960",
"m. c #6D6861",
"M. c #6E6960",
"N. c #6D6A60",
"B. c #6E6A60",
"V. c #6F6B60",
"C. c #6E6A61",
"Z. c #6F6A61",
"A. c #6F6B61",
"S. c #6F6A62",
"D. c #6F6C60",
"F. c #6F6C61",
"G. c #706B60",
"H. c #706A62",
"J. c #706B62",
"K. c #706B63",
"L. c #716B63",
"P. c #706C60",
"I. c #706C61",
"U. c #706D61",
"Y. c #706D62",
"T. c #706C63",
"R. c #716C63",
"E. c #716E62",
"W. c #726E62",
"Q. c #726F63",
"!. c #736F63",
"~. c #766F63",
"^. c #737064",
"/. c #737065",
"(. c #737166",
"). c #767064",
"_. c #777064",
"`. c #747166",
"'. c #747266",
"]. c #757266",
"[. c #757367",
"{. c #787165",
"}. c #757368",
"|. c #767368",
" X c #77726A",
".X c #76736B",
"XX c #767469",
"oX c #77756A",
"OX c #76726C",
"+X c #78736B",
"@X c #78756A",
"#X c #78766A",
"$X c #79766A",
"%X c #78766B",
"&X c #79766B",
"*X c #79756D",
"=X c #7A756D",
"-X c #79776C",
";X c #7A776C",
":X c #7B766E",
">X c #7C7870",
",X c #7E7B73",
"<X c #7F7C74",
"1X c #827F77",
"2X c #837F77",
"3X c #838177",
"4X c #828078",
"5X c #838178",
"6X c #848179",
"7X c #848278",
"8X c #85827A",
"9X c #868579",
"0X c #86847B",
"qX c #87857C",
"wX c #89877E",
"eX c #8C8A81",
"rX c #8D8B82",
"tX c #8D8B83",
"yX c #8E8C84",
"uX c #8F8E84",
"iX c #908E86",
"pX c #918F87",
"aX c #939189",
"sX c #93918A",
"dX c #93928A",
"fX c #949289",
"gX c #94928A",
"hX c #94928B",
"jX c #97958E",
"kX c #99978F",
"lX c #9A9891",
"zX c #9C9A92",
/* pixels */
"u f k k k c k c c c c c g k f a d d     ",
"9X9X9X9X9X9X9X9X9X9X9X9X9X9X9XpX{._.f   ",
"9X9X9X9X9X9X9X9X9X9X9X9X9X9X9X9XiX_.~.d ",
"9X9X9X9X9X9X9X9X9X9X9X9X9X9X9X9X9XiXG.a ",
"hXhXgXgXhXhXhXhXhXhXhXgXhX9X9X9X9X9XgXa ",
";.;.;. .{ { W W T T C C + 9X9X9X9X9XhXd ",
";.;. . .;.{ W W T T C C + 9X9X9X9X9XhXd ",
"O @ O @ o @ @ O + + + + + 9X9X9X9X9XhXd ",
"h h h h h h h h h h h h + 9X9X9X9X9XhXd ",
"h h h h h h h h h h h h 0 9X9X9X9X9XhXd ",
"h h h h h h h h h h h h 0 gXhXhXhXhXhXd ",
"h h h h h h h h h h h h 5 8 B B B B q d ",
"h h h h h h h h h h h h 8 9X9X9X9X9XhXd ",
"h h h h h h h h h h h h 8 9X9X9X9X9XhXd ",
"h h h h h h h h h h h h 8 9X9X9X9X9XhXd ",
"h h h h h h h h h h h h 8 9X9X9X9X9XhXd ",
"h h h h h h h h h h h h 8 9X9X9X9X9XhXd ",
"h h h h h h h h h h h h 8 9X9X9X9X9XhXd ",
"h h h h h h h h h h h h 8 9X9X9X9X9XgXa ",
"h h h h h h h h h h h h 8 9X9X9X9X9XhXf ",
"h h h h h h h h h h h h 8 9X9X9X9X9XhXd ",
"h h h h h h h h h h h h 8 9X9X9X9X9XhXd ",
"h h h h h h h h h h h h 8 9X9X9X9X9XhXd ",
"h h h h h h h h h h h h 8 9X9X9X9X9XhXd ",
"h h h h h h h h h h h h 5 9X9X9X9X9XhXe ",
"h h h h h h h h h h h h 0 9X9X9X9X9XgXw ",
"h h h h h h h h h h h h 8 gXhXgXgXgXhXe ",
"h h h h h h h h h h h h 8 8 B B B B w e ",
"h h h h h h h h h h h h 8 9X9X9X9X9XhXe ",
"h h h h h h h h h h h h 8 9X9X9X9X9XhXe ",
"h h h h h h h h h h h h 8 9X9X9X9X9XgXe ",
"h h h h h h h h h h h h 8 9X9X9X9X9XhXe ",
"u u u u u u u u u y 8 : 8 9X9X9X9X9XsX5 ",
"9X9X9X9X9X9X9X9X9X9X9X9X9X9X9X9X9X9XgX5 ",
"9X9X9X9X9X9X9X9X9X9X9X9X9X9X9X9X9X9XlX5 ",
"9X9X9X9X9X9X9X9X9X9X9X9X9X9X9X9XlXlX5X5 ",
"kXhXsXsXgXgXsXsXsXgXgXgXhXkXzXzX;X:X:X@ ",
"G.L.R.P.R.R.G.L.m.P.P.m.m.d.d.hX:X;X*X+ ",
"P.P.m.P.G.m.G.P.m.G.m.F.d.m.d.d.eX*X*Xo ",
"F.m.F.m.F.d.m.m.d.d.d.m.b.d.d.r.r.2X+Xo ",
"m.F.d.m.d.d.d.m.r.m.r.d.r.r.r.r.r.2X.XO ",
"m.m.m.d.m.d.r.r.m.9.9.9.9.9.-.r.r.9.5XO ",
"r.9.9.9.r.9.r.r.9.9.r.,.<.,.,.;.9.9.2XO ",
"r.9.9.9.;.r.;.;.9.,.,.,.<.<.;.;.#.<.2XO ",
"3.3.,.=.;.,.,.9.;.;.,.-.;.;.;.;.| ;.<XO ",
"3.9.=.,.;.,.;.;.;.;.;.;.;.;. .;.| ) ,Xo ",
"#.#.=.=.{ ;.;.;.;.;.;.;.}  .;.) ) #..X. ",
"#.#.,.} #.#.#.;.;.;.) | #.| ) | ) ) .Xo ",
"#.#.} #.} #.#.} ;.} ) #.} ) ) ;.| ) .XO ",
"} #.} #.#.#.} ;.} ;.;.) ) #.) ) ) ) O   ",
". . + . . . . o o o . . . . o . o .     ",
"F D F F F P P P o r.i.i.<.i.i.r.;XO     ",
"F F F F P P P P O i.u.u.d.i.i.u.;X@     ",
"F F D F Q F P P O i.u.u.i.i.u.u.;XO     ",
"F F F P F D Q P @ i.u.u.u.u.u.u.;X@     ",
"F F F F P Q F P O a.a.a.a.a.a.u.;X@     ",
"F F F F P P Y Y + l.l.i.l.l.i.d.;X@     ",
"' ' } ' } } #.S.+ d.i.l.i.i.d.i.;X#     ",
"' ' ' ' } ' } S.+ l.l.d.i.l.i.l.;X#     ",
"b b b b b , 9 + l.l.d.l.d.i.l.i.;X;     ",
"a.m.r.m.S.S.R.F.# l.d.l.l.d.l.d.;X;     ",
"#.#.#.#.,.} =.F.@ l.l.l.l.l.l.l.;X;     ",
";.} } #.#.#.#.F.# b.l.l.l.l.l.l.;X;     ",
"} ;.} #.#.#.#.F.$ l.l.F.l.F.l.b.;X;     ",
";.} ;.} ;.} ;.G.+ F.l.l.b.l.P.l.;X:     ",
"} ;.} ;.} ;.#.L.O b.l.F.l.F.l.l.;X:     ",
";.} ;.} } #.#.S.@ l.l.F.l.l.b.-X| :     ",
"} ;.} ;.=.#.#.L.O P.P.F.F.F.F.-X^ :     ",
"Z Z Z Z Z 9 = = ; F.P.P.F.F.;X/ ! :     ",
"OXOXOXOXOXOXOXOX.XO ;X;X;X;XL Y :       ",
"S.m.m.m.m.m.m.m.OX; 4 t f f k k v       ",
"m.m.m.m.m.m.m.m.OX@ P./.P.P.^.P.7X0     ",
"m.m.m.m.m.m.m.m.OX+ G.R.P.^.P.^.9X0     ",
"m.m.m.m.m.m.m.m.OX+ P.~.^.P.^.P.5X0     ",
"m.m.m.m.m.m.m.m..X@ /.R.R./.P.!.3X0     ",
"m.m.m.m.m.m.m.m..XO /.'.~.'.'.~.3X0     ",
"m.m.m.m.m.m.m.m.O '.'.'.'.'.'.'.3X0     ",
"n n n i i i - + '..X'.'.'.'.'.'.5X0     ",
"Q R R R R R R Q @ [.[.'.'.'.'.'.5X0     ",
"} } } } } } } L.O [.[.[.{..X'.+X9X0     ",
"} } } } } } } F.@ '.[.'.[..XoX.X3X0     ",
"} } } } } } } R.@ oXoXoXoXoXoXoX9X0     ",
"} } } } } } } F.O '.oXoXoXoXoXoXqX0     ",
"} } } } } } } R.O ;XoXoXoXoXoXoX0X0     ",
"} } } } } } } R.O [.;XoXoXoXoXoX0X0     ",
"} } } } { ;.} } @ ;XoX;X;X%X;X%X0X0     ",
"3 : 5 5 : : 8 : oX;XoX;X-X-X-X-XeX0     ",
";X.XoXoXoXoX;X;XoXoXoX;X-X-X-X-XeX0     ",
".X'.oXoXoXoX;XoX%X%X;X;X%X;X-X-XeX0     ",
"oXoXoXoXoXoX%X%X%X%X;X%X-X-X-X-XpX0     ",
"'..XoXoXoXoX%X%X%X%X;X;X-X-X-X-XiX0     ",
"9XqX9X0X0X0X0X0X0X0X9XwXtXyXyXyXiX0     ",
"#.) #.) } | | | | | | | #.) #.) m.O     ",
") #.) #.| | | | | | | | ) #.) #.G.@     ",
"| | #.) ) #.| | | | } #.#.) #.) G.@     ",
"+ O + + + + + O O @ O + + + + + +       "
};
