/* XPM */
static char *result[] = {
/* columns rows colors chars-per-pixel */
"65 100 60 1 ",
"  c #4B2511",
". c #4F2913",
"X c #502B16",
"o c #522E1A",
"O c #4F311E",
"+ c #55321D",
"@ c #4F3626",
"# c #553522",
"$ c #583724",
"% c #553827",
"& c #5A3B27",
"* c #563C2C",
"= c #5B3C29",
"- c #583F31",
"; c #5C412D",
": c #5A4333",
"> c #5A4639",
", c #5B4A3D",
"< c #614534",
"1 c #654935",
"2 c #624E3D",
"3 c #66513F",
"4 c #5D4D42",
"5 c #5C5247",
"6 c #5E5449",
"7 c #665443",
"8 c #695645",
"9 c #62564B",
"0 c #63594C",
"q c #645C52",
"w c #685F55",
"e c #665F58",
"r c #666057",
"t c #686155",
"y c #676159",
"u c #6A645C",
"i c #6D695E",
"p c #70675B",
"a c #71695D",
"s c #6E6961",
"d c #716D63",
"f c #747266",
"g c #787165",
"h c #767469",
"j c #79766C",
"k c #7B786F",
"l c #7E7B73",
"z c #837E76",
"x c #828076",
"c c #878579",
"v c #88867B",
"b c #8B8A7E",
"n c #8D8B81",
"m c #918F86",
"M c #918F88",
"N c #929087",
"B c #94928B",
"V c #99978F",
"C c #9C9A91",
"Z c None",
/* pixels */
"ZZZZZZZZZZZZZZZZZZZZZZZZZZZZZZZZZZZZZZZZZZZZZZZZZZZZZZZZZZZZZZZZZ",
"ZZ==&;;;;::;<;;;1&;&;3&&=&&&&&&&&&&=&&&&&&7&&&&&&&&&&&&&&&&&&&ZZZ",
"Z=ggmcccvcccccccccvbb3bcccvvcccccccccccccc3cvccccccccccccBuppa&ZZ",
"=dgmcccccccccccccccbv1vvcccccccccccccccccv3cccccccccccccccccmap&Z",
"=amcccccccccccccvvvbb&bbcccccccccccccccccc;ccvcvccvccccccccccBi&Z",
"=BcccccBBBBBBBBBbbbbN&CCBBBBBBBBBBBBBBBBBB&BNBNVBBBBBBBBBcccccB&Z",
"=Bccccc.527900ry8zp88+88ttytyyyyuyuyuuyytuXtptp8rr000022.cccccB=Z",
"=Bcccc>inccvvcccvvvvbbccvvvvvcvccvcccccccccccccccccccvcN.cccccB=Z",
"=Bcccc1snccccccccvcvcccccccccccccvccvccccvccvccccccvcccN.cccccB*Z",
"=Bcccc>ibccccccccccccccccccccvcvcccccccvccvccccvcccccccN.cccccB*Z",
"=Bcccc1sncccccccvcvccccccccccccccccccccvcccccccvcccccccm.BBBBBB&Z",
"=BBBBB1ancccccccccccccccccccccccccccvcccccccvccccccccccm..7777.=Z",
"=#1111<ibcccccccccccccvccccccvcvcccccccccccccccccccccccN.cccccB*Z",
"=Bcccc<abccccvcvccccvcccccccccccccccccccccccccccvccccccN.cccccB=Z",
"=Bcccc1gbvvcccccccccccvcccccccccccccccccccccccccvccccccN.cccccB=Z",
"=Bcccc<abvcccccccccccccccccccccccccccccvcccccccccccccccN.cccccB=Z",
"=Bcccc:dbbccvcccccccvcvccvcvccccvcvcccccccvcccvccccccccV.cccccN;Z",
"=Bcccc<ibccccccccccccccccccccccccccccccccccccccccccccccb.cccccN&Z",
"=Bcccc<dbvccvccccccccvcvccvcvcccccccccccccvccccccccvccbb.vccccV&Z",
"=Bcccc:dbcccccvcccccccccccccccccvcvcccccccccccccccccccbV.cccccN;Z",
";Bcccc:fbbbvcccccvccccccccccccccccccvcccccccccccccvccccb.cccccN;Z",
";Bcccc;dbbbbvcvccccvccccccccvcvccccccccccccccccccccccccC.cccccN&Z",
"&Ncccc1dbbccccvccvccccccvcccccccccccvccvccccvccccccccccV.cccccB;Z",
";Bcccc;dbccvccccccccccccccccccccccccccccccvcccccvccccccb.cccccB&Z",
"&Bcccc:dNccccccccccccccvvccccccccccvccccccccccvccccccccB.cccccB&Z",
"+Bcccc;fbcvccccccccccbvvcccccccccccccccccccccccccvcccccB.cccccm;Z",
"%Bcccc;dbvbcccccccvcvbcccccccccccccccccccccccccccccvccbV.NNBBBB=Z",
"&BBBBV:dbvvccccccccccccccccccccccvcvcccccccccccccccccbbV..8877.=Z",
"#+1111:dNccccccccccccccccccccccccccccccccccccvcccccccbbV.cccccB;Z",
"&Bcccc;dBvcccccccccccccccccccccccccccccvccccccccccccccbC.cccccB&Z",
"#Bcccc;dVbccvcccccccccccccccccccccccccccccccccccvbccccbC.cccccB*Z",
"#Bcccc;dBbcbcccccccccccccccccccccccccccccccccccccccvbbbC.cccccB&Z",
"%Bcccc;unBBBBnnnnnnnbbbbnnnnnnnvbbcvbvbbbbnnnbnnnnBBBBBN.cccccB;Z",
"+Bcccc:jbbccccxxxxxcbbbxxxxxxlxxzczzzzzcxxlxzxxxcxccxcnN.cccccB&Z",
"+Bccccccccxcccccccccc2cccccccccccccccccccb:nccccccccccccccccccB*Z",
"+Vccccccccccccccccccc3cccccxcccccccccccccb2nccccccccccccccccccV&Z",
"+cVVccccccccccccccccc8cccccccccccccccbbvcn7nccccxcbcccbccccccVh*Z",
".ljkCCBBMBBMBBBBMBBVC5VVVMMmmmmMBBBNbbbbVB7VVVBMBBBBBBBBBBVCVjf.Z",
".hjkBssssdsddddsddsdd:ddsdsddsssiippppzzii:ssssisuuuusuuusuuuCh.Z",
" hkniiisssssssssdssdd:ssddsssssiiippp3z8iu:suiuuussuuusuuuuuuBf.Z",
".hzssusssussssssissss:issssssisiiiiuiuisuu>isiususiuuuuiuuuuuuV.Z",
".hlsyssyussususussssd:sssiisssisuuiuiuuuui:yuuuiuuuuiiuuuuuuuul.Z",
" zssuuuuussuususiussi:isssssiuisiuuuiuuiiu:iusuusuuuuuuuuyuuuul.Z",
".zseyyuuysysuusuususu;iissiuiiiuuuiuiyiuuu:uuuuuuuuuuuuyuuyyyyk.Z",
".xuyuuyuuuuuyuuuuuuiu#ussusuuuuuuuuyuuyuuu:iyiiuuuuuuuuuyuttyyk.Z",
".lryyyuyyuyuuuyuuyuuu+yuuuuuuuuuyuuyuyuuiy+uiuuuuuuytuyytyuyytk.Z",
" lwyyyyyuuuuuyuuuyuyu+uuuuuuuuuuuuuuuuuuyiOuyuyyuuuyuyruyuyyyyh.Z",
" hewtyyyyyyyuyyyuyuyy+yyyyyyuuuuuyyuyuyuuyOyyuuuyyuuyyururyyrrh.Z",
" hewrrrrrruryyyyyyyyyOyyyyyyyyyyyyuuuyyyeu#euuuuuuyuyyryrrrrrrf.Z",
".heerrrrrryryyyyyyyye yyyyyyyyyyyyyyuuyyueOueyeuyyyyyyyrrrrrqrd.Z",
"Z.eqqrrrrrrryyyyyyyyy yyyyyyyyrryyyyyyeeeeOeyyeeyyryyyrrrrrqwwXZZ",
"ZZ                   6X .. OX  O........XX5XXXXX..............ZZZ",
"ZZ.jiutiiii.6666q666665O55555555665655666655666666660X6000606.ZZZ",
"ZZXjiiiiiii.666q6666655@65555555666555566556666666666.9000000.ZZZ",
"ZZ.kpipiitu.q6666666666@65555555554665666565666666666.0000000.ZZZ",
"ZZ.juupiiiyO66q66666666@55555555566665656559666666666X0q00000.ZZZ",
"ZZXjiiiiiii.50506666666@65555546655665656666666666666X0000000.ZZZ",
"ZZXjiiiiiii.00656666665@65555566556656656666666966667X0060000.ZZZ",
"ZZXjiiiiiii.srrrrqeryye>yyyyyyyyeeeyyyeyueeeeeeuuyyyy.000000r.ZZZ",
"ZZXfiiiiiii drrryqeryye>yyyyyyyeeuueyyyyeeeeeeeeyyyyy.0000000.ZZZ",
"ZZ+kiiiiiiiiXOO>>:>>:>>:>6545545666-:@O%@@@*@@*@%%%.X000000w0XZZZ",
"ZZokiiiiiii.sdddusuussussussssssssssss#444444455444.00000000rXZZZ",
"ZZojiiidiii.dyrryyyyyyyyyyyyyeyeeeyyye%46qqeqqq6qqq.0000000wq.ZZZ",
"ZZojdiiiiiiOdyyyyyyyyyyyyyyyyyyueeyyye*qqq66q66q6q0.00000wwq0.ZZZ",
"ZZojididadaXdyyyyyyyeueueueeueueeseeyy>6e6qqe6ee6e6 ee6q0t0t0.ZZZ",
"ZZOjdiiisad.dyyyyyyyeueeeeeueeeeyyeeyy>66eq66e66e6e 666600t00.ZZZ",
"ZZ+jdaiddas.dyyyyyyyeeeeuueeesseyyyeyy9qq6qqq66e6e6 99e60t0tt.ZZZ",
"ZZ+tjidisss.deyyyyyyeueeeeueeeeeyyyeyy6qqq6qq6e6e66O9q6ew0w00XZZZ",
"ZZotjadisss.seeeyyeeeeeeeseeeeeeeeeeee69q6e6e66eqqq.999ew0wwq.ZZZ",
"ZZottjddsss+OO@4444445>-@%@4444>669666656666666>-  Xqqqq0w00q.ZZZ",
"ZZZ+00jjkkXhhkhhjhhhkhhh@sssssyysysssssssusususussps.qeutupuiXZZZ",
"ZZZ;;;&&*OOhsusssssssssu@eeeeeeeeeeeeeeeeeeeeeeeeeedooo#**&=&oZZZ",
"ZZ&cddfaff.fsususssssuss-eeeeeeeeeeeeeeeeeeeeeeeeeesXww0ww0w0.ZZZ",
"ZZOcddaffi.fsssssssussss-eeeeeeeeeeeeeeeeeeeeeeeeeesX80w0w0tc.ZZZ",
"ZZ+cddsffs.jssssusssssss-eeeeeeeeeeeeeeeeeeeeeeeeees.wqqt0twc.ZZZ",
"ZZOcfdfdff.hssssssssssss4eeeeeeeeeeeeeeeeeeeeeeeeeed.qwqtwwgc.ZZZ",
"ZZ#xfffffd.hssssssussssu4eeeeeeeeeeeeeeeeeeeeeeeeeed.wwwt0thx.ZZZ",
"ZZ+xfffffff.sssssssssss4,eeeeeeeeeeeeeeeeeeeeeeeeee.wwwwtthhx.ZZZ",
"ZZ#cffffffff.X:--,,>,-44465665664445--#*-569656:- .ewwwwtthhx.ZZZ",
"ZZ#cfffffff.606966669999sessssusysssss%ssssyssuisssXwwwwthghx.ZZZ",
"ZZ@chfhhfhh.seeeeeeeeeeeeeeeeeeeeeeeee*eeeeeeeeerrd.ttttthhhx.ZZZ",
"ZZOchhhhhhh.seeeeeeeeeeeeeeeeeeeeeeeee6eeeeeeeeerrd.ttuthhhfx.ZZZ",
"ZZ+vhjjhhhh.syeeeeeeeeeeeeeeeeeeeeeeee5eeeeeeeeerrd.tttthhhhx.ZZZ",
"ZZ+chhhhjhh.syereeeeeeeeeeeeeeeeeeeeee5weeeeeeeerrd.upthhhhhx.ZZZ",
"ZZ&chhhjhjf.dyryeeeeeeeeeeeeeeeeeeeeee6reeeeeeeeres.utuhhjhhx.ZZZ",
"ZZ%cjhjhjhj.dyyreeeeeeeeeeeeeeeeeeeeee:reeeeeeeeees.yhhhhfjfx.ZZZ",
"ZZ+cjjjjjhj.rryyeeeeeeeeeeeeeeeeeeeeee*reyeeeweeyys.uhhjjfhfx.ZZZ",
"ZZ#njjjjjjhj+++O@++++e++++++++++++++++++++e++++++++jhhffhhhjn.ZZZ",
"ZZ#bjjkjjjjjjjjhhhhhh.hhzshhhhhhhhhhhhhhhh+hhhhhhhhhjfjfhhhhn.ZZZ",
"ZZ#njjjjjjhjhjhhjhhhh7hhgghhhhhhhhhhhhhhhh7fhhhhhhhhfjhhhhhhn.ZZZ",
"ZZ#Njkjjkjkhjjhjhhhhh7hhkhhhhhhhhhhhfhhhhh7jhhhhhhfhhhhhhhhnu.ZZZ",
"ZZ#mjjjjkhhhjhhhhjhhh7hhghhhhhhhhhhhhhhhhh6hhhhhhhhhhhhhhhcry.ZZZ",
"ZZ#mnnnnvvxcccxcccccc7xcvvvvzzvvcxcccccccc7vcxcxcxcccccnnnyu5.ZZZ",
"ZZ.srryyrryyeyyryyeye7yyeeeeeeeerryyyrrrrr6yrryyyeerrrryrrkk5.ZZZ",
"ZZ.srryyrrrreerrrryee7eeeeeeeeeerrrryerrrr7rrrrryyrrrrrrrrrrk.ZZZ",
"ZZ.srrrryrreeerrryyqe eeeeeeeeeerrrrrrrrrr.rrrrrryrrrrrrrrrys.ZZZ",
"ZZZ..................X..................X...................XZZZZ",
"ZZZZZZZZZZZZZZZZZZZZZZZZZZZZZZZZZZZZZZZZZZZZZZZZZZZZZZZZZZZZZZZZZ",
"ZZZZZZZZZZZZZZZZZZZZZZZZZZZZZZZZZZZZZZZZZZZZZZZZZZZZZZZZZZZZZZZZZ",
"ZZZZZZZZZZZZZZZZZZZZZZZZZZZZZZZZZZZZZZZZZZZZZZZZZZZZZZZZZZZZZZZZZ"
};
