/* XPM */
static char *result[] = {
/* columns rows colors chars-per-pixel */
"96 126 55 1 ",
"  c #4B2511",
". c #4F2913",
"X c #502B16",
"o c #512E1A",
"O c #4F311E",
"+ c #56331D",
"@ c #4F3625",
"# c #553522",
"$ c #583724",
"% c #563927",
"& c #5A3B27",
"* c #573C2C",
"= c #5B3C29",
"- c #573F30",
"; c #583F30",
": c #5A402E",
"> c #5A4233",
", c #5A4739",
"< c #5B4A3D",
"1 c #604734",
"2 c #654935",
"3 c #644E3C",
"4 c #5D4D42",
"5 c #5C5247",
"6 c #5E5349",
"7 c #655444",
"8 c #695645",
"9 c #61574B",
"0 c #62584C",
"q c #655E53",
"w c #685F54",
"e c #665F58",
"r c #666057",
"t c #696155",
"y c #676159",
"u c #6A655C",
"i c #6D695E",
"p c #6E6A60",
"a c #716D63",
"s c #747166",
"d c #767469",
"f c #79776C",
"g c #7E7B73",
"h c #807E76",
"j c #828076",
"k c #868579",
"l c #89877D",
"z c #8B8A7F",
"x c #8D8B82",
"c c #908E86",
"v c #918F88",
"b c #94928B",
"n c #99978F",
"m c #9B9992",
"M c None",
/* pixels */
"&&&&&&&&MMMMMMMMMMMMMMMMMMMMMMMMMMMMMMMMMMMMMMMMMMMMMMMMMMMMMMMMMMMMMMMMMMMMMMMMMMMMMMMMMMMMMMMM",
"&bkkkkk&MMMMMMMMMMMMMMMMMMMMMMMMMMMMMMMMMMMMMMMMMMMMMMMMMMMMMMMMMMMMMMMMMMMMMMMMMMMMMMMMMMMMMMMM",
"&bkkkkk&MMMMMMMMMMMMMMMMMMMMMMMMMMMMMMMMMMMMMMMMMMMMMMMMMMMMMMMMMMMMMMMMMMMMMMMMMMMMMMMMMMMMMMMM",
"&bkkkkk&MMMMMMMMMMMMMMMMMMMMMMMMMMMMMMMMMMMMMMMMMMMMMMMMMMMMMMMMMMMMMMMMMMMMMMMMMMMMMMMMMMMMMMMM",
"&bkkkkk=MMMMMMMMMMMMMMMMMMMMMMMMMMMMMMMMMMMMMMMMMMMMMMMMMMMMMMMMMMMMMMMMMMMMMMMMMMMMMMMMMMMMMMMM",
"=bkkkkk=MMMMMMMMMMMMMMMMMMMMMMMMMMMMMMMMMMMMMMMMMMMMMMMMMMMMMMMMMMMMMMMMMMMMMMMMMMMMMMMMMMMMMMMM",
"=blkkkk=MMMMMMMMMMMMMMMMMMMMMMMMMMMMMMMMMMMMMMMMMMMMMMMMMMMMMMMMMMMMMMMMMMMMMMMMMMMMMMMMMMMMMMMM",
"=bkkkkk+MMMMMMMMMMMMMMMMMMMMMMMMMMMMMMMMMMMMMMMMMMMMMMMMMMMMMMMMMMMMMMMMMMMMMMMMMMMMMMMMMMMMMMMM",
":nbbbbn+MMMMMMMMMMMMMMMMMMMMMMMMMMMMMMMMMMMMMMMMMMMMMMMMMMMMMMMMMMMMMMMMMMMMMMMMMMMMMMMMMMMMMMMM",
":+2222++MMMMMMMMMMMMMMMMMMMMMMMMMMMMMMMMMMMMMMMMMMMMMMMMMMMMMMMMMMMMMMMMMMMMMMMMMMMMMMMMMMMMMMMM",
"&bkkkkk+MMMMMMMMMMMMMMMMMMMMMMMMMMMMMMMMMMMMMMMMMMMMMMMMMMMMMMMMMMMMMMMMMMMMMMMMMMMMMMMMMMMMMMMM",
"&bkkkkl+MMMMMMMMMMMMMMMMMMMMMMMMMMMMMMMMMMMMMMMMMMMMMMMMMMMMMMMMMMMMMMMMMMMMMMMMMMMMMMMMMMMMMMMM",
"=bkkkkk+MMMMMMMMMMMMMMMMMMMMMMMMMMMMMMMMMMMMMMMMMMMMMMMMMMMMMMMMMMMMMMMMMMMMMMMMMMMMMMMMMMMMMMMM",
"=bkkkkk+MMMMMMMMMMMMMMMMMMMMMMMMMMMMMMMMMMMMMMMMMMMMMMMMMMMMMMMMMMMMMMMMMMMMMMMMMMMMMMMMMMMMMMMM",
":bkkkkk#MMMMMMMMMMMMMMMMMMMMMMMMMMMMMMMMMMMMMMMMMMMMMMMMMMMMMMMMMMMMMMMMMMMMMMMMMMMMMMMMMMMMMMMM",
"&bkkkkk+MMMMMMMMMMMMMMMMMMMMMMMMMMMMMMMMMMMMMMMMMMMMMMMMMMMMMMMMMMMMMMMMMMMMMMMMMMMMMMMMMMMMMMMM",
"&bkkkkk+MMMMMMMMMMMMMMMMMMMMMMMMMMMMMMMMMMMMMMMMMMMMMMMMMMMMMMMMMMMMMMMMMMMMMMMMMMMMMMMMMMMMMMMM",
"&bkkkkk+MMMMMMMMMMMMMMMMMMMMMMMMMMMMMMMMMMMMMMMMMMMMMMMMMMMMMMMMMMMMMMMMMMMMMMMMMMMMMMMMMMMMMMMM",
":bkkkkk+MMMMMMMMMMMMMMMMMMMMMMMMMMMMMMMMMMMMMMMMMMMMMMMMMMMMMMMMMMMMMMMMMMMMMMMMMMMMMMMMMMMMMMMM",
"&bkkkkl+MMMMMMMMMMMMMMMMMMMMMMMMMMMMMMMMMMMMMMMMMMMMMMMMMMMMMMMMMMMMMMMMMMMMMMMMMMMMMMMMMMMMMMMM",
"&bkkkkk+MMMMMMMMMMMMMMMMMMMMMMMMMMMMMMMMMMMMMMMMMMMMMMMMMMMMMMMMMMMMMMMMMMMMMMMMMMMMMMMMMMMMMMMM",
":nkkkkk+MMMMMMMMMMMMMMMMMMMMMMMMMMMMMMMMMMMMMMMMMMMMMMMMMMMMMMMMMMMMMMMMMMMMMMMMMMMMMMMMMMMMMMMM",
"+nkkkkk+MMMMMMMMMMMMMMMMMMMMMMMMMMMMMMMMMMMMMMMMMMMMMMMMMMMMMMMMMMMMMMMMMMMMMMMMMMMMMMMMMMMMMMMM",
"+ckkkkl+MMMMMMMMMMMMMMMMMMMMMMMMMMMMMMMMMMMMMMMMMMMMMMMMMMMMMMMMMMMMMMMMMMMMMMMMMMMMMMMMMMMMMMMM",
"&nnbnbb+MMMMMMMMMMMMMMMMMMMMMMMMMMMMMMMMMMMMMMMMMMMMMMMMMMMMMMMMMMMMMMMMMMMMMMMMMMMMMMMMMMMMMMMM",
"++2222++MMMMMMMMMMMMMMMMMMMMMMMMMMMMMMMMMMMMMMMMMMMMMMMMMMMMMMMMMMMMMMMMMMMMMMMMMMMMMMMMMMMMMMMM",
"+ckkkkl+MMMMMMMMMMMMMMMMMMMMMMMMMMMMMMMMMMMMMMMMMMMMMMMMMMMMMMMMMMMMMMMMMMMMMMMMMMMMMMMMMMMMMMMM",
"&nkkkkk+MMMMMMMMMMMMMMMMMMMMMMMMMMMMMMMMMMMMMMMMMMMMMMMMMMMMMMMMMMMMMMMMMMMMMMMMMMMMMMMMMMMMMMMM",
"&bkkkkk+MMMMMMMMMMMMMMMMMMMMMMMMMMMMMMMMMMMMMMMMMMMMMMMMMMMMMMMMMMMMMMMMMMMMMMMMMMMMMMMMMMMMMMMM",
"+bkkkkk+MMMMMMMMMMMMMMMMMMMMMMMMMMMMMMMMMMMMMMMMMMMMMMMMMMMMMMMMMMMMMMMMMMMMMMMMMMMMMMMMMMMMMMMM",
"&bkkkkk+MMMMMMMMMMMMMMMMMMMMMMMMMMMMMMMMMMMMMMMMMMMMMMMMMMMMMMMMMMMMMMMMMMMMMMMMMMMMMMMMMMMMMMMM",
"$bkkkkk+MMMMMMMMMMMMMMMMMMMMMMMMMMMMMMMMMMMMMMMMMMMMMMMMMMMMMMMMMMMMMMMMMMMMMMMMMMMMMMMMMMMMMMMM",
"+bkkkkk+MMMMMMMMMMMMMMMMMMMMMMMMMMMMMMMMMMMMMMMMMMMMMMMMMMMMMMMMMMMMMMMMMMMMMMMMMMMMMMMMMMMMMMMM",
"&nkkkkk+MMMMMMMMMMMMMMMMMMMMMMMMMMMMMMMMMMMMMMMMMMMMMMMMMMMMMMMMMMMMMMMMMMMMMMMMMMMMMMMMMMMMMMMM",
"#bkkkkl+MMMMMMMMMMMMMMMMMMMMMMMMMMMMMMMMMMMMMMMMMMMMMMMMMMMMMMMMMMMMMMMMMMMMMMMMMMMMMMMMMMMMMMMM",
"&bkkkkl+MMMMMMMMMMMMMMMMMMMMMMMMMMMMMMMMMMMMMMMMMMMMMMMMMMMMMMMMMMMMMMMMMMMMMMMMMMMMMMMMMMMMMMMM",
"+bkkkkk+MMMMMMMMMMMMMMMMMMMMMMMMMMMMMMMMMMMMMMMMMMMMMMMMMMMMMMMMMMMMMMMMMMMMMMMMMMMMMMMMMMMMMMMM",
"&bkkkkk+MMMMMMMMMMMMMMMMMMMMMMMMMMMMMMMMMMMMMMMMMMMMMMMMMMMMMMMMMMMMMMMMMMMMMMMMMMMMMMMMMMMMMMMM",
"$bkkkkk$MMMMMMMMMMMMMMMMMMMMMMMMMMMMMMMMMMMMMMMMMMMMMMMMMMMMMMMMMMMMMMMMMMMMMMMMMMMMMMMMMMMMMMMM",
"$bkkkkk+MMMMMMMMMMMMMMMMMMMMMMMMMMMMMMMMMMMMMMMMMMMMMMMMMMMMMMMMMMMMMMMMMMMMMMMMMMMMMMMMMMMMMMMM",
"$bbbbbb+MMMMMMMMMMMMMMMMMMMMMMMMMMMMMMMMMMMMMMMMMMMMMMMMMMMMMMMMMMMMMMMMMMMMMMMMMMMMMMMMMMMMMMMM",
"&+2222++MMMMMMMMMMMMMMMMMMMMMMMMMMMMMMMMMMMMMMMMMMMMMMMMMMMMMMMMMMMMMMMMMMMMMMMMMMMMMMMMMMMMMMMM",
"$bkkkkl+MMMMMMMMMMMMMMMMMMMMMMMMMMMMMMMMMMMMMMMMMMMMMMMMMMMMMMMMMMMMMMMMMMMMMMMMMMMMMMMMMMMMMMMM",
"$bkkkkk+MMMMMMMMMMMMMMMMMMMMMMMMMMMMMMMMMMMMMMMMMMMMMMMMMMMMMMMMMMMMMMMMMMMMMMMMMMMMMMMMMMMMMMMM",
"+bkkkkk+MMMMMMMMMMMMMMMMMMMMMMMMMMMMMMMMMMMMMMMMMMMMMMMMMMMMMMMMMMMMMMMMMMMMMMMMMMMMMMMMMMMMMMMM",
":nkkkkk+MMMMMMMMMMMMMMMMMMMMMMMMMMMMMMMMMMMMMMMMMMMMMMMMMMMMMMMMMMMMMMMMMMMMMMMMMMMMMMMMMMMMMMMM",
"+nkkkkk+MMMMMMMMMMMMMMMMMMMMMMMMMMMMMMMMMMMMMMMMMMMMMMMMMMMMMMMMMMMMMMMMMMMMMMMMMMMMMMMMMMMMMMMM",
"+bkkkkl+MMMMMMMMMMMMMMMMMMMMMMMMMMMMMMMMMMMMMMMMMMMMMMMMMMMMMMMMMMMMMMMMMMMMMMMMMMMMMMMMMMMMMMMM",
"%bkkkkk+MMMMMMMMMMMMMMMMMMMMMMMMMMMMMMMMMMMMMMMMMMMMMMMMMMMMMMMMMMMMMMMMMMMMMMMMMMMMMMMMMMMMMMMM",
"%bkkkkk+MMMMMMMMMMMMMMMMMMMMMMMMMMMMMMMMMMMMMMMMMMMMMMMMMMMMMMMMMMMMMMMMMMMMMMMMMMMMMMMMMMMMMMMM",
"+bkkkkk+MMMMMMMMMMMMMMMMMMMMMMMMMMMMMMMMMMMMMMMMMMMMMMMMMMMMMMMMMMMMMMMMMMMMMMMMMMMMMMMMMMMMMMMM",
"%nkkkkk+MMMMMMMMMMMMMMMMMMMMMMMMMMMMMMMMMMMMMMMMMMMMMMMMMMMMMMMMMMMMMMMMMMMMMMMMMMMMMMMMMMMMMMMM",
"+nkkkkk+MMMMMMMMMMMMMMMMMMMMMMMMMMMMMMMMMMMMMMMMMMMMMMMMMMMMMMMMMMMMMMMMMMMMMMMMMMMMMMMMMMMMMMMM",
"#bkkkkl+MMMMMMMMMMMMMMMMMMMMMMMMMMMMMMMMMMMMMMMMMMMMMMMMMMMMMMMMMMMMMMMMMMMMMMMMMMMMMMMMMMMMMMMM",
"&bkkkkk+MMMMMMMMMMMMMMMMMMMMMMMMMMMMMMMMMMMMMMMMMMMMMMMMMMMMMMMMMMMMMMMMMMMMMMMMMMMMMMMMMMMMMMMM",
"#bkkkkk+MMMMMMMMMMMMMMMMMMMMMMMMMMMMMMMMMMMMMMMMMMMMMMMMMMMMMMMMMMMMMMMMMMMMMMMMMMMMMMMMMMMMMMMM",
"%nbnbbn+MMMMMMMMMMMMMMMMMMMMMMMMMMMMMMMMMMMMMMMMMMMMMMMMMMMMMMMMMMMMMMMMMMMMMMMMMMMMMMMMMMMMMMMM",
"++1222++MMMMMMMMMMMMMMMMMMMMMMMMMMMMMMMMMMMMMMMMMMMMMMMMMMMMMMMMMMMMMMMMMMMMMMMMMMMMMMMMMMMMMMMM",
":ckkkkk+MMMMMMMMMMMMMMMMMMMMMMMMMMMMMMMMMMMMMMMMMMMMMMMMMMMMMMMMMMMMMMMMMMMMMMMMMMMMMMMMMMMMMMMM",
"+bkkkkk+MMMMMMMMMMMMMMMMMMMMMMMMMMMMMMMMMMMMMMMMMMMMMMMMMMMMMMMMMMMMMMMMMMMMMMMMMMMMMMMMMMMMMMMM",
"&bkkkkk+MMMMMMMMMMMMMMMMMMMMMMMMMMMMMMMMMMMMMMMMMMMMMMMMMMMMMMMMMMMMMMMMMMMMMMMMMMMMMMMMMMMMMMMM",
"+bkkkkk+MMMMMMMMMMMMMMMMMMMMMMMMMMMMMMMMMMMMMMMMMMMMMMMMMMMMMMMMMMMMMMMMMMMMMMMMMMMMMMMMMMMMMMMM",
"+bkkkkk+++&&&&::&&&&&M=$&&==&&&===&&&===&&&===&&M===:&:+:::+:+::&&&====$==M&=&&&&===&&&&&&&&&&&&",
"+mkkkkkkkkkkkkkkkkkkk3kkkkkkkkkkkkkkkkkkkkkkkklk1kkkkkkkkkkkkkkkkkkkkkkkkx1lkkkkkkkklkkkkklkkkb:",
"+mkkkkkkkkkkkkkkkkkkk7kkkkkkkkkkkkkkkkkkkkkkkkkk<kkkkkkkkkkkkkkkkkkkkkkkkz3zkkkkkkkkkkkkkkkkkkn:",
"+mkkkkkkklkkkkklkkkkk8kkkkkkkkkkkkkkkkkkkkkkkkkk9kkkkkkkkkkkkkkkkkkkkkkkkz7xkkkkkkkkkkkkkkkkkkn=",
".knmmmmnvbvvvvvvvvbnn8mmnbvcccvvvvvvvvvvvvvvvnnn6bnnnbbbbbbbbbbbbbbbbbbnnn7nnnbbbbbbbbbbbbnnnnk.",
".kippppipaapaasaaaaaa;pappapppppippuiiiiiiiipipu>iiiiiiiuppuiiiiiiiiiiiiii>iiiiiiiiiiuiiuiuuuuk.",
".kiipiiippppppppaappp;pppppppppipuppiiiupipupppp>iiuiiiipuuiuiuiiiiuiiiiii>uuiiiuiiuuuuuuiuuuuk ",
" jiiiiiiuppuppppppppp1pppppppppipuupiiiuiiiiiuiu>iiiiiiiiipuiuiiiuiiuiuuii>upuiiuuiuuiiuuuuurug.",
".guuuuiipppuippuppppp;pppppippiiiiiiiiiuupiuipup>iiiiiuuiuuiiuuuuuuiuuiuuu>iuuiyuuuuuuuuyiuuyug.",
".guuuuuuuuupuuiuiipip;ppppipiuiiiuiuiiiiiuuiuuuu>uuuuuuiiuuiuuiuuuuuiiuuuu>uuuuuiuuuuuuuyyruuug.",
".guuuyuuuuuuuuuuppuii*iiiiuiiiiuiuuiuuiiuuuuuiuu>iuuuuuuuuuuuuuuuuuuuuuuuu>uuuuuuuuuuiuyiyuyuyfX",
".gyyruyuuuyuuuuueeuii#uiuuiuuuuuuuuuuuyuuuuuuuuu:yiyuuuuuuuuuuuuuuuuuyuuuu>uuiuuuuuuuyuuuyturyfX",
" dyyyuuyruuuuyuuueeue+uuuuuiuuuuuuuuuiyiuuuuuuyu+yyuyuuyruyuuuuyuyyuuuuyirOiiyyiuyuyyyyyyttyttfX",
" drryyyyyyuyyuyuuuuuuOyuuyuyeieuruuuyuuyuuuuuuuu+uyuuyuuuuyuyiyiyuuyruuuriOryiyyuuuyuyuyyyutyedX",
" dyqyyyyyyryuyryeuueuoyuiyyiuieiuuyuuyyuuuyuuuyuOuuuruyuyyyuyyyyuuyuyuyuiyOiruiytuyyyyuyyyrterd ",
" dqerqrrryuyyyuyeeueeXeyeyyyeeeeyyyyyuyyryyyyyyy+yruuryuyuyuyuiyyyuuuyuuyuOuruyuuytuyyrttrrqeeaX",
".deqeqrryryyyyyyyyeey.yyeeyyyeeeyyyyyyyyyyyyyyyyOyyrryyyryyyryyyyyyyyyyyyyOyuuyyuyyyyyrtyrreeeaX",
"M.eeqyrrryryyyyyyeeueXyyyyyeyeeiyyyyyyyyyyyyyyyy.yyyryyyyyyyyyyyyyyyyyyyyrOurryytyyyyrreerqeqqXM",
"MM..                 6  X XX X X............O  .5.....  ... X . X . ......6....oX XX... .. ...MM",
"MM.dtiiiuuu 66606666666@5555555555555555555555655555555O5466666556665656565556666666.60000000.MM",
"MM.diiiiuiuOq6666966665@6555555555555555555555555555555@5575555656656565655666666666.00000000.MM",
"MM.siiiiiiuO66069666665@5555555555555555555555555555555@5555555665565656566566666666.00000000.MM",
"MM+fiiitiuu.06666666666@5555555555555555555555555555555@5555564555566565656666666666.q0000000.MM",
"MMofiiiiiiu.06069666666@5555555555555555555555555555555@5555645655565656566565666666.00000000.MM",
"MMXfitiiiiiX06666666666@5555555555555565565655555555555@5555666655555666656655666666.0600000q.MM",
"MMofiiiiiii.prrryeeeyye,yyyyyyyyyyyyyyyyeeeeeueeyyyyyyy>yyyyeeeeyyyyyyyyyyyyeepyuyuy.60060000.MM",
"MMofiiiiiia.atrreeqrqrr,yyeeeeeeeeyyyyeeeeeeyeeeyyyyyyy@eeueeeeeyyyyyyyyeyyeyyeyreyyX0000000t.MM",
"MM+fiiiiiiia.oO,,>>,,>,,,55555566464644466656665665->**@@-669966665>>@@>-->6665->>X 0000000t0.MM",
"MM+fiiiiiii.aaaaypppypppppppuppppppppp4ipppppppppppppppppppppppppppppp#pppppppppiuiiX00000q0q.MM",
"MM+fiiiiiii.attreeyyyeyyyyeeyyyyyeeyey4eeeyeeeyyyyeeeeeeeeeyeeeeyyerey*eeeeyeyeeyyyaX000000t0.MM",
"MMXfiiiippioayyyeeueyyyyyyyyyyyyyyyyyy4yeyyyyyyyyyyyeyyyeeuyeeeeyyyyey>eyyyyyyyyyyyaX08000q0t MM",
"MM+faisippiOayyyeeueyyyyyyyyyyyyyyyyye4yeeyyyyyyyyyyeyyyueeeueuuyyyyey5yeyyyyyyyyyeaX0000t0t0XMM",
"MM+fiiiippa ayyyyueeyyyyyyyyyyyyyyyyyy4yyyyyyyyeyyyyyyyyeeeeeeeeyyyyyy5yyyyyyyyyyyyaX000t0t00XMM",
"MM+fiisippp ayyyyeeuyyyyyyyyyyyyyyyyyy4yyyyyyyyyyyyyyyyyepeueeueyyyyyy6yyyyyyyyyyyyaX0000q0t0XMM",
"MM+gaiaiiis.ittteueueeeueeeeeeueueueee;yeyeueyeueueeueeeuueeeeeeyyyyey6yyeueeeueyyya.00qq0qqt MM",
"MM+fiaiaisi.attieeeeeueeeueueeeeeeeeee;uyyeeeyyeeueeeeeeeeeuueueyyyyee6yeueeueyeyeyp.0800qt00XMM",
"MMofaiaasisioo++444444,;***44<<<;44;;##*-6666666666644;4;4456666556656556666666;>>  q90w0w0w0XMM",
"MMoffffffff.iuiipuuppupu#puuuuuyuueuuueuuuuuuuuuupuupup4pupuupuupppppuppppuuupppiiia.qyutitii.MM",
"MM+3,>1:%++Oirrreeeeeeee#eeeeeeeeeeeeeeeeeeeeeeeeeeeeee4eeeeeeeeeeeeeeeeeeeeeeeeeeeao**&&=&%:.MM",
"MM+jssaaaaa.prrreeeeeeee4eeeeeeeeeeeeeeeeeeeeeeeeeeeeee<eeeeeeeeeeeeeeeeeeeeeeeeeeea 0t0wqw0q.MM",
"MM:kaaaaspa.prryeeeeeeee6eeeeeeeeeeeeeeeeeeeeeeeeeeeeee6eeeeeeeeeeeeeeeeeeeeeeeeeeraXq0t00twk.MM",
"MM+kaasapsa.aryreeeeeeee6eeeeeeeeeeeeeeeeeeeeeeeeeeeeee4eeeeeeeeeeeeeeeeeeeeeeeeerra.wt0tqwwj.MM",
"MM#jsaaasss prrreeeeeeee6eeeeeeeeeeeeeeeeeeeeeeeeeeeeee4eeeeeeeeeeeeeeeeeeeeeeeeeeea.ettwwwdjXMM",
"MM$jsssspss.ptrreeeeeeee6eeeeeeeeeeeeeeeeeeeeeeeeeeeeee#eeeeeeeeeeeeeeeeeeeeeeeeeeea wt0wwwdhXMM",
"MM#jsssssss.pqryeeeeeeee6eeeeeeeeeeeeeeeeeeeeeeeeeeeeee#eeqeeeeeeeeeeeeeeeeeeeeeeeeaXwwtwwddjXMM",
"MM+jssssssss.Oo:;,6666666666665566644;44446444444444@##@#O4444444446;;#;-6666666>>  wwtwwwddhXMM",
"MM#jssssadd.ppppuppupupupupuiiiiuuuuuu4upupupppupuupupuuppupiiiiuuuppu*upuupupuuiiipXtttwdddh.MM",
"MM#kddddddd.preeeeeeeeeewweeeeweeeeeee4eeeeeeeeeeeeeeeeeeeeeeeweeeeeee;eeeeeeeeyeeea.tttwsddhXMM",
"MM#jddddddd.peeeeeeeeeeeeeeeeeeeeeeeee4eeeeeeeeeeeeeeeeeeeeeeeeeeeeeee6eeeeeeeeeeera.tttddddjXMM",
"MM#kddddddd peeeeeeeeeeeeeeeeeeeeeeeee5eeeeeeeeeeeeeeeeeeeeeeeeeeeeeee6eeeeeeeeerrraXtttddddhXMM",
"MM#kdfddddd aeeeeeeeeeeeeeeeeeeeeeeeee6eeeeeeeeeeeeeeeeeeeeeeeeeeeeeee6eeeeeeeeeeeea.yyfddddhXMM",
"MM#kdddffddXaeeeeeeeeeeeeeeeeeeeeeeeee;eeeeeeeeeeeeeeeeeeeeeeeeeeeeeee6eeeeeeeeeeeea.ttfddddh.MM",
"MM$kfddffdf.aeeeeeeeeeeeeeeeeeeeeeeeee;eeeeeeeeeeeeeeeeeeeeeeeeeeeeeee;eeeeeeeeeeeeaXtddddddj.MM",
"MM#kfffffdf.eeeeeeeeeeeeeeeeeeeeeeeeee;eeeeeeeeeeeeeeeeeeeeeeeeeeeeeee;eeeeeeeeeeeeiXyddddddjXMM",
"MM#xffffffdd+++++++++e+++++++o++++o++++++++++o++w++++++o++++++o++o+o++++++e+++o+++++fdddddddzXMM",
"MM+zffffffffdfdddfsddXdsdddddddddddddddddddddddd&sddddddddddddddfddddddddd+ddddddsddddddddddzXMM",
"MM$xfffffffffffdddfdd7dddddddddddddddddddddddddd8ddddddddddddddddddddddddd7dddddddddddddsdddz.MM",
"MM$vffffffffdfdddfsdd7dddddddddddddddddddddddddd7ddddddddddddddddddddddddd7dddddddddddddddddc.MM",
"MM$cffffffffffdffdddd7dddddddddddfdddddddddddddd7dddddsddddddddddfdddddddf7dddddsdddddddddddc.MM",
"MM#ccxxxllkkkkkkkkkkk7kkkkkkkkkkhllhkkkkkkkkkkkk7kkkkkklkkkkkkkkljljkklklh7lkkkkkkkkkkkxxcccc.MM",
"MMXirrrrrreerrrrteeer7rrreeerrrreeeerrtteeeerrrr7ewerrrryeeerrrreeeeeteeee7errrrtewerrrrrreeiXMM",
"MMXirrrerrrrrrrreeeer7rrryeerrrreeeeeteeyeeerrrr7eeerrrreeeerrrrweeeeeeeee7errrreteerrrrrreeaXMM",
"MMXaeeqeyetrrrqrrrwer rrrrqerrqreeweeeeeerqerrqt.eweeeterrqerrqreeeeeeeeee.trrqryeqeerqrrrqraXMM",
"MMMX..X.X  X XXX X.X.X..X XXX .X.X...X..X XXX .X.X......X XX.X..........X ...X..XX...X..X .X MMM"
};
