/* XPM */
static char *result[] = {
/* columns rows colors chars-per-pixel */
"130 60 166 2 ",
"   c #4F2913",
".  c #4F311E",
"X  c #53321E",
"o  c #56321C",
"O  c #4F3625",
"+  c #543523",
"@  c #543624",
"#  c #553726",
"$  c #553827",
"%  c #5A3B27",
"&  c #5E3B25",
"*  c #573928",
"=  c #563B2A",
"-  c #563D2C",
";  c #573C2D",
":  c #573D2D",
">  c #573E2D",
",  c #573E2E",
"<  c #593D2A",
"1  c #573F30",
"2  c #583F30",
"3  c #5C402D",
"4  c #584030",
"5  c #5B4231",
"6  c #584032",
"7  c #594032",
"8  c #584132",
"9  c #594233",
"0  c #5E4532",
"q  c #594234",
"w  c #594334",
"e  c #594335",
"r  c #5A4336",
"t  c #5A4436",
"y  c #5A4437",
"u  c #5A4537",
"i  c #5A4637",
"p  c #56463A",
"a  c #57473A",
"s  c #5A4538",
"d  c #5A4638",
"f  c #5A4639",
"g  c #5B4639",
"h  c #5A4739",
"j  c #5B4739",
"k  c #5B473A",
"l  c #5B473B",
"z  c #56483B",
"x  c #57483B",
"c  c #57483C",
"v  c #5B483A",
"b  c #5B483B",
"n  c #5C4939",
"m  c #5D493A",
"M  c #5C4A3B",
"N  c #5D4A3B",
"B  c #5B483C",
"V  c #5B493C",
"C  c #594A3C",
"Z  c #594A3D",
"A  c #5A4A3D",
"S  c #594A3E",
"D  c #594B3E",
"F  c #5C493D",
"G  c #5C4A3E",
"H  c #5C4B3E",
"J  c #5C4B3F",
"K  c #624937",
"L  c #614A38",
"P  c #644E3D",
"I  c #5C4B40",
"U  c #5C4D41",
"Y  c #5D4D41",
"T  c #5D4D42",
"R  c #5D4E42",
"E  c #5D4E43",
"W  c #5D4F43",
"Q  c #5E4E43",
"!  c #5E4F44",
"~  c #5E4F45",
"^  c #5D5044",
"/  c #5E5145",
"(  c #5C5147",
")  c #5F5046",
"_  c #5E5146",
"`  c #5F5146",
"'  c #5C5247",
"]  c #5D5247",
"[  c #5D5248",
"{  c #5F5248",
"}  c #5F5348",
"|  c #5F5349",
" . c #5E554A",
".. c #5F564B",
"X. c #5C554C",
"o. c #5F574C",
"O. c #655444",
"+. c #665444",
"@. c #675544",
"#. c #61554C",
"$. c #60574C",
"%. c #61564D",
"&. c #60574D",
"*. c #62574E",
"=. c #60584D",
"-. c #60594D",
";. c #615A4E",
":. c #615A4F",
">. c #615B4F",
",. c #635951",
"<. c #655C55",
"1. c #655D56",
"2. c #665E57",
"3. c #665F58",
"4. c #6B6256",
"5. c #6A6357",
"6. c #6C6254",
"7. c #6C6255",
"8. c #6C6355",
"9. c #6D6457",
"0. c #676159",
"q. c #676259",
"w. c #68625A",
"e. c #68635A",
"r. c #69635B",
"t. c #69645B",
"y. c #6D6558",
"u. c #69645C",
"i. c #6A645C",
"p. c #6A655C",
"a. c #6B655D",
"s. c #6A665C",
"d. c #6B665D",
"f. c #6B675D",
"g. c #6B675E",
"h. c #6C665E",
"j. c #6C675E",
"k. c #6C675F",
"l. c #6C685E",
"z. c #6C685F",
"x. c #6D685F",
"c. c #6D695F",
"v. c #706A5E",
"b. c #6D6960",
"n. c #6F6A61",
"m. c #716C60",
"M. c #726D61",
"N. c #726E62",
"B. c #746F62",
"V. c #746F63",
"C. c #746F64",
"Z. c #726E69",
"A. c #747064",
"S. c #757065",
"D. c #767469",
"F. c #7B786F",
"G. c #7C7970",
"H. c #85837A",
"J. c #868579",
"K. c #86847B",
"L. c #88877B",
"P. c #918F88",
"I. c #929088",
"U. c #94928B",
"Y. c #99978F",
"T. c None",
/* pixels */
"T.K.K.K.K.K.K.K.K.K.K.K.K.K.K.K.O.K.K.K.K.K.K.K.K.K.K.K.K.K.K.K.K.K.K.K.K.K.K.K.K.K.K.K.K.K.K.K.O.K.K.K.K.K.K.K.K.K.K.K.K.K.K.K.K.K.K.K.K.K.K.K.K.K.K.K.K.K.K.K.  M -.-.>.>.-.K.K.K.K.K.K.K.K.K.K.K.K.K.K.K.K.K.K.K.K.K.K.K.K.K.O.K.K.K.K.K.K.K.K.K.K.K.K.K.K.K.K.T.",
"T.D.D.D.D.D.D.D.D.D.D.D.D.D.D.D.O.D.D.D.D.D.D.D.D.D.D.D.D.D.D.D.D.D.D.D.D.D.D.D.D.D.D.D.D.D.D.D.O.D.D.D.D.D.D.D.D.D.D.D.D.D.D.D.D.D.D.D.D.D.D.D.D.D.D.D.D.D.D.D.  N N m ;.:.D.D.D.D.D.D.D.D.D.D.D.D.D.D.D.D.D.D.D.D.D.D.D.D.D.D.O.D.D.D.D.D.D.D.D.D.D.D.D.D.D.D.D.T.",
"T.D.D.D.D.D.D.D.D.D.D.D.D.D.D.D.O.D.D.D.D.D.D.D.D.D.D.D.D.D.D.D.D.D.D.D.D.D.D.D.D.D.D.D.D.D.D.D.O.D.D.D.D.D.D.D.D.D.D.D.D.D.D.D.D.D.D.D.D.D.D.D.D.D.D.D.D.D.D.D.  m N D.D.D.D.D.D.D.D.D.D.D.D.D.D.D.D.D.D.D.D.D.D.D.D.D.D.D.D.D.O.D.D.D.D.D.D.D.D.D.D.D.D.D.D.D.D.T.",
"T.D.D.D.D.D.D.D.D.D.D.D.D.D.D.D.O.D.D.D.D.D.D.D.D.D.D.D.D.D.D.D.D.D.D.D.D.D.D.D.D.D.D.D.D.D.D.D.O.D.D.D.D.D.D.D.D.D.D.D.D.D.D.D.D.D.D.D.D.D.D.D.D.D.D.D.D.D.D.D.  n D.D.D.D.D.D.D.D.D.D.D.D.D.D.D.D.D.D.D.D.D.D.D.D.D.D.D.D.D.D.O.D.D.D.D.D.D.D.D.D.D.D.D.D.D.D.D.T.",
"T.D.D.D.D.D.D.D.D.D.D.D.D.D.D.D.& D.D.D.D.D.D.D.D.D.D.D.D.D.D.D.D.D.D.D.D.D.D.D.D.D.D.D.D.D.D.D.& D.D.D.D.D.D.D.D.D.D.D.D.D.D.D.D.D.D.D.D.D.D.D.D.D.D.D.D.D.D.D.  D.D.D.D.D.D.D.D.D.D.D.D.D.D.D.D.D.D.D.D.D.D.D.D.D.D.D.D.D.D.D.& D.D.D.D.D.D.D.D.D.D.D.D.D.D.D.D.T.",
"T.o o o o o o o o o o o o o o o 3.o o o o o o o o o o o o o o o o o o o o o o o o o o o o o o o 3.o o o o o o o o o * o o o o o o o o o o o o o o o o o o o o o 3.o o o o o o o o o o o o o o o o o o o o o o o o o o o o o o o 3.o o o o o o o o o o o o o o o o T.",
"T.3.3.3.3.3.3.3.3.3.3.3.3.3.3.3.3.3.3.3.3.3.3.3.3.3., 3.3.3.3.3.3.3.3.3.3.3.3.3.3.3.3.3.3.3.3.3.3.3.3.3.: A A / | _ 8 3.3.3.3.3.3.3.3.3.3.3.3.3.3.3.3.3.3.3.3.3.3.3.3.3.3.3.3.3.3.3., 3.3.3.3.3.3.3.3.3.3.3.3.3.3.3.3.3.3.3.3.3.3.3.3.3.3.3.3.3.3.3., 3.3.3.3.3.3.T.",
"T.3.3.3.3.3.3.3.3.3.3.3.3.3.3.3.3.3.3.3.3.3.3.3.3.3.: 3.3.3.3.3.3.3.3.3.3.3.3.3.3.3.3.3.3.3.3.3.3.3.3.3.k.: A ^ | { 8 3.3.3.3.3.3.3.3.3.3.3.3.3.3.3.3.3.3.3.3.3.3.3.3.3.3.3.3.3.3.3.: 3.3.3.3.3.3.3.3.3.3.3.3.3.3.3.3.3.3.3.3.3.3.3.3.3.3.3.3.3.3.3.: 3.3.3.3.3.3.T.",
"T.3.3.3.3.3.3.3.3.3.3.3.3.3.3.3.3.3.3.3.3.3.3.3.3.3.8 3.3.3.3.3.3.3.3.3.3.3.3.3.3.3.3.3.3.3.3.3.3.3.3.k.: : : A } } 8 3.3.3.3.3.3.3.3.3.3.3.3.3.3.3.3.3.3.3.3.3.3.3.3.3.3.3.3.3.3.3.8 3.3.3.3.3.3.3.3.3.3.3.3.3.3.3.3.3.3.3.3.3.3.3.3.3.3.3.3.3.3.3.8 3.3.3.3.3.3.T.",
"T.3.3.3.3.3.3.3.3.3.3.3.3.3.3.3.3.3.3.3.3.3.3.3.3.3.| 3.3.3.3.3.3.3.3.3.3.3.3.3.3.3.3.3.3.3.3.3.3.3.k.: 3.3.3.3.: d j 3.3.3.3.3.3.3.3.3.3.3.3.3.3.3.3.3.3.3.3.3.3.3.3.3.3.3.3.3.3.3.| 3.3.3.3.3.3.3.3.3.3.3.3.3.3.3.3.3.3.3.3.3.3.3.3.3.3.3.3.3.3.3.| 3.3.3.3.3.3.T.",
"T.3.3.3.3.3.3.3.3.3.3.3.3.3.3.3.3.3.3.3.3.3.3.3.3.3._ 3.3.3.3.3.3.3.3.3.3.3.3.3.3.3.3.3.3.3.3.3.3.3.: 3.3.3.3.3.3.: d 3.3.3.3.3.3.3.3.3.3.3.3.3.3.3.3.3.3.3.3.3.3.3.3.3.3.3.3.3.3.3._ 3.3.3.3.3.3.3.3.3.3.3.3.3.3.3.3.3.3.3.3.3.3.3.3.3.3.3.3.3.3.3._ 3.3.3.3.3.3.T.",
"T.3.3.3.3.3.3.3.3.3.3.3.3.3.3.3.3.3.3.3.3.3.3.3.3.k.H 3.3.3.3.3.3.3.3.3.3.3.3.3.3.3.3.3.3.3.3.3.3.3.3.3.3.3.3.3.3.: u 3.3.3.3.3.3.3.3.3.3.3.3.3.3.3.3.3.3.3.3.3.3.3.3.3.3.3.3.3.3.3.H 3.3.3.3.3.3.3.3.3.3.3.3.3.3.3.3.3.3.3.3.3.3.3.3.3.3.3.3.3.3.3.H 3.3.3.3.3.3.T.",
"T.3.3.3.3.3.3.3.3.3.3.3.3.3.3.3.3.3.3.3.3.3.3.3.k.H w 3.3.3.3.3.3.3.3.3.3.3.3.3.3.3.3.3.3.3.3.3.3.3.3.3.3.3.3.3.3.3.H 3.3.3.3.3.3.3.3.3.3.3.3.3.3.3.3.3.3.3.3.3.3.3.3.3.3.3.3.3.3.3.H 3.3.3.3.3.3.3.3.3.3.3.3.3.3.3.3.3.3.3.3.3.3.3.3.3.3.3.3.3.3.3.H 3.3.3.3.3.3.T.",
"T.k.k.k.k.k.k.k.k.k.k.k.k.k.k.k.k.k.k.k.k.k.k.k.H v 2 k.k.k.k.k.k.k.k.k.k.k.k.k.k.k.k.k.k.k.k.k.k.k.k.k.k.k.k.k.k.k.H k.k.k.k.k.k.k.k.k.k.k.k.k.k.k.k.k.k.k.k.k.k.k.k.k.k.k.k.k.k.k.H k.k.k.k.k.k.k.k.k.k.k.k.k.k.k.k.k.k.k.k.k.k.k.k.k.k.k.k.k.k.k.H k.k.k.k.k.k.T.",
"T.U U U U U U + + + + + + T R R R R R E W ^ ^ d q 9 w 9 w i | | | U U U U U U + + + + + + T R R R R R E W ^ ^ ^ ^ H H V H H | | | U U U U U U + + + + + + T R R R R R E W ^ ^ ^ ^ H H V H H | | | U U U U U U + + + + + + T R R R R R E W ^ ^ ^ ^ H H V H H | | | T.",
"T.3.3.3.3.3.3.3.3.+ 3.3.3.3.3.3.3.3.3.3.3.3.3.3.3.3.3.3.3.1.3.3.3.3.3.3.3.3.3.3.3.+ 3.3.3.3.3.3.3.3.3.3.3.3.3.3.3.3.3.3.3.1.3.3.3.3.3.3.3.3.3.3.3.+ 3.3.3.3.3.3.3.3.3.3.3.3.3.3.3.3.3.3.3.1.3.3.3.3.3.3.3.3.3.3.3.+ 3.3.3.3.3.3.3.3.3.3.3.3.3.3.3.3.3.3.3.1.3.3.3.T.",
"T.3.3.3.3.3.3.3.3.+ 3.3.3.3.3.3.3.3.3.3.3.3.3.3.3.3.3.3.3.3.3.3.3.3.3.3.3.3.3.3.3.+ 3.3.3.3.3.3.3.3.3.3.3.3.3.3.3.3.3.3.3.3.3.3.3.3.3.3.3.3.3.3.3.+ 3.3.3.3.3.3.3.3.3.3.3.3.3.3.3.3.3.3.3.3.3.3.3.3.3.3.3.3.3.3.3.h 3.3.3.3.3.3.3.3.3.3.3.3.3.3.3.3.3.3.3.3.3.3.3.T.",
"T.3.3.3.3.3.3.3.3.! 3.3.3.3.3.3.3.3.3.3.3.3.3.3.3.3.3.3.3.3.3.3.3.3.3.3.3.3.3.3.3.! 3.3.3.3.3.3.3.3.3.3.3.3.3.3.3.3.3.3.3.3.3.3.3.3.3.3.3.3.3.3.3.! 3.3.3.3.3.3.3.3.3.3.3.3.3.3.3.3.3.3.3.3.3.3.3.3.3.3.3.3.3.3.3.h 3.3.3.3.3.3.3.3.3.3.3.3.3.3.3.3.3.3.3.3.3.3.3.T.",
"T.3.3.3.3.3.3.3.3.~ 3.3.3.3.3.3.3.u.u.u.3.3.3.3.3.3.3.3.3.3.3.3.3.3.3.3.3.3.3.3.1.~ 3.3.3.3.3.3.3.3.3.3.3.3.3.3.3.3.3.3.3.3.3.3.3.3.3.3.3.3.3.3.1.~ 3.3.3.3.3.3.3.3.3.3.3.3.3.3.3.3.3.3.3.3.3.3.3.3.3.3.3.3.3.3.1.h z.3.3.3.3.3.3.3.3.3.3.3.3.3.3.3.3.3.3.3.3.3.3.T.",
"T.3.3.3.3.3.3.3.2.~ 3.3.3.3.3.3.3.7 6 q u.3.3.3.3.3.3.3.3.3.3.3.3.3.3.3.3.3.3.3.<.~ 3.3.3.3.3.3.3.3.3.3.3.3.3.3.3.3.3.3.3.3.3.3.3.3.3.3.3.3.3.3.<.~ 3.3.3.3.3.3.3.3.3.3.3.3.3.3.3.3.3.3.3.3.3.3.3.3.3.3.3.3.3.3.<.h z.3.3.3.3.3.3.3.3.3.3.3.3.3.3.3.3.3.3.3.3.3.3.T.",
"T.3.3.3.3.3.3.3.3.F 3.3.3.3.3.3.G %.%.Q l u.3.3.3.3.3.3.3.3.3.3.3.3.3.3.3.3.3.3.3.F 3.3.3.3.3.3.3.3.3.3.3.3.3.3.3.3.3.3.3.3.3.3.3.3.3.3.3.3.3.3.3.F 3.3.3.3.3.3.3.3.3.3.3.3.3.3.3.3.3.3.3.3.3.3.3.3.3.3.3.3.3.3.3.Q h z.3.3.3.3.3.3.3.3.3.3.3.3.3.3.3.3.3.3.3.3.3.T.",
"T.3.3.3.3.3.3.3.3.J 3.3.3.3.3.3.) %.%.Q Q f 3.3.3.3.3.3.3.3.3.3.3.3.3.3.3.3.3.3.3.J 3.3.3.3.3.3.3.3.3.3.3.3.3.3.3.3.3.3.3.3.3.3.3.3.3.3.3.3.3.3.3.J 3.3.3.3.3.3.3.3.3.3.3.3.3.3.3.3.3.3.3.3.3.3.3.3.3.3.3.3.3.3.3.Q Q h z.3.3.3.3.3.3.3.3.3.3.3.3.3.3.3.3.3.3.3.3.T.",
"T.k.k.k.k.k.k.k.k.I j.k.z.` ` ` ,.#.#.*.Q s u.u.u.u.u.u.u.u.u.u.u.k.k.k.k.k.k.k.k.I j.k.z.z.z.z.z.u.u.u.u.u.u.u.u.u.u.u.u.u.u.u.u.k.k.k.k.k.k.k.k.I j.k.z.z.z.z.z.z.z.z.z.z.z.z.z.z.z.z.z.z.z.z.z.z.z.z.k.k.k.k.Q Q Q Q b z.z.z.z.u.u.u.u.u.u.u.u.u.u.u.u.u.u.u.u.T.",
"T.| | | | | k V V T V b 6 e e e r t y y s f g B ; # + @ ; ; b b b | | | | | k V V T V b h | | | | | | | | | | | ; # + @ ; ; b b b | | | | | k V V T V b h | | | | | | | | | | | ; # + @ ; ; b b b b b b b b = > > > > > > > 4 4 v b | | | | | | ; # + @ ; ; b b b T.",
"T.0.0.0.0.0.0.0.0.0.0.0.0.0.0.0.0.0.0.0.0.0.0.0.0.0.1 0.0.0.0.0.0.0.0.0.0.0.0.0.0.0.0.0.0.0.0.0.0.0.0.0.0.0.0.0.0.0.1 0.0.0.0.0.0.0.0.0.0.0.0.0.0.0.0.0.0.0.0.0.0.0.0.0.0.0.0.0.0.0.1 0.0.0.0.0.0.0.0.0.0.0.0.0.0.0.0.0.0.0.0.0.0.0.0.0.0.0.0.0.0.0.1 0.0.0.0.0.0.T.",
"T.0.0.0.0.0.0.0.0.0.0.0.0.0.0.0.0.0.0.0.0.0.0.0.0.0.8 0.0.0.0.0.0.0.0.0.0.0.0.0.0.0.0.0.0.0.0.0.0.0.0.0.0.0.0.0.0.0.8 0.0.0.0.0.0.0.0.0.0.0.0.0.0.0.0.0.0.0.0.0.0.0.0.0.0.0.0.0.0.0.8 0.0.0.0.0.0.0.0.0.0.0.0.0.0.0.0.0.0.0.0.0.0.0.0.0.0.0.0.0.0.0.8 0.0.0.0.0.0.T.",
"T.0.0.0.0.0.0.0.0.0.0.0.0.0.0.0.0.0.0.0.0.0.0.0.0.0.Y 0.0.0.0.0.0.0.0.0.0.0.0.0.0.0.0.0.0.0.0.0.0.0.0.0.0.0.0.0.0.0.Y 0.0.0.0.0.0.0.0.0.0.0.0.0.0.0.0.0.0.0.0.0.0.0.0.0.0.0.0.0.0.0.Y 0.0.0.0.0.0.0.0.0.0.0.0.0.0.0.0.0.0.0.0.0.0.0.0.0.0.0.0.0.0.0.Y 0.0.0.0.0.0.T.",
"T.0.0.0.0.0.0.0.0.0.0.0.0.0.0.0.0.0.0.0.0.0.0.0.0.0.Y 0.0.0.0.0.0.0.0.0.0.0.0.0.0.0.0.0.0.0.0.0.0.0.0.0.0.0.0.0.0.0.Y 0.0.0.0.0.0.0.0.0.0.0.0.0.0.0.0.0.0.0.0.0.0.0.0.0.0.0.0.0.0.0.Y 0.0.0.0.0.0.0.0.0.0.0.0.0.0.0.0.0.0.0.0.0.0.0.0.0.0.0.0.0.0.0.Y 0.0.0.0.0.0.T.",
"T.0.0.0.0.0.0.0.0.0.0.0.0.0.0.0.0.0.0.0.0.0.0.0.0.0.Y 0.0.0.0.0.0.0.0.0.0.0.0.0.0.0.0.0.0.0.0.0.0.0.0.0.0.0.0.0.0.0.Y 0.0.0.0.0.0.0.0.0.0.0.0.0.0.0.0.0.0.0.0.0.0.0.0.0.0.0.0.0.0.0.Y 0.0.0.0.0.0.0.0.0.0.0.0.0.0.0.0.0.0.0.0.0.0.0.0.0.0.0.0.0.0.0.Y 0.0.0.0.0.0.T.",
"T.0.0.0.0.0.0.0.0.0.0.0.0.0.0.0.0.0.0.0.0.0.0.0.0.0.Y 0.0.0.0.0.0.0.0.0.0.0.0.0.0.0.0.0.0.0.0.0.0.0.0.0.0.0.0.0.0.0.Y 0.0.0.0.0.0.0.0.0.0.0.0.0.0.0.0.0.0.0.0.0.0.0.0.0.0.0.0.0.0.0.Y 0.0.0.0.0.0.0.0.0.0.0.0.0.0.0.0.0.0.0.0.0.0.0.0.0.0.0.0.0.0.0.Y 0.0.0.0.0.0.T.",
"T.0.0.0.0.0.0.0.0.0.0.0.0.0.0.0.0.0.0.0.0.0.0.0.0.0.Y 0.0.0.0.0.0.0.0.0.0.0.0.0.0.0.0.0.0.0.0.0.0.0.0.0.0.0.0.0.0.0.Y 0.0.0.0.0.0.0.0.0.0.0.0.0.0.0.0.0.0.0.0.0.0.0.0.0.0.0.0.0.0.0.Y 0.0.0.0.0.0.0.0.0.0.0.0.0.0.0.0.0.0.0.0.0.0.0.0.0.0.0.0.0.0.0.Y 0.0.0.0.0.0.T.",
"T.k.k.k.k.k.k.k.k.k.k.k.k.k.k.k.k.k.k.k.k.k.k.k.k.k.Y x.x.x.x.x.x.k.k.k.k.k.k.k.k.k.k.k.k.k.k.k.k.k.k.k.k.k.k.k.k.k.Y Z.Z.Z.Z.Z.Z.Z.Z.Z.Z.Z.Z.Z.Z.Z.Z.Z.Z.Z.Z.Z.Z.Z.Z.Z.Z.Z.Z.Z.Z.Z.Y x.x.x.x.x.x.k.k.k.k.k.k.k.k.k.k.k.k.k.k.k.k.k.k.k.k.k.k.k.k.k.Y x.x.x.x.x.x.T.",
"T.| | | | | | 2 $ # = - 8 8 | | | | | | | | _ _ _ Y Y Y _ _ _ _ _ | | | | | | 2 $ # = - 8 8 | | | | | | | | _ _ _ Y Y Y _ _ _ _ _ | | | | | | 2 $ # = - 8 8 | | | | | | | | _ _ _ Y Y Y _ _ _ _ _ | | | | | | 2 $ # = - 8 8 | | | | | | | | _ _ _ Y Y Y _ _ _ _ _ T.",
"T.0.0.0.0.0.0.0.0.@ 0.0.0.0.0.0.0.0.0.0.0.0.0.0.0.0.0.0.0.0.0.0.0.0.0.0.0.0.0.0.0.@ 0.0.0.0.0.0.0.0.0.0.0.0.0.0.0.0.0.0.0.0.0.0.0.0.0.0.0.0.0.0.0.@ 0.0.0.0.0.0.0.0.0.0.0.0.0.0.0.0.0.0.0.0.0.0.0.0.0.0.0.0.0.0.0.@ 0.0.0.0.0.0.0.0.0.0.0.0.0.0.0.0.0.0.0.0.0.0.0.T.",
"T.0.0.0.0.0.0.0.0.8 0.0.0.0.0.0.0.0.0.0.0.0.0.0.0.0.0.0.0.0.0.0.0.0.0.0.0.0.0.0.0.8 0.0.0.0.0.0.0.0.0.0.0.0.0.0.0.0.0.0.0.0.0.0.0.0.0.0.0.0.0.0.0.8 0.0.0.0.0.0.0.0.0.0.0.0.0.0.0.0.0.0.0.0.0.0.0.0.0.0.0.0.0.0.0.8 0.0.0.0.0.0.0.0.0.0.0.0.0.0.0.0.0.0.0.0.0.0.0.T.",
"T.] ] ] ] ] ' ( ( O ' ' ' ' ' ' ' ' ' ' ' ' ' ' ' ' ' ' ' ' ' ' ' ] ] ] ] ] ' ( ( O ' ' ' ' ' ' ' ' ' ' ' ' ' ' ' ' ' ' ' ' ' ' ' ] ] ] ] ] ' ( ( O ' ' ' ' ' ' ' ' ' ' ' ' ' ' ' ' ' ' ' ' ' ' ' ] ] ] ] ] ' ( ( O ' ' ' ' ' ' ' ' ' ' ' ' ' ' ' ' ' ' ' ' ' ' ' T.",
"T.[ ] ] ] ] ' ' ' O ' ' ' ' ' ' ' ' ' ' ' ' ' ' ' ' ' ' ' ' ' ' ' [ ] ] ] ] ' ' ' O ' ' ' ' ' ' ' ' ' ' ' ' ' ' ' ' ' ' ' ' ' ' ' [ ] ] ] ] ' ' ' O ' ' ' ' ' ' ' ' ' ' ' ' ' ' ' ' ' ' ' ' ' ' ' [ ] ] ] ] ' ' ' O ' ' ' ' ' ' ' ' ' ' ' ' ' ' ' ' ' ' ' ' ' ' ' T.",
"T.[ ] ] ] ] ' ' ' O ' ' ' ' ' ' ' ' ' ' ' ' ' ' ' ' ' ' ' ' ' ' ' [ ] ] ] ] ' ' ' O ' ' ' ' ' ' ' ' ' ' ' ' ' ' ' ' ' ' ' ' ' ' ' [ ] ] ] ] ' ' ' O ' ' ' ' ' ' ' ' ' ' ' ' ' ' ' ' ' ' ' ' ' ' ' [ ] ] ] ] ' ' ' O ' ' ' ' ' ' ' ' ' ' ' ' ' ' ' ' ' ' ' ' ' ' ' T.",
"T.[ ] ] ] ] ] ' ' O ' ' ' ' ' ' ' ' ' ' ' ' ' ' ' ' ' ' ' ' ' ' ' [ ] ] ] ] ] ' ' O ' ' ' ' ' ' ' ' ' ' ' ' ' ' ' ' ' ' ' ' ' ' ' [ ] ] ] ] ] ' ' O ' ' ' ' ' ' ' ' ' ' ' ' ' ' ' ' ' ' ' ' ' ' ' [ ] ] ] ] ] ' ' O ' ' ' ' ' ' ' ' ' ' ' ' ' ' ' ' ' ' ' ' ' ' ' T.",
"T.[ ] ] ] ] ] ' ' . ' ' ' ' ' ' ' ' ' ' ' ' ' ' ' ' ' ' ' ' ' ' ' [ ] ] ] ] ] ' ' . ' ' ' ' ' ' ' ' ' ' ' ' ' ' ' ' ' ' ' ' ' ' ' [ ] ] ] ] ] ' ' . ' ' ' ' ' ' ' ' ' ' ' ' ' ' ' ' ' ' ' ' ' ' ' [ ] ] ] ] ] ' ' . ' ' ' ' ' ' ' ' ' ' ' ' ' ' ' ' ' ' ' ' ' ' ' T.",
"T.[ ] ] ] ] ' ( ( . ' ' ' ' ' ' ' ' ' ' ' ' ' ' ' ' ' ' ' ' ' ' ' [ ] ] ] ] ' ( ( . ' ' ' ' ' ' ' ' ' ' ' ' ' ' ' ' ' ' ' ' ' ' ' [ ] ] ] ] ' ( ( . ' ' ' ' ' ' ' ' ' ' ' ' ' ' ' ' ' ' ' ' ' ' ' [ ] ] ] ] ' ( ( . ' ' ' ' ' ' ' ' ' ' ' ' ' ' ' ' ' ' ' ' ' ' ' T.",
"T.                              '                                                             ' ' ' ' ' ' ' '                                                 D A C C                                                           '                                 T.",
"T.0.0.0.0.0.0.0.0.0.0.0.0.0.0.0.  0.0.0.0.0.0.0.0.0.0.0.0.0.0.0.0.0.0.0.0.0.0.0.0.0.0.0.0.0.0.  '             ' X.0.0.0.0.0.0.0.0.0.0.0.0.0.0.0.0.0.0.0.0.0.0.  S Z   e.e.0.0.0.0.0.0.0.0.0.0.0.0.0.0.0.0.0.0.0.0.0.0.0.0.0.0.0.  0.0.0.0.0.0.0.0.0.0.0.0.0.0.0.0.T.",
"T.0.0.0.0.0.0.0.0.0.0.0.0.0.0.0.X 0.0.0.0.0.0.0.0.0.0.0.0.0.0.0.0.0.0.0.0.0.0.0.0.0.0.0.0.0.0.0.X c p z .... .w.0.0.0.0.0.0.0.0.0.0.0.0.0.0.0.0.0.0.0.0.0.0.0.0.    e.e.0.0.0.0.0.0.0.0.0.0.0.0.0.0.0.0.0.0.0.0.0.0.0.0.0.0.0.0.X 0.0.0.0.0.0.0.0.0.0.0.0.0.0.0.0.T.",
"T.e.e.e.w.e.e.w.w.w.w.w.w.w.w.w.X w.e.e.e.w.w.w.q.w.q.q.q.q.q.q.q.e.e.e.w.e.e.w.w.w.w.w.w.w.w.w.X a x ......x.w.q.w.q.q.q.q.q.q.q.e.e.e.w.e.e.w.w.w.w.w.w.w.w.w.  w.e.e.e.w.w.w.q.w.q.q.q.q.q.q.q.e.e.e.w.e.e.w.w.w.w.w.w.w.w.w.X w.e.e.e.w.w.w.q.w.q.q.q.q.q.q.q.T.",
"T.r.r.e.e.e.e.e.e.e.e.e.e.e.e.e.X e.e.r.r.r.r.r.r.r.r.r.r.r.r.r.r.r.r.e.e.e.e.e.e.e.e.e.e.e.e.e.X e.e.r...o.b.e.e.r.r.r.r.r.r.r.r.r.r.e.e.e.e.e.e.e.e.e.e.e.e.e.X e.e.r.r.r.r.r.r.r.r.r.r.r.r.r.r.r.r.e.e.e.e.e.e.e.e.e.e.e.e.e.X e.e.r.r.r.r.r.r.r.r.r.r.r.r.r.r.T.",
"T.t.t.t.t.t.t.t.t.t.r.r.r.r.r.r.X t.t.t.t.t.t.t.t.t.t.t.t.t.i.t.t.t.t.t.t.t.t.t.t.t.r.r.r.r.r.r.X t.t.t.p.p.&.x.g.e.t.t.t.t.i.t.t.t.t.t.t.t.t.t.t.t.r.r.r.r.r.r.X t.t.t.t.t.t.t.t.t.t.t.t.t.i.t.t.t.t.t.t.t.t.t.t.t.r.r.r.r.r.r.X t.t.t.t.t.t.t.t.t.t.t.t.t.i.t.t.T.",
"T.t.t.t.t.t.t.t.t.t.t.t.t.t.t.t.X p.i.p.p.p.p.p.p.p.p.p.p.p.p.p.p.t.t.t.t.t.t.t.t.t.t.t.t.t.t.t.X p.i.p.p.p.p.$.=.n.p.p.p.p.p.p.p.t.t.t.t.t.t.t.t.t.t.t.t.t.t.t.X p.i.p.p.p.p.p.p.p.p.p.p.p.p.p.p.t.t.t.t.t.t.t.t.t.t.t.t.t.t.t.X p.i.p.p.p.p.p.p.p.p.p.p.p.p.p.p.T.",
"T.p.p.p.p.i.i.i.i.i.i.i.i.p.a.a.< a.a.a.a.p.p.p.p.p.p.p.p.p.p.p.p.p.p.p.p.i.i.i.i.i.i.i.i.p.a.a.< a.a.a.a.p.p.p.p.o.p.p.p.p.p.p.p.p.p.p.p.i.i.i.i.i.i.i.i.p.a.a.< a.a.a.a.p.p.p.p.p.p.p.p.p.p.p.p.p.p.p.p.i.i.i.i.i.i.i.i.p.a.a.< a.a.a.a.p.p.p.p.p.p.p.p.p.p.p.p.T.",
"T.s.s.s.s.p.p.p.p.a.a.d.d.d.d.d.5 d.d.d.d.d.d.d.d.d.d.d.d.d.d.d.f.s.s.s.s.p.p.p.p.a.a.d.d.d.d.d.5 d.d.d.d.d.d.d.d.p.d.d.d.d.d.d.f.s.s.s.s.p.p.p.p.a.a.d.d.d.d.d.5 d.d.d.d.d.d.d.d.d.d.d.d.d.d.d.f.s.s.s.s.p.p.p.p.a.a.d.d.d.d.d.5 d.d.d.d.d.d.d.d.d.d.d.d.d.d.d.f.T.",
"T.d.d.d.d.d.d.d.d.d.d.d.d.d.d.d.5 f.f.f.f.f.j.j.j.j.j.j.j.j.j.j.j.d.d.d.d.d.d.d.d.d.d.d.d.d.d.d.5 f.f.f.f.f.j.j.j.j.j.j.j.j.j.j.j.d.d.d.d.d.d.d.d.d.d.d.d.d.d.d.5 f.f.f.f.f.j.j.j.j.j.j.j.j.j.j.j.d.d.d.d.d.d.d.d.d.d.d.d.d.d.d.5 f.f.f.f.f.j.j.j.j.j.j.j.j.j.j.j.T.",
"T.d.d.h.j.j.j.j.j.f.f.j.j.j.j.j.5 G.j.j.j.j.l.l.l.l.l.l.l.l.l.l.x.d.d.h.j.j.j.j.j.f.f.j.j.j.j.j.5 j.j.j.j.j.l.l.l.l.l.l.l.l.l.l.x.d.d.h.j.j.j.j.j.f.f.j.j.j.j.j.5 j.j.j.j.j.l.l.l.l.l.l.l.l.l.l.x.d.d.h.j.j.j.j.j.f.f.j.j.j.j.j.5 j.j.j.j.j.l.l.l.l.l.l.l.l.l.l.x.T.",
"T.j.j.j.j.j.j.j.l.l.l.j.j.l.l.x.5 V.F.x.x.l.l.l.l.x.x.x.x.x.x.x.x.j.j.j.j.j.j.j.l.l.l.j.j.l.l.x.5 j.j.l.l.l.l.l.l.x.x.x.x.x.x.x.x.j.j.j.j.j.j.j.l.l.l.j.j.l.l.x.5 j.j.l.l.l.l.l.l.x.x.x.x.x.x.x.x.j.j.j.j.j.j.j.l.l.l.j.j.l.l.x.5 j.j.l.l.l.l.l.l.x.x.x.x.x.x.x.x.T.",
"T.j.j.j.j.j.j.l.x.x.x.l.l.l.x.x.5 V.C.G.x.x.x.x.x.x.x.x.x.x.x.x.x.j.j.j.j.j.j.l.x.x.x.l.l.l.x.x.5 x.x.c.x.x.x.x.x.x.x.x.x.x.x.x.x.j.j.j.j.j.j.l.x.x.x.l.l.l.x.x.5 x.x.c.x.x.x.x.x.x.x.x.x.x.x.x.x.j.j.j.j.j.j.l.x.x.x.l.l.l.x.x.5 x.x.c.x.x.x.x.x.x.x.x.x.x.x.x.x.T.",
"T.l.l.l.l.l.j.x.x.x.x.x.l.x.x.x.5 C.A.6.H.c.c.x.x.x.x.x.x.x.c.c.c.l.l.l.l.l.j.x.x.x.x.x.l.x.x.x.5 x.c.c.c.c.c.x.x.x.x.x.x.x.c.c.c.l.l.l.l.l.j.x.x.x.x.x.l.x.x.x.5 x.c.c.c.c.c.x.x.x.x.x.x.x.c.c.c.l.l.l.l.l.j.x.x.x.x.x.l.x.x.x.5 x.c.c.c.c.c.x.x.x.x.x.x.x.c.c.c.T.",
"T.U.U.U.U.U.U.U.U.U.U.U.Y.Y.Y.U.+.S.7.6.4.I.P.P.P.P.P.P.P.P.P.P.P.U.U.U.U.U.U.U.U.U.U.U.Y.Y.Y.U.+.Y.Y.Y.U.I.P.P.P.P.P.P.P.P.P.P.P.U.U.U.U.U.U.U.U.U.U.U.Y.Y.Y.U.+.Y.Y.Y.U.I.P.P.P.P.P.P.P.P.P.P.P.U.U.U.U.U.U.U.U.U.U.U.Y.Y.Y.U.+.Y.Y.Y.U.I.P.P.P.P.P.P.P.P.P.P.P.T.",
"T.J.J.J.J.J.J.J.J.J.J.J.J.J.J.J.@.8.9.y.J.J.J.J.J.J.J.J.J.J.J.J.J.J.J.J.J.J.J.J.J.J.J.J.J.J.J.J.@.J.J.J.J.J.J.J.J.J.J.J.J.J.J.J.J.J.J.J.J.J.J.J.J.J.J.J.J.J.J.J.@.J.J.J.J.J.J.J.J.J.J.J.J.J.J.J.J.J.J.J.J.J.J.J.J.J.J.J.J.J.5.5.L J.J.J.J.J.J.J.J.J.J.J.J.J.J.J.J.T.",
"T.J.J.J.J.J.J.J.J.J.J.J.J.J.J.J.K L.J.J.J.J.J.J.J.J.J.J.J.J.J.J.J.J.J.J.J.J.J.J.J.J.J.J.J.J.J.J.K L.J.J.J.J.J.J.J.J.J.J.J.J.J.J.J.J.J.J.J.J.J.J.J.J.J.J.J.J.J.J.K L.J.J.J.J.J.J.J.J.J.J.J.J.J.J.J.J.J.J.J.J.J.J.J.J.J.J.J.m.M.N.P L.J.J.J.J.J.J.J.J.J.J.J.J.J.J.J.T.",
"T.J.J.J.J.J.J.J.J.J.J.J.J.J.J.J.0 L.L.J.J.J.J.J.J.J.J.J.J.J.J.J.J.J.J.J.J.J.J.J.J.J.J.J.J.J.J.J.0 L.L.J.J.J.J.J.J.J.J.J.J.J.J.J.J.J.J.J.J.J.J.J.J.J.J.J.J.J.J.J.0 L.L.J.J.J.J.J.J.J.J.J.J.J.J.J.J.J.J.J.J.J.J.J.J.J.J.v.v.m.B.3 T.% L.J.J.J.J.J.J.J.J.J.J.J.J.J.J.T.",
"T.% % % % % % % % % % % % % % % T.% % % % % % % % % % % % % % % % % % % % % % % % % % % % % % % T.% % % % % % % % % % % % % % % % % % % % % % % % % % % % % % % T.% % % % % % % % % % % % % % % % % % % % % % % % % % % % % % T.T.T.% % % % % % % % % % % % % % % T."
};
