/* XPM */
static char *result[] = {
/* columns rows colors chars-per-pixel */
"74 64 195 2 ",
"   c #4B2511",
".  c #4C2611",
"X  c #4D2712",
"o  c #4D2713",
"O  c #4E2812",
"+  c #4F2913",
"@  c #4F2B17",
"#  c #502D18",
"$  c #512D18",
"%  c #512E19",
"&  c #512E1A",
"*  c #512F1B",
"=  c #4F311E",
"-  c #52301C",
";  c #52301D",
":  c #52311D",
">  c #53321E",
",  c #56321C",
"<  c #4F3625",
"1  c #4F3626",
"2  c #533320",
"3  c #543421",
"4  c #543523",
"5  c #543623",
"6  c #543624",
"7  c #543625",
"8  c #543725",
"9  c #553725",
"0  c #553726",
"q  c #553826",
"w  c #553827",
"e  c #593A26",
"r  c #5A3B27",
"t  c #5E3B25",
"y  c #563B2A",
"u  c #563B2B",
"i  c #563C2C",
"p  c #563D2C",
"a  c #573C2D",
"s  c #573D2D",
"d  c #573D2E",
"f  c #573E2E",
"g  c #573E2F",
"h  c #593D2A",
"j  c #573F30",
"k  c #583F30",
"l  c #5A402E",
"z  c #5B4130",
"x  c #5B4230",
"c  c #5B4231",
"v  c #584132",
"b  c #5C4332",
"n  c #5E4532",
"m  c #594435",
"M  c #594436",
"N  c #594537",
"B  c #5A4436",
"V  c #5A4536",
"C  c #5A4537",
"Z  c #5A4739",
"A  c #5B473A",
"S  c #5B483B",
"D  c #5B493C",
"F  c #5B4A3D",
"G  c #5C493D",
"H  c #5C4A3E",
"J  c #5C4B3E",
"K  c #5C4B3F",
"L  c #604734",
"P  c #624937",
"I  c #634D3C",
"U  c #644E3C",
"Y  c #5C4B40",
"T  c #5C4C40",
"R  c #5C4D41",
"E  c #5D4D41",
"W  c #5D4D42",
"Q  c #5D4E42",
"!  c #5D4E43",
"~  c #5D4F43",
"^  c #5E4F44",
"/  c #5E4F45",
"(  c #5D5044",
")  c #5C5147",
"_  c #5E5146",
"`  c #5C5247",
"'  c #5D5247",
"]  c #5D5248",
"[  c #5D5348",
"{  c #5D5349",
"}  c #5E5348",
"|  c #5E5349",
" . c #5F5349",
".. c #5D5449",
"X. c #5E5449",
"o. c #5D544A",
"O. c #5E544A",
"+. c #5F544A",
"@. c #5E554A",
"#. c #5F554A",
"$. c #5E554B",
"%. c #5F554B",
"&. c #5E554C",
"*. c #5F554C",
"=. c #5E564C",
"-. c #5F564D",
";. c #675341",
":. c #675443",
">. c #655444",
",. c #665444",
"<. c #675544",
"1. c #675545",
"2. c #695645",
"3. c #63594C",
"4. c #655C51",
"5. c #655C55",
"6. c #655D56",
"7. c #655F56",
"8. c #655F57",
"9. c #665F58",
"0. c #666057",
"q. c #686054",
"w. c #666058",
"e. c #676058",
"r. c #676158",
"t. c #676159",
"y. c #676259",
"u. c #686159",
"i. c #686259",
"p. c #686359",
"a. c #68625A",
"s. c #69625A",
"d. c #68635A",
"f. c #69635A",
"g. c #69635B",
"h. c #69645A",
"j. c #69645B",
"k. c #6A655B",
"l. c #69645C",
"z. c #6A645C",
"x. c #6A655C",
"c. c #6A655D",
"v. c #6B655D",
"b. c #6A665C",
"n. c #6B665D",
"m. c #6B675D",
"M. c #6B665E",
"N. c #6B675E",
"B. c #6C665E",
"V. c #6C675E",
"C. c #6C675F",
"Z. c #6D675F",
"A. c #6C685E",
"S. c #6C685F",
"D. c #6D685F",
"F. c #6D695F",
"G. c #6D6A5F",
"H. c #6E6A5E",
"J. c #6D6860",
"K. c #6D6960",
"L. c #6E6860",
"P. c #6E6960",
"I. c #6E6A60",
"U. c #6E6A61",
"Y. c #6F6A61",
"T. c #6F6B61",
"R. c #6F6C61",
"E. c #6F6C62",
"W. c #706A62",
"Q. c #706B62",
"!. c #706B63",
"~. c #716B63",
"^. c #706C60",
"/. c #706C62",
"(. c #706D62",
"). c #706C63",
"_. c #716C63",
"`. c #747166",
"'. c #767469",
"]. c #77756A",
"[. c #78766B",
"{. c #868579",
"}. c #86847B",
"|. c #88877B",
" X c #8B8A7F",
".X c #908E86",
"XX c #918F87",
"oX c #918F88",
"OX c #929088",
"+X c #939189",
"@X c #93918A",
"#X c #94928A",
"$X c #94928B",
"%X c #99978F",
"&X c None",
/* pixels */
"e e e r r r r r r r &Xr r r r r r r r r r r r r r r r r r r r r r r r r r &Xr r r r r r r r r r r r r r r r r r r r r r r r r &Xr r r r r r r r r r ",
"{.{.{.{.{.{.{.{.{.{.U {.{.{.{.{.{.{.{.{.{.{.{.{.{.{.{.{.{.{.{.{.{.{.{.|.{.n {.{.{.{.{.{.{.{.{.{.{.{.{.{.{.{.{.{.{.{.{.{.{.{. XL  X{.{.{.{.{.{.{.{.{.",
"{.{.{.{.{.{.{.{.{.{.;.{.{.{.{.{.{.{.{.{.{.{.{.{.{.{.{.{.{.{.{.{.{.{.{.{.{.P {.{.{.{.{.{.{.{.{.{.{.{.{.{.{.{.{.{.{.{.{.{.{.{. XI  X{.{.{.{.{.{.{.{.{.",
"{.{.{.{.{.{.{.{.{.{.2.{.{.{.{.{.{.{.{.{.{.{.{.{.{.{.{.{.{.{.{.{.{.{.{.{.{.<.{.{.{.{.{.{.{.{.{.{.{.{.{.{.{.{.{.{.{.{.{.{.{.{. X1. X{.{.{.{.{.{.{.{.{.",
"@X+X@X@X+X+X+X#X%X%X:.%X%X%X$XOX.X.X.XXXoXoXoXoXoXoXoXoXoXoXoXoXOX$X%X%X%X,.$X%X%X%X$X$X$X$X$X$X$X$X$X$X$X$X$X$X$X$X$X$X%X%X%X<.%X%X%X$X$X$X$X$X$X$X",
"W.!.~._._._.(._._./.x Q.Q.Q.Q.Q.Q.T.Y.I.I.F.F.F.D.D.D.D.D.D.D.F.F.F.F.F.D.c D.D.D.A.D.D.D.D.D.V.A.A.A.A.A.A.A.A.A.A.D.D.D.D.D.c D.D.D.V.A.A.A.A.V.V.",
"P.U.Y.Y.Y.T.Y.T.R.E.b T.T.T.T.T.Y.Y.I.P.F.D.D.D.D.D.D.D.D.D.D.D.D.D.F.D.D.c D.D.A.A.A.D.D.D.A.V.V.V.V.V.V.A.A.A.A.A.A.A.A.A.A.c V.V.V.V.V.V.V.m.m.n.",
"D.F.P.G.I.I.U.Y.Y.Y.b Y.Y.Y.I.I.P.P.P.F.F.D.D.D.D.D.D.D.D.A.A.A.A.A.A.V.V.c D.A.A.V.V.A.A.A.V.V.V.V.V.V.V.V.V.V.V.V.V.V.V.m.m.c V.V.V.V.B.B.n.n.n.n.",
"Z.Z.D.D.F.K.P.U.Y.I.c P.I.P.P.P.P.P.P.F.D.D.A.A.A.A.A.A.A.A.A.A.V.V.V.V.V.c V.V.V.V.V.m.m.V.V.V.V.V.B.n.n.n.n.n.n.n.n.n.n.n.n.c n.n.n.n.n.n.n.n.n.n.",
"B.B.B.V.Z.Z.D.D.D.D.z F.P.P.P.K.L.S.A.A.V.V.V.V.V.V.V.V.V.V.V.V.m.m.m.m.m.c n.n.n.n.n.n.n.n.n.n.n.n.n.n.n.n.n.n.n.n.n.n.n.n.n.c n.v.v.v.v.v.x.x.x.x.",
"c.v.v.c.v.M.M.M.B.B.l V.D.D.Z.V.V.A.A.V.V.m.n.n.n.n.n.n.n.n.n.n.n.n.n.n.n.c n.n.n.n.n.v.v.x.x.x.x.b.b.b.b.b.x.x.v.v.v.v.v.v.v.c x.x.x.x.x.x.x.x.x.x.",
"z.j.l.z.z.z.z.v.v.v.3 n.B.B.B.B.n.n.n.n.x.x.x.x.x.x.x.x.x.x.x.x.x.v.v.v.v.h v.v.x.z.z.z.z.z.z.z.z.x.x.x.x.x.j.j.j.j.j.j.j.x.x.c x.x.x.x.x.x.x.x.x.k.",
"j.j.g.j.j.j.j.j.j.j.> j.z.z.x.x.x.x.x.x.x.x.x.x.x.x.x.x.x.x.x.x.x.x.x.z.x.> j.j.j.j.j.j.j.j.j.j.j.j.j.j.j.j.j.j.j.j.j.j.j.x.j.> x.x.x.x.j.j.j.j.h.f.",
"g.g.g.g.g.g.g.j.j.j.> j.j.j.j.j.j.j.j.j.j.j.j.z.j.j.j.j.j.j.j.j.j.j.j.j.j.> g.g.g.g.g.g.j.j.j.j.j.j.j.j.j.j.j.j.g.j.j.j.j.j.g.> j.j.j.g.g.g.g.g.s.s.",
"a.a.a.a.a.a.a.a.a.d.& a.a.a.a.d.g.g.g.g.g.g.g.g.g.g.g.g.g.g.g.g.g.g.g.d.d.> d.d.d.d.d.d.d.d.d.d.d.d.d.g.g.g.g.g.g.g.g.g.g.g.g.> g.g.g.g.g.g.g.f.s.a.",
"y.y.y.y.t.t.t.t.t.t.@ t.t.y.t.y.y.y.y.y.t.y.y.y.y.y.y.y.a.y.a.a.a.d.d.d.a.> a.a.a.a.a.a.a.a.a.d.d.a.d.d.d.d.d.d.d.d.d.d.g.g.g.> g.g.g.g.g.g.g.p.i.y.",
"t.t.t.t.t.t.t.t.t.t.o t.t.t.t.t.t.t.t.t.t.t.t.t.t.t.t.t.t.t.t.t.t.t.t.t.t.> t.t.t.t.t.t.t.t.t.t.t.t.t.t.t.t.t.y.y.y.y.y.y.a.y.> a.a.a.a.a.a.a.i.u.t.",
"t.t.t.t.t.t.t.t.t.t.+ t.t.t.t.t.t.t.t.t.t.t.t.t.t.t.t.t.t.t.t.t.t.t.t.t.t.+ t.t.t.t.t.t.t.t.t.t.t.t.t.t.t.t.t.t.t.t.t.t.t.t.t.> t.t.t.t.t.t.t.r.e.w.",
"                . X { + + + + + + + + + + + + + + + + + + + + + + + + + + ` + + + + + + + + + + + + + + + + + + + + + + + + + [ + + + + + + + + + + ",
"+ &.$.$.$.@.O.| O.X.{ { = ` ` ` ` ` ` ` ` ` ` ` ` ` ` ` ` ` ` ` ` ` ` ` ` ` ` ` ` ` ` ` = ) ) ` ' ' ' ' ] ] ] ] ] ] ] [ [ [ [ [ [ } X.X.O.O.O.O.O.+ ",
"+ &.$.$.$.@.O.O.O.O.{ { = { ` ` ` ` ` ` ` ` ` ` ` ` ` ` ` ` ` ` ` ` ` ` ` ` ` ` ` ` ` ` = ` ` ' ' ' ' ' ] ] ] ] [ ] ] [ [ [ [ [ [ } X.X.O.O.O.O.@.+ ",
"+ =.*.%.%.@.O.O.O.O.o.{ < { ` ` ` ` ` ` ` ` ` ` ` ` ` ` ` ` ` ` ` ` ` ` ` ` ` ` ` ` ` ` < ` ` ' ' ' ' ' ] ] ] ] [ [ ] [ [ [ [ [ [ } X.X.O.O.O.O.O.+ ",
"+ =.*.%.$.#.O.O.O.O.o.{ < ` ` ` ` ` ` ` ` ` ` ` ` ` ` ` ` ` ` ` ` ` ` ` ` ` ` ` ` ` ` ` < ` ` ` ' ' ' ' ] ] ] ] [ [ [ [ [ [ [ [ [ } X.X.O.O.O.O.O.+ ",
"+ =.&.*.%.#.O.O.O.O.o.o.1 { ` ` ` ` ` ` ` ` ` ` ` ` ` ` ` ` ` ` ` ` ` ` ` ` ` ` ` ` ` ` < ` ` ` ' ' ' ' ] ] ] ] [ [ [ [ [ [ [ [ [ } X.X.O.O.O.O.+.+ ",
"+ -.-.*.*.%.O.O.O.O.o.o.1 { ` ` ` ` ` ` ` ` ` ` ` ` ` ` ` ` ` ` ` ` ` ` ` ` ` ` ` ` ` ` < ) ) ` ' ' ' ' ' ] ] ] ] [ [ [ [ [ [ [ [ | X...O.O.O.O.#.+ ",
"+ ).8.8.8.8.8.8.8.8.8.8.C t.t.t.t.t.t.t.t.t.t.t.t.t.t.t.t.t.t.t.t.t.t.t.t.t.t.t.t.t.t.t.v t.t.t.t.t.t.t.t.t.t.t.t.t.t.t.t.t.t.t.t.t.t.t.t.t.t.t.t.+ ",
"+ ).8.8.8.8.8.8.8.8.8.8.Z t.t.t.t.t.t.t.t.t.t.t.t.t.t.t.t.t.t.t.t.t.t.t.t.t.t.t.t.t.t.t.6 t.t.t.t.t.t.t.t.t.t.t.t.t.t.t.t.t.t.t.t.t.t.t.t.t.t.t.t.+ ",
"H.+ - : m m m m m B V V V V _ _ _ _ _ _ _ _ _ _ _ _ E E E _ _ _  . . . . . . . .v v p y 0 w k  . . . . . . . . .v v 8 9 v v v v  . . . .v v v O O 3.",
"+ ).).).).D.D.D.D.D.D.D.D.D.D.D.D.D.D.D.D.D.D.D.D.D.D.E C.C.C.C.C.C.C.C.C.C.C.C.C.C.C.C.C.C.C.C.C.C.C.C.C.C.C.C.C.C.C.6 C.C.C.C.C.C.C.C.C.C.C.C.C.+ ",
"+ ).t.t.t.t.t.t.t.t.t.t.t.t.t.t.t.t.t.t.t.t.t.t.t.t.t.E t.t.t.t.t.t.t.t.t.t.t.t.t.t.t.t.t.t.t.t.t.t.t.t.t.t.t.t.t.t.t.u t.t.t.t.t.t.t.t.t.t.t.t.).+ ",
"% ).t.t.t.t.t.t.t.t.t.t.t.t.t.t.t.t.t.t.t.t.t.t.t.t.t.E t.t.t.t.t.t.t.t.t.t.t.t.t.t.t.t.t.t.t.t.t.t.t.t.t.t.t.t.t.t.t.v t.t.t.t.t.t.t.t.t.t.t.t.).+ ",
"# ).t.t.t.t.t.t.t.t.t.t.t.t.t.t.t.t.t.t.t.t.t.t.t.t.t.E t.t.t.t.t.t.t.t.t.t.t.t.t.t.t.t.t.t.t.t.t.t.t.t.t.t.t.t.t.t.t. .t.t.t.t.t.t.t.t.t.t.t.t.).+ ",
"+ ).t.t.t.t.t.t.t.t.t.t.t.t.t.t.t.t.t.t.t.t.t.t.t.t.t.E t.t.t.t.t.t.t.t.t.t.t.t.t.t.t.t.t.t.t.t.t.t.t.t.t.t.t.t.t.t.t. .t.t.t.t.t.t.t.t.t.t.t.t.).+ ",
"+ ).t.t.t.t.t.t.t.t.t.t.t.t.t.t.t.t.t.t.t.t.t.t.t.t.t.E t.t.t.t.t.t.t.t.t.t.t.t.t.t.t.t.t.t.t.t.t.t.t.t.t.t.t.t.t.t.t. .t.t.t.t.t.t.t.t.t.t.t.t.).+ ",
"+ ).t.t.t.t.t.t.t.t.t.t.t.t.t.t.t.t.t.t.t.t.t.t.t.t.t.v t.t.t.t.t.t.t.t.t.t.t.t.t.t.t.t.t.t.t.t.t.t.t.t.t.t.t.t.t.t.t. .t.t.t.t.t.t.t.t.t.t.t.t.).+ ",
"+ ).t.t.t.t.t.t.t.t.t.t.t.t.t.t.t.t.t.t.t.t.t.t.t.t.t.j t.t.t.t.t.t.t.t.t.t.t.t.t.t.t.t.t.t.t.t.t.t.t.t.t.t.t.t.t.t.t. .t.t.t.t.t.t.t.t.t.t.t.t.).+ ",
"^.* * ; 2 W W W Q Q Q N d u u u T F D D S S S S a a 6 4 0 a  . . . . . . . . . . .Z S D W D D A  . . . . . . . . . . . . . . . . . . . .v v v O O 4.",
"+ J.M.N.V.V.V.C.C.C.C.C.C.7 C.C.C.C.C.l.l.l.l.l.l.l.l.l.l.l.l.l.l.l.l.l.l.S.S.S.S.S.C.V.Y C.C.C.C.C.C.C.C.C.C.C.C.C.C.C.C.C.C.C.C.C.C.C.C.C.C.C.).+ ",
"$ D.9.9.9.9.9.9.9.9.9.9.9.7 9.9.9.9.9.9.9.9.9.9.9.9.9.9.9.9.9.9.9.9.9.9.9.9.9.9.9.9.9.9.K 9.9.9.9.9.9.9.9.9.9.9.9.9.9.9.9.9.9.9.9.9.9.9.9.9.9.9.).$ ",
"+ ).9.9.9.9.9.9.9.9.9.9.9.H 9.9.9.9.9.9.9.9.9.9.9.9.9.9.9.9.9.9.9.9.9.9.9.9.9.9.9.9.9.9.G 9.9.9.9.9.9.9.9.9.9.9.9.9.9.9.9.9.9.9.9.9.9.9.9.9.9.9.).+ ",
"+ ).9.9.9.9.9.9.9.9.9.9.9. .9.9.9.9.9.9.9.9.9.9.9.9.9.9.9.9.9.9.9.9.9.9.9.9.9.9.9.9.9.9./ 5.9.9.9.9.9.9.9.9.9.9.9.9.9.9.9.9.9.9.9.9.9.9.9.9.9.9.).+ ",
"+ ).9.9.9.9.9.9.9.9.9.9.9. .9.9.9.9.9.9.9.9.9.9.9.9.9.9.9.9.9.9.9.9.9.9.9.9.9.9.9.9.9.9./ 6.9.9.9.9.9.9.9.9.9.9.9.9.9.9.9.9.9.9.9.9.9.9.9.9.9.9.).+ ",
"+ ).9.9.9.9.9.9.9.9.9.9.9. .9.9.9.9.9.9.9.9.9.9.9.9.9.9.9.9.9.9.9.9.9.9.9.9.9.9.9.9.9.9.^ 9.9.9.9.9.9.9.9.9.9.9.9.9.9.9.9.9.9.9.9.9.9.9.9.9.9.9.).+ ",
"+ ).9.9.9.9.9.9.9.9.9.9.9. .9.9.9.9.9.9.9.9.9.9.9.9.9.9.9.9.9.9.9.9.9.9.9.9.9.9.9.9.9.9.4 9.9.9.9.9.9.9.9.9.9.9.9.9.9.9.9.9.9.9.9.9.9.9.9.9.9.9.).+ ",
"+ ).9.9.9.9.9.9.9.9.9.9.9. .9.9.9.9.9.9.9.9.9.9.6.9.9.9.9.9.9.9.9.9.9.9.9.9.9.9.9.9.9.9.4 9.9.9.9.9.9.9.9.9.9.9.9.9.9.9.9.9.9.9.9.9.9.9.9.9.9.9.).+ ",
"`.O * % g v M  . . . . . . . . . . . . . . . . .J J D J J ( ( ( ( ~ ! Q Q Q Q Q W 4 4 4 4 4 4 R R R R R R R R W  .v v 5 i v  . . . . . . .v v O O q.",
"+ C.C.C.C.C.C.C.C.C.C.C.C.C.C.C.C.C.C.C.C.C.C.C.C.C.C.J C.C.C.C.C.C.C.C.C.C.C.C.C.C.C.C.C.C.C.C.C.C.C.C.C.C.C.C.C.C.C.q C.C.C.C.C.C.C.C.C.C.C.C.).+ ",
"+ ).9.9.9.9.9.9.9.9.9.9.9.9.9.9.9.9.9.9.9.9.9.9.9.9.9.J 9.9.9.9.9.9.9.9.9.9.9.9.9.9.9.9.9.9.9.9.9.9.9.9.9.9.9.9.9.9.9.s 9.9.9.9.9.9.9.9.9.9.9.9.).+ ",
"+ ).9.9.9.9.9.9.9.9.9.9.9.9.9.9.9.9.9.9.9.9.9.9.9.9.9.J 9.9.9.9.9.9.9.9.9.9.9.9.9.9.9.9.9.9.9.9.9.9.9.9.9.9.9.9.9.9.9. .9.9.9.9.9.9.9.9.9.9.9.9.).+ ",
"+ ).9.9.9.9.9.9.9.9.9.9.9.9.9.9.9.9.9.9.9.9.9.9.9.9.9._ 9.9.9.9.9.9.9.9.9.9.9.9.9.9.9.9.9.9.9.9.9.9.9.9.9.9.9.9.9.9.9. .9.9.9.9.9.9.9.9.9.9.9.9.).+ ",
"+ ).9.9.9.9.9.9.9.9.9.9.9.9.9.9.9.9.9.9.9.9.9.9.9.9.9. .9.9.9.9.9.9.9.9.9.9.9.9.9.9.9.9.9.9.9.9.9.9.9.9.9.9.9.9.9.9.9. .9.9.9.9.9.9.9.9.9.9.9.9.).+ ",
"+ ).9.9.9.9.9.9.9.9.9.9.9.9.9.9.9.9.9.9.9.9.9.9.9.9.9.v 9.9.9.9.9.9.9.9.9.9.9.9.9.9.9.9.9.9.9.9.9.9.9.9.9.9.9.9.9.9.9. .9.9.9.9.9.9.9.9.9.9.9.9.).+ ",
"+ ).9.9.9.9.9.9.9.9.9.9.9.9.9.9.9.9.9.9.9.9.9.9.9.9.9.s 9.9.9.9.9.9.9.9.9.9.9.9.9.9.9.9.9.9.9.9.9.9.9.9.9.9.9.9.9.9.9.v 9.9.9.9.9.9.9.9.9.9.9.9.).+ ",
"+ 9.9.9.9.9.9.9.9.9.9.9.9.9.9.9.9.9.9.9.9.9.9.9.9.9.9.f 9.9.9.9.9.9.9.9.9.9.9.9.9.9.9.9.9.9.9.9.9.9.9.9.9.9.9.9.9.9.9.y 9.9.9.9.9.9.9.9.9.9.9.9.).+ ",
"[., , , , , , , , , 9., , , , , , , , , , , , , , , , , , , , , , , , , , 9., , , , , , , , , , , , , , , , , , , , , , , , , 9., , , , , , , , , '.",
"[.[.[.].].].].'.'.'.+ '.'.'.'.'.'.'.'.'.'.'.'.'.'.'.'.'.'.'.'.'.'.'.'.'.'.t '.'.'.'.'.'.'.'.'.'.'.'.'.'.'.'.'.'.'.'.'.'.'.'.'., '.'.'.'.'.'.'.'.'.'.",
"[.[.[.].].].].'.'.'.>.'.'.'.'.'.'.'.'.'.'.'.'.'.'.'.'.'.'.'.'.'.'.'.'.'.'.>.'.'.'.'.'.'.'.'.'.'.'.'.'.'.'.'.'.'.'.'.'.'.'.'.'.>.'.'.'.'.'.'.'.'.'.'.",
"[.[.[.].].].].'.'.'.>.'.'.'.'.'.'.'.'.'.'.'.'.'.'.'.'.'.'.'.'.'.'.'.'.'.'.>.'.'.'.'.'.'.'.'.'.'.'.'.'.'.'.'.'.'.'.'.'.'.'.'.'.>.'.'.'.'.'.'.'.'.'.'.",
"[.[.[.].].].].'.'.'.>.'.'.'.'.'.'.'.'.'.'.'.'.'.'.'.'.'.'.'.'.'.'.'.'.'.'.>.'.'.'.'.'.'.'.'.'.'.'.'.'.'.'.'.'.'.'.'.'.'.'.'.'.>.'.'.'.'.'.'.'.'.'.'.",
"}.}.}.}.}.}.}.}.}.}.>.}.}.}.}.}.}.}.}.}.}.}.}.}.}.}.}.}.}.}.}.}.}.}.}.}.}.>.}.}.}.}.}.}.}.}.}.}.}.}.}.}.}.}.}.}.}.}.}.}.}.}.}.>.}.}.}.}.}.}.}.}.}.}.",
"0.0.0.0.0.0.0.0.0.0.>.0.0.0.0.0.0.0.0.0.0.0.0.0.0.0.0.0.0.0.0.0.0.0.0.0.0.>.0.0.0.0.0.0.0.0.0.0.0.0.0.0.0.0.0.0.0.0.0.0.0.0.0.>.0.0.0.0.0.0.0.0.0.0.",
"0.0.0.0.0.0.0.0.0.0.>.0.0.0.0.0.0.0.0.0.0.0.0.0.0.0.0.0.0.0.0.0.0.0.0.0.0.>.0.0.0.0.0.0.0.0.0.0.0.0.0.0.0.0.0.0.0.0.0.0.0.0.0.>.0.0.0.0.0.0.0.0.0.0.",
"0.0.0.0.0.0.0.0.7.0.+ 0.0.0.0.0.0.0.0.0.0.0.0.0.0.0.0.0.0.0.0.0.0.0.0.0.0.+ 0.0.0.0.0.0.0.0.0.0.0.0.0.0.0.0.0.0.0.0.0.0.0.0.0.+ 0.0.0.0.0.0.0.0.0.0.",
"+ + + + + + + + + + + + + + + + + + + + + + + + + + + + + + + + + + + + + + + + + + + + + + + + + + + + + + + + + + + + + + + + + + + + + + + + + + "
};
