/* XPM */
static char *result[] = {
/* columns rows colors chars-per-pixel */
"85 126 53 1 ",
"  c #4B2511",
". c #4F2913",
"X c #502B16",
"o c #512E1A",
"O c #4F311E",
"+ c #56331D",
"@ c #4F3625",
"# c #553522",
"$ c #583724",
"% c #563826",
"& c #5A3B27",
"* c #573C2C",
"= c #5B3C29",
"- c #573F30",
"; c #583F30",
": c #5A402E",
"> c #5A4233",
", c #5A4739",
"< c #5B4A3D",
"1 c #604734",
"2 c #654935",
"3 c #644E3C",
"4 c #5D4D42",
"5 c #5C5247",
"6 c #5E5349",
"7 c #655444",
"8 c #695645",
"9 c #63594C",
"0 c #655F56",
"q c #665F58",
"w c #666057",
"e c #686054",
"r c #676159",
"t c #6A655D",
"y c #6D695E",
"u c #6E6A60",
"i c #716D63",
"p c #747166",
"a c #767469",
"s c #79776C",
"d c #7F7C74",
"f c #807E76",
"g c #838177",
"h c #868579",
"j c #89877D",
"k c #8B8A7F",
"l c #8D8B83",
"z c #908E86",
"x c #918F88",
"c c #94928B",
"v c #99978F",
"b c #9B9992",
"n c None",
/* pixels */
"nnnnnnnnnnnnnnnnnnnnnnnnnnnnnnnnnnnnnnnnnnnnnnnnnnnnnnnnnnnnnnnnnnnnnnnnnnnnn&&&&&&&&",
"nnnnnnnnnnnnnnnnnnnnnnnnnnnnnnnnnnnnnnnnnnnnnnnnnnnnnnnnnnnnnnnnnnnnnnnnnnnnn&hhhhhc&",
"nnnnnnnnnnnnnnnnnnnnnnnnnnnnnnnnnnnnnnnnnnnnnnnnnnnnnnnnnnnnnnnnnnnnnnnnnnnnn&hhhhhc:",
"nnnnnnnnnnnnnnnnnnnnnnnnnnnnnnnnnnnnnnnnnnnnnnnnnnnnnnnnnnnnnnnnnnnnnnnnnnnnn&hhhhhc&",
"nnnnnnnnnnnnnnnnnnnnnnnnnnnnnnnnnnnnnnnnnnnnnnnnnnnnnnnnnnnnnnnnnnnnnnnnnnnnn&hkhhhc&",
"nnnnnnnnnnnnnnnnnnnnnnnnnnnnnnnnnnnnnnnnnnnnnnnnnnnnnnnnnnnnnnnnnnnnnnnnnnnnn&hhhhhc&",
"nnnnnnnnnnnnnnnnnnnnnnnnnnnnnnnnnnnnnnnnnnnnnnnnnnnnnnnnnnnnnnnnnnnnnnnnnnnnn=hhhhhc=",
"nnnnnnnnnnnnnnnnnnnnnnnnnnnnnnnnnnnnnnnnnnnnnnnnnnnnnnnnnnnnnnnnnnnnnnnnnnnnn+hhhhkc=",
"nnnnnnnnnnnnnnnnnnnnnnnnnnnnnnnnnnnnnnnnnnnnnnnnnnnnnnnnnnnnnnnnnnnnnnnnnnnnn+cccccc&",
"nnnnnnnnnnnnnnnnnnnnnnnnnnnnnnnnnnnnnnnnnnnnnnnnnnnnnnnnnnnnnnnnnnnnnnnnnnnnn++2222+&",
"nnnnnnnnnnnnnnnnnnnnnnnnnnnnnnnnnnnnnnnnnnnnnnnnnnnnnnnnnnnnnnnnnnnnnnnnnnnnn+hhhhhc&",
"nnnnnnnnnnnnnnnnnnnnnnnnnnnnnnnnnnnnnnnnnnnnnnnnnnnnnnnnnnnnnnnnnnnnnnnnnnnnn$hhhhhc:",
"nnnnnnnnnnnnnnnnnnnnnnnnnnnnnnnnnnnnnnnnnnnnnnnnnnnnnnnnnnnnnnnnnnnnnnnnnnnnn$khhhhc:",
"nnnnnnnnnnnnnnnnnnnnnnnnnnnnnnnnnnnnnnnnnnnnnnnnnnnnnnnnnnnnnnnnnnnnnnnnnnnnn+hhhhhc:",
"nnnnnnnnnnnnnnnnnnnnnnnnnnnnnnnnnnnnnnnnnnnnnnnnnnnnnnnnnnnnnnnnnnnnnnnnnnnnn+hhhhhc+",
"nnnnnnnnnnnnnnnnnnnnnnnnnnnnnnnnnnnnnnnnnnnnnnnnnnnnnnnnnnnnnnnnnnnnnnnnnnnnn+hhhhhc:",
"nnnnnnnnnnnnnnnnnnnnnnnnnnnnnnnnnnnnnnnnnnnnnnnnnnnnnnnnnnnnnnnnnnnnnnnnnnnnn$hhhhhc&",
"nnnnnnnnnnnnnnnnnnnnnnnnnnnnnnnnnnnnnnnnnnnnnnnnnnnnnnnnnnnnnnnnnnnnnnnnnnnnn+hhhhhc&",
"nnnnnnnnnnnnnnnnnnnnnnnnnnnnnnnnnnnnnnnnnnnnnnnnnnnnnnnnnnnnnnnnnnnnnnnnnnnnn+hhhhhc&",
"nnnnnnnnnnnnnnnnnnnnnnnnnnnnnnnnnnnnnnnnnnnnnnnnnnnnnnnnnnnnnnnnnnnnnnnnnnnnn+hhhhhc:",
"nnnnnnnnnnnnnnnnnnnnnnnnnnnnnnnnnnnnnnnnnnnnnnnnnnnnnnnnnnnnnnnnnnnnnnnnnnnnn+hhhhhc&",
"nnnnnnnnnnnnnnnnnnnnnnnnnnnnnnnnnnnnnnnnnnnnnnnnnnnnnnnnnnnnnnnnnnnnnnnnnnnnn#hhhhhc:",
"nnnnnnnnnnnnnnnnnnnnnnnnnnnnnnnnnnnnnnnnnnnnnnnnnnnnnnnnnnnnnnnnnnnnnnnnnnnnn#jhhhhc$",
"nnnnnnnnnnnnnnnnnnnnnnnnnnnnnnnnnnnnnnnnnnnnnnnnnnnnnnnnnnnnnnnnnnnnnnnnnnnnn+hhhhhc&",
"nnnnnnnnnnnnnnnnnnnnnnnnnnnnnnnnnnnnnnnnnnnnnnnnnnnnnnnnnnnnnnnnnnnnnnnnnnnnn+ccccvc+",
"nnnnnnnnnnnnnnnnnnnnnnnnnnnnnnnnnnnnnnnnnnnnnnnnnnnnnnnnnnnnnnnnnnnnnnnnnnnnn++2222++",
"nnnnnnnnnnnnnnnnnnnnnnnnnnnnnnnnnnnnnnnnnnnnnnnnnnnnnnnnnnnnnnnnnnnnnnnnnnnnn+hhhhhc:",
"nnnnnnnnnnnnnnnnnnnnnnnnnnnnnnnnnnnnnnnnnnnnnnnnnnnnnnnnnnnnnnnnnnnnnnnnnnnnn&hhhhhc+",
"nnnnnnnnnnnnnnnnnnnnnnnnnnnnnnnnnnnnnnnnnnnnnnnnnnnnnnnnnnnnnnnnnnnnnnnnnnnnn&hhhhhc&",
"nnnnnnnnnnnnnnnnnnnnnnnnnnnnnnnnnnnnnnnnnnnnnnnnnnnnnnnnnnnnnnnnnnnnnnnnnnnnn+hhhhhc&",
"nnnnnnnnnnnnnnnnnnnnnnnnnnnnnnnnnnnnnnnnnnnnnnnnnnnnnnnnnnnnnnnnnnnnnnnnnnnnn+hhhhhc+",
"nnnnnnnnnnnnnnnnnnnnnnnnnnnnnnnnnnnnnnnnnnnnnnnnnnnnnnnnnnnnnnnnnnnnnnnnnnnnn+hhhhhc&",
"nnnnnnnnnnnnnnnnnnnnnnnnnnnnnnnnnnnnnnnnnnnnnnnnnnnnnnnnnnnnnnnnnnnnnnnnnnnnn&hhhhhc+",
"nnnnnnnnnnnnnnnnnnnnnnnnnnnnnnnnnnnnnnnnnnnnnnnnnnnnnnnnnnnnnnnnnnnnnnnnnnnnn+hhhhhc:",
"nnnnnnnnnnnnnnnnnnnnnnnnnnnnnnnnnnnnnnnnnnnnnnnnnnnnnnnnnnnnnnnnnnnnnnnnnnnnn+hhhhhc+",
"nnnnnnnnnnnnnnnnnnnnnnnnnnnnnnnnnnnnnnnnnnnnnnnnnnnnnnnnnnnnnnnnnnnnnnnnnnnnn+hhhhhc&",
"nnnnnnnnnnnnnnnnnnnnnnnnnnnnnnnnnnnnnnnnnnnnnnnnnnnnnnnnnnnnnnnnnnnnnnnnnnnnn+hhhhhc+",
"nnnnnnnnnnnnnnnnnnnnnnnnnnnnnnnnnnnnnnnnnnnnnnnnnnnnnnnnnnnnnnnnnnnnnnnnnnnnn#hhhhhc&",
"nnnnnnnnnnnnnnnnnnnnnnnnnnnnnnnnnnnnnnnnnnnnnnnnnnnnnnnnnnnnnnnnnnnnnnnnnnnnn$hhhhhc&",
"nnnnnnnnnnnnnnnnnnnnnnnnnnnnnnnnnnnnnnnnnnnnnnnnnnnnnnnnnnnnnnnnnnnnnnnnnnnnn+hhhhhc$",
"nnnnnnnnnnnnnnnnnnnnnnnnnnnnnnnnnnnnnnnnnnnnnnnnnnnnnnnnnnnnnnnnnnnnnnnnnnnnn+cccccc+",
"nnnnnnnnnnnnnnnnnnnnnnnnnnnnnnnnnnnnnnnnnnnnnnnnnnnnnnnnnnnnnnnnnnnnnnnnnnnnn++2222+&",
"nnnnnnnnnnnnnnnnnnnnnnnnnnnnnnnnnnnnnnnnnnnnnnnnnnnnnnnnnnnnnnnnnnnnnnnnnnnnn+hhhhhc&",
"nnnnnnnnnnnnnnnnnnnnnnnnnnnnnnnnnnnnnnnnnnnnnnnnnnnnnnnnnnnnnnnnnnnnnnnnnnnnn#hhhhhc+",
"nnnnnnnnnnnnnnnnnnnnnnnnnnnnnnnnnnnnnnnnnnnnnnnnnnnnnnnnnnnnnnnnnnnnnnnnnnnnn+khhhhc+",
"nnnnnnnnnnnnnnnnnnnnnnnnnnnnnnnnnnnnnnnnnnnnnnnnnnnnnnnnnnnnnnnnnnnnnnnnnnnnn#hhhhhc:",
"nnnnnnnnnnnnnnnnnnnnnnnnnnnnnnnnnnnnnnnnnnnnnnnnnnnnnnnnnnnnnnnnnnnnnnnnnnnnn+hhhhhc+",
"nnnnnnnnnnnnnnnnnnnnnnnnnnnnnnnnnnnnnnnnnnnnnnnnnnnnnnnnnnnnnnnnnnnnnnnnnnnnn+hhhhhc&",
"nnnnnnnnnnnnnnnnnnnnnnnnnnnnnnnnnnnnnnnnnnnnnnnnnnnnnnnnnnnnnnnnnnnnnnnnnnnnn#hhhhhc$",
"nnnnnnnnnnnnnnnnnnnnnnnnnnnnnnnnnnnnnnnnnnnnnnnnnnnnnnnnnnnnnnnnnnnnnnnnnnnnn+hhhhhc$",
"nnnnnnnnnnnnnnnnnnnnnnnnnnnnnnnnnnnnnnnnnnnnnnnnnnnnnnnnnnnnnnnnnnnnnnnnnnnnn+hhhhhc$",
"nnnnnnnnnnnnnnnnnnnnnnnnnnnnnnnnnnnnnnnnnnnnnnnnnnnnnnnnnnnnnnnnnnnnnnnnnnnnn+hhhhhc$",
"nnnnnnnnnnnnnnnnnnnnnnnnnnnnnnnnnnnnnnnnnnnnnnnnnnnnnnnnnnnnnnnnnnnnnnnnnnnnn+hhhhhc$",
"nnnnnnnnnnnnnnnnnnnnnnnnnnnnnnnnnnnnnnnnnnnnnnnnnnnnnnnnnnnnnnnnnnnnnnnnnnnnn#hhhhhc$",
"nnnnnnnnnnnnnnnnnnnnnnnnnnnnnnnnnnnnnnnnnnnnnnnnnnnnnnnnnnnnnnnnnnnnnnnnnnnnn#khhhhc$",
"nnnnnnnnnnnnnnnnnnnnnnnnnnnnnnnnnnnnnnnnnnnnnnnnnnnnnnnnnnnnnnnnnnnnnnnnnnnnn+hhhhhc$",
"nnnnnnnnnnnnnnnnnnnnnnnnnnnnnnnnnnnnnnnnnnnnnnnnnnnnnnnnnnnnnnnnnnnnnnnnnnnnn+cccccc&",
"nnnnnnnnnnnnnnnnnnnnnnnnnnnnnnnnnnnnnnnnnnnnnnnnnnnnnnnnnnnnnnnnnnnnnnnnnnnnn++2222+$",
"nnnnnnnnnnnnnnnnnnnnnnnnnnnnnnnnnnnnnnnnnnnnnnnnnnnnnnnnnnnnnnnnnnnnnnnnnnnnn+hhhhhc$",
"nnnnnnnnnnnnnnnnnnnnnnnnnnnnnnnnnnnnnnnnnnnnnnnnnnnnnnnnnnnnnnnnnnnnnnnnnnnnn:hhhhhc&",
"nnnnnnnnnnnnnnnnnnnnnnnnnnnnnnnnnnnnnnnnnnnnnnnnnnnnnnnnnnnnnnnnnnnnnnnnnnnnn+hhhhhc+",
"nnnnnnnnnnnnnnnnnnnnnnnnnnnnnnnnnnnnnnnnnnnnnnnnnnnnnnnnnnnnnnnnnnnnnnnnnnnnn+hhhhhc+",
"&&&&&&&&&&n&&&:&&&&&&&&&&&&&&&&&&&&&n&&&&&&&&&&&&&&&&&&&&&&&&&&n&&&&&&&&&&&+o+hhhhhc+",
"hhhhhhhhhk1khhhhhhhhhhhhhhhhhhhhhhhk>hkhhhhhhhhhhhhhhhhhhhhhhhh3hhhhhhhhhhhhhhhhhhkb+",
"hhhhhhhhhk3khhhhhhhhhhhhhhhhhhhhhhhh,hhhhhhhhhhhhhhhhhhhhhhhhhh7hhhhhhhhhhhhhhhhhhjb+",
"hkhhhhhhhk7khhhhhhhhhhhhhhhhhhhhhhhh8hhhhhhhhhhhhhhhhhhhhhhhhhh8hhhhhhhhhhhhhhhhhhhb+",
"cccccccvvv7vvvccccccccccccccccccvvvc7bvvccczxxxzzxxxxxzzzzxcvvv7vvcxcxccxcxxcxbbbbbf.",
"tytytyyyyy>yyyyyyyyyyyutyytyyyyyyyyy:yyyyyyyutuuyyuyyuyuuiiiiii*iiiiiiiiuuuuiuiuiuih.",
"tyytyyyyty>yyyyttyyyyttututuyutyyyyy>yyyyyyyyytututuyyuuuuuuuiy>iuuuiiiyuuuuuyyuuuufX",
"tttyytytyy:ytyyytytytuytttytyyutyyty>tytyttyyyuuuyuuuytuuuuuuui>uuuuyyiytuuuyuyytuuf.",
"tytttytttt:ttttttttttytuutyyyytyytty>yyyytyyyytttttyuuuuuuuuyuy>uuuuyyyytuuutyyrtttf.",
"ttttttttyy>tyttttytytttttttttttttytt:ytytyyytyyytuutttyttuuyuuy>uuyyyyttuttttttttttf.",
"tttttryryr:yttttttttttttttrttytttttt>yryyttttttttttyyyyyyyyyyyy:tuquttttttttttrtrrrf.",
"ttrtttrytt:yttttttwtttttttttttrttttt:tyttttttttttttttrttttttyty+ttuqtttrtttttrtertrf.",
"rrtrtttttt+ttrtrtwtrrtrttrttrttrtrrtOyrytttttttttttttttttytttrtOttqtrttrtrrtrtrtt0qa ",
"rtrtrtrtrr+ttrttttttrtttrttrtrtttrtt+rtrttrtrttrrttrttrtrrtrttr+tquqttrttttqtrrere0p.",
"trttrttrtr@rtrtrtwttrrtrrtrtrtrtrtrrOttrrttrtrtttrtttrtrrtrryrwOqttqtqtrqrrterewe0ra ",
"rrrttrrtrt+rrttrwttwttrtrrtrrrrrrrrtOrrtrrrrrrrrrrrrrrrrrrrrrrwOqqqqrrrrrrrrrrqq00qa ",
"rrrrrrrtrt+rrrtrwtwwrrrrrrrrrrrrrrrrOtrrrrrrrrrwrrrrrrrrrrrrrrr qqttrrrrrrrqqerq0qqa.",
"rrrrerrrrr+wrrwrwrrwrrrrrrrrrrrrrrrrXrrrrrrrrrrwrrrrrrrrrrrrrrrXtqqqrrrrrrerr0qq0q0.n",
"XXXo.XXo..5.. . .X..................5. .....O  X X X XXX. . .  5   O O O........   nn",
".6565666656656665555565555555O5555555555555555556555555555655@66555655567.eyeyyytsXnn",
".5666666666556656555655555655O5555555555555555555555555555555@66566655969.yyyyeytsXnn",
"X6666666565655565655565565555@5555555555555555555555555555555@66666665669.eyyyyyysXnn",
"X6666666656566656565655555555@5555555555555555555555555555555@66666659695.yyyyeyysXnn",
".5666666655666565656565555555@5555555555555555555555555555556@66660696665.yyyyyyysXnn",
"o6666665656566666565655555555@5565665555555555555555555555556@66655559595.yyyyyyys.nn",
"Xrrrrrrrrrrtrrqrrrrrrrrrrrrrr>rrrrqrqqtqrrrrrrrrrrwwrrrrrrrrw,q0wwwrwwwei.yyyyyyysXnn",
".rrrrwwrqqquqqqqrrqqrrqqrrwrr%rrqrrqtqqqqqrqrrrrrrrrrwwrqrrtq,0qww000000p.yyyyyyisonn",
"9. >>>6666>---@#>-666665666-%@**--66666699565444565555556454>,,>,,,,,,OO.yyyyyyytsonn",
".yyyuuutuuuuuu@uuuuuuuuuyyyuuuutuutuuuuuttutyy4tyuuutuuuuuuuuuuuttyyyuyuy.iyyyyyysonn",
".uwr0rrrqqqrqq-qqqqqqqrrrrwrqrrqrqqtqqqqqqrrqq4rwwwwrrrrrqqrqrqqrrrrrrrwp.yyyyyyysonn",
"Xurrwrrrrrrrrr>rqrrrqrrrrrrrqrrrrrrrqqrrqrrrrr4rrrrrrrrrqrrrquqtrrrrrrrrioiyyyyuifXnn",
".irrwrrrrrqrrq6rqrrrrrrrrrrrqrrrqrrrrtrrrrrrrr4rrrrrrrrrqtrrqqqqrrrrrrrri.yyiuuuysonn",
".urrrrrrrrrrrr6rrrrrrrrrrrrrrrrrrrrrrrrrrrrrrr4rrrrrrrrrqqtqqqqqrrrrrrrri.iyiyyuisonn",
"Xirrrrrrrrrrrr6rrrrrrrrrrrrrrrrrrrrrrrrrrrrrrr4rrrrrrrrrtqqqtqqtrrrrrrrrp.yyyiyyis+nn",
".irrqqqqqqqqqr6rtqqqqtqqttqqqqttqqqqqqqqtqtqqq;rqqtqtqqqqtqqqqtqrrrrwwrru.iyiyyiisXnn",
".urrqquqrqqqqr6rqqqtqqqqqqrrqqqqqtqtqqtqtqqqtq-rqqqqtqqqqqqqqqqqrrrrw0rru.iyyiiyis+nn",
"0 X>--6666656666666666666644,4,,;66666666666*%#%**,,4144,4;**;;445554@OO@iiiiiiiis+nn",
" uuuuuuuuuuuuuuututtuututtttt4utuuuuutttttqtrurttttqqtqutuuu@uutruuruuruu ssssssssonn",
"Xuqqqqqqqqqq0qqqqqqqqqqqqqqqq4qqqqqqqqqqqqqqqqqqqqqqqqqqqqqq#qqq00qqqqqqy.+++:1:23+nn",
"Xiqqqqqqqqqqqqqqqqqqqqqqqqqqq4qqqqqqqqqqqqqqqqqqqqqqqqqqqqqq4qqqqqqqqqqqp.iipiipif#nn",
".irqqqqqqqqqqqqqqqqqqqqqqqqq04qqqqqqqqqqqqqqqqqqqqqqqqqqqqqq6qqqqqqqqqqqy.yppyiiih#nn",
".uqqqqqqqqqqqqqqqqqqqqqqqqqq04qqqqqqqqqqqqqqqqqqqqqqqqqqqqqq6qqqqqqqqqqqi.pyppppih#nn",
"Xiqqqqqqqqqqqqqqqqqqqqqqqqqqq4qqqqqqqqqqqqqqqqqqqqqqqqqqqqqq6qqqqqqqqqqqi.ippipiph+nn",
".iqqqqqqqqqqqqqqqqqqqqqqqqqqq#qqqqqqqqqqqqqqqqqqqqqqqqqqqqqq5qqqqqqqqqqqi.pppippif#nn",
".iqqqqqqqqqqqqqqqqqqqqqqqqqqq#qqqqqqqqqqqqqqqqqqqqqqqqqqqqqq5qqqqqqqqqqqi.ipppppih#nn",
"q..;;6665666--@--6444444444@####%4444444554544,4,466666666666566666>>*oO.pppppppah#nn",
".itututtuttuuu@uututttutuutuytututtuttututtutt4tutuuttutuutuyytuuuurtutuy.apppppaf#nn",
".iqqqqqqqqqqqq*0qqqqqq0qqqqqqqqqqqqqqqqqqqqqqq4qqqqqqqqqqqqqqqqqqqqqwwwwi.aappppah+nn",
".iqqqqqqqqqqqq6qqqqqqqqqqqqqqqqqqqqqqqqqqqqqqq4qqqqqqqqqqqqqqqqqqqqqwweei.aappspaf#nn",
".uqqqqqqqqqqqq6qqqqqqqqqqqqqqqqqqqqqqqqqqqqqqq4qqqqqqqqqqqqqqqqqqqqqwweei.spsssssh#nn",
".iqqqqqqqqqqqq6qqqqqqqqqqqqqqqqqqqqqqqqqqqqqqq9qqqqqqqqqqqqqqqqqqqqqqqqqi.saasasah#nn",
".iqqqqqqqqqqqq9qqqqqqqqqqqqqqqqqqqqqqqqqqqqqqq;qqqqqqqqqqqqqqqqqqqqqqqqqi.asaasaah#nn",
".uqqqqqqqq00qq;qqqqqqqqqqqqqqqqqqqqqqqqqqq00qq=qqqqqqqqqqqqqqqqqqqqqqqqqu.sasaaaal#nn",
".iqqqqqqqqq0qq=qqqqqqqqqqqq0qqqqqqqqqqqqq000qq;qqqqqqqqqqqqqqqqqqqqqqqqqw.assssssh#nn",
"ao++#o#+++0++o++++++o++++++++o++o+++q++++++++o++++++o+++o++++++q+++##++++asasssssk#nn",
"aaaaaaaaaa+aaaaaaapaaaapaaaaaaaaaaaa=paaaaaaaaaapaaaaaaaaaaaaaa.aaaapaaasssssssssl#nn",
"aaaapaaaaa7aaaaaaaaaaaaaaaaaaaaaaaaa7aaaaaaaaaaaaapaaaaaaaaaaaa7aaaaaaassasssdassl#nn",
"aaaaaaaaaa7aaaaaaaaaaaaaaaaaaaaaaaaa7aaaaaaaaaaaaaaaaaaaaaaaaaa7aaasasaassasssdssz#nn",
"asaaaaaaaa7aaaaaassaaaaaappaaaaaasaa7aaaaaaaaaaaaapsaaaaaaaaaaa7aaaaasasssassssssz+nn",
"fjfjhhhhhh4lhhhhhfhhhhhhhllhhhhhfjjf7hhhhhflhhhhhhfhhhhhhhflhhh7hhhhhhhhhhfljlllzz#nn",
"qqqqqqeeqq7qwwwwqqqqwwre00q0wwwwqqqq70eeqrqqwwwwqqqqwwrerqqqwww7reqqwwwwrqqqwwwwquXnn",
"qqqqrerewq7qwwwwqq00wwq0qq0qwwwwqqqq7reqwqqqwwwwq0qtqre0qqqqwww7qqqqwwwwqrqqwwwwqi.nn",
"qqqqqq00ww.qqwwwee000e00qqwwwwwwqqqqX00qwwwwwwqqer00er00wwwwwww.wqwwwwwwwwwwwwwwqi.nn",
"XX...X..X.......XX..XX... .......X...X.........X.X...X............................nnn"
};
