/* XPM */
static char *result[] = {
/* columns rows colors chars-per-pixel */
"8 96 43 1 ",
"  c #55321C",
". c #56331D",
"X c #55341E",
"o c #56341E",
"O c #56341F",
"+ c #56351F",
"@ c #563520",
"# c #573521",
"$ c #573621",
"% c #573722",
"& c #573723",
"* c #583621",
"= c #583622",
"- c #583724",
"; c #583824",
": c #624430",
"> c #654935",
", c #6C5847",
"< c #6D5A4B",
"1 c #6B5F51",
"2 c #6F6050",
"3 c #6B6256",
"4 c #736E62",
"5 c #736E63",
"6 c #746F63",
"7 c #746F64",
"8 c #747064",
"9 c #777165",
"0 c #797468",
"q c #79766B",
"w c #868579",
"e c #8E8D83",
"r c #8E8D84",
"t c #8F8D84",
"y c #8F8D85",
"u c #8F8E85",
"i c #908E85",
"p c #908E86",
"a c #908F86",
"s c #918F86",
"d c #918F87",
"f c #919088",
"g c #94928B",
/* pixels */
"-gwwwwwO",
"-gwwwwwO",
"-gwwwwwO",
"-gwwwwwO",
"-gwwwwwO",
"-gwwwwwO",
"-gwwwwwO",
"-gwwwwwO",
"-qdwwwwO",
"-qquuwwO",
"-q333uuO",
"-33OO>>O",
"&OOwwwwO",
"-gwwwwwO",
"-gwwwwwO",
"-gwwwwwO",
"-gwwwwwO",
"-gwwwwwO",
"-gwwwwwO",
"-gwwwwwO",
"-gwwwwwO",
"-gwwwwwO",
"-gwwwwwO",
"-gwwwwwO",
"-gwwwwwO",
"-gwwwwwO",
"-gipaspo",
"-#>>>>oo",
";gwwwww+",
";gwwwww%",
"=gwwwww ",
"OgwwwwwX",
"-gwwwwwO",
"-gwwwwwO",
"-gwwwwwO",
"-gwwwwwO",
"-gwwwwwO",
"-gwwwwwO",
"-gwwwwwO",
"-gwwwwwO",
"-gwwwwgO",
"-gwwgg2O",
"-ggg,<5O",
"-#>>864O",
"-gwwO73O",
"-gwwwO3O",
"-gwwwO3O",
"-gwwwwOO",
"-gwwwwwO",
"-gwwwwwO",
"-gwwwwwO",
"-gwwwwwO",
"-gwwwwwO",
"-gwwwwwO",
"-gwwwwwO",
"-gwwwwwO",
"-gwwwwwO",
"-gwwwwwO",
"-giyttyo",
"-#>>>>oo",
";gwwwww+",
";gwwwww%",
"=gwwwww ",
"OgwwwwwX",
"-gwwwwwO",
"-gwwwwwO",
"-gwwwwwO",
"-gwwwwwO",
"-gwwwwwO",
"-gwwwwwO",
"-gwwwwwO",
"-gwwwwwO",
"-gwwwwwO",
"-gwwwwwO",
"-gettyrO",
"-#>>>>oO",
"-gwwwwwO",
"-gwwwwwO",
"-gwwwwwO",
"-gwwwwwO",
"-gwwwwwO",
"-gwwwwwO",
"-gwwwwwO",
"-gwwwwwO",
"-1gwwwwO",
"-9gwwwwO",
"-9gwww0O",
"-91gw3yO",
"-9913pwO",
"-991fwwO",
"-911twwo",
"-111>>:o",
"o$$*gggo",
";gggwww@",
"=gwwwww.",
"OgwwwwwX"
};
