/* XPM */
static char *result[] = {
/* columns rows colors chars-per-pixel */
"83 120 51 1 ",
"  c #4B2511",
". c #4F2913",
"X c #502B16",
"o c #522E1A",
"O c #4F311E",
"+ c #56331D",
"@ c #4F3625",
"# c #553522",
"$ c #583724",
"% c #563826",
"& c #5A3B27",
"* c #573C2C",
"= c #5B3C29",
"- c #573F30",
"; c #583F30",
": c #5A402E",
"> c #5A4233",
", c #5A4739",
"< c #5B4A3D",
"1 c #604734",
"2 c #654935",
"3 c #644E3C",
"4 c #5D4D42",
"5 c #5C5247",
"6 c #5E5349",
"7 c #655444",
"8 c #695645",
"9 c #655F56",
"0 c #665F58",
"q c #666057",
"w c #676159",
"e c #6A655D",
"r c #6D695E",
"t c #6E6A60",
"y c #716D62",
"u c #747166",
"i c #767469",
"p c #79776C",
"a c #7F7C74",
"s c #807E76",
"d c #838177",
"f c #868579",
"g c #89877D",
"h c #8B8A7F",
"j c #8D8B83",
"k c #908E86",
"l c #918F88",
"z c #94928B",
"x c #99978F",
"c c #9B9992",
"v c None",
/* pixels */
"=zfffff.vvvvvvvvvvvvvvvvvvvvvvvvvvvvvvvvvvvvvvvvvvvvvvvvvvvvvvvvvvvvvvvvvvvvvvvvvvv",
"=zfffff+vvvvvvvvvvvvvvvvvvvvvvvvvvvvvvvvvvvvvvvvvvvvvvvvvvvvvvvvvvvvvvvvvvvvvvvvvvv",
"=zzzxlx+vvvvvvvvvvvvvvvvvvvvvvvvvvvvvvvvvvvvvvvvvvvvvvvvvvvvvvvvvvvvvvvvvvvvvvvvvvv",
"=#2222++vvvvvvvvvvvvvvvvvvvvvvvvvvvvvvvvvvvvvvvvvvvvvvvvvvvvvvvvvvvvvvvvvvvvvvvvvvv",
"=zfffff+vvvvvvvvvvvvvvvvvvvvvvvvvvvvvvvvvvvvvvvvvvvvvvvvvvvvvvvvvvvvvvvvvvvvvvvvvvv",
"=zffffg+vvvvvvvvvvvvvvvvvvvvvvvvvvvvvvvvvvvvvvvvvvvvvvvvvvvvvvvvvvvvvvvvvvvvvvvvvvv",
"=zfffff+vvvvvvvvvvvvvvvvvvvvvvvvvvvvvvvvvvvvvvvvvvvvvvvvvvvvvvvvvvvvvvvvvvvvvvvvvvv",
"=zfffff+vvvvvvvvvvvvvvvvvvvvvvvvvvvvvvvvvvvvvvvvvvvvvvvvvvvvvvvvvvvvvvvvvvvvvvvvvvv",
":zffffg+vvvvvvvvvvvvvvvvvvvvvvvvvvvvvvvvvvvvvvvvvvvvvvvvvvvvvvvvvvvvvvvvvvvvvvvvvvv",
":zffffg+vvvvvvvvvvvvvvvvvvvvvvvvvvvvvvvvvvvvvvvvvvvvvvvvvvvvvvvvvvvvvvvvvvvvvvvvvvv",
"+xfffff+vvvvvvvvvvvvvvvvvvvvvvvvvvvvvvvvvvvvvvvvvvvvvvvvvvvvvvvvvvvvvvvvvvvvvvvvvvv",
"&xffffg+vvvvvvvvvvvvvvvvvvvvvvvvvvvvvvvvvvvvvvvvvvvvvvvvvvvvvvvvvvvvvvvvvvvvvvvvvvv",
":zfffff+vvvvvvvvvvvvvvvvvvvvvvvvvvvvvvvvvvvvvvvvvvvvvvvvvvvvvvvvvvvvvvvvvvvvvvvvvvv",
"+xfffff+vvvvvvvvvvvvvvvvvvvvvvvvvvvvvvvvvvvvvvvvvvvvvvvvvvvvvvvvvvvvvvvvvvvvvvvvvvv",
":zfffff#vvvvvvvvvvvvvvvvvvvvvvvvvvvvvvvvvvvvvvvvvvvvvvvvvvvvvvvvvvvvvvvvvvvvvvvvvvv",
"&zfffff+vvvvvvvvvvvvvvvvvvvvvvvvvvvvvvvvvvvvvvvvvvvvvvvvvvvvvvvvvvvvvvvvvvvvvvvvvvv",
"+zfffff+vvvvvvvvvvvvvvvvvvvvvvvvvvvvvvvvvvvvvvvvvvvvvvvvvvvvvvvvvvvvvvvvvvvvvvvvvvv",
"+zffffg+vvvvvvvvvvvvvvvvvvvvvvvvvvvvvvvvvvvvvvvvvvvvvvvvvvvvvvvvvvvvvvvvvvvvvvvvvvv",
"&zzzzzx+vvvvvvvvvvvvvvvvvvvvvvvvvvvvvvvvvvvvvvvvvvvvvvvvvvvvvvvvvvvvvvvvvvvvvvvvvvv",
"&+2222++vvvvvvvvvvvvvvvvvvvvvvvvvvvvvvvvvvvvvvvvvvvvvvvvvvvvvvvvvvvvvvvvvvvvvvvvvvv",
"+zfffff+vvvvvvvvvvvvvvvvvvvvvvvvvvvvvvvvvvvvvvvvvvvvvvvvvvvvvvvvvvvvvvvvvvvvvvvvvvv",
":xfffff+vvvvvvvvvvvvvvvvvvvvvvvvvvvvvvvvvvvvvvvvvvvvvvvvvvvvvvvvvvvvvvvvvvvvvvvvvvv",
"+xfffff+vvvvvvvvvvvvvvvvvvvvvvvvvvvvvvvvvvvvvvvvvvvvvvvvvvvvvvvvvvvvvvvvvvvvvvvvvvv",
"+zfffff+vvvvvvvvvvvvvvvvvvvvvvvvvvvvvvvvvvvvvvvvvvvvvvvvvvvvvvvvvvvvvvvvvvvvvvvvvvv",
"&zgffff+vvvvvvvvvvvvvvvvvvvvvvvvvvvvvvvvvvvvvvvvvvvvvvvvvvvvvvvvvvvvvvvvvvvvvvvvvvv",
"+zfffff+vvvvvvvvvvvvvvvvvvvvvvvvvvvvvvvvvvvvvvvvvvvvvvvvvvvvvvvvvvvvvvvvvvvvvvvvvvv",
"&zffffg+vvvvvvvvvvvvvvvvvvvvvvvvvvvvvvvvvvvvvvvvvvvvvvvvvvvvvvvvvvvvvvvvvvvvvvvvvvv",
"+zfffff+vvvvvvvvvvvvvvvvvvvvvvvvvvvvvvvvvvvvvvvvvvvvvvvvvvvvvvvvvvvvvvvvvvvvvvvvvvv",
"&zfffff+vvvvvvvvvvvvvvvvvvvvvvvvvvvvvvvvvvvvvvvvvvvvvvvvvvvvvvvvvvvvvvvvvvvvvvvvvvv",
"&zfffff+vvvvvvvvvvvvvvvvvvvvvvvvvvvvvvvvvvvvvvvvvvvvvvvvvvvvvvvvvvvvvvvvvvvvvvvvvvv",
"+zfffff+vvvvvvvvvvvvvvvvvvvvvvvvvvvvvvvvvvvvvvvvvvvvvvvvvvvvvvvvvvvvvvvvvvvvvvvvvvv",
"&zfffff+vvvvvvvvvvvvvvvvvvvvvvvvvvvvvvvvvvvvvvvvvvvvvvvvvvvvvvvvvvvvvvvvvvvvvvvvvvv",
"#zfffff+vvvvvvvvvvvvvvvvvvvvvvvvvvvvvvvvvvvvvvvvvvvvvvvvvvvvvvvvvvvvvvvvvvvvvvvvvvv",
"$zfffff+vvvvvvvvvvvvvvvvvvvvvvvvvvvvvvvvvvvvvvvvvvvvvvvvvvvvvvvvvvvvvvvvvvvvvvvvvvv",
"$xzzxzx+vvvvvvvvvvvvvvvvvvvvvvvvvvvvvvvvvvvvvvvvvvvvvvvvvvvvvvvvvvvvvvvvvvvvvvvvvvv",
"#+2222++vvvvvvvvvvvvvvvvvvvvvvvvvvvvvvvvvvvvvvvvvvvvvvvvvvvvvvvvvvvvvvvvvvvvvvvvvvv",
"$zfffff+vvvvvvvvvvvvvvvvvvvvvvvvvvvvvvvvvvvvvvvvvvvvvvvvvvvvvvvvvvvvvvvvvvvvvvvvvvv",
"$xfffff+vvvvvvvvvvvvvvvvvvvvvvvvvvvvvvvvvvvvvvvvvvvvvvvvvvvvvvvvvvvvvvvvvvvvvvvvvvv",
"#zfffff#vvvvvvvvvvvvvvvvvvvvvvvvvvvvvvvvvvvvvvvvvvvvvvvvvvvvvvvvvvvvvvvvvvvvvvvvvvv",
"#zfffff+vvvvvvvvvvvvvvvvvvvvvvvvvvvvvvvvvvvvvvvvvvvvvvvvvvvvvvvvvvvvvvvvvvvvvvvvvvv",
"$xfffff+vvvvvvvvvvvvvvvvvvvvvvvvvvvvvvvvvvvvvvvvvvvvvvvvvvvvvvvvvvvvvvvvvvvvvvvvvvv",
"$lfffff+vvvvvvvvvvvvvvvvvvvvvvvvvvvvvvvvvvvvvvvvvvvvvvvvvvvvvvvvvvvvvvvvvvvvvvvvvvv",
"$lffgff+vvvvvvvvvvvvvvvvvvvvvvvvvvvvvvvvvvvvvvvvvvvvvvvvvvvvvvvvvvvvvvvvvvvvvvvvvvv",
"$xfffff+vvvvvvvvvvvvvvvvvvvvvvvvvvvvvvvvvvvvvvvvvvvvvvvvvvvvvvvvvvvvvvvvvvvvvvvvvvv",
":zfffff+vvvvvvvvvvvvvvvvvvvvvvvvvvvvvvvvvvvvvvvvvvvvvvvvvvvvvvvvvvvvvvvvvvvvvvvvvvv",
"+zfffff+vvvvvvvvvvvvvvvvvvvvvvvvvvvvvvvvvvvvvvvvvvvvvvvvvvvvvvvvvvvvvvvvvvvvvvvvvvv",
"+xfffff+vvvvvvvvvvvvvvvvvvvvvvvvvvvvvvvvvvvvvvvvvvvvvvvvvvvvvvvvvvvvvvvvvvvvvvvvvvv",
"+zffffg+vvvvvvvvvvvvvvvvvvvvvvvvvvvvvvvvvvvvvvvvvvvvvvvvvvvvvvvvvvvvvvvvvvvvvvvvvvv",
":zfffff+vvvvvvvvvvvvvvvvvvvvvvvvvvvvvvvvvvvvvvvvvvvvvvvvvvvvvvvvvvvvvvvvvvvvvvvvvvv",
"+zfffff+vvvvvvvvvvvvvvvvvvvvvvvvvvvvvvvvvvvvvvvvvvvvvvvvvvvvvvvvvvvvvvvvvvvvvvvvvvv",
"&xzzzzx+vvvvvvvvvvvvvvvvvvvvvvvvvvvvvvvvvvvvvvvvvvvvvvvvvvvvvvvvvvvvvvvvvvvvvvvvvvv",
"++2222++vvvvvvvvvvvvvvvvvvvvvvvvvvvvvvvvvvvvvvvvvvvvvvvvvvvvvvvvvvvvvvvvvvvvvvvvvvv",
"&zfffff+vvvvvvvvvvvvvvvvvvvvvvvvvvvvvvvvvvvvvvvvvvvvvvvvvvvvvvvvvvvvvvvvvvvvvvvvvvv",
"&zffffg+vvvvvvvvvvvvvvvvvvvvvvvvvvvvvvvvvvvvvvvvvvvvvvvvvvvvvvvvvvvvvvvvvvvvvvvvvvv",
"+zfffff+vvvvvvvvvvvvvvvvvvvvvvvvvvvvvvvvvvvvvvvvvvvvvvvvvvvvvvvvvvvvvvvvvvvvvvvvvvv",
"+zfffff+vvvvvvvvvvvvvvvvvvvvvvvvvvvvvvvvvvvvvvvvvvvvvvvvvvvvvvvvvvvvvvvvvvvvvvvvvvv",
"+zfffff+++:&&&&&&&&&&v&&&&&&&&&&&&&&&&&&&&&&&&&:v:+:&&&&::&&&&&&&&&&&&&&&=v&&&&&==&",
"+cfffffffffffffffffff3gfffffffffffffffffffffffff>ffffffffffffffffffffffffh1hfffffff",
"+cfffffffffffffffffff3gfffffffffffffffffffffffff2ffffffffffffffffffffffffh3hfffffff",
"+cfffffffffffffffffff8ffffffffffffffffffffffffff8ffffffffffffffffffffffffh7hfffffff",
".fxcccczzzzzhzzklzzxx8xxxzlkjlllllllzlllkkkkzxxx8zxxxzzzzzxkzzzzzzzzzzlxxx7xxxzzzzz",
" ftttttttuttuyyuyyyyy*yyyyyttttttrterrrrttttrrrr:rrrrrrrrrerrrrrreetrrrrrr>retetrrr",
" ftttrtrrtrrryrrytytt>ytryttttteetrtrrrrterttrrr>rrrrrrrrrrerrrreterrrrrrr>reterree",
".drrrretrrrrrrryttryy>ttyryrttttetrtrrrrrererrrr>rrreerrreereerrreterrrree>rretreee",
" sreeeeerrrrrrtertttr>ttrtttttttrrrerrrreererere>rrrerrerrerreeeeeerereere:eeeeeree",
".aeeeeeeeereeeetttter>rttttteeeereetrerrrterreer>eeeeeeeeeeereeereeeeereee>reeeeeee",
".aeweweeeeeeeeeeeteer:errtetrrteeeteeeeereeereer>eeeeereeeeeeeeeeeeeeeeeee:eeeeeqee",
".awwwewweeweeeeeweeee#eeeeeeeeeeeeeeeeeeeeeeeeee:eeweeeeqeeeeeeeeeweeweeer:eeeeeree",
"Xiwqwweweeweeweeeeewe@eeeeereeeeweeetwtweeeeeeeeOeweeeweeeweeqweewweeewerqOreeeeeqe",
" uqqwwqeqeewwewwwweewOewwewwewewweewwweweeeeewweOweeweeweeeweeewweewweewrq+eqeqeeee",
" iq9qwwwqwwqweqewewwwoqwwwwrweewewtwwweewewweewwOewwewwweqeqqeeeeeeeeeeqrqOqeeqeewe",
" iqqqqqqqeqewqewwwwwwOwwwwwwwwwwwwewwwwwwwweqwweOeewwwweqeqeqewewqqeqwweqrOeqeerqeq",
".i99qqqqqqqqwwwwwwwww wwwwwwwwwwwwwwwwwwwwwwwwww+qeqqqwwwwwwqwwwwwwwwwwwww@erqqqeqq",
"vX99q8qqqeqeqewwwwwww wewwwwwwwwwwwwwwwewwwwwwww.qqqeqwwwwwwqqwwwwwwwwwwwwOqqqrqqeq",
"vv            .X     6  ........XX X X ...X .. X5.X.X.  .X XX.XXXXXX...X.X5XX.Xo...",
"vvXirrqrrrr.66666666665@6556555555555555555555555555555O555555555555655555555666665",
"vvXprerrrqr.37666666666@6555555555555555555555555555555O555555655556555655656666666",
"vvXperrerrr.66666666666@6555555555555555565555555555555@555555555565656565565666666",
"vvXprerrrqr.96966966656@5555555555555555555555555555555O555555565656665666656666666",
"vvXirrerrrr.56566666665@6555555555555555555555555555555:555555555556656556565666666",
"vv.srrrrrre.66666666555@5555555555555555555565565555665@566756666565555555556666666",
"vv.urrrrrrrXu009wwww999,wwwwwwwwwwwwwwwwwwww000wwwww000-0w0000000wwwwwww0e0e00e0eew",
"vv.drrrrtrtXy09999q9999,w9wwwwww0000w00we0ww0e00ww0www0#0w000e00wwwwwwwwww00e000www",
"vv.drrrrrrrr @+>,>,,,,,,,55555556555744445566665666>--*@*-666666665>,@@->,>6665>>>.",
"vv+prrrrrrr.yyyyeererrrrttttettetttttt4tttttttttttttttttttttttttttttte@tetetttetere",
"vv+pyrrrrrr.ywwwwwwwwwww9qqwwwwwww00004e00ww99ww0000ww00009900000000ww*w0000ww00www",
"vvoprrrrrrroywwwwwwwwwwwqwwwwwwwwwww00400www00wwww00wwwwww00e0e0ww00ww,www0wwwwwwww",
"vvopyryryyroywwwwwwwwwwwwwwwwwwwwwww0040wwww00wwwwwwwwwwww000000wwwww05wwwwwwwwwwww",
"vvoptryrtry.yqwwwwwwww00wwwwwwww0e000040wwwwwwwwwwwwwwww00000ee0wwwwww6w0000ewwwwww",
"vv+ptrryttr.ywwwwwwwwwwewwwwwwww0e0e0e40wwwwwwwwwwwwwwwwe00e0000wwwwww6w00e0wwwwwww",
"vv+pyryrttt.ywwwwwwwww00wwwwwwww00e000;ewwwwwwwwwwwwwwww000ee0eewww0ww6wt000wwwwwww",
"vv+iyyrytyt.ywwwwwwwww00wwwwwwwwe0000e-0wwww0wwwww0wwwwwe0000000wwwwww6w0000wwwwwww",
"vvXdyryyyyyyoOOO444444,*-@@44<,<4,,**@#@-66655665555,,44<<<66666666666665555555>>> ",
"vvXpppppppp.teetttttette@tttteewe00eeeeeeweetwwettttttw4eteeteteeetetttttttttetttet",
"vv+3111:$#+ot00000990000@000000000000000000000000000009400000000000000990000w09w999",
"vv+dyyyyyyy t000099900004000000000000000000000000000000,0000000000000099000000w9ww9",
"vv&fyyyyuyy.yqqq0000000060000000000000000000000000000006000000000000000000000000000",
"vv+fytyuyyy.yqqq0000000060000000000000000000000000000004000000000000000000000000000",
"vv+fyuuyuyu.y9qq0000000060000000000000000000000000000004000000000000000000000000000",
"vv+fuyuuuyu.y9q9000000006000000000000000000000000000000#000000000000000000000000000",
"vv#fyuuuiyyXy999000000006000000000000000000000000000000$000000000000000000000000000",
"vv#duuiuuiiy.oo=-;6666676666666666644,<<464444444444#$++#+4444444446;-#*;6666666;;.",
"vv#duuuuuiu.ettretetttrrtetetteteeteee4ettteetteteetterreeteeeteetette*eteeteteeter",
"vv#fiuiiuui.y000000000000000000000000040000000000000000000000000000000*000000000000",
"vv$siiiiiiuXy0000000000000000000000000400000000000000000000000000000006000000000000",
"vv#fiipiiiuXy0000000000000000000000000400000000000000000000000000000006000000000000",
"vv#fpipiiiiXy0000000000000000000000000600000000000000000000000000000006000000000000",
"vv#giiiiiiiXy0000000000000000000000000;00000000000000000000000000000004000000000000",
"vv#gppipipp.y0000000000000000000000000=0000000000000000000000000000000;000000000900",
"vv#fppppppi.00009900000000000000000000*0000000000000000000000000000000=000000000990",
"vv#hppppppip++o++++++0o++++++oo#++++o+++++o+++++0++o++++++++++++++++o+++++0+++#++++",
"vv+kpppppippppiipiuiuXiiiiiiipuiuiysiiiiiiiiiiii$iiiiiiiiiiuiiiiiiipiiiiii+iiiiiiii",
"vv+kppppppppipipppiii7iuiiuiiiiiiiiiiiiiiiiiiiii8iiiiiiiiiiiiiiiiiiiiiiiii7iiiiiiip",
"vv#kpppppppppppippiii5ipipiiiiiiiiiyiiiiiiiiiiii7iiiiiiiiiiiiiiiiiiiiiiiii7iuiiiiiu",
"vv#kiipppipippiiupiip8uppuiiiyiyisysipiiiiiiisui7ppiiiiiiiiiiiiiiiiiipiiii8iiiipiii",
"vv#kkjkkhfffffffffsjs8sffffffjfjsgsgsjssfffgsgsf7sffsggsffffffffsggggdgsff8ffffffsj",
"vv.twww9qqqqqqqqqqqq07w0qqqqqqqqqqqqw000qqqqqqqq8qqq0w0wqqqqqqqq90000000qq8wqqqq900",
"vv.tw9qqqqqqqqq9qqqq070wqqqqqqqqqqqqww00qqqqqqqq3qqq00w0qqqqqqqq99000000qq3wqqq9990",
"vvXyqqqqw99wqq99qq99w.w0qqqqqqqqqq090000qqqqqqqqXwqqqq0wqqqqqq9q09000000qq.qqq9w0q0",
"vvv........ XXXX.................................X................................."
};
