/* XPM */
static char *result[] = {
/* columns rows colors chars-per-pixel */
"131 39 114 2 ",
"   c #676A14",
".  c #696C15",
"X  c #6A6D1B",
"o  c #6C7016",
"O  c #6F731A",
"+  c #717517",
"@  c #72751C",
"#  c #74791D",
"$  c #5F5F3B",
"%  c #605F33",
"&  c #625E3C",
"*  c #5F6027",
"=  c #646423",
"-  c #656923",
";  c #686925",
":  c #63642D",
">  c #67682F",
",  c #6F6F2F",
"<  c #706F2E",
"1  c #6F7224",
"2  c #6F722B",
"3  c #727423",
"4  c #777B23",
"5  c #797C24",
"6  c #71732C",
"7  c #767A2B",
"8  c #797A2A",
"9  c #656434",
"0  c #6C6C35",
"q  c #656439",
"w  c #67683C",
"e  c #6D6C3C",
"r  c #706F37",
"t  c #706F3E",
"y  c #6E7134",
"u  c #6E713C",
"i  c #717132",
"p  c #777934",
"a  c #787933",
"s  c #71713B",
"d  c #7C7E3D",
"f  c #5F5D42",
"g  c #615D42",
"h  c #646343",
"j  c #6A6643",
"k  c #676840",
"l  c #6D6C42",
"z  c #66654C",
"x  c #696548",
"c  c #6D6A4B",
"v  c #706F42",
"b  c #6F7043",
"n  c #717042",
"m  c #7E7D44",
"M  c #7C7B4B",
"N  c #777451",
"B  c #7D7E56",
"V  c #7E7E5C",
"C  c #7E7C65",
"Z  c #7D7B6E",
"A  c #7E7D72",
"S  c #817E55",
"D  c #807D5D",
"F  c #817E64",
"G  c #817F6D",
"H  c #817F72",
"J  c #837E78",
"K  c #7D8025",
"L  c #7E812B",
"P  c #7E8032",
"I  c #7F8138",
"U  c #7F8056",
"Y  c #7F805C",
"T  c #7F806E",
"R  c #7F8071",
"E  c #808026",
"W  c #81822B",
"Q  c #808131",
"!  c #84844E",
"~  c #838357",
"^  c #898C57",
"/  c #83835C",
"(  c #89875C",
")  c #87885E",
"_  c #8A8A5D",
"`  c #92915D",
"'  c #848364",
"]  c #898567",
"[  c #8B8A64",
"{  c #83816C",
"}  c #89876A",
"|  c #8B896B",
" . c #908E67",
".. c #918E6B",
"X. c #8E906B",
"o. c #919163",
"O. c #93926C",
"+. c #98966D",
"@. c #838174",
"#. c #898676",
"$. c #8D8C73",
"%. c #868679",
"&. c #88867A",
"*. c #87887A",
"=. c #8E8C79",
"-. c #918E72",
";. c #918E7B",
":. c #939173",
">. c #989576",
",. c #95937D",
"<. c #98947B",
"1. c #918F83",
"2. c #959183",
"3. c #999481",
/* pixels */
"@ @ @ @ @ + @ @ @ @ @ @ @ @ @ @ @ 3 @ @ O @ @ 3 O + @ @ @ + @ + @ @ @ @ @ 5 E E @ @ @ @ @ @ @ @ @ @ 3 @ 3 o @ @ @ @ @ @ O # @ 1 # @ @ # @ O @ @ @ @ @ @ @ @ @ @ @ @ @ @   L 5 @ @   4 L 3 @ @ @ @ # @ 3 @ @ @ @ @ @ @ @ @ @ @ + @ @ @ @ + @ @ @ @ @ @ @ @ + @ @ @ @ @ ",
"@ @ @ # + + # + @ @ @ @ @ @ 3 @ O @ @ @ @ @ O @ + # @ @ @ @ O # @ @ # @ @ + E 5 @ @ @ + @ @ @ @ + @ @ @ @ @ @ 3 @ @ @ @ @ O O # @ O @ @ # O @ @ @ @ @ @ @ @ @ @ 3 @ @ @ @ 5 4 @ # 4 4   @ @ @ @ @ @ @ @ # @ @ @ @ @ @ @ @ @ @ # @ @ @ @ @ @ @ @ @ @ @ @ + @ @ @ @ O @ ",
"@ @ @ @ @ @ @ @ @ @ @ @ @ @ @ @ # @ @ @ @ @ @ @ @ # @ @ # 3 @ @ @ @ @ @ @ @ o 5 5 @ @ @ @ @ @ @ @ @ @ @ @ @ @ @ @ @ @ @ @ @ @ @ @ @ @ @ @ @ + @ 3 @ # @ @ @ @ @ @ @ 3 @ #   8   3 4   3 @ @ @ O @ @ @ @ + @ @ @ @ @ 3 @ @ @ @ @ @ @ @ @ @ @ + @ @ + @ # @ @ @ + @ # # ",
"@ @ @ 3 3 6 < < 6 6 2 6 6 6 6 6 6 3 @ @ 3 3 6 6 6 2 6 6 2 6 i 2 < 3 @ @ + # @ . X 3 < 8 2 6 2 2 1 3 @ @ 3 6 < 3 6 6 < < 2 6 6 6 3 3 3 @ 1 3 6 2 6 6 6 3 6 6 6 6 3 3 3 @ @ @     K L - 2 6 6 2 2 3 3 @ 3 3 6 3 6 6 < 3 3 5 3 3 < < 3 @ @ 3 3 6 6 6 6 < 6 6 6 6 6 2 3 O ",
"@ @ @ 3 s [ [ | } } } | } } ] [ _ s 3 3 r S B D V V V V Y V V V S r 3 @ @ O # 3 r [ ( F ' F ' / ~ y 3 3 r S ( F ' Y ' ( / ' ' / ~ e 3 3 0 ( / } ' ( ' ] ' [ ' ( ( r 3 @ @ # @ O 7 * [ ' F ' ' / / y 3 3 y / ~ ' ' / o.s y ! / / S a 8 3 r S D ] F ' ' ' F ' ( D ( 0 6 ",
"+ @ 3 6 O.} #.%.&.#.&.&.&.&.&.%.|  .6 7 ( C Z Z Z Z Z Z Z Z Z Z F ( 6 @ 3 6 1 i [ F H H H G @.G { [ 3 3  .F H H H H H H A H A G ] [ 6 3 [ { %.H #.@.@.H @.@.J H ]  .< 3 1 3 2 6 y [ { @.H G @.{ { [ 1 6 [ G H H R =.9 i n / Z { F [ 6 6  .F H G A H A H H H H G F [ 6 ",
"@ @ 3 6 ..&.&.&.&.&.&.&.&.&.&.&.&.-.6 3 ' Z Z Z Z Z A Z Z Z Z A Z ] 6 3 2 s t [ F G H H H H H H @.' 6 6  .H H H H R A H H H A @.H | 6 6 | @.@.@.#.H %.H #.H #.#.@.[ 3 3 y u [ ' T { T R H H H T T [ 3 6 } H H H R h 2 2 l T { H J ] < 6 ] J G H H R R R T T H H G [ 6 ",
"@ @ @ 6 -.#.&.&.#.%.&.&.&.&.&.&.&.-.6 6 ] Z Z Z Z Z Z A Z Z Z Z Z } 6 3 ^ / F { H H G H H H H H H | < 6 | H H G H R @.H H H H H H | 6 6 $.%.@.&.%.J H #.H #.H H #.| i 6 ^ / H H { { @.T H H H A G | < 6 ..$.;.;.X.q y y / ' { H J  .6 < | J G H @.R T R T @.H H H | 6 ",
"@ @ @ 6 | *.*.&.*.&.&.%.#.#.&.&.&...6 i F H Z Z Z Z Z Z Z Z Z Z A ' 6 6 [ G G G H H H H @.H H H H | 6 6 | H H H H H H H H H H @.H | 6 6 | J H %.J @.@.@.@.H @.@.R $.y i [ { H A H { G @.H H H H @.| < 3 : q q 9 : s n ~ { G G G #.| 6 i | H H H H A @.G G H H H ;...r ",
"@ @ + 6 :.&.&.#.&.*.%.%.%.#.&.&.&.$.6 6 ] Z Z Z Z Z Z Z Z Z C Z Z ] 6 6 #.H H H @.A @.A A J H H H | i 6 | J H H H H H H H @.@.Z @.| 6 6 | J %.@.@.@.@.@.%.%.R @.%.X.2 2 | @.@.H H G A H H H H H @.| 6 6 i u l b s u D { H H H H Z | 6 6 } @.J H G @.H G H G G -.x 9 6 ",
"@ @ @ 6 $.*.%.%.*.*.%.%.&.#.&.&.&.-.6 6 ] Z Z Z Z Z Z Z Z Z Z Z Z ' i 6 | H H H A H H @.H H H H H | 6 6 | R H H @.A H H A A R R Z | y 6 :.2.1.=.R %.@.&.%.@.%.R @.| 6 6 | R H H H H @.A H H G H H | 6 6 u D G ] ' ' { { A @.H H H | 6 2 | A H A A R @.H H { ( l i 3 3 ",
"@ @ @ 6 O.&.%.&.*.*.%.%.#.&.&.&.&.-.6 2 ' A Z Z A Z Z Z Z Z Z Z Z } 6 < | H H H H @.H H R J H H H | 6 6 | @.H H A @.H H R A R R R | 6 2 h z z z 1.=.=.@.@.@.@.%.@.| i 6 | @.R R H H H H H H H G H | i 6 [ G H H A A H H A A H @.@.| 2 2 | @.A A R R A @.H G / 0 3 @ @ ",
"@ @ @ 6 :.&.&.&.*.*.%.#.#.#.&.&.&.-.6 6 ' A Z Z Z Z Z Z Z Z Z Z Z ' 6 6 | R @.H H H H H A @.H H H } 6 6 | H H H @.R G H @.H @.H R ] 2 6 t v v l w j x ;.@.@.@.@.H | 6 6 | H R R H J H H H H G H H | 6 6 | H H H H A H @.R R H A A | 6 6 | H H @.R R Z @.@.Z ' s 6 3 @ ",
"@ @ @ 6 -.&.&.&.%.%.&.%.&.&.&.&.&.-.6 i ' Z Z Z Z Z Z Z Z Z Z Z A ' 6 6 | A A H H H H H H @.H H H | 6 6 | H A H Z R H H H @.H H @.| 6 3 ` ( ( ( b v v j ;.@.@.#.#.} 6 6 | H T { H H H H H H H H H | 6 6 [ H H H G @.H H R R H @.H [ 6 < | H H H R @.{ Z H { Z / i 3 @ ",
"@ @ @ 6 ..&.&.&.%.#.*.&.&.&.&.#.&...6 i { A Z Z Z Z Z Z Z Z Z Z A ' 6 6 | R R H H H H A R R H H H | < < } H J H @.T @.H H H H H R | 6 6 ..} @.{ { ' r t j -.@.#.J ] 6 6 } H H H H H H H H H H H H | 6 6 | H J H H H H A R =.1.=.;.q 6 6 | H A @.R T H H A G { ' D s 6 ",
"@ @ @ 6 -.&.&.&.%.#.&.&.&.&.&.&.&.-.i 6 G Z Z Z Z Z Z A Z Z Z A H ' i 6 | A H H H @.R R R A H H H | 6 6 ..$.;.;.=.@.A H H H @.A R | 6 6 -.H #.J #.} / s t w $.H #.' 6 6 | H H H H H H H H H H H H | 6 6 | H H H H H R { =.h f h 9 r 3 6 q $.{ A A @.H H H H @.H ] [ 3 ",
"O @ @ 6 $.&.*.*.&.&.&.&.&.*.&.&.&.-.6 6 ' A A Z A Z H A Z Z A Z Z ' 6 6 | H J J A R @.R A H H H J ..< 3 i 9 q q g ;.H J H @.@.@.@.| 6 6 -.H %.H %.H @.( a d w ..{ [ Q I | H H H H H H H H H H H @.| 6 6 } #.H H A H H #.9 y i 6 3 3 3 3 i q =.@.H H H H H H @.A { [ 6 ",
"@ @ @ 6 l ,.,.2.2.2.2.,.,.,.2.,.<.l 1 3 9 | #.$.#.#.#.#.#.| #.#.$.q 6 6 w $.=.=.=.=.=.$.=.=.=.=.-.& 3 3 3 6 i r r q -.;.=.$.=.$.$.q 6 3 l <.;.;.:.;.;.O.6 Q m 9 9 d Q 1 & -.;.=.;.-.-.;.;.;.;.;...q 3 6 q | ;.$.;.;.;...2 3 3 @ @ @ @ 3 3 i q $.-.;.=.=.=.$.=.=.$.w 3 ",
"@ @ @ 3 y u e e e l l e e e l e r i 6 3 i 9 % 9 : 9 % & 9 9 9 9 > i 3 3 r 9 9 9 % $ 9 & q q w q : < 3 @ 3 @ @ 3 3 i 9 9 q q 9 9 9 i 3 3 i r w w w w q 0 3 8 8 6 a 7   3 i > 9 q q q q q 9 9 q 9 9 6 3 3 i : 9 9 9 q q 9 6 @ @ @ @ @ @ @ @ 3 2 > 9 9 q q q q w q : y 3 ",
"@ @ @ 3 2 y u l v v v v n n l e s < 3 3 6 y e l l l v v n t t t i < 3 3 , i s n n v v l b u b w r < 3 3 3 8 < 6 6 i s v v v l n i 6 3 3 i s v n n s l l i ; = 6 7 7 X 1 3 6 e l v v c v t t v t s < 3 3 6 i t t n v v s y 6 6 6 < 8 3 @ 6 6 y u t l b b v v v l y 6 3 ",
"@ @ @ 3 u / ' ' F F ] G { F { ' / r 3 6 r ( ' ' F { { G ' G { ' Y s 3 3 r B D C C C C C C C C V S t 3 3 y _ [ [ [ } } #.#.} #.[ [ u 6 1 r D F { { { ' ' / T ' ( 9 - 3 @ 3 2 n ' F F } F G ' Z ' / s 6 3 s B D C C C C F C V V V S r 3 3 r [ | | #.} } } } | #.| [ u 6 ",
"@ @ @ 6 ^ T { R H H H H @.A H { F  .6 3 ( G Z @.@.H H H H A A G { ( 6 1 ( F Z Z Z Z Z Z Z C Z C F ( 6 6 o.#.#.#.&.&.&.#.&.&.%.#.} o.6 6 _ ] G H A A H H A @.A Z ' ^ 2 @ 1 i ~ T H H J H G G @.{ G ) 6 6 / C Z Z Z Z Z Z Z Z Z C F / 6 3  .#.@.%.&.&.&.%.&.&.#.#.#. .6 ",
"@ @ @ < [ T Z R A H H A @.R T G H [ < 6 ' @.H H H H H H H H H H H [ 6 6 ' Z Z Z Z Z A A Z Z Z Z Z ' 6 2 X.@.&.&.&.&.&.#.#.#.&.&.&.X.2 6 [ G @.H @.R R @.A R R @.T [ 6 6 s ~ F { G { G G H H H H { [ 6 6 [ C Z Z Z Z Z Z Z Z Z Z Z [ < 2 | &.&.&.&.&.#.%.&.&.&.#.*...6 ",
"@ 3 @ 6 | @.R R @.H H @.A R R @.H | 3 6 | H @.A H G H H J H H H H } y 6 ] Z Z Z Z Z A Z Z Z Z Z A ] 6 6 $.&.&.&.%.&.&.#.#.#.&.&.*.| 2 2 [ H G H A R R A @.R A H R | 6 6 _ { G H H G G H H H H H A | 2 6 ' Z A Z Z Z Z Z Z Z Z A Z ' 6 3 +.,.,.2.#.#.%.&.&.&.&.&.&.| 6 ",
"@ @ @ 6 | H H H H H H H H H H G @.| 6 2 | A H H T R G H H A R R H } 6 6 } A A Z Z Z Z Z Z Z Z Z Z ' 6 6 $.&.&.*.&.&.&.&.%.%.&.&.*.-.2 y | H H H H @.H G H G H H A | y 6 [ { A R H A A R H H H H A | i 6 [ Z A Z Z Z Z Z Z Z A Z Z ' 6 3 r t e l :.| #.&.&.&.&.&.&.| 7 ",
"@ @ @ i | H H H H H H H H H H H H | 6 6 | A @.H R T H H H A R R H | 6 6 } A Z Z Z Z Z Z Z Z Z Z A ' 6 6 $.*.%.%.&.&.&.&.%.%.&.&.*.$.i 2 | H H H H H H H H H H H @.| 6 2 | H R R R @.R A H H @.H @.} 6 i ] Z A Z Z Z Z Z Z Z Z G Z ] 6 3 < i i e b | #.*.&.&.&.%.%.:.< ",
"@ @ @ 6 | H H H H G H H H G H H H | 6 6 | A H H H @.H H H H @.A H } 6 6 } A Z Z Z Z Z Z Z Z Z Z Z ' < 6 -.#.*.%.&.#.&.&.#.&.&.#.*.X.6 6 | A @.H H H H A H H H H H | i 6 | H @.R A A A A H G H H H | 2 6 ] Z Z Z A Z Z Z Z &.&.#.$.[ 6 @ @ 3 3 2 u :.#.#.&.&.&.%.&.$.2 ",
"@ @ @ 6 | H H @.H H G G H H H H H | 6 6 #.R H H H H H H @.H H { H } 6 6 | Z Z Z Z Z Z Z Z Z Z Z A } 6 6 :.%.#.%.#.#.#.&.&.&.&.&.*.X.6 6 | H H H G G @.H H H H H @.| i i | R A A J %.R R H H H A H ] 6 2 ] Z Z Z Z F Z C #.& & & : S a @ 3 6 2 i y e >.,.%.&.%.%.&.-.6 ",
"@ @ @ 6 | H A H H H H H H H H H J | i 6 | H H H G H H H A A H H H | < 6 G Z Z Z Z Z Z Z Z Z Z Z A ] 6 6 | *.&.#.&.&.&.&.#.%.%.&.*.-.6 6 | H H H H A A H G H H H H | 6 6 | @.R R J R H H @.Z @.H H | 6 6 F G A Z G C C N 9 y 6 a 3 Q @ 6 o.| | [ r r e v ,.&.&.*.%.O.6 ",
"@ @ @ i | H H H H H H H H H H H H } 6 6 | H H H H G H H H @.A @.H | 6 6 } Z Z Z Z Z Z Z Z Z C C #.[ 6 6 :.%.&.&.&.&.&.#.&.%.%.&.*.-.6 2 | H J A @.H @.@.H H H H @.[ 6 6 q -.$.=.=.=.H H R R R H H  .6 6 } Z Z Z Z C | : d P @ 5 5 . # 6 | &.%.} _ r t v l :.#.&.%.X.2 ",
"@ @ @ 2 | A R R G H H H J H H H H | 6 6 | H H H H H H H H { H H H | 6 6 } H Z Z Z Z Z Z 1.#.} q & * 6 6 -.&.*.&.&.&.&.#.#.%.&.%.*.$.6 3 | @.H H A R R Z H H H H { [ 6 3 i 9 9 q w q #.H H H H H H } 6 6 D F G Z *.$.: 6 P 8 8   . @ + 6 :.#.&.#.$.} [ n 0 e ,.2.2. .3 ",
"@ @ # i | R A R H H H H J H H H H | 6 2 | H H H H H H H H G A @.H | i < G H Z Z Z Z G J f $ 9 e i 6 @ 6 >.2.#.&.&.&.#.#.#.&.&.&.*.$.6 6 | A H H A R R @.;.$.;.$.| s 3 3 3 6 6 i i s ..F G H H H H } 6 6 t [ -.J g % y 1   4 8 @ @ @ @ < $.&.&.%.&.#.#.[ i i l c l s 3 ",
"+ # O 2 ] J J J H J H H H H H H J  .< < [ J H H H H H H H H H H H ] 6 6 | H Z H H F V / * i 6 3 3 3 @ 3 0 l 2.2.&.&.&.&.&.&.&.&.%.O.2 2 ] G J J H H G ;.q & q % : 2 1 @ 3 3 3 @ 3 3 Q s { H @.H H | 6 @ 6 : : % i 6 3 3 @ . O @ @ 3 O i -.&.&.%.&.&.#.] 6 3 , < 3 3 3 ",
"# O # 2 q -...-.-.=.;.;.;.;.=.-.-.& 3 < 9 -.-.;.;.;.;.;.;.;.-.;.-.q 6 6 q | #.&.#.} M d < 3 3 @ @ L @ 3 6 s l c <.,.,.,.,.<.,.,.>.q 6 1 q ;.-.;.;.$.;.q s r a i 6 3 # O @ W # # # 4 Q - ..$.-.$.-.& 6 @ 3 6 i 6 3 @ @ @ @ @ # @ @ # @ 3 l ,.<.,.,.2.<.+.7 @ @ @ @ @ @ ",
"@ @ @ 1 i > 9 q & 9 q q q q & 9 > i 3 3 i : q q 9 q % q q 9 q 9 > i 3 @ i 9 $ 9 % % = I 8 5 @ 5 L @ @ @ 3 1 3 y e l l e e e v t : 6 3 1 i : 9 9 & 9 : < 3 8 3 3 3 # @ @ @ . 5 4 # # 5 1 : q 9 9 > 6 3 @ @ @ 3 3 @ @ @ @ @ @ @ @ @ # @ 3 i 0 e w l e 0 a 8 @ @ @ @ @ @ ",
"@ @ # 3 3 6 < i < i r i r i 6 < < 3 @ 3 3 3 i i i i i r i i r i 2 1 O @ 1 3 6 y a d P X 8 . 5 5 o @ @ @ @ @ # 1 i i i i r < r < 6 3 @ @ 3 6 6 r r 6 < 3 3 @ @ @ @ @ @ @ @ @ . 4 4 4 X 3 6 i 6 i < 3 @ @ @ @ @ @ @ @ 3 @ @ @ @ @ @ O @ # 3 3 i r r 6 6 8 . @ @ @ @ @ @ ",
"@ + @ @ @ 3 3 3 3 3 3 3 3 3 3 3 3 @ @ @ @ @ 3 3 3 3 3 3 3 3 3 @ 3 # 3 @ 3 3 3 @ 3 L 8 5 . . # 5 . + @ @ @ @ @ @ 3 3 3 3 3 3 3 3 3 @ @ @ 3 @ 3 3 3 3 @ @ @ + @ @ @ @ @ @ @ @ X 5 5 . @ O 3 3 3 3 @ @ @ @ @ @ @ @ @ + @ @ 3 O @ @ @ 3 # @ 3 3 3 @ 3 @ 3 X @ @ 3 @ @ @ @ ",
"+ @ # @ @ @ @ @ @ @ 3 @ @ @ @ @ @ @ @ @ @ @ @ @ 3 @ @ @ @ @ @ @ O # @ @ @ # @ @ O o K # @ @ 5 o @ @ @ @ @ @ @ # @ @ @ @ @ @ @ @ @ 3 @ 3 @ @ @ @ @ # @ @ @ # @ @ @ # @ @ @ 3 @   4 3 # 3 @ # @ @ @ @ @ @ @ + @ @ @ + @ @ @ @ @ @ @ @ 3 O @ # @ @ @ @ @ @ @ @ @ @ @ @ @ ",
"@ + @ @ @ @ @ @ @ @ @ + @ @ @ @ @ @ @ @ @ @ @ @ @ @ @ @ @ @ @ @ @ # O O 3 @ @ @ + + o 5 3 @ @ @ 3 O @ @ @ @ # @ @ @ @ @ @ @ @ @ @ @ @ @ @ @ @ @ @ @ @ @ @ @ @ @ @ O 3 @ @ O @ @ @ @ @ @ @ @ @ @ @ @ @ @ @ @ @ @ @ @ @ @ @ @ @ @ @ @ @ @ @ @ @ @ @ @ @ @ @ # 3 @ @ @ @ "
};
