/* XPM */
static char *result[] = {
/* columns rows colors chars-per-pixel */
"104 96 56 1 ",
"  c #482413",
". c #4F2913",
"X c #4C2E1E",
"o c #502C16",
"O c #502E19",
"+ c #4F311E",
"@ c #54311D",
"# c #4D2F20",
"$ c #4E3425",
"% c #4F372B",
"& c #4F382C",
"* c #543623",
"= c #563926",
"- c #5A3B27",
"; c #503729",
": c #563B2C",
"> c #5B3C29",
", c #533E33",
"< c #5C412E",
"1 c #534037",
"2 c #594233",
"3 c #54443B",
"4 c #5A4739",
"5 c #57483F",
"6 c #5B4A3D",
"7 c #604939",
"8 c #5D4E42",
"9 c #5A4E48",
"0 c #5C5247",
"q c #5E534A",
"w c #655444",
"e c #60564E",
"r c #61584F",
"t c #605650",
"y c #655E55",
"u c #695F57",
"i c #665F58",
"p c #666057",
"a c #676159",
"s c #6A655D",
"d c #6D685F",
"f c #6E6A60",
"g c #716A63",
"h c #767469",
"j c #827F74",
"k c #848276",
"l c #868579",
"z c #89877C",
"x c #8B8A7F",
"c c #8B8780",
"v c #8D8A83",
"b c #908F86",
"n c #918F88",
"m c #94928B",
"M c #99978F",
"N c None",
/* pixels */
"NN--------------<-----<7<---------------<--<------------w-------<-----------------------7<<<@<----------",
"N-llllllllllllllllkllllollllllllllllllllllkklkllllllllzz=lllllllllkllllllllllllllllllllx<xkllkllllllllll",
"-llllllllllllllllllllllOllllllllllllllllllllllllllllllll=llllllllllllllllllllllllllllllx<xllllllllllllll",
"-llllllllllllllllllllll7llllllllllllllllllllllllllllllllwllllllllllklllllllllllllllllllxwxllllllllllllll",
">llllllmmmmmmmmmmmmmmmm7mmMmmmmmmMMxxxMMmmmmbbmxxmxmmMMMwxMMxxMMbmmmmmmbmmmmmmmmmmmxxMMMwMMMmmmmmmmmmmmm",
">lllllm7rggfffffddfddff<fffffffhfffdhfdffdddfdfdffddffdd<dddhfdddddddddddfffdddddffdffff<sffsfsddddddfdd",
">lllllm7rfffffddddddddd<fhfffffffffffdddddddfdddfddddddd<fdddddfddddddddddddddddddddddff<fdsdsddfddddddd",
">lllllm2rffffddfddddddp<ffffffffffffdfdddddddddddddddddd<fddddddddssddddddddddddddsddddd<sdddddsddfddfdd",
"<lllllm4rrfdfdddddddddd<fgfdfffffffddddddddsdddddddddddd7dddddssdsdddddddddddssdddssssds<sssssssdddddddd",
"-mmmmmm2rrddddddadddddd<ddfdffsfddddsddddsdddssdssdsssss<dssssssdssssssdddssdddsssdssdss<sssadssdddddddd",
"-.wwww.<wrdddddsddddadd<ddddsssdddddddssddssssssssdsssss<dssdsdssssspssssssssssssdssddsd<sssdaadpdadpdda",
"-lllllm<rqdsssssadaddpa<ddsdddssdssdssssspssssssdpdpsdss<pdspsdpsspsdspdasssssssspsppsad2sssdadadpddpdda",
"-lllllm-rqqsssssdadassa<sssassssssdsspssssssssssssssssas+ssssspspsssaddasssssssspsdpspsp+ddadaaddadaddpd",
"-zllllm@qqqsspaaadadaaa<ssasssassppspddpspsspssspdspssss@spspdpssdpsdaadassassaspspdpdss+saddadapdpdpddp",
"<lllllm@qqqsaasaaaassas<asaaaaaspdssdspspsppsssssspssasa+pspssspsppspaaaadassasaspspddsp@psaaaaaadadspps",
"-lllllm*qqqqpppppaaaaaa<aaaaaaaapppppppspspsppppppsppsap@daapapsaasapsdaaaaaaaaapspdpppd@sasadadpapppdpp",
"-lllllb@90qqiiypypppaaa.aaaaaaaaaaaaaaaaaaaaaaaappsppaaa+saaaaaaaaaaaaaaaaaaaaaaaaaaaaaa@sasaaasaaaaaaaa",
"-lllllb@090qitppyypppaa.aaaaaaaaaaaaaaaaaaaaaaaaspppppaa.papaapaaaaaaaaaaaaaaaaiaaaaaaai@aaaaaaaaaaaaaaa",
"-llllkb@XX$X$;$*+++O+.....oo.o....................o.o.oo0.....oo........................0...............",
"<llllkx-80000000000000000000000+000000000000000q000000000000000+080qqqq0q00qq00q0q0q0qqq000q0qq&00000000",
">lllkkx*00050000000000000000000+0000000000000000000000000000000+00q00qq00q00w9qq0q000q00q0q00q0;00000000",
">lllkkz-090000000000000000000q0$q000000000000000000000000000000+000qq0qq00q0qqq8q00qw0qqq00qq00*00000000",
">llkkjz-909000000000000000000q0;00000000000q0000000000000000000+000000q0q0qqq0qq0qq00qq00qq00q0;00000000",
">llkkjc=090900000000000000000qq$q000000000000000000000000000000+000q0qq00q000q00w00qq00q00q0000$00000000",
">llkkjc=890090000000000000000qq$q0000000q0000000000000000000000+q00q0q0q0q0q0qqq0q000qq00000000$00000000",
">vvvvcv=990999yrppppiaaaaaaaaaa4adaaaaaaaaaaaaaaaaaaaaaaaaapaap2aaaaaiaaaaaaaaaaaaaaaaaaaiiiiii,saaaaasp",
"-.wwwwO=9q9990ttypppiaaaaaaaiai4apaappaaaaauaiapaaaaaaaaapasppa2aaaiaaaaaaiaaaiaaaaaaaaaaiiiiii2aaaaaaps",
">llllkb*,,,,1&2%4400w000w00042444000w0009w0008880qq0qqq00r0q024222q9qqwqqqq22*=2222qwqqqqqq9qq2222qqqq00",
">lllllb@tqqqtq#fadddddddsffsfffsdddddddfdddddd8sddsfffsfddddfdddffffsffdddddff$sffffffffffffffffddfsfddd",
">llllkm@q99tqq#iaaaaaaaaaiaaaiaaaaaaaaaaaaaaaa8aaaaaaaippaaaspapaaiiaiiaaaiiaa:iiiiaaaiyaayiiiiaapaappaa",
">lllllm@0qq9qq&iaaaaaaaaaaaaaaaaaaaaaaaaaaaaaa8aaaaaaaaaaaaaaaaaaaaaaaaaaaaaaa1aiiaaaaiiaaaaiiaaaaaaaaaa",
"-lllllmO9qqqtq8iaaaaaaaaaaaaaaaaaaaaaaaaaaaaaa8aaaaaaaaaaaaaaaaaaaaaiaaaaaaaaa0aaaaaaaaaaaaaaaaaaaaaaaaa",
"-lllllm@9q9tt99taaaaaaaaaaaasiiiaaaaaaaaaaaaaa8uaaaaaaaaaaaaaaaaaaaaaaaaaaaaaawaaaaaaaaaaaiaaaaaaaaaaaaa",
"-lllllm@99qq99,taaaaaaaaaaaaiissaaaaaaaaaaaaaa8aaaaaaaaaaaaaaaaaaaaaaaaaaaaaaaqaaaaaaaaaaaaaaaaaaiaaaaaa",
"-lllllm@qqt9tt,9aaaaaiiaaaaaiiiiaaaaaaaaaasiaa2aaaaaaasiaaaaaaaiaaiuaaaaaaisaaqaaaaaaaiaaaaaasiaaaaaaaaa",
">lllllm@t9q9t99ttaaiisiiaaaiisiiaaaaaaaaauiuaa,aaaaaaiiiaaaaaiisaaauaaaaaaiiiieiaaaaaaaaaaaiaaiaaaaaaaaa",
">lllllm@1111,,,3,8888888888888,::::86654366::***:eqwqqqqq9w945483649q999qe9qwq99q9q9qqqq99w9w,,.2,qqqqw9",
">lllllm@qtqttttttffffsssfffsffff=sdsfsssfiisssssssassssaffffffd8ffffffffsffffffffffffffffffffff.ffddddff",
"<lllllm@9999tt9ttiyyiiiiiiiiiiii*iiiiiiiiiiiiiiiiiiiiiiiiiiiiiy6iiiiiiiiiiiiyiiiiiiiiiyiiiiiiii.iiiiiipp",
"-lllllm$999t9tttttiyiiiiiiiiiiii5iiiiiiiiiiiiiiiiiiiiiiiiiiiiii6iiiiiiiiiiiiyiiiiiiiiiiiiiiiiii2iiiiiuus",
"-lllllm@999t9tttttiiiiiiiiiiiiiiwiiiiiiiiiiiiiiiiiiiiiiiiiiiiii8yiiiiiiiiiiiiiiiiiiiiiiiiiiiiii,iiiiiiii",
"-lllllm@99t99tttttiiiiiiiiiiiiiiqiiiiiiiiiiiiiiiiiiiiiiiiiiiiii9yiiiiiiiiiiiiiiiiiiiiiiiiiiiiiiqiiiiiiii",
"-mmmmMm@9999tttttttyiiiiiiiiiiiiqiiiiiiiiiiiiiiiiiiiiiiiiiiiiii8iiiiiiiiiiiiiiiiiiiiiiiiiiiiiiiwiiiiiiii",
">owww7.@99t99t9ttttyiiiiiiiiiiiiqiiiiiiiiiiiiiiiiiiiiiiiiiiiiii=iiiiiiiiiiiiiiiiiiiiiiiiiiiiiii2iiiiiiii",
"<lllllm@999t99tqttwiiyyiiiiuiiiiwiiiiiuiiiyyyiuiiiiiyiiiiiyyiii*yyyyiiiiiiiiiiiiiiiiiiiiiiuiiiu,uuiuiuii",
"<lllllm@&,3,%$$#%&,98989889qqt99qq99eq99qw985865989889888888******888888888q22*:,9wqqq99eq99w,,,22,,,22,",
"-lllllm@t9t9qt$tttttffffsfsfffffffffffsfffffff5ffsfffssfffffsffsffsfssfsfssdfs=dffdsfffffsfffffffffsdddd",
"-lllllm@999999$t9999yiyyiiiiiiiiiiyyiiiiiiyiyi5uiiiiiiiiyyiiiiiiiiiiiiiiiiiiii:iuuiiiiyyiiiiiiyiiyiiiiiu",
"-lllllm@709999:0qqqqiiiiiiiiiiiiiiiiiiiiiiiiii6iiiiiiiiiiiiiiiiiiiiiiiiiiiiiiiqiiiiiiiiiiiiiiiiiiiiiiiii",
"-lllllm@0099993q9tt9tiiiiiiiiiiiiiiiiiiiiiiiiiqiiiiiiiiiiiiiiiiiiiiiiiiiiiiiiiqiiiiiiiiiiiiiiiiiiiiiiiii",
"<lllllm@9999993qt9t99iiiiiiiiiiiiiiiiiiiiiiiiiqiiiiiiiiiiiiiiiiiiiiiiiiiiiiiiiqiiiiiiiiiiiiiiiiiiiiiiiii",
"-llllkm@999999%t9t9ttiiiiiiiiiiiiiiiiiiiiiiiii2iiiiiiiiiiiiiiiiiiiiiiiiiiiiiiiqiiiiiiiiiiiiiiiiiiiiiiiii",
"-lllllm@999999%9q9qqqiiiiiiiiiiiiiiiiiiiiiiiii:iiiiiiiiiiiiiiiiiiiiiiiiiiiiiii2iiiiiiiiiiiiiiiiiiiiiiiii",
"-lllllm@999999%99qq990iuiiiiiiiiiiiiiiiiiiiiii:iiiiiiiiiiiiiiiiiiiiiiiiaiiiiii:iiiiiiiiiiiiiiyiiiiiiiiii",
"<lllllm@              o.q.................o...X ........e.............X ................q...............",
"-lllllm@qqyyyyiyyyyyiuhh.hhhhhhhhhhhhhhhhhhhhhhhhhhhhhhh.hhhhhhhhhhhhhhhhhhhhhhhhhhhhhhh.hhhhhhhhhhhhhhh",
"-lllllm@qqyyyyyyyyyyyyhhwhhhhhhhhhhhhhhhhhhhhhhhhhhhhhhhwhhhhhhhhhhhhhhhhhhhhhhhhhhhhhhhwhhhhhhhhhhhhhhh",
"<mmmmmm@tqyyyyyyppyyyyhhwhhhhhhhhhhhhhhhhhhhhhhhhhhhhhhhwhhhhhhhhhhhhhhhhhhhhhhhhhhhhhhhwhhhhhhhhhhhhhhh",
"-.wwww.@eeiiyuyuapppyyhhwhhhhhhhhhhhhhhhhhhhhhhhhhhhhhhhwhhhhhhhhhhhhhhhhhghhhhhhhhhhhhhwhhhhhhhhhhhhhhh",
"-lllllm@uuggggggfgggggll8cllzlllkzzkcjzzclllkcklllclllllwjzzjzcjllllllllkcclllclzzjcjcllwzklkzzzzlzlllll",
"-lllllm@55qqweeetttrttppwiiappppppppiiyippppppppyiiippppwpppiiiappppppppiiiippppppppiiipwpppppppuiiipprr",
"-lllllm@59qteeeerrttrqppwipippppppppiippppppppppiipippppwpppiiaippppppppiiiippppppppiippwpppppppuiiiiirr",
"<lllllm@55qqqetrrrrrrrpp.ppppppppppppppppppppppppppppppp.pppppippppppppppppppppppppppppp.pppppppppiiiiee",
"-lllllm@................................................................................................",
".mlllll<NNNNNNNNNNNNNNNNNNNNNNNNNNNNNNNNNNNNNNNNNNNNNNNNNNNNNNNNNNNNNNNNNNNNNNNNNNNNNNNNNNNNNNNNNNNNNNNN",
".mllllk-NNNNNNNNNNNNNNNNNNNNNNNNNNNNNNNNNNNNNNNNNNNNNNNNNNNNNNNNNNNNNNNNNNNNNNNNNNNNNNNNNNNNNNNNNNNNNNNN",
".mlllll-NNNNNNNNNNNNNNNNNNNNNNNNNNNNNNNNNNNNNNNNNNNNNNNNNNNNNNNNNNNNNNNNNNNNNNNNNNNNNNNNNNNNNNNNNNNNNNNN",
".mlllll<NNNNNNNNNNNNNNNNNNNNNNNNNNNNNNNNNNNNNNNNNNNNNNNNNNNNNNNNNNNNNNNNNNNNNNNNNNNNNNNNNNNNNNNNNNNNNNNN",
".mlllll-NNNNNNNNNNNNNNNNNNNNNNNNNNNNNNNNNNNNNNNNNNNNNNNNNNNNNNNNNNNNNNNNNNNNNNNNNNNNNNNNNNNNNNNNNNNNNNNN",
".mlllll-NNNNNNNNNNNNNNNNNNNNNNNNNNNNNNNNNNNNNNNNNNNNNNNNNNNNNNNNNNNNNNNNNNNNNNNNNNNNNNNNNNNNNNNNNNNNNNNN",
".mlllll<NNNNNNNNNNNNNNNNNNNNNNNNNNNNNNNNNNNNNNNNNNNNNNNNNNNNNNNNNNNNNNNNNNNNNNNNNNNNNNNNNNNNNNNNNNNNNNNN",
".mlllll-NNNNNNNNNNNNNNNNNNNNNNNNNNNNNNNNNNNNNNNNNNNNNNNNNNNNNNNNNNNNNNNNNNNNNNNNNNNNNNNNNNNNNNNNNNNNNNNN",
".mlllll-NNNNNNNNNNNNNNNNNNNNNNNNNNNNNNNNNNNNNNNNNNNNNNNNNNNNNNNNNNNNNNNNNNNNNNNNNNNNNNNNNNNNNNNNNNNNNNNN",
".mlllll<NNNNNNNNNNNNNNNNNNNNNNNNNNNNNNNNNNNNNNNNNNNNNNNNNNNNNNNNNNNNNNNNNNNNNNNNNNNNNNNNNNNNNNNNNNNNNNNN",
"omxbMmx-NNNNNNNNNNNNNNNNNNNNNNNNNNNNNNNNNNNNNNNNNNNNNNNNNNNNNNNNNNNNNNNNNNNNNNNNNNNNNNNNNNNNNNNNNNNNNNNN",
"o@w7w7.<NNNNNNNNNNNNNNNNNNNNNNNNNNNNNNNNNNNNNNNNNNNNNNNNNNNNNNNNNNNNNNNNNNNNNNNNNNNNNNNNNNNNNNNNNNNNNNNN",
"omlllll-NNNNNNNNNNNNNNNNNNNNNNNNNNNNNNNNNNNNNNNNNNNNNNNNNNNNNNNNNNNNNNNNNNNNNNNNNNNNNNNNNNNNNNNNNNNNNNNN",
".mllllk<NNNNNNNNNNNNNNNNNNNNNNNNNNNNNNNNNNNNNNNNNNNNNNNNNNNNNNNNNNNNNNNNNNNNNNNNNNNNNNNNNNNNNNNNNNNNNNNN",
".mlllll-NNNNNNNNNNNNNNNNNNNNNNNNNNNNNNNNNNNNNNNNNNNNNNNNNNNNNNNNNNNNNNNNNNNNNNNNNNNNNNNNNNNNNNNNNNNNNNNN",
".mlllll-NNNNNNNNNNNNNNNNNNNNNNNNNNNNNNNNNNNNNNNNNNNNNNNNNNNNNNNNNNNNNNNNNNNNNNNNNNNNNNNNNNNNNNNNNNNNNNNN",
"omlllll>NNNNNNNNNNNNNNNNNNNNNNNNNNNNNNNNNNNNNNNNNNNNNNNNNNNNNNNNNNNNNNNNNNNNNNNNNNNNNNNNNNNNNNNNNNNNNNNN",
".mlllll>NNNNNNNNNNNNNNNNNNNNNNNNNNNNNNNNNNNNNNNNNNNNNNNNNNNNNNNNNNNNNNNNNNNNNNNNNNNNNNNNNNNNNNNNNNNNNNNN",
".mlllll>NNNNNNNNNNNNNNNNNNNNNNNNNNNNNNNNNNNNNNNNNNNNNNNNNNNNNNNNNNNNNNNNNNNNNNNNNNNNNNNNNNNNNNNNNNNNNNNN",
".mlllll>NNNNNNNNNNNNNNNNNNNNNNNNNNNNNNNNNNNNNNNNNNNNNNNNNNNNNNNNNNNNNNNNNNNNNNNNNNNNNNNNNNNNNNNNNNNNNNNN",
".mlllll>NNNNNNNNNNNNNNNNNNNNNNNNNNNNNNNNNNNNNNNNNNNNNNNNNNNNNNNNNNNNNNNNNNNNNNNNNNNNNNNNNNNNNNNNNNNNNNNN",
".mlllll>NNNNNNNNNNNNNNNNNNNNNNNNNNNNNNNNNNNNNNNNNNNNNNNNNNNNNNNNNNNNNNNNNNNNNNNNNNNNNNNNNNNNNNNNNNNNNNNN",
".mlllll>NNNNNNNNNNNNNNNNNNNNNNNNNNNNNNNNNNNNNNNNNNNNNNNNNNNNNNNNNNNNNNNNNNNNNNNNNNNNNNNNNNNNNNNNNNNNNNNN",
".mlllll<NNNNNNNNNNNNNNNNNNNNNNNNNNNNNNNNNNNNNNNNNNNNNNNNNNNNNNNNNNNNNNNNNNNNNNNNNNNNNNNNNNNNNNNNNNNNNNNN",
".mxllxl<NNNNNNNNNNNNNNNNNNNNNNNNNNNNNNNNNNNNNNNNNNNNNNNNNNNNNNNNNNNNNNNNNNNNNNNNNNNNNNNNNNNNNNNNNNNNNNNN",
".mxmxxx-NNNNNNNNNNNNNNNNNNNNNNNNNNNNNNNNNNNNNNNNNNNNNNNNNNNNNNNNNNNNNNNNNNNNNNNNNNNNNNNNNNNNNNNNNNNNNNNN",
"..77w7o<NNNNNNNNNNNNNNNNNNNNNNNNNNNNNNNNNNNNNNNNNNNNNNNNNNNNNNNNNNNNNNNNNNNNNNNNNNNNNNNNNNNNNNNNNNNNNNNN",
".mxlxlx@NNNNNNNNNNNNNNNNNNNNNNNNNNNNNNNNNNNNNNNNNNNNNNNNNNNNNNNNNNNNNNNNNNNNNNNNNNNNNNNNNNNNNNNNNNNNNNNN",
".mllzll<NNNNNNNNNNNNNNNNNNNNNNNNNNNNNNNNNNNNNNNNNNNNNNNNNNNNNNNNNNNNNNNNNNNNNNNNNNNNNNNNNNNNNNNNNNNNNNNN",
".mllllk<NNNNNNNNNNNNNNNNNNNNNNNNNNNNNNNNNNNNNNNNNNNNNNNNNNNNNNNNNNNNNNNNNNNNNNNNNNNNNNNNNNNNNNNNNNNNNNNN",
".mlllll-NNNNNNNNNNNNNNNNNNNNNNNNNNNNNNNNNNNNNNNNNNNNNNNNNNNNNNNNNNNNNNNNNNNNNNNNNNNNNNNNNNNNNNNNNNNNNNNN",
".mllllk<NNNNNNNNNNNNNNNNNNNNNNNNNNNNNNNNNNNNNNNNNNNNNNNNNNNNNNNNNNNNNNNNNNNNNNNNNNNNNNNNNNNNNNNNNNNNNNNN"
};
