/* XPM */
static char *_833435738e94df9d59dc8b776b4ed87sZh1qcTqmxg6FGhn[] = {
/* columns rows colors chars-per-pixel */
"130 60 166 2 ",
"   c None",
".  c #4F2913",
"X  c #4F311E",
"o  c #53321E",
"O  c #56321C",
"+  c #4F3625",
"@  c #543523",
"#  c #543624",
"$  c #553726",
"%  c #553827",
"&  c #5A3B27",
"*  c #5E3B25",
"=  c #573928",
"-  c #563B2A",
";  c #563D2C",
":  c #573C2D",
">  c #573D2D",
",  c #573E2D",
"<  c #573E2E",
"1  c #593D2A",
"2  c #573F30",
"3  c #583F30",
"4  c #5C402D",
"5  c #584030",
"6  c #5B4231",
"7  c #584032",
"8  c #594032",
"9  c #584132",
"0  c #594233",
"q  c #5E4532",
"w  c #594234",
"e  c #594334",
"r  c #594335",
"t  c #5A4336",
"y  c #5A4436",
"u  c #5A4437",
"i  c #5A4537",
"p  c #5A4637",
"a  c #56463A",
"s  c #57473A",
"d  c #5A4538",
"f  c #5A4638",
"g  c #5A4639",
"h  c #5B4639",
"j  c #5A4739",
"k  c #5B4739",
"l  c #5B473A",
"z  c #5B473B",
"x  c #56483B",
"c  c #57483B",
"v  c #57483C",
"b  c #5B483A",
"n  c #5B483B",
"m  c #5C4939",
"M  c #5D493A",
"N  c #5C4A3B",
"B  c #5D4A3B",
"V  c #5B483C",
"C  c #5B493C",
"Z  c #594A3C",
"A  c #594A3D",
"S  c #5A4A3D",
"D  c #594A3E",
"F  c #594B3E",
"G  c #5C493D",
"H  c #5C4A3E",
"J  c #5C4B3E",
"K  c #5C4B3F",
"L  c #624937",
"P  c #614A38",
"I  c #644E3D",
"U  c #5C4B40",
"Y  c #5C4D41",
"T  c #5D4D41",
"R  c #5D4D42",
"E  c #5D4E42",
"W  c #5D4E43",
"Q  c #5D4F43",
"!  c #5E4E43",
"~  c #5E4F44",
"^  c #5E4F45",
"/  c #5D5044",
"(  c #5E5145",
")  c #5C5147",
"_  c #5F5046",
"`  c #5E5146",
"'  c #5F5146",
"]  c #5C5247",
"[  c #5D5247",
"{  c #5D5248",
"}  c #5F5248",
"|  c #5F5348",
" . c #5F5349",
".. c #5E554A",
"X. c #5F564B",
"o. c #5C554C",
"O. c #5F574C",
"+. c #655444",
"@. c #665444",
"#. c #675544",
"$. c #61554C",
"%. c #60574C",
"&. c #61564D",
"*. c #60574D",
"=. c #62574E",
"-. c #60584D",
";. c #60594D",
":. c #615A4E",
">. c #615A4F",
",. c #615B4F",
"<. c #635951",
"1. c #655C55",
"2. c #655D56",
"3. c #665E57",
"4. c #665F58",
"5. c #6B6256",
"6. c #6A6357",
"7. c #6C6254",
"8. c #6C6255",
"9. c #6C6355",
"0. c #6D6457",
"q. c #676159",
"w. c #676259",
"e. c #68625A",
"r. c #68635A",
"t. c #69635B",
"y. c #69645B",
"u. c #6D6558",
"i. c #69645C",
"p. c #6A645C",
"a. c #6A655C",
"s. c #6B655D",
"d. c #6A665C",
"f. c #6B665D",
"g. c #6B675D",
"h. c #6B675E",
"j. c #6C665E",
"k. c #6C675E",
"l. c #6C675F",
"z. c #6C685E",
"x. c #6C685F",
"c. c #6D685F",
"v. c #6D695F",
"b. c #706A5E",
"n. c #6D6960",
"m. c #6F6A61",
"M. c #716C60",
"N. c #726D61",
"B. c #726E62",
"V. c #746F62",
"C. c #746F63",
"Z. c #746F64",
"A. c #726E69",
"S. c #747064",
"D. c #757065",
"F. c #767469",
"G. c #7B786F",
"H. c #7C7970",
"J. c #85837A",
"K. c #868579",
"L. c #86847B",
"P. c #88877B",
"I. c #918F88",
"U. c #929088",
"Y. c #94928B",
"T. c #99978F",
/* pixels */
"  & & & & & & & & & & & & & & &       & & & & & & & & & & & & & & & & & & & & & & & & & & & & & &   & & & & & & 1 & & & & & & & & & & & & & & & & & & & & & & & &   & & & & & & & & & & & & & & & & & & & & & & & & & & & & & & &   & & & & & & & & & & & & & & 1   ",
"  K.K.K.K.K.K.K.K.K.K.K.K.K.K.P.&   4 S.B.c.b.K.K.K.K.K.K.K.K.K.K.K.K.K.K.K.K.K.K.K.K.K.K.K.K.P.P.q K.K.K.K.K.K.K.K.K.K.K.K.K.K.K.K.K.K.K.K.K.K.K.K.K.K.K.K.K.P.P.6 P.K.K.K.K.K.K.K.K.K.K.K.K.K.K.K.K.K.K.K.K.K.K.K.K.K.K.K.K.P.P.6 K.P.K.K.K.K.K.K.K.K.K.K.K.K.K.  ",
"  K.K.K.K.K.K.K.K.K.K.K.K.K.K.K.P.I B.B.B.K.K.K.K.K.K.K.K.K.K.K.K.K.K.K.K.K.K.K.K.K.K.K.K.K.K.K.P.L K.K.K.K.K.K.K.K.K.K.K.K.K.K.K.K.K.K.K.K.K.K.K.K.K.K.K.K.K.K.P.L K.K.K.K.K.K.K.K.K.K.K.K.K.K.K.K.K.K.K.K.K.K.K.K.K.K.K.K.K.K.P.L K.K.K.K.K.K.K.K.K.K.K.K.K.K.K.  ",
"  K.K.K.K.K.K.K.K.K.K.K.K.K.K.K.K.L 6.6.K.K.K.K.K.K.K.K.K.K.K.K.K.K.K.P.K.K.K.K.K.K.K.K.K.K.K.K.P.+.K.K.K.K.K.K.K.K.K.K.K.K.K.K.K.K.K.K.K.K.K.K.K.K.K.K.K.K.K.K.K.@.K.K.K.K.K.K.K.K.K.K.K.K.K.K.K.K.K.K.K.K.K.K.K.K.K.K.K.K.0.0.9.#.K.K.K.K.K.K.K.K.K.K.K.K.K.K.K.  ",
"  U.I.U.I.I.I.I.I.I.I.I.U.Y.T.T.T.+.Y.T.T.T.U.Y.Y.Y.Y.Y.Y.U.Y.Y.Y.I.I.U.I.I.I.I.I.I.I.I.I.Y.T.T.T.+.U.T.T.T.Y.Y.U.Y.Y.Y.Y.Y.Y.Y.Y.I.I.I.I.I.I.I.I.I.I.I.I.Y.T.T.T.@.Y.T.T.T.Y.Y.Y.Y.Y.Y.Y.Y.Y.Y.Y.I.I.I.I.I.I.I.I.I.I.I.I.6.8.8.S.+.Y.T.T.T.Y.Y.Y.Y.Y.Y.Y.Y.Y.Y.U.  ",
"  c.c.c.c.c.c.c.c.c.c.c.c.c.c.n.c.6 c.c.c.z.c.c.c.c.c.k.c.c.c.c.k.k.c.c.k.n.k.n.c.k.c.c.c.c.c.c.c.6 c.c.c.c.c.c.c.c.n.k.k.k.k.k.c.c.c.c.c.c.c.c.c.c.c.c.c.c.v.c.c.6 c.c.n.k.k.n.c.c.c.k.g.c.g.c.c.c.c.c.c.c.c.c.c.c.c.c.k.L.8.Z.S.6 c.c.c.c.c.c.c.c.c.k.g.c.c.g.c.  ",
"  c.c.c.c.c.c.c.c.c.c.c.c.c.c.k.c.6 c.c.z.z.z.c.c.c.c.g.k.k.z.z.k.m.m.k.m.k.n.k.c.c.c.c.c.c.c.c.c.6 c.c.z.z.z.c.c.c.c.k.k.k.k.k.k.c.c.c.c.c.c.c.c.c.c.c.c.c.v.c.c.6 c.c.k.k.k.n.c.c.c.g.c.k.k.k.g.c.c.c.c.c.c.c.c.c.c.c.k.c.G.Z.S.6 c.c.c.g.c.c.c.c.c.g.g.c.g.c.k.  ",
"  c.c.c.c.c.c.c.c.z.z.c.c.c.k.k.c.4 c.z.z.z.z.z.z.c.k.k.k.k.g.z.k.k.k.k.m.k.k.k.c.c.c.c.c.z.z.z.c.6 c.z.z.z.z.z.z.c.k.k.k.k.k.k.k.c.c.c.c.c.c.c.c.z.z.z.z.c.c.c.k.6 c.c.k.k.k.k.c.c.g.c.g.k.k.k.c.c.c.c.c.c.c.c.c.c.c.c.c.c.n.G.V.6 c.c.g.c.g.c.g.c.k.k.k.g.c.g.k.  ",
"  c.z.z.k.k.k.c.z.c.z.z.k.k.k.k.k.6 k.k.k.k.k.g.g.g.k.k.k.k.s.k.g.k.k.k.k.k.k.k.k.k.k.k.k.k.k.k.c.6 z.z.k.k.k.g.g.k.k.k.g.g.k.g.g.n.k.k.k.k.g.g.z.z.c.c.c.y.c.z.k.6 k.k.k.k.k.g.g.k.k.k.k.k.c.y.z.c.g.c.k.k.k.c.z.c.z.z.k.k.k.k.G.6 k.k.k.k.k.g.g.c.k.k.k.k.s.k.g.  ",
"  c.k.g.k.k.k.k.g.k.k.g.g.k.g.g.g.6 k.p.p.g.g.g.g.g.p.g.g.g.k.p.g.g.k.k.k.k.k.g.k.k.k.k.g.g.g.g.z.4 g.g.p.g.g.g.p.g.p.g.g.g.g.p.g.k.k.g.k.k.k.g.z.z.y.c.z.z.y.z.g.6 g.g.g.g.g.k.p.g.g.k.g.g.g.c.y.c.c.g.k.g.k.k.g.k.k.g.g.g.g.g.k.6 k.p.p.g.g.g.g.y.p.g.k.g.k.p.g.  ",
"  g.g.g.g.p.g.g.p.g.g.g.g.p.g.g.g.3 k.g.k.g.g.p.g.g.t.g.g.y.g.t.g.g.g.g.k.g.g.g.g.g.g.g.p.k.g.g.g.6 g.g.g.g.g.p.p.p.p.g.g.y.g.y.p.g.g.g.g.g.g.g.y.z.z.z.k.y.z.y.k.4 k.k.g.g.p.p.s.p.g.t.y.g.g.y.y.z.y.g.g.p.g.g.g.g.g.g.g.p.g.g.g.6 k.g.k.g.g.p.g.t.g.g.y.g.y.g.y.  ",
"  g.t.g.g.t.g.y.p.g.t.g.g.p.p.g.k.1 s.p.p.p.g.y.t.p.p.p.t.g.t.g.t.g.p.y.g.t.p.g.g.p.p.g.p.p.p.g.p.1 p.g.p.p.p.g.p.p.p.p.t.g.y.g.g.p.p.p.g.p.g.y.O.y.y.y.y.k.k.y.k.1 y.y.p.p.p.p.p.p.p.t.g.y.y.y.y.c.y.y.g.t.g.y.p.p.p.g.g.p.p.p.p.1 s.p.p.p.g.y.y.g.t.p.p.t.g.t.g.  ",
"  g.y.g.t.g.y.g.g.t.y.g.y.g.g.y.s.o t.t.y.y.y.y.y.y.y.y.t.y.y.y.y.y.g.g.y.g.t.g.t.g.y.g.y.g.y.g.p.o t.t.y.y.y.y.p.p.y.y.y.y.y.y.t.g.t.g.g.g.t.g.n.O.O.g.g.y.g.t.y.o y.y.y.y.y.y.t.y.y.y.y.y.y.y.y.y.y.g.y.g.y.g.p.g.g.t.g.t.g.g.p.o t.y.y.y.y.y.y.y.y.y.t.y.y.y.y.  ",
"  t.t.g.t.t.y.t.t.t.t.t.t.t.y.y.t.o t.t.t.t.t.t.y.y.y.y.t.t.y.y.y.y.t.y.t.y.t.t.t.t.t.t.y.y.y.y.p.o t.t.t.t.t.t.t.p.y.y.y.y.t.t.t.t.t.t.y.t.t.t.p.g.n.O.y.g.y.y.y.o y.t.t.t.t.t.t.y.y.y.y.y.y.y.y.y.t.g.t.t.y.t.t.t.t.t.y.t.y.y.t.o t.t.t.t.t.t.y.y.y.y.y.y.y.y.y.  ",
"  t.t.t.t.t.t.t.t.t.t.t.t.t.t.w.t.o t.t.t.w.t.w.y.w.t.w.t.w.t.t.t.t.t.t.t.t.t.t.t.t.t.t.t.t.y.w.w.o w.t.w.t.w.t.w.t.w.t.w.t.w.g.t.t.t.t.t.t.t.t.p.w.y.n.O.| t.t.t.o t.w.t.w.t.w.t.w.t.t.t.w.t.t.y.y.y.t.t.t.t.t.t.t.t.t.t.t.t.w.t.o t.t.t.w.t.w.y.w.t.w.t.w.t.t.t.  ",
"  w.w.w.w.w.w.w.t.w.w.t.w.t.w.t.w.o w.t.w.t.w.t.w.t.w.y.w.t.w.t.t.w.w.w.w.w.w.w.w.w.t.w.t.w.t.y.t.. t.w.t.w.t.w.t.w.t.w.t.w.y.w.w.w.w.w.w.w.w.w.t.w.w.n.O.O.| n a o w.t.w.t.w.t.w.t.w.t.w.t.w.t.y.6.w.w.w.w.w.w.w.w.w.t.w.t.w.t.w.o w.t.w.t.w.t.w.t.w.t.w.6.t.t.t.  ",
"  q.q.q.q.q.q.q.q.q.q.q.w.w.w.w.q.o q.q.q.q.q.q.q.q.q.q.q.q.q.q.w.w.w.t.4.w.w.w.w.w.4.t.w.w.w.w.. . w.4.4.w.w.w.e.4.4.w.w.4.w.w.w.w.w.w.4.4.t.4.w.w.w.| O.O.a a v o w.w.w.w.4.w.w.w.w.w.w.4.3.w.q.q.q.q.q.q.q.q.q.q.q.q.q.q.q.q.w.o 4.w.w.w.w.w.w.4.w.4.t.w.4.t.w.  ",
"  q.q.q.q.q.q.q.q.q.q.t.4.w.w.w.q.. q.q.q.q.q.q.q.q.q.q.q.q.q.q.w.w.w.4.4.w.w.t.4.w.w.4.w.y.t.. v U . w.e.e.4.4.w.w.w.w.w.w.w.w.4.w.w.w.w.w.w.w.w.O.] . . . . . . ] . w.4.w.4.w.w.w.w.4.w.w.t.t.q.q.q.q.q.q.q.q.q.q.q.q.q.q.q.q.w.. 4.w.w.t.w.4.4.t.w.w.4.w.w.4.t.  ",
"  . . . . . . . . . . . . . . . . ) . . . . . . . . . . . . . . . . . . . . . . . . . . . . . Z v D U . . . . . . . . . . . . . . . . . . . . . . . . ] ] ] ] ] ] ] ] . . . . . . . . . . . . . . . . . . . . . . . . . . . . . . ) . . . . . . . . . . . . . . .   ",
"  ] ] ] ] ] ] ] ) ) ) ) ) ) ] ] ) ) ) ) ] ] ] ] X ) ) ] ] ] ] ] | ] ] ] ) ) ) ) ) ) ) ) ] ] ] ] ] ] ] ] ] ] ] ] X ) ^ ] { { +.] { { ) ) ) ) ) { ] ] ] ] ] ] ] ] ] ] ] ] ] ] { { o ) ) ] ) ) ) ) ) ] ] ] ] ] ] ] ] ] ] ] ] ] ] ] ) ) ) ) ] ] ] ] X ) ) ) ) ) ) ) {   ",
"  ] ] ] ] ] ] ] ) ] ] ] ] ] ] ] ) ] ] ] ] ] ] ] o ] ] ] ] ) ) ] { ) ) ] ] ] ] ] ) ) ] ] ] ] ] ] ] ] ] ] ] ] ] ] X ] ] ] ) ) ] ] | ] ] ] ) ) ] ] ] ] ] ] ] ] ] ] ] ] ] ] ] ] ] ] X ] ] ] ) ) ) ) ) ) ] ] ] ] ] ] ] ] ] ] ] ] ] ] ] ] ] ] ] ] ] ] X ] ] ) ) ) ) ) {   ",
"  ] ] ] ] ] ] ] ] ] ] ] ] ] ] ] ] ] ] ] ] ] ] ] + ] ] ] +.] ] ] ) ) ] ] ] ] ] ] ] ] ] ] ] ] ] ] ] ] ] ] ] ] ] ] + ] ] { ] +.] ] { ] ] ] ) ) ] ] ] ] ] ] ] ] ] ] ] ] ] ] ] ] ] ] + ] ] ] ] +.) ) ) ) ] ] ] ] ] ] ] ] ] ] ] ] ] ] ] ] ] ] ] ] ] ] + ] ] ) $.) ) +.{   ",
"  ] ] ] ] ] ] ] ] ] ] ] ] ] ) ) ] ] ] ] ] ] ] ] + ] ] ] ) { ] ] ) ) ] ] ] ] ] ] ] ] ] ] ] ] ] ] ] ] ] ] ] ] ] ] + ] ] ] ) ) ) ) { ] ] ] ] ] ] ] ] ] ] ] ] ] ) ) ] ] ] ] ] ] ] ] + ] ] ] ] ] ) $.| ] ] ] ] ] ] ] ] ] ] ] ] ] ] ] ] ] ] ] ] ] ] ] + ] ] ] ] ] ) ] {   ",
"  ] ] ] ] ] ] ] ] ] ] ] ] ) ) ) ] ] ] ] ] ] ] ] + ] ] ] ) { ] +.) ] ] ] ] ] ] ] ] ] ] ] ] ] ] ] ] ] ] ] ] ] ] ] + ] ] ] ) ) $.) { ] ] ] ] ] ] ] ] ] ] ] ] ] ) ) ] ] ] ] ] ] ] ] # ] ] ] ] ] ) ) { ] ] ] ] ] ] ] ] ] ] ] ] ] ] ] ] ] ] ] ] ] ] ] + ] ] ] +.] ] ] {   ",
"  ] ] ] ] ] ] ] ) ) ) ) ) ) ) ) ] ] { { ] { ] { + ] ) { ) { ) ) ) ) ) ) ) ) ] ] ) ) ) ) ] { ] { ] ] ) ) ) ) ) ) + ] ^ ] ] ] ) ) ) ] ] ] ) ) ) ) ) ) ) ] ) ) ) ) ] ] ] ] ] ] ] ] + ] ) ] { ) ) ) ) ] ) ) ) ) ) ) ) ) ) ) ) ) ] ] ) ) { { ] { { { + ) ) { ) { ) ) )   ",
"  w.4.6.w.w.w.4.w.w.w.w.w.w.w.w.4.w.w.4.w.4.w.e.9 w.w.w.w.4.t.t.w.3.w.w.w.w.t.4.t.4.w.6.w.4.w.4.w.w.3.t.w.w.w.w.6 4.w.w.w.4.4.t.w.w.w.w.3.t.t.q.q.q.q.q.w.3.w.w.w.w.w.4.w.w.4.w.7 w.e.4.w.4.t.4.w.w.w.4.w.w.w.w.4.t.t.q.q.q.q.q.w.w.w.4.w.4.w.w.6 w.w.w.w.4.w.t.w.  ",
"  t.q.6.4.t.w.4.t.4.w.4.w.4.t.3.w.w.p.w.w.4.e.4.# w.w.w.6.t.3.w.3.6.t.t.w.6.t.w.w.w.t.4.w.4.4.t.w.4.w.4.w.w.w.w.$ w.w.t.w.4.w.4.4.6.w.w.6.4.w.w.q.6.q.q.4.t.4.4.4.t.w.4.w.4.4.4.# e.w.4.4.t.4.4.w.t.t.6.w.w.w.w.t.4.t.4.q.q.q.6.w.4.t.w.w.4.w.4.# w.w.w.t.3.w.4.t.  ",
"  ) ) ) ) ) R R R ^ { ^ { $.{ $.$.{ { { 7 w - - $ % 2 { { ) $.{ $.) ^ ) ) ) K R R ^ ) ) $.{ $.{ { $.{ $.2 6 ; - $ $ < { { $.{ $.$.) ) ) ) ) R R K ) ( ) $.{ $.{ $.{ $.{ 6 w : - % % 3  .$.{ $.) { ) ) ( ^ ^ R R R ) ^ ) ] $.] $.$.{ { { 9 w - - % % 2 { ) $.) $.{   ",
"  k.c.k.k.k.k.R n.n.n.n.n.n.n.n.k.n.k.n.n.n.g.n.n.n.n.n.k.k.k.n.k.k.n.k.c.k.c.K A.A.A.A.A.A.A.A.A.A.A.A.A.A.A.A.A.A.A.A.A.A.A.A.A.A.A.A.A.A.A.K c.c.k.n.k.n.n.n.k.k.n.n.g.n.n.n.n.n.n.n.n.n.n.n.k.c.c.c.k.k.k.R n.n.g.n.n.n.k.n.k.n.k.n.n.k.n.n.n.n.k.k.k.k.k.k.k.  ",
"  q.t.q.t.6.t.R 4.w.4.4.4.4.4.4.4.w.4.4.w.4.4.4.4.4.4.4.4.t.4.4.4.w.t.4.w.q.t.R w.w.w.4.4.w.w.w.4.w.4.p.w.w.w.4.4.w.t.4.t.4.w.w.t.3.4.w.4.t.t.K w.w.w.4.4.4.w.4.w.4.w.4.4.4.4.w.4.4.4.w.4.4.w.e.w.q.q.q.t.w.t.R 4.t.4.4.4.w.4.w.w.4.4.4.w.4.4.4.4.4.w.w.t.q.4.w.w.  ",
"  w.q.q.q.q.3.R 4.w.w.4.4.w.4.t.t.4.4.t.4.t.t.4.4.t.w.w.w.w.w.w.4.w.w.w.w.w.w.R 4.w.w.4.p.4.4.w.w.w.w.4.4.p.w.4.4.w.w.4.4.w.t.4.3.w.4.w.w.t.4.R w.4.w.t.w.4.w.t.w.4.w.t.4.w.4.w.4.4.e.e.4.w.4.4.w.w.q.q.q.q.3.R w.4.4.w.4.4.t.4.4.t.t.4.4.t.t.4.4.t.t.4.4.t.t.4.w.  ",
"  w.q.q.q.q.t.K t.4.w.t.4.w.w.w.4.w.w.4.w.w.4.w.w.4.4.t.4.4.t.4.t.4.w.3.t.4.3.R t.w.4.t.4.w.w.4.p.4.w.4.w.4.w.w.t.4.w.t.4.w.4.w.w.w.t.4.w.4.w.R w.w.w.4.4.t.w.4.4.t.w.4.t.4.t.4.w.w.w.4.4.e.e.w.w.4.q.q.q.q.t.K w.4.t.w.4.t.4.w.w.4.w.w.w.w.4.w.w.4.4.w.w.4.w.w.w.  ",
"  w.w.4.e.w.4.R w.4.4.p.4.w.w.4.w.4.w.t.4.w.t.4.w.t.4.w.w.4.t.w.4.w.w.4.t.4.w.R 4.t.w.4.t.w.4.t.t.4.w.t.4.w.t.4.w.t.4.w.w.w.4.w.4.w.w.e.w.e.w.U e.4.4.w.4.w.w.e.w.w.4.p.4.w.4.w.w.4.p.4.w.4.4.p.w.4.w.w.4.w.w.R 4.w.w.4.w.w.4.w.w.4.w.w.4.w.w.4.w.w.4.w.w.4.w.w.w.  ",
"  w.4.t.4.w.e.R w.w.w.w.w.4.4.p.w.4.w.4.4.w.4.w.w.4.4.w.w.4.4.w.t.4.4.t.4.w.w.R w.4.w.4.4.w.w.4.4.w.w.4.4.w.4.w.w.4.4.w.4.t.t.4.e.e.4.4.4.4.w.^ w.w.e.e.e.e.4.4.4.4.w.4.w.4.p.w.w.w.4.w.4.p.4.4.4.t.4.t.t.4.3.R t.4.4.t.t.4.t.4.4.t.t.4.t.4.4.t.t.4.t.4.4.t.t.4.w.  ",
"  w.w.w.4.w.w.7 4.4.p.4.4.p.w.4.w.w.4.w.t.w.4.w.4.t.t.4.4.t.w.w.w.w.w.w.4.w.w.9 w.4.w.t.4.w.w.4.4.w.4.4.t.w.4.w.4.t.t.4.t.4.t.4.w.4.e.w.e.w.e.7 4.e.w.4.w.4.e.w.p.4.w.w.w.4.w.4.4.p.4.w.w.w.4.p.w.t.4.4.4.w.t.6 w.w.w.w.4.4.t.w.w.4.4.w.w.w.w.w.4.4.t.w.w.4.4.w.w.  ",
"  4.t.4.w.w.w.2 w.w.4.w.w.4.w.w.4.w.w.w.4.w.t.4.w.4.w.w.w.w.4.4.4.4.t.4.w.w.4.2 4.t.w.4.t.w.4.t.t.4.t.4.4.w.t.4.w.4.w.w.4.t.4.4.w.e.4.w.e.4.4.2 4.w.e.4.w.e.4.w.4.w.4.w.4.p.4.4.w.4.w.4.p.4.4.4.w.4.w.w.w.w.w.: 4.t.4.4.w.w.4.w.w.t.4.w.4.t.4.4.w.w.4.w.w.t.4.w.t.  ",
"  n z z : : # # % - { { { { $.{ n n 9 9 5 : : : : : < - N z G z V V z n : : # # $ < { $.{ { $.{ { $.) $.{ a z G R D V h $.{ $.) { G G G : : @ # % -  . .o.{ { { { { $.{ { z G G R G G u ) )  .) { D G G - - $ # $ - D z z z u w w u w w w w z G R G G z { $.{ $.{   ",
"  g.t.g.w.g.e.p.p.p.g.p.p.p.p.p.i.z.z.z.z.n R ^ R ^ k.k.n.k.n.g.n.k.n.k.n.z.n.g.k.k.k.n.k.n.k.k.n.g.n.k.n.n.g.n.K k.n.k.k.k.k.n.n.e.e.e.n.e.e.e.p.p.e.n.e.e.g.p.g.n.n.n.g.n.g.g.R n.g.n.n.n.n.n.n.e.e.e.p.p.g.e.p.p.p.p.w ^ *.$.*.<._ _ _ n.n.k.U k.k.k.n.k.k.s.k.  ",
"  4.4.4.4.4.4.4.4.4.4.4.4.4.4.4.4.4.4.4.q.z.z U R 3.4.4.4.4.4.4.4.4.4.4.4.4.4.4.4.4.4.4.4.4.4.4.4.4.4.4.4.4.4.4.K 4.4.4.4.4.4.4.4.4.4.4.4.4.4.4.4.4.4.4.4.4.4.4.4.4.4.4.4.4.4.4.U 4.4.4.4.4.4.4.4.4.4.4.4.4.4.4.4.4.4.4.z R ^ *.*._ 4.4.4.4.4.4.D 4.4.4.4.4.4.4.4.  ",
"  4.4.4.4.4.4.4.4.4.4.4.4.4.4.4.4.4.4.4.4.3.n.a ^ w.4.4.4.4.4.4.4.4.4.4.4.4.4.4.4.4.4.4.4.4.4.4.4.4.4.4.4.4.4.4.V 4.4.4.4.4.4.4.4.4.4.4.4.4.4.4.4.4.4.4.4.4.4.4.4.4.4.4.4.4.4.4.G 4.4.4.4.4.4.4.4.4.4.4.4.4.4.4.4.4.4.4.p.h ^ *.$.K 4.4.4.4.4.4.V 4.4.4.4.4.4.4.4.  ",
"  4.4.4.4.4.4.4.4.4.4.4.4.4.4.4.4.4.4.4.4.4.4.g.p 3.4.4.4.4.4.4.4.4.4.4.4.4.4.4.4.4.4.4.4.4.4.4.4.4.4.4.4.4.4.4.^ 1.4.4.4.4.4.4.4.4.4.4.4.4.4.4.4.4.4.4.4.4.4.4.4.4.4.4.4.4.4.4.^ 1.4.4.4.4.4.4.4.4.4.4.4.4.4.4.4.4.4.4.4.p.7 7 3 4.4.4.4.4.4.4.^ 4.4.4.4.4.4.4.4.  ",
"  4.4.4.4.4.4.4.4.4.4.4.4.4.4.4.4.4.4.4.4.4.4.n.z 3.4.4.4.4.4.4.4.4.4.4.4.4.4.4.4.4.4.4.4.4.4.4.4.4.4.4.4.4.4.4.^ 3.4.4.4.4.4.3.4.4.4.4.4.4.4.4.4.4.4.4.4.4.4.4.4.4.4.4.4.4.4.4.^ 2.4.4.4.4.4.4.4.4.4.4.4.4.4.4.4.4.4.4.4.4.p.e.n.4.4.4.4.4.4.4.^ 4.4.4.4.4.4.4.4.  ",
"  4.4.4.4.4.4.4.4.4.4.4.4.4.4.4.4.4.4.4.4.4.4.4.p 3.4.4.4.4.4.4.4.4.4.4.4.4.4.4.4.4.4.4.4.4.4.4.4.4.4.4.4.4.4.4.R 4.4.4.4.4.3.w.4.4.4.4.4.4.4.4.4.4.4.4.4.4.4.4.4.4.4.4.4.4.4.4.^ 4.4.4.4.4.4.4.4.4.4.4.4.4.4.4.4.4.4.4.4.4.4.4.2.2.4.4.4.4.4.4.^ 4.4.4.4.4.4.4.4.  ",
"  4.4.4.4.4.4.4.4.4.4.4.4.4.4.4.4.4.4.4.4.4.4.4.z 4.4.4.4.4.4.3.4.4.4.4.4.4.4.4.4.4.4.4.4.4.4.4.4.4.4.4.4.4.4.4.@ 4.4.4.4.4.3.q.4.4.4.4.4.4.4.4.4.4.4.4.4.4.4.4.4.4.4.4.4.4.4.4.@ 4.4.4.4.4.4.4.4.4.4.4.4.4.4.4.4.4.4.4.4.4.4.4.4.4.4.4.4.4.4.4.@ 4.4.4.4.4.4.4.4.  ",
"  w.4.4.1.4.4.4.4.4.4.2.4.4.4.4.2.4.4.4.4.4.4.4.@ 4.4.4.4.4.4.3.4.3.3.3.1.4.4.4.4.4.4.4.4.w.4.4.2.4.4.4.4.4.4.4.@ 4.4.4.4.4.4.3.3.3.4.3.4.4.4.4.4.4.4.4.4.4.4.2.4.4.2.2.4.4.4.4.@ 2.2.4.4.4.4.2.4.4.2.4.2.4.4.4.4.4.3.3.3.4.4.4.4.4.4.4.2.4.4.4.@ 4.4.4.4.3.3.4.4.  ",
"  { { $.U G G D U ^ ^ R ^ ^ R ^ R R R ^ R @ @ @ @ @ @ R R R R R R $.$.{ K K G D D R ^ ^ ^ R R R R R R ^ R @ @ @ @ @ @ R R R R R R $.{ $.D D D K U R ^ ^ ^ ^ R U R ^ R R R @ @ @ @ @ @ R U U R R ^ { $.) z w w w w w z ^ ) R ^ R R R R ^ U @ @ @ @ @ @ U R R R R R   ",
"  k.k.k.g.n.n.D g.n.n.n.g.n.g.n.n.n.n.n.n.n.n.g.n.g.g.g.k.k.k.k.k.k.g.k.n.k.k.K g.n.n.n.g.n.g.n.n.n.n.n.n.n.n.g.n.g.g.n.k.k.k.k.g.k.n.k.k.k.k.K n.n.n.n.n.n.n.n.n.n.n.n.n.n.k.n.n.n.n.g.n.n.k.n.n.g.n.n.k.k.n.3 z K k.k.z.g.g.n.n.n.n.n.n.n.n.n.n.n.g.n.n.k.g.k.k.  ",
"  4.4.4.4.4.4.D 4.4.4.4.4.4.4.4.4.2.2.4.4.2.4.4.4.4.4.4.4.4.4.4.4.4.4.4.4.4.4.D 4.4.4.4.4.4.4.4.4.2.2.4.2.2.4.4.4.4.4.4.4.4.4.4.4.4.4.4.4.4.3.K 4.2.2.4.4.2.4.4.4.2.4.2.2.4.4.2.4.4.2.4.4.4.4.4.4.4.2.4.4.4.2.w K k.4.4.3.w.4.4.2.4.4.2.4.2.2.4.4.2.4.4.4.4.4.4.4.  ",
"  4.4.4.4.4.4.K 4.4.4.4.4.4.4.4.4.4.4.4.4.4.4.4.4.4.4.4.4.4.4.4.4.4.4.4.4.4.4.K 4.4.4.4.4.4.4.4.4.4.4.4.4.4.4.4.4.4.4.4.4.4.4.4.4.4.4.4.4.4.4.w : 4.4.4.4.4.4.4.4.4.4.4.4.4.4.4.4.4.4.4.4.4.4.4.4.4.4.4.4.4.4.R n.4.4.4.4.4.4.4.2.4.4.4.4.4.4.4.4.4.4.4.4.4.4.4.4.  ",
"  4.4.4.4.4.4.) 4.4.4.4.4.4.4.4.4.4.4.4.4.4.4.4.4.4.4.4.4.4.4.4.4.4.4.4.4.4.4.) 4.4.4.4.4.4.4.4.4.4.4.4.4.4.4.4.4.4.4.4.4.4.4.4.4.4.4.4.4.4.4.z : 4.4.4.4.4.4.: 4.4.4.4.4.4.4.4.4.4.4.4.4.4.4.4.4.4.4.4.4.4.4.) 2.4.4.4.4.4.4.4.4.4.4.4.4.4.4.4.4.4.4.4.4.4.4.4.4.  ",
"  4.4.4.4.4.4.$.4.4.4.4.4.4.4.4.4.4.4.4.4.4.4.4.4.4.4.4.4.4.4.4.4.4.4.4.4.4.4.$.4.4.4.4.4.4.4.4.4.4.4.4.4.4.4.4.4.4.4.4.4.4.4.4.4.4.4.4.4.4.4.z z : w.w.4.4.: g.4.4.4.4.4.4.4.4.4.4.4.4.4.4.4.4.4.4.4.4.4.4.4. .4.4.4.4.4.4.4.4.4.4.4.4.4.4.4.4.4.4.4.4.4.4.4.4.4.  ",
"  4.4.4.4.3.3.6 4.4.4.4.4.4.4.4.4.4.4.4.4.4.4.4.4.4.4.4.4.4.4.4.4.4.4.4.4.4.3.3 4.4.4.4.4.4.4.4.4.4.4.4.4.4.4.4.4.4.4.4.4.4.4.4.4.4.4.4.4.4.4.6 ) +.v : : : n.4.4.4.4.4.4.4.4.4.4.4.4.4.4.4.4.4.4.4.4.4.4.4.4.2 4.4.4.4.4.4.4.4.4.4.4.4.4.4.4.4.4.4.4.4.4.4.4.4.4.  ",
"  4.w.3.4.4.4.: 4.4.4.4.4.4.4.4.4.4.4.4.4.4.4.4.4.4.4.4.4.4.4.4.4.4.4.3.4.4.4.: 4.4.4.4.4.4.4.w.4.4.4.4.4.4.4.4.4.4.4.4.4.4.4.3.4.4.4.4.4.4.4.6 { { R D : z.w.4.4.4.4.4.4.4.4.4.4.4.4.4.4.4.4.4.4.4.4.4.4.4.4.- 4.4.4.4.4.4.4.4.4.4.4.4.4.4.4.4.4.4.4.4.4.4.4.4.3.  ",
"  4.3.3.4.4.w.: 4.4.4.4.4.4.4.4.4.4.4.4.4.4.4.4.4.4.4.4.4.4.4.4.4.4.4.3.4.4.w.: 3.3.4.4.4.4.4.w.4.4.4.4.4.4.4.4.4.4.4.4.4.4.4.3.4.4.4.4.4.4.4.3 ) +.) D D : 4.4.4.4.4.4.4.4.4.4.4.4.4.4.4.4.4.4.4.4.4.4.4.4.4.2 4.4.4.4.4.4.4.4.4.4.4.4.4.4.4.4.4.4.4.4.4.4.4.4.t.  ",
"  o O O O O o O O O O O O O o O O 4.O O O O O O O O O O O O o O o O O O O O o O O O O O o O O O O 4.O O O O o O O O O O o O O O o o O O O O O = O O O O O O o O O 4.O O O O O O O O O O O O O O O O O O O O O O O O O O O O O O o 4.O O O O O O O O O O O O O O O   ",
"  F.F.F.F.F.F.F.F.F.F.F.F.F.F.F.F.* F.F.F.F.F.F.F.F.F.F.F.F.F.F.F.F.F.F.F.F.F.F.F.F.F.F.F.F.F.F.F.. F.F.F.F.F.F.F.F.F.F.F.F.F.F.F.F.F.F.F.F.F.F.F.F.F.F.F.F.F.F.F.& F.F.F.F.F.F.F.F.F.F.F.F.F.F.F.F.F.F.F.F.F.F.F.F.F.F.F.F.F.F.F.& F.F.F.F.F.F.F.F.F.F.F.F.F.F.F.  ",
"  F.F.F.F.F.F.F.F.F.F.F.F.F.F.F.F.@.F.F.F.F.F.F.F.F.F.F.F.F.F.F.F.F.F.F.F.F.F.F.F.F.F.F.F.F.F.F.N . F.F.F.F.F.F.F.F.F.F.F.F.F.F.F.F.F.F.F.F.F.F.F.F.F.F.F.F.F.F.F.@.F.F.F.F.F.F.F.F.F.F.F.F.F.F.F.F.F.F.F.F.F.F.F.F.F.F.F.F.F.F.F.@.F.F.F.F.F.F.F.F.F.F.F.F.F.F.F.  ",
"  F.F.F.F.F.F.F.F.F.F.F.F.F.F.F.F.@.F.F.F.F.F.F.F.F.F.F.F.F.F.F.F.F.F.F.F.F.F.F.F.F.F.F.F.F.F.P P . F.F.F.F.F.F.F.F.F.F.F.F.F.F.F.F.F.F.F.F.F.F.F.F.F.F.F.F.F.F.F.@.F.F.F.F.F.F.F.F.F.F.F.F.F.F.F.F.F.F.F.F.F.F.F.F.F.F.F.F.F.F.F.@.F.F.F.F.F.F.F.F.F.F.F.F.F.F.F.  ",
"  F.F.F.F.F.F.F.F.F.F.F.F.F.F.F.F.@.F.F.F.F.F.F.F.F.F.F.F.F.F.F.F.F.F.F.F.F.F.F.F.F.F.F.,.-.N N N . F.F.F.F.F.F.F.F.F.F.F.F.F.F.F.F.F.F.F.F.F.F.F.F.F.F.F.F.F.F.F.@.F.F.F.F.F.F.F.F.F.F.F.F.F.F.F.F.F.F.F.F.F.F.F.F.F.F.F.F.F.F.F.@.F.F.F.F.F.F.F.F.F.F.F.F.F.F.F.  ",
"  L.L.P.L.L.L.K.L.L.L.L.L.L.L.L.L.@.L.L.L.L.L.L.L.L.L.L.L.L.L.L.L.L.L.P.L.L.L.L.L.L.L.-.,.-.=.-.N . L.L.L.L.L.L.L.L.L.L.L.L.L.L.L.L.L.L.L.L.L.L.L.L.L.L.L.L.L.L.L.@.L.L.L.L.L.L.L.L.L.L.L.L.L.L.L.L.L.L.L.L.L.L.L.L.L.L.L.L.L.L.L.@.L.L.L.L.L.L.L.L.L.L.L.L.L.L.L.  "
};
