/* XPM */
static char *f5308d5f03944bf2c7d32cf4ab3c0039OiHbC62IEyc8pHYe[] = {
/* columns rows colors chars-per-pixel */
"64 64 137 2 ",
"   c None",
".  c #4F2913",
"X  c #512D19",
"o  c #512E19",
"O  c #512E1A",
"+  c #512F1B",
"@  c #522F1B",
"#  c #4F311E",
"$  c #52301C",
"%  c #52301D",
"&  c #52301E",
"*  c #52311E",
"=  c #53321E",
"-  c #53321F",
";  c #56321C",
":  c #4F3625",
">  c #533220",
",  c #533320",
"<  c #533321",
"1  c #543321",
"2  c #543422",
"3  c #543523",
"4  c #543624",
"5  c #553726",
"6  c #553827",
"7  c #553927",
"8  c #5A3B27",
"9  c #5E3B25",
"0  c #563929",
"q  c #563A28",
"w  c #563B2A",
"e  c #563C2C",
"r  c #563D2C",
"t  c #573C2D",
"y  c #573D2D",
"u  c #573D2E",
"i  c #573E2E",
"p  c #593D2A",
"a  c #583E2E",
"s  c #583F30",
"d  c #5B4231",
"f  c #594032",
"g  c #584132",
"h  c #5E4532",
"j  c #594234",
"k  c #594235",
"l  c #5B4435",
"z  c #5A4537",
"x  c #5A4538",
"c  c #5B4538",
"v  c #5A4638",
"b  c #5B473A",
"n  c #5B483B",
"m  c #5B493C",
"M  c #5C4B3E",
"N  c #624937",
"B  c #5D4C41",
"V  c #5C4D41",
"C  c #5D4D41",
"Z  c #5D4D42",
"A  c #5D4E42",
"S  c #5D4E43",
"D  c #5D4F43",
"F  c #5E4F44",
"G  c #5E4F45",
"H  c #5D5044",
"J  c #5C5147",
"K  c #5E5146",
"L  c #5C5247",
"P  c #5D5247",
"I  c #5D5248",
"U  c #5F5349",
"Y  c #655444",
"T  c #665444",
"R  c #675544",
"E  c #625449",
"W  c #62554A",
"Q  c #62554B",
"!  c #62564B",
"~  c #60554C",
"^  c #60554D",
"/  c #60564D",
"(  c #63564C",
")  c #63574D",
"_  c #60564E",
"`  c #60564F",
"'  c #61574F",
"]  c #615851",
"[  c #645850",
"{  c #655C55",
"}  c #655D56",
"|  c #675F56",
" . c #665F58",
".. c #666057",
"X. c #676159",
"o. c #676259",
"O. c #68625A",
"+. c #68635A",
"@. c #69635B",
"#. c #69645B",
"$. c #69645C",
"%. c #6A645C",
"&. c #6A655C",
"*. c #6B655D",
"=. c #6A665C",
"-. c #6B665D",
";. c #6B675D",
":. c #6C665E",
">. c #6C675E",
",. c #6C675F",
"<. c #6C685E",
"1. c #6D685F",
"2. c #6D695F",
"3. c #6D6861",
"4. c #736E66",
"5. c #726E67",
"6. c #736E67",
"7. c #746F67",
"8. c #736F68",
"9. c #746F69",
"0. c #747068",
"q. c #757068",
"w. c #747069",
"e. c #757169",
"r. c #74706A",
"t. c #75716A",
"y. c #75716B",
"u. c #76726B",
"i. c #767469",
"p. c #76726C",
"a. c #868579",
"s. c #86847B",
"d. c #88877B",
"f. c #918F88",
"g. c #929088",
"h. c #94928B",
"j. c #99978F",
/* pixels */
"8 8 8 8 8 8 8 8 8 8 8 8 8 8 8 8   8 8 8 8 8 8 8 8 8 8 8 9 8 8 8 8 8 8 8 8 8 8 8 9 8 8 8 8 8 8 8   8 8 8 9 8 8 8 8 8 8 8 8 8 8 8 ",
"a.a.a.a.a.a.a.a.a.a.a.a.a.a.d.a.N a.a.a.a.a.a.a.a.a.a.a.a.a.a.a.a.a.a.a.a.a.a.a.a.a.a.a.a.a.d.a.h a.a.a.a.a.a.a.a.a.a.a.a.a.a.a.",
"a.a.a.a.a.a.a.d.a.a.a.a.a.a.a.a.N a.a.a.a.a.a.a.a.a.a.a.a.a.a.d.a.a.a.a.a.a.a.a.a.a.a.a.a.a.a.a.N a.a.a.a.a.a.a.a.a.a.a.a.a.a.a.",
"a.a.a.a.a.a.a.d.a.a.a.a.a.a.a.a.R a.a.d.a.a.a.a.a.a.a.a.a.a.a.d.a.a.a.a.a.a.a.a.a.a.a.a.a.a.a.a.R a.a.a.a.a.a.d.a.a.a.a.a.a.a.a.",
"f.f.f.f.f.f.f.f.g.g.g.g.g.j.j.j.R g.j.j.j.h.g.g.g.g.g.g.h.h.g.g.f.g.f.f.g.g.g.g.g.g.g.g.g.j.j.j.R h.j.j.j.g.g.h.h.g.g.g.g.g.h.h.",
"2.2.2.2.1.,.1.1.,.2.2.1.2.2.2.,.d 2.1.1.1.1.1.,.2.3.>.<.2.2.<.<.2.1.1.1.,.2.3.%.1.1.,.2.1.2.2.>.g ,.2.,.2.2.2.,.4.2.2.>.2.2.2.2.",
"2.,.2.,.1.1.1.1.,.,.2.,.,.2.,.1.d ,.2.<.1.2.>.2.2.,.,.>.2.,.>.>.2.2.2.,.2.,.2.,.2.,.2.2.1.1.>.>.d 2.,.2.,.<.2.2.,.,.>.>.>.>.,.,.",
",.2.,.2.1.1.1.1.<.<.<.>.2.2.,.,.d 2.>.>.2.2.>.>.2.,.,.>.,.,.>.>.1.,.,.2.,.2.,.2.<.<.<.<.2.2.>.>.d 2.2.,.,.>.>.<.>.>.>.>.>.,.,.,.",
"2.<.<.<.>.>.>.>.<.<.>.>.>.>.>.>.d >.>.>.>.>.>.>.>.,.>.>.,.,.,.#.1.2.,.2.>.>.<.<.<.<.<.>.>.>.>.>.a >.>.,.>.>.>.>.>.>.,.,.,.>.@.>.",
">.>.>.>.>.>.>.>.>.>.>.>.#.>.#.>.d >.>.>.>.@.>.,.>.>.#.>.#.2.#.2.,.,.>.>.>.>.>.>.>.>.>.>.>.>.>.>.d >.>.>.>.>.@.,.>.#.+.>.>.>.>.>.",
">.#.>.>.>.#.>.>.>.>.>.>.>.#.<.>.d ,.>.>.>.>.@.@.#.#.#.>.#.<.%.;.>.>.>.>.@.>.>.@.>.>.>.#.,.>.>.,.d >.>.@.>.+.,.*.#.#.#.>.#.>.+.#.",
">.#.#.#.>.#.+.>.>.+.+.>.>.>.>.#.p @.@.>.+.@.@.>.>.#.#.>.#.#.%.%.#.+.>.+.>.+.>.>.#.#.>.#.@.>.@.@.8 >.>.+.>.@.@.*.#.>.>.+.#.#.#.>.",
"#.#.>.#.>.>.+.>.@.>.>.@.+.>.+.>.- @.@.@.>.@.@.@.+.#.#.#.%.+.%.#.#.>.>.@.>.+.>.@.#.#.>.@.>.+.@.>.- +.#.#.@.@.>.+.#.#.#.#.#.#.#.#.",
"#.#.#.#.@.@.+.+.+.@.+.@.+.+.+.+.- +.@.@.+.@.@.+.+.+.#.#.+.%.#.#.+.+.@.+.@.+.@.@.#.#.@.@.>.+.@.+.- +.+.+.@.+.+.+.#.#.#.#.#.#.#.#.",
"+.+.#.+.+.+.@.+.@.@.@.@.@.+.+.+.- +.+.+.+.+.+.+.+.+.+.+.+.+.+.+.+.+.+.+.@.+.+.+.#.+.+.+.+.+.+.+.- +.+.+.+.+.+.+.+.+.+.+.+.+.#.#.",
"+.+.+.+.| +.+.+.+.+.+.+.+.+.+.+.- +.+.| +.+.+.+.+.+.+.+.+.+.+.+.+.+.+.+.+.+.+.+.+.+.+.+.+.+.+.+.- +.+.+.+.| +.+.+.+.+.+.+.+.+.+.",
"| +.X.X.X.X.X.X.X.X.X.X.X.X.X.X.= X.X.X.X.X.X.X...+...X.X.X.+.| X.X.X.X.X.X.X.X.X.X.X.X.X.X.X.X.- +.| +.X.X.X.X.X.X.X.X.X.X.X.X.",
"+.| X.X.X.X.X.X.X.X.X.X.X.X.X.X.. X.X.X.X.X.X.X.+...+.X.X.X.+.+.X.X.X.X.X.X.X.X.X.X.X.X.X.X.X.X.. | +.| X.X.X.X.X.X.X.X.X.X.X.X.",
". . . . . . . . . . . . . . . . L . . . . . . . . . . . . . . . . . . . . . . . . . . . . . . . J . . . . . . . . . . . . . . . ",
"J J J J L J J J L L L L L L L L L L L L L L L # J J L H J J J L L L L L L L L L L L L L L L L L J J G U L L L # J J L U L L L J ",
"L L L L L L L L L L L L L L L L L L L L L L L # L L L E J E L J L L L L L L L L L L L L L L L L J J L L L L L # L J L L L L L U ",
"L L L L L L L L L L L L L L L L L L L L L L L : L L L L J L L J L L L L L L L L L L L L L L L L L L L L L L L : L J E L L L J U ",
"L L L L L L L L L L L L L L L L L L L L L L L : L L L J L L J E L L L L L L L L L L L L L L L L L L L L L L L : L L L L L L J L ",
"L L L L L L L L L L L L L L L L L L L L L L L : L L L J E L J J L L L L L L L L L L L L L L L L L L L L L L L : L L J J E L J U ",
"L L L L J L L L L L L L J J J J L L L L J J J : J J L L J J J J L L J J J J J J J J J L L L L L L L L J J J J : J J J J L J J J ",
"X.X.X.X.X.X.X.X.X.X.X.X.X.X.X.X.X.X.X.X.X.X.X.g X.X.X.+.X.X.+.+.X.X.| +.+.+.+...X.X.X.X.X.X.X.X.X.X.X.X.X.X.X.g +...X.X.+.+.+.+.",
"X.X.X.X.+.X.X.X.+.+.X.X.X.X.X.X.X.X.X.X.X.X.X.4 X...X.X.X.X.X.X.X.+.X.+.X.X.X.X.X.X.X.X.X.X.X.X.X.X.X.X.X.X.X.4 ....+.X.X.X.+.| ",
"J Y J J L B B B H J J U U U U E U U U g g r w 5 7 f U U U U U U J J J J J B B B Y J J U U U U U U U U g g r w 5 7 f J E U U E J ",
"2.,.2.,.2.,.B B u.u.u.u.p.p.p.u.u.t.e.e.e.4.7.7.7.7.4.4.4.4.4.4.e.t.u.t.e.4.B ,.%.3.3.%.2.3.%.2.2.2.%.3.,.,.,.,.,.,.,.,.,.,.,.,.",
"X.X.X.X.+.+.B 8.3.3.3.3.3.3.3.3.3.3.3.3.3.2.3.3.3.3.3.3.3.3.3.3.2.3.3.3.2.2.B X.X.X.X.X.X.X.X.X.X.X.X.X.X.X.X.X.X.X.X.X.X.X.X.X.",
"X.X.X.X.| X.B t.3.3.3.3.3.3.3.3.3.3.3.3.3.3.3.3.3.3.3.3.3.3.3.3.3.3.3.3.3.3.B X.X.X.X.X.X.X.X.X.X.X.X.X.X.X.X.X.X.X.X.X.X.X.X.X.",
"X.X.X.X.X.X.B t.3.3.3.3.3.3.3.3.3.3.3.3.3.3.3.3.3.3.3.3.3.3.3.3.3.3.3.3.3.3.B X.X.X.X.X.X.X.X.X.X.X.X.X.X.X.X.X.X.X.X.X.X.X.X.X.",
"X.X.X.X.X.X.B t.3.3.3.3.3.3.3.3.3.3.3.3.3.3.3.3.3.3.3.3.3.3.3.3.3.3.3.3.3.3.B X.X.X.X.X.X.X.X.X.X.X.X.X.+. .+. .+. .+. .+. .+. .",
"X.X.X.X.X.X.B 9.3.3.3.3.3.3.3.3.3.3.3.3.3.3.3.3.3.3.3.3.3.3.3.3.3.3.3.3.3.3.B X.X.X.X.X.X.X.X.X.X.X.X.X. .+. .+. .+. .+. .+. .+.",
"X.X.X.X.X.X.g 9.3.3.3.3.3.3.3.3.3.3.3.3.3.3.3.3.3.3.3.3.3.3.3.3.3.3.3.3.3.3.= X.X.X.X.X.X.X.X.X.X.X.X.X.+. .+.| +. .+. .+. .+. .",
"X.X.X.X.X.X.1 8.3.3.3.3.3.3.3.3.3.3.3.3.3.3.3.3.3.3.3.3.3.3.3.3.3.3.3.3.3.3., X.X.X.X.X.X.X.X.X.X.X.X.X. .+. .+. .+. .+. .+. .+.",
"M n n i i 3 o o o - 4 5 7 l l l l l l l l l a + < - < - - - - + + - o o o o c - < < < < < 1 1 5 w t a t t t t t i i n U E U U U ",
"+.%.%.%.%.%.| ` ( ) ( E E ` ( ( E ` W W ` E E i B B B B B B B B B B B B B B B B B B B B B B B B B B B B B B B t 3.%.3.%.3.3.3.%.",
" . . . . . . . . . .X. . . . . . . .|  . . .| r B B ] ] ] ] ] ] ] ] ] ] ] ] ] ] ] ] ] ] ] ] ] ] ` ] ] ] ` B B t  . . . . . . . .",
" . . . . . . . . . . . . . . . . . . . . . . .i ] ] ] ] ] ] ] ] ] ] ] ] ] ] ] ] ] ] ] ] ] ] ] ] ] ] ] ] ] ] B g  . . . . . . . .",
" . . . . . . . . . . . . . . . . . . . . . . .G ] ] ] ] ] ] ] ] ] ] ] ] ] ] ] ] ] ] ] ] ] ] ] ] ] ] ] ] ] ] ] k {  . . . . . . .",
" . . . . . . . . . . . . . . . . . . . . . . .G ] ] ] ] ] ] ] ] ] ] ] ] ] ] ] ] ] ] ] ] ] ] ] ] ] ] ] ] ] ] ] k {  . . . . . . .",
" . . . . . . . . . . . . . . . . . . . . . . .G ] ] ] ] ] ] ] ] ] ] ] ] ] ] ] ] ] ] ] ] ] ] ] ] ] ] ] ] ] ] ] c  . . . . . . . .",
" . . . . . . . . . . . . . . . . . . . . . .| 5 ] ] ] ] ] ] ] ] ] ] ] ] ] ] ] ] ] ] ] ] ] ] ] ] ] ] ] ] ] ] ] 3  . . . . . . . .",
" . . .|  . . . .| |  .|  .X.X.X. .X. . . . . .< ` ] ] ] ] ] ] ] ] ] ] ] ] ] ] ] ] ] ] ] ] ] ` ] ] ] ] ] ] ] ] +  .X.X.X. . . . .",
"U U U B M n M M J J J H D V V B B B B B 4 1 5 o 7 w 7 w i c M M M M M M B U ` U ` i i i i i i i i i 6 3 5 - o o 3 , V B B V V V ",
"%.3.3.%.%.3.M %.3.%.%.3.3.%.%.3.3.3.,.,.,.,.,.,.%.3.3.%.;.3.,.,.3.%.3.3.3.M U ` i %.3.%.,.,.,.,.3.%.3.3.3.%.%.3.3.%.3.%.%.3.%.3.",
" . . . .X. .M X. . .X. . .X. . . . . . . . . .|  . .X. . . . . . . . . . . .s i |  .X. . . . . . . . . . . .X. . .X. . .X. . . .",
" . . . . . .M  . . . . . . . . . . . . . . . . . . . . . . . . . . . . . . .i  . . . . . . . . . . . . . . . . . . . . . . . . .",
" . . . . . .J  . . . . . . . . . . . . . . . . . . . . . . . . . . . . . . .c  . . . . . . . . . . . . . . . . . . . . . . . . .",
" . . . . . .U  . . . . . . . . . . . . . . . . . . . . . . . . . . . . . . .z  . . . . . . . . . . . . . . . . . . . . . . . . .",
" . . . . . .g |  . . . . . . . . . . . . . . . . . . . . . . . . . . . . . .z  . . . . . . . . . . . . . . . . . . . . . . . . .",
" . .|  . . .p X. . . .|  . . . . . . . . . .| X. . .|  . . . . . . . . .|  .a  . . . . .|  . . . . ... . . . . . . .| .. . . . .",
" . ..... . .a .. . . .|  . . . .| |  . . . . ... . ..... . .| |  . . . .....i |  . . . ..... . . . ..... . .| |  . . ... . . . .",
"- ; ; ; - ; ; ; - ; ; ; ; ; - ; ..; ; ; - ; - ; - ; ; ; - ; ; ; ; ; - ; ; ; ; ; ; ; - ; ; ; - -  .; ; ; - ; ; ; - ; ; ; ; ; - ; ",
"u.i.i.i.u.i.i.i.i.i.i.i.i.i.i.i.9 i.i.i.i.u.i.i.u.i.i.i.i.i.i.i.i.i.i.i.i.i.i.i.i.i.i.u.i.i.i.i.9 u.u.i.i.i.i.i.i.i.i.i.i.i.i.u.",
"i.i.i.i.i.i.i.i.i.i.i.i.i.i.i.i.Y i.i.i.i.i.i.i.i.i.i.i.i.i.i.i.i.i.i.i.i.i.i.i.i.i.i.i.i.i.i.i.R i.i.i.i.i.i.i.i.i.i.i.i.i.i.i.",
"i.i.i.i.i.i.i.i.i.i.i.i.i.i.i.i.R u.i.i.i.i.i.i.i.i.i.i.i.i.i.i.i.i.i.u.i.i.i.i.i.i.i.i.i.i.i.i.R i.i.u.i.i.i.u.i.i.i.u.i.i.i.i.",
"i.i.i.i.i.i.t.i.i.t.i.t.i.t.i.i.Y u.u.u.i.i.i.i.i.i.u.u.i.i.u.u.i.t.u.u.u.u.i.i.i.i.u.u.i.i.i.i.Y i.u.u.i.i.u.u.i.t.i.t.u.u.i.i.",
"s.s.s.s.s.s.a.a.d.s.a.s.a.s.s.d.Y a.a.a.d.a.a.s.a.d.s.a.a.d.s.a.a.s.a.a.a.a.a.a.a.a.d.a.a.s.s.s.Y a.a.a.a.d.s.a.a.a.d.s.a.a.a.a.",
"+...............................Y ..............................................................Y ..............................",
"| ..............................Y ..............................................................Y ..............................",
"................................. ............................................................... ..............................",
". . . . . . . . . . . . . . . . . . . . . . . . . . . . . . . . . . . . . . . . . . . . . . . . . . . . . . . . . . . . . . . . "
};
