/* XPM */
static char *result[] = {
/* columns rows colors chars-per-pixel */
"20 20 7 1 ",
"  c black",
". c #781D4F",
"X c #E64539",
"o c #AD2F45",
"O c #FF8933",
"+ c #FFC2A1",
"@ c None",
/* pixels */
"@@@@@@@@@@@@@@@@@@@@",
"@@@@@@         @@@@@",
"@@@@@ ooooOOO+O @@@@",
"@@@@@ oooOooooo @@@@",
"@@@@@ oooOXXXXo @@@@",
"@@@@@ OOOOXo+Xo @@@@",
"@@@@@ ...OoO+Xo @@@@",
"@@@@@ oooOOOO+o @@@@",
"@@@@@ oooOOXo+o @@@@",
"@@@@@ OOOOOXXXo @@@@",
"@@@@@ OOOOoOO+o @@@@",
"@@@@@ ...OXoO+o @@@@",
"@@@@@ oooOXoO+o @@@@",
"@@@@@ ...OOOO+o @@@@",
"@@@@@ ...OoO+Xo @@@@",
"@@@@@ oooOXo+Xo @@@@",
"@@@@@ oooOXXXXo @@@@",
"@@@@@ ooooOOO+O @@@@",
"@@@@@@         @@@@@",
"@@@@@@@@@@@@@@@@@@@@"
};
