/* XPM */
static char *result[] = {
/* columns rows colors chars-per-pixel */
"20 20 7 1 ",
"  c black",
". c #781D4F",
"X c #E64539",
"o c #AD2F45",
"O c #FF8933",
"+ c #FFC2A1",
"@ c None",
/* pixels */
"@@@@@@@@@@@@@@@@@@@@",
"@@@@@@         @@@@@",
"@@@@@ OOOO+oooo @@@@",
"@@@@@ oooooOooo @@@@",
"@@@@@ XXXXoOooo @@@@",
"@@@@@ Xo+XoOOOO @@@@",
"@@@@@ oOO+oO... @@@@",
"@@@@@ oOOOoOooo @@@@",
"@@@@@ oOoOoOooo @@@@",
"@@@@@ oOXXoOOOO @@@@",
"@@@@@ ooOOoOOOO @@@@",
"@@@@@ XXoOoO... @@@@",
"@@@@@ oOoOoOooo @@@@",
"@@@@@ oOO+oO... @@@@",
"@@@@@ XoO+oO... @@@@",
"@@@@@ Xo+XoOooo @@@@",
"@@@@@ XXXXoOooo @@@@",
"@@@@@ OOOO+oooo @@@@",
"@@@@@@         @@@@@",
"@@@@@@@@@@@@@@@@@@@@"
};
