/* XPM */
static char *result[] = {
/* columns rows colors chars-per-pixel */
"20 20 7 1 ",
"  c black",
". c #781D4F",
"X c #E64539",
"o c #AD2F45",
"O c #FF8933",
"+ c #FFC2A1",
"@ c None",
/* pixels */
"@@@@@@@@@@@@@@@@@@@@",
"@@@@            @@@@",
"@@@ OOOOOO++Oooo @@@",
"@@ ooooooooooOooo @@",
"@@ XXXXXXXXXoOooo @@",
"@@ XXoOXo+XXoOOOO @@",
"@@ XXoOOO+XXoO... @@",
"@@ XoOOOOO+XoOooo @@",
"@@ XoOOXoO+XoOooo @@",
"@@ XoOOXXXXXoOOOO @@",
"@@ XoOOOOO+XoOOOO @@",
"@@ XXXXXoO+XoO... @@",
"@@ XoOOXoO+XoOooo @@",
"@@ XoOOOOO+XoO... @@",
"@@ XXoOOO+XXoO... @@",
"@@ XXoOXo+XXoOooo @@",
"@@ XXXXXXXXXoOooo @@",
"@@@ OOOOOO++Oooo @@@",
"@@@@            @@@@",
"@@@@@@@@@@@@@@@@@@@@"
};
