/* XPM */
static char *result[] = {
/* columns rows colors chars-per-pixel */
"20 20 6 1 ",
"  c black",
". c #781D4F",
"X c #AD2F45",
"o c #FF8933",
"O c #FFC2A1",
"+ c None",
/* pixels */
"++++++++++++++++++++",
"+++++++      +++++++",
"++++++ XXXXXO ++++++",
"++++++ XXXXXX ++++++",
"++++++ XXXXXO ++++++",
"++++++ oooooo ++++++",
"++++++ ...... ++++++",
"++++++ XXXXXO ++++++",
"++++++ XXXXXO ++++++",
"++++++ oooooO ++++++",
"++++++ oooooO ++++++",
"++++++ .....O ++++++",
"++++++ XXXXXO ++++++",
"++++++ .....O ++++++",
"++++++ ...... ++++++",
"++++++ XXXXXO ++++++",
"++++++ XXXXXO ++++++",
"++++++ XXXXXX ++++++",
"+++++++      +++++++",
"++++++++++++++++++++"
};
