/* XPM */
static char *result[] = {
/* columns rows colors chars-per-pixel */
"20 20 7 1 ",
"  c black",
". c #781D4F",
"X c #E64539",
"o c #AD2F45",
"O c #FF8933",
"+ c #FFC2A1",
"@ c None",
/* pixels */
"@@@@@@@@@@@@@@@@@@@@",
"@@@@             @@@",
"@@@ ooOOOOOO+++OO @@",
"@@ ooOoooooooooooO @",
"@@ ooOXXXXXXXXXXoO @",
"@@ OOOXXXoOXo+XXoO @",
"@@ ..OXXXoOOO+XXoO @",
"@@ ooOXXoOOOOO+XoO @",
"@@ ooOXXoOOXoO+XoO @",
"@@ OOOXXoOOXXXXXoO @",
"@@ OOOXXoOOOOO+XoO @",
"@@ ..OXXXXXXoO+XoO @",
"@@ ooOXXoOOXoO+XoO @",
"@@ ..OXXoOOOOO+XoO @",
"@@ ..OXXXoOOO+XXoO @",
"@@ ooOXXXoOXo+XXoO @",
"@@ ooOXXXXXXXXXXoO @",
"@@@ ooOOOOOO+++OO @@",
"@@@@             @@@",
"@@@@@@@@@@@@@@@@@@@@"
};
