/* XPM */
static char *result[] = {
/* columns rows colors chars-per-pixel */
"32 32 5 1 ",
"  c #3D253B",
". c #A17877",
"X c #CCA8A3",
"o c #EBD0C5",
"O c None",
/* pixels */
"OOOOOOOOOOOOOOOOOOOOOOOOOOOOOOOO",
"OOOOOOOOOOOOOOOOOOOOOOOOOOOOOOOO",
"OOOOOOOOOOOOOOOOOOOOOOOOOOOOOOOO",
"OOOOOOOOOOOOOOOOOOOOOOOOOOOOOOOO",
"OOOOOOOOOOOOOOOOOOOOOOOOOOOOOOOO",
"OOOOOOOOOOOOOOOOOOOOOOOOOOOOOOOO",
"OOOOOOOOOOOOOOOOOOOOOOOOOOOOOOOO",
"OOOOOOOOOOOOOOOOOOOOOOOOOOOOOOOO",
"OOOOOOOOOOOOOOOOOOOOOOOOOOOOOOOO",
"OOOOOOOOOOOOO      OOOOOOOOOOOOO",
"OOOOOOOOOOOO XooooX OOOOOOOOOOOO",
"OOOOOOOOOOO XooooooX OOOOOOOOOOO",
"OOOOOOOOOOO XooooooX OOOOOOOOOOO",
"OOOOOOOOOOO X  oo  X OOOOOOOOOOO",
"OOOOOOOOOOO X  oo  X OOOOOOOOOOO",
"OOOOOOOOOOOO XooooX OOOOOOOOOOOO",
"OOOOOOOOOOO .X.XX.X. OOOOOOOOOOO",
"OOOOOOOOOOO X.o..o.X OOOOOOOOOOO",
"OOOOOOOOOO oXXooooXXo OOOOOOOOOO",
"OOOOOOOOO XX oXXXXo XX OOOOOOOOO",
"OOOOOOOOOO   oooooo   OOOOOOOOOO",
"OOOOOOOOOOO Xo.  .oX OOOOOOOOOOO",
"OOOOOOOOOOO oo OO oo OOOOOOOOOOO",
"OOOOOOOOOOOOOOOOOOOOOOOOOOOOOOOO",
"OOOOOOOOOOOOOOOOOOOOOOOOOOOOOOOO",
"OOOOOOOOOOOOOOOOOOOOOOOOOOOOOOOO",
"OOOOOOOOOOOOOOOOOOOOOOOOOOOOOOOO",
"OOOOOOOOOOOOOOOOOOOOOOOOOOOOOOOO",
"OOOOOOOOOOOOOOOOOOOOOOOOOOOOOOOO",
"OOOOOOOOOOOOOOOOOOOOOOOOOOOOOOOO",
"OOOOOOOOOOOOOOOOOOOOOOOOOOOOOOOO",
"OOOOOOOOOOOOOOOOOOOOOOOOOOOOOOOO"
};
