/* XPM */
static char *result[] = {
/* columns rows colors chars-per-pixel */
"32 32 5 1 ",
"  c #3D253B",
". c #A17877",
"X c #CCA8A3",
"o c #EBD0C5",
"O c None",
/* pixels */
"OOOOOOOOOOOOOOOOOOOOOOOOOOOOOOOO",
"OOOOOOOOOOOOOOOOOOOOOOOOOOOOOOOO",
"OOOOOOOOOOOOOOOOOOOOOOOOOOOOOOOO",
"OOOOOOOOOOOOOOOOOOOOOOOOOOOOOOOO",
"OOOOOOOOOOOOOOOOOOOOOOOOOOOOOOOO",
"OOOOOOOOOOOOOOOOOOOOOOOOOOOOOOOO",
"OOOOOOOOOOOOOOOOOOOOOOOOOOOOOOOO",
"OOOOOOOOOOOOOOOOOOOOOOOOOOOOOOOO",
"OOOOOOOOOOOOOOOOOOOOOOOOOOOOOOOO",
"OOOOOOOOOOOO       OOOOOOOOOOOOO",
"OOOOOOOOOOO XoooXXX OOOOOOOOOOOO",
"OOOOOOOOOOO oooooXXX OOOOOOOOOOO",
"OOOOOOOOOOO oooooXXX OOOOOOOOOOO",
"OOOOOOOOOOO  oo  XXX OOOOOOOOOOO",
"OOOOOOOOOOO  oo  XXX OOOOOOOOOOO",
"OOOOOOOOOOO ooooXXX OOOOOOOOOOOO",
"OOOOOOOOOOO Xo.o.  OOOOOOOOOOOOO",
"OOOOOOOOOOO ....oo OOOOOOOOOOOOO",
"OOOOOOOOOO .XoooXXo OOOOOOOOOOOO",
"OOOOOOOOOO .oXXXo XX OOOOOOOOOOO",
"OOOOOOOOOOO  oooX   OOOOOOOOOOOO",
"OOOOOOOOOOOO .  o OOOOOOOOOOOOOO",
"OOOOOOOOOOO ..  oo OOOOOOOOOOOOO",
"OOOOOOOOOOOOOOOOOOOOOOOOOOOOOOOO",
"OOOOOOOOOOOOOOOOOOOOOOOOOOOOOOOO",
"OOOOOOOOOOOOOOOOOOOOOOOOOOOOOOOO",
"OOOOOOOOOOOOOOOOOOOOOOOOOOOOOOOO",
"OOOOOOOOOOOOOOOOOOOOOOOOOOOOOOOO",
"OOOOOOOOOOOOOOOOOOOOOOOOOOOOOOOO",
"OOOOOOOOOOOOOOOOOOOOOOOOOOOOOOOO",
"OOOOOOOOOOOOOOOOOOOOOOOOOOOOOOOO",
"OOOOOOOOOOOOOOOOOOOOOOOOOOOOOOOO"
};
