/* XPM */
static char *result[] = {
/* columns rows colors chars-per-pixel */
"20 44 219 2 ",
"   c #593521",
".  c #583722",
"X  c #593825",
"o  c #5B3A27",
"O  c #5B3B27",
"+  c #5A3B28",
"@  c #5F402C",
"#  c #60412C",
"$  c #61412C",
"%  c #60402D",
"&  c #60412D",
"*  c #61422D",
"=  c #61422E",
"-  c #62422E",
";  c #62432E",
":  c #6A4D39",
">  c #6B4F3E",
",  c #735542",
"<  c #8C7E67",
"1  c #8C7E68",
"2  c #8C7F69",
"3  c #8D7F69",
"4  c #8D7F6A",
"5  c #8D806A",
"6  c #8D816A",
"7  c #8D806B",
"8  c #8D816B",
"9  c #8E806A",
"0  c #8E816A",
"q  c #8E806B",
"w  c #8E816B",
"e  c #8E826B",
"r  c #8E816C",
"t  c #8F816C",
"y  c #8F816D",
"u  c #8E826C",
"i  c #8F826C",
"p  c #8F826D",
"a  c #8F836E",
"s  c #90826E",
"d  c #90836E",
"f  c #90836F",
"g  c #90846E",
"h  c #91846E",
"j  c #90846F",
"k  c #91846F",
"l  c #908470",
"z  c #918470",
"x  c #908471",
"c  c #918471",
"v  c #918571",
"b  c #928570",
"n  c #928671",
"m  c #918572",
"M  c #928572",
"N  c #928672",
"B  c #938772",
"V  c #928673",
"C  c #938673",
"Z  c #938773",
"A  c #938774",
"S  c #948873",
"D  c #968872",
"F  c #968972",
"G  c #968973",
"H  c #948874",
"J  c #958974",
"K  c #948875",
"L  c #958975",
"P  c #968975",
"I  c #978A74",
"U  c #968A75",
"Y  c #978A75",
"T  c #958976",
"R  c #958977",
"E  c #958A76",
"W  c #958A77",
"Q  c #978A76",
"!  c #968A77",
"~  c #978B77",
"^  c #998C77",
"/  c #968A78",
"(  c #968B78",
")  c #978B78",
"_  c #968B79",
"`  c #978B79",
"'  c #978C79",
"]  c #978C7A",
"[  c #998C78",
"{  c #988D78",
"}  c #998D78",
"|  c #988C79",
" . c #998D79",
".. c #9A8E79",
"X. c #988C7A",
"o. c #988D7A",
"O. c #988D7B",
"+. c #998E7A",
"@. c #9A8E7A",
"#. c #9A8F7B",
"$. c #988D7C",
"%. c #998E7C",
"&. c #998E7D",
"*. c #998F7D",
"=. c #9A8F7C",
"-. c #9B8F7C",
";. c #9A8F7D",
":. c #998E7E",
">. c #9A8F7E",
",. c #9A8F7F",
"<. c #9A907E",
"1. c #9B907E",
"2. c #9B917E",
"3. c #9A907F",
"4. c #9B907F",
"5. c #9C907D",
"6. c #9C917D",
"7. c #9C917E",
"8. c #9E917F",
"9. c #9D927F",
"0. c #9B9080",
"q. c #9B9181",
"w. c #9C9180",
"e. c #9C9181",
"r. c #9D9380",
"t. c #9C9281",
"y. c #9D9281",
"u. c #9D9381",
"i. c #9C9282",
"p. c #9D9282",
"a. c #9D9382",
"s. c #9C9283",
"d. c #9D9283",
"f. c #9D9383",
"g. c #9E9382",
"h. c #9E9383",
"j. c #9E9482",
"k. c #9F9482",
"l. c #9E9483",
"z. c #9D9384",
"x. c #9E9384",
"c. c #9E9484",
"v. c #9E9485",
"b. c #9E9585",
"n. c #9E9684",
"m. c #9E9685",
"M. c #9F9685",
"N. c #9F9586",
"B. c #9F9686",
"V. c #9F9687",
"C. c #9F9787",
"Z. c #A09482",
"A. c #A09483",
"S. c #A09686",
"D. c #A19687",
"F. c #A19787",
"G. c #A29887",
"H. c #A29987",
"J. c #A19989",
"K. c #A29989",
"L. c #A3998B",
"P. c #A39A8B",
"I. c #A49989",
"U. c #A49A8A",
"Y. c #A49A8B",
"T. c #A39B8D",
"R. c #A49C8D",
"E. c #A69D8D",
"W. c #A49C8E",
"Q. c #A59D8F",
"!. c #A69E90",
"~. c #A79E90",
"^. c #A79F91",
"/. c #A89E90",
"(. c #A89F90",
"). c #A7A091",
"_. c #A8A090",
"`. c #A9A190",
"'. c #A8A091",
"]. c #A9A191",
"[. c #A9A192",
"{. c #A9A093",
"}. c #A9A193",
"|. c #AAA193",
" X c #AAA292",
".X c #AAA293",
"XX c #A9A194",
"oX c #AAA194",
"OX c #AAA294",
"+X c #AAA295",
"@X c #ABA395",
"#X c #ABA396",
"$X c #ABA495",
"%X c #ABA496",
"&X c #ABA596",
"*X c #ACA495",
"=X c #ACA496",
"-X c #ACA497",
";X c #ACA597",
":X c #ADA597",
">X c #ADA598",
",X c #AEA599",
"<X c #ADA698",
"1X c #ADA699",
"2X c #AEA699",
"3X c #AEA69A",
"4X c #AEA79A",
"5X c #AFA79A",
"6X c #AFA79B",
"7X c #B0A79B",
"8X c #B0A89B",
"9X c #B0A89C",
"0X c #B0A99C",
"qX c #B1A99C",
"wX c #B0A99D",
"eX c #B1A99D",
"rX c #B1A99E",
"tX c #B2AA9E",
"yX c None",
/* pixels */
"+X, > : : : : : : : : : : : : : : : yXyX",
"+X+X, 2X2X,X2X2X2X2X2X2X2X2X2X2X2X2X: yX",
"+XXX, ].`.].].`.`.`.`.`.`.'.'.'.'._.5X: ",
"/.E.U., }.}.}.|.|.[.[.[.]. X X[.[.'.7X: ",
"I.G.k.OX+X+X+X+X+XOXOXOXOXOXOXOX.X.X8X: ",
"F.Z.@X@X#X#X#X#X#X#X#X#X#X#X*X$X@X@X8X: ",
"6X%X%X#X-X-X-X-X-X-X-X-X#X=X=X=X=X=X9X: ",
", %X%X-X;X>X>X>X>X>X>X>X-X-X-X-X;X;X9X: ",
"}., &X-X;X>X>X>X>X>X>X>X>X>X-X-X;X;X0X: ",
"OXoX, >X>X>X>X>X>X>X>X>X>X>X>X:X;X;XqX: ",
"{.}., >X>X>X>X>X>X>X<X>X2X2X2X2X>X>XeX: ",
"(.~.Y., >X>X>X>X>X>X>X>X2X2X2X2X2X<XeX: ",
"L.H.A.>X>X>X>X>X>X>X>X2X2X2X2X2X2X3XeX: ",
"k.8.1X>X>X>X>X>X>X>X4X4X4X4X4X4X4X4XtX: ",
"rXwXwXwXwXwXwXwXeXeXeXeXeXeXeXeXeXeXrX: ",
"!.d.s.i.f.a.d.f.h.x.x.c.c.v.v.N.V.D.).% ",
"Q.q.e.w.w.e.e.t.p.p.p.p.p.g.l.v.v.b.^.; ",
"W.0.0.4.4.4.0.0.0.0.0.0.w.e.e.y.f.z.Q.; ",
"P.,.,.>.>.>.<.,.,.,.3.,.4.4.0.w.t.i.W.; ",
"K.>.:.:.&.&.&.&.&.&.;.;.;.;.;.1.1.3.W.; ",
"C.&.&.%.$.$.$.$.%.%.%.%.%.%.%.&.*.*.R.; ",
"m.$.$.$.$.O.O.O.O.O.O.O.O.O.%.%.%.&.T.- ",
"M.o.O.X.X.X.X.X.X.| ` ' ' ] X.o.O.%.P.= ",
"n.] ' ` ) ) ) ) ) ! ! ) ) ) ` ` | X.J.* ",
"u.) ) ) ) ) ( ( ! ! ! ! ! ! ( _ ` ` B.# ",
"r.) / / / ( / ! ! R R W W ! ! / / ` S.# ",
"t./ / / ! ! ! ! ! T T T T T T ! / ) M.# ",
"2.! ! ! ! T T T T T T T T T T T ! ( j.# ",
"=.T T T T T T T T T T T T T T T T E 9.$ ",
"#.T T K K K K K K K K K K K T T K L 7.$ ",
"@.L K K A A A A A A A A A A K K K K 6.$ ",
"+.H H A A A A A A A A A A A A K H A 5.$ ",
"+.B C C Z A A A A A A A Z Z Z A A Z -.$ ",
"+.n M M V V N N V V V V V V C C Z Z ..& ",
" .b z z c v v v m N N N N N M M N N  .& ",
"{ f f l l l l l x x x x x x x z z b [ # ",
"~ a f d g g g j j j j j l l l f k h ^ # ",
"~ p p p p p p p p p p p p d d d d s } # ",
"Q r e u p y y y y y y y p p p i u p Y @ ",
"U 7 8 w w t t t t t t t r t i r r q I + ",
"P 5 7 8 w w w w w w w w r w w q q 9 G + ",
"J 3 3 4 5 6 6 0 0 0 0 9 9 9 5 4 3 2 D + ",
"S 3 3 3 3 3 3 3 3 4 4 4 4 3 3 3 1 < F . ",
"  o o o o o o o o o O O O O O O O O X yX"
};
