/* XPM */
static char *result[] = {
/* columns rows colors chars-per-pixel */
"32 32 5 1 ",
"  c #3D253B",
". c #A17877",
"X c #CCA8A3",
"o c #EBD0C5",
"O c None",
/* pixels */
"OOOOOOOOOOOOOOOOOOOOOOOOOOOOOOOO",
"OOOOOOOOOOOOOOOOOOOOOOOOOOOOOOOO",
"OOOOOOOOOOOOOOOOOOOOOOOOOOOOOOOO",
"OOOOOOOOOOOOOOOOOOOOOOOOOOOOOOOO",
"OOOOOOOOOOOOOOOOOOOOOOOOOOOOOOOO",
"OOOOOOOOOOOOOOOOOOOOOOOOOOOOOOOO",
"OOOOOOOOOOOOOOOOOOOOOOOOOOOOOOOO",
"OOOOOOOOOOOOOOOOOOOOOOOOOOOOOOOO",
"OOOOOOOOOOOOOOOOOOOOOOOOOOOOOOOO",
"OOOOOOOOOOOOOOOOOOOOOOOOOOOOOOOO",
"OOOOOOOOOOOOO       OOOOOOOOOOOO",
"OOOOOOOOOOOO XXXoooX OOOOOOOOOOO",
"OOOOOOOOOOO XXXooooo OOOOOOOOOOO",
"OOOOOOOOOOO XXXooooo OOOOOOOOOOO",
"OOOOOOOOOOO XXX  oo  OOOOOOOOOOO",
"OOOOOOOOOOO XXX  oo  OOOOOOOOOOO",
"OOOOOOOOOOOO XXXoooo OOOOOOOOOOO",
"OOOOOOOOOOOOO  .o.oX OOOOOOOOOOO",
"OOOOOOOOOOOO oXX..... OOOOOOOOOO",
"OOOOOOOOOOO XX oXXXo. OOOOOOOOOO",
"OOOOOOOOOOOO   Xooo  OOOOOOOOOOO",
"OOOOOOOOOOOOOO o  . OOOOOOOOOOOO",
"OOOOOOOOOOOOO oo  .. OOOOOOOOOOO",
"OOOOOOOOOOOOOOOOOOOOOOOOOOOOOOOO",
"OOOOOOOOOOOOOOOOOOOOOOOOOOOOOOOO",
"OOOOOOOOOOOOOOOOOOOOOOOOOOOOOOOO",
"OOOOOOOOOOOOOOOOOOOOOOOOOOOOOOOO",
"OOOOOOOOOOOOOOOOOOOOOOOOOOOOOOOO",
"OOOOOOOOOOOOOOOOOOOOOOOOOOOOOOOO",
"OOOOOOOOOOOOOOOOOOOOOOOOOOOOOOOO",
"OOOOOOOOOOOOOOOOOOOOOOOOOOOOOOOO",
"OOOOOOOOOOOOOOOOOOOOOOOOOOOOOOOO"
};
