/* XPM */
static char *result[] = {
/* columns rows colors chars-per-pixel */
"21 48 231 2 ",
"   c #53321D",
".  c #573622",
"X  c #583521",
"o  c #593724",
"O  c #593A27",
"+  c #5A3A27",
"@  c #5A3B28",
"#  c #5B3C29",
"$  c #5C3D2A",
"%  c #5D3E2A",
"&  c #5E3F2A",
"*  c #5E3F2B",
"=  c #5F402C",
"-  c #60402B",
";  c #60412C",
":  c #61412C",
">  c #60402D",
",  c #60412D",
"<  c #61422D",
"1  c #61422E",
"2  c #62422E",
"3  c #62432E",
"4  c #684B36",
"5  c #6A4D39",
"6  c #705340",
"7  c #735542",
"8  c #8C7E67",
"9  c #8C7E68",
"0  c #8C7F69",
"q  c #8D7F69",
"w  c #8D7F6A",
"e  c #8D806A",
"r  c #8D816A",
"t  c #8D806B",
"y  c #8D816B",
"u  c #8E806A",
"i  c #8E816A",
"p  c #8E806B",
"a  c #8E816B",
"s  c #8E826B",
"d  c #8E816C",
"f  c #8F816C",
"g  c #8F816D",
"h  c #8E826C",
"j  c #8F826C",
"k  c #8F826D",
"l  c #8F836E",
"z  c #90826E",
"x  c #90836E",
"c  c #90836F",
"v  c #90846E",
"b  c #91846E",
"n  c #90846F",
"m  c #91846F",
"M  c #908470",
"N  c #918470",
"B  c #908471",
"V  c #918471",
"C  c #918571",
"Z  c #928570",
"A  c #928671",
"S  c #918572",
"D  c #928572",
"F  c #928672",
"G  c #938772",
"H  c #928673",
"J  c #938673",
"K  c #938773",
"L  c #938774",
"P  c #948873",
"I  c #968872",
"U  c #968973",
"Y  c #978A73",
"T  c #948874",
"R  c #958974",
"E  c #948875",
"W  c #958975",
"Q  c #968975",
"!  c #978A74",
"~  c #968A75",
"^  c #978A75",
"/  c #958976",
"(  c #958977",
")  c #958A76",
"_  c #958A77",
"`  c #978A76",
"'  c #968A77",
"]  c #978B77",
"[  c #998C77",
"{  c #968A78",
"}  c #968B78",
"|  c #978B78",
" . c #968B79",
".. c #978B79",
"X. c #978C79",
"o. c #978C7A",
"O. c #998C78",
"+. c #988D78",
"@. c #998D78",
"#. c #988C79",
"$. c #998D79",
"%. c #9A8E79",
"&. c #988C7A",
"*. c #988D7A",
"=. c #988D7B",
"-. c #998E7A",
";. c #9A8E7A",
":. c #9A8F7B",
">. c #988D7C",
",. c #998E7C",
"<. c #998E7D",
"1. c #998F7D",
"2. c #9A8F7C",
"3. c #9B8F7C",
"4. c #9A8F7D",
"5. c #998E7E",
"6. c #9A8F7E",
"7. c #9A8F7F",
"8. c #9A907E",
"9. c #9B907E",
"0. c #9B917E",
"q. c #9A907F",
"w. c #9B907F",
"e. c #9C907D",
"r. c #9C917D",
"t. c #9C917E",
"y. c #9D927F",
"u. c #9B9080",
"i. c #9B9181",
"p. c #9C9180",
"a. c #9C9181",
"s. c #9E9180",
"d. c #9D9380",
"f. c #9C9281",
"g. c #9D9281",
"h. c #9D9381",
"j. c #9F9381",
"k. c #9C9282",
"l. c #9D9282",
"z. c #9D9382",
"x. c #9C9283",
"c. c #9D9283",
"v. c #9D9383",
"b. c #9E9382",
"n. c #9E9383",
"m. c #9E9482",
"M. c #9E9483",
"N. c #9D9384",
"B. c #9E9384",
"V. c #9E9484",
"C. c #9E9485",
"Z. c #9E9585",
"A. c #9E9684",
"S. c #9E9685",
"D. c #9F9685",
"F. c #9F9586",
"G. c #9F9686",
"H. c #9F9687",
"J. c #9F9787",
"K. c #A09382",
"L. c #A29685",
"P. c #A09686",
"I. c #A19786",
"U. c #A19687",
"Y. c #A19787",
"T. c #A29788",
"R. c #A19989",
"E. c #A29989",
"W. c #A39A8B",
"Q. c #A49889",
"!. c #A5998B",
"~. c #A59A8B",
"^. c #A39B8D",
"/. c #A59B8C",
"(. c #A49C8D",
"). c #A69C8C",
"_. c #A49C8E",
"`. c #A59D8F",
"'. c #A69D8F",
"]. c #A69E8F",
"[. c #A89E8F",
"{. c #A69E90",
"}. c #A79F91",
"|. c #A99F90",
" X c #A99F92",
".X c #A7A091",
"XX c #A8A090",
"oX c #A9A190",
"OX c #A8A091",
"+X c #A9A191",
"@X c #A9A092",
"#X c #A9A192",
"$X c #A9A093",
"%X c #A9A193",
"&X c #AAA093",
"*X c #AAA193",
"=X c #AAA292",
"-X c #AAA293",
";X c #AAA194",
":X c #AAA294",
">X c #ABA394",
",X c #AAA295",
"<X c #ABA395",
"1X c #ABA396",
"2X c #ABA495",
"3X c #ACA495",
"4X c #ACA496",
"5X c #ACA497",
"6X c #ACA597",
"7X c #ADA597",
"8X c #ADA598",
"9X c #ADA698",
"0X c #ADA699",
"qX c #AEA699",
"wX c #AEA69A",
"eX c #AFA69A",
"rX c #AEA79A",
"tX c #AFA79A",
"yX c #AFA69B",
"uX c #AFA79B",
"iX c #AFA79C",
"pX c #B0A79B",
"aX c #B0A89B",
"sX c #B0A89C",
"dX c #B0A99C",
"fX c #B1A99C",
"gX c #B0A99D",
"hX c #B1A99D",
"jX c #B1A99E",
"kX c #B2AA9E",
"lX c None",
/* pixels */
"lXlXlXlXlX7 lXlXlXlXlXlXlXlXlX7 lXlXlXlXlX",
"lXlXlXlX7 @X7 lXlXlXlXlXlXlX7 ,X7 lXlXlXlX",
"lXlXlX7 &X;X*X7 lXlXlXlXlX7 <X1X1X7 lXlXlX",
"lXlXlX7 #X%X@X7 lXlXlXlXlX7 ,X1X>X7 lXlXlX",
"lXlX7 ).[.|.|.).7 7 7 7 7  X;X;X;X$X6 lXlX",
"lX5 -Xs.!./.~.L.oXoXoXoXoXE.'.{.].Q.OX5 lX",
"5 wX+XoXj.K.K.+XoXoXoXoXoXoXT.Y.I.OXXXtX5 ",
"5 eX%X*X%X%X%X%X*X*X#X#X#X+X=X=X#X#XOXpX5 ",
"5 yX:X-X:X,X,X,X,X,X:X:X:X:X:X:X:X-X-XaX5 ",
"5 uX<X<X<X1X1X1X1X1X1X1X1X1X1X3X2X<X<XaX5 ",
"5 uX<X1X1X5X5X5X5X5X5X5X5X1X4X4X4X4X4XsX5 ",
"5 uX5X5X5X6X8X8X8X8X8X8X8X5X5X5X5X6X6XsX5 ",
"5 uX5X6X5X6X8X8X8X8X8X8X8X8X8X5X5X6X6XdX5 ",
"5 uX6X6X8X8X8X8X8X8X8X8X8X8X8X8X7X6X6XfX5 ",
"5 iX8X8X8X8X8X8X8X8X8X9X8XqXqXqXqX8X8XhX5 ",
"5 sX8X8X8X8X8X8X8X8X8X8X8XqXqXqXqXqX9XhX5 ",
"5 sX0X8X8X8X8X8X8X8X8X8XqXqXqXqXqXqXwXhX5 ",
"5 jXtX0X8X8X8X8X8X8X8XrXrXrXrXrXrXrXrXkX5 ",
"4 jXgXgXgXgXgXgXgXhXhXhXhXhXhXhXhXhXhXjX5 ",
", {.c.x.k.v.z.c.v.n.B.B.V.V.C.C.F.H.U..X> ",
"3 `.i.a.p.p.a.a.f.l.l.l.l.l.b.M.C.C.Z.}.3 ",
"3 _.u.u.w.w.w.u.u.u.u.u.u.p.a.a.g.v.N.`.3 ",
"< W.7.7.6.6.6.8.7.7.7.q.7.w.w.u.p.f.k._.3 ",
"< E.6.5.5.<.<.<.<.<.<.4.4.4.4.4.9.9.q._.3 ",
"< J.<.<.,.>.>.>.>.,.,.,.,.,.,.,.<.1.1.(.3 ",
"2 S.>.>.>.>.=.=.=.=.=.=.=.=.=.,.,.,.<.^.2 ",
"1 D.*.=.&.&.&.&.&.&.#...X.X.o.&.*.=.,.W.1 ",
"< A.o.X...| | | | | ' ' | | | ....#.&.R.< ",
"; h.| | | | | } } ' ' ' ' ' ' }  .....G.; ",
"; d.| { { { } { ' ' ( ( _ _ ' ' { { ..P.; ",
"- f.{ { { ' ' ' ' ' / / / / / / ' { | D.; ",
"* 0.' ' ' ' / / / / / / / / / / / ' } m.; ",
"& 2./ / / / / / / / / / / / / / / / ) y.: ",
"* :./ / E E E E E E E E E E E / / E W t.: ",
"& ;.W E E L L L L L L L L L L E E E E r.: ",
"* -.T T L L L L L L L L L L L L E T L e.: ",
"* -.G J J K L L L L L L L K K K L L K 3.: ",
"% -.A D D H H F F H H H H H H J J K K %., ",
"% $.Z N N V C C C S F F F F F D D F F $., ",
"$ +.c c M M M M M B B B B B B B N N Z O.; ",
"# ] l c x v v v n n n n n M M M c m b [ ; ",
"# ] k k k k k k k k k k k k x x x x z @.; ",
"O ` d s h k g g g g g g g k k k j h k ^ = ",
"O ~ t y a a f f f f f f f d f j d d p ! @ ",
"O Q e t y a a a a a a a a d a a p p u U @ ",
"O R q q w e r r i i i i u u u e w q 0 I @ ",
"  P q q q q q q q q w w w w q q q 9 8 Y . ",
"lXX + + + + + + + + + + + + + + + + + o lX"
};
