/* XPM */
static char *result[] = {
/* columns rows colors chars-per-pixel */
"32 32 5 1 ",
"  c #3D253B",
". c #A17877",
"X c #CCA8A3",
"o c #EBD0C5",
"O c None",
/* pixels */
"OOOOOOOOOOOOOOOOOOOOOOOOOOOOOOOO",
"OOOOOOOOOOOOOOOOOOOOOOOOOOOOOOOO",
"OOOOOOOOOOOOOOOOOOOOOOOOOOOOOOOO",
"OOOOOOOOOOOOOOOOOOOOOOOOOOOOOOOO",
"OOOOOOOOOOOOOOOOOOOOOOOOOOOOOOOO",
"OOOOOOOOOOOOOOOOOOOOOOOOOOOOOOOO",
"OOOOOOOOOOOOOOOOOOOOOOOOOOOOOOOO",
"OOOOOOOOOOOOOOOOOOOOOOOOOOOOOOOO",
"OOOOOOOOOOOOOOOOOOOOOOOOOOOOOOOO",
"OOOOOOOOOOOOOOOOOOOOOOOOOOOOOOOO",
"OOOOOOOOOOOOO      OOOOOOOOOOOOO",
"OOOOOOOOOOOO XooooX OOOOOOOOOOOO",
"OOOOOOOOOOO XooooooX OOOOOOOOOOO",
"OOOOOOOOOOO XooooooX OOOOOOOOOOO",
"OOOOOOOOOOO XooooooX OOOOOOOOOOO",
"OOOOOOOOOOO XXooooXX OOOOOOOOOOO",
"OOOOOOOOOOO  XXXXXX  OOOOOOOOOOO",
"OOOOOOOOOO oX.XXXX.Xo OOOOOOOOOO",
"OOOOOOOOO XXXX....XXXX OOOOOOOOO",
"OOOOOOOOOO   oXXXXo   OOOOOOOOOO",
"OOOOOOOOOOOO oooooo OOOOOOOOOOOO",
"OOOOOOOOOOO XX.  .XX OOOOOOOOOOO",
"OOOOOOOOOOO XX OO XX OOOOOOOOOOO",
"OOOOOOOOOOOOOOOOOOOOOOOOOOOOOOOO",
"OOOOOOOOOOOOOOOOOOOOOOOOOOOOOOOO",
"OOOOOOOOOOOOOOOOOOOOOOOOOOOOOOOO",
"OOOOOOOOOOOOOOOOOOOOOOOOOOOOOOOO",
"OOOOOOOOOOOOOOOOOOOOOOOOOOOOOOOO",
"OOOOOOOOOOOOOOOOOOOOOOOOOOOOOOOO",
"OOOOOOOOOOOOOOOOOOOOOOOOOOOOOOOO",
"OOOOOOOOOOOOOOOOOOOOOOOOOOOOOOOO",
"OOOOOOOOOOOOOOOOOOOOOOOOOOOOOOOO"
};
