/* XPM */
static char *result[] = {
/* columns rows colors chars-per-pixel */
"21 45 232 2 ",
"   c #53321D",
".  c #573622",
"X  c #583521",
"o  c #593724",
"O  c #593A27",
"+  c #5A3A27",
"@  c #5A3B28",
"#  c #5B3C29",
"$  c #5C3D2A",
"%  c #5D3E2A",
"&  c #5E3F2A",
"*  c #5E3F2B",
"=  c #5F402C",
"-  c #60402B",
";  c #60412C",
":  c #61412C",
">  c #60402D",
",  c #60412D",
"<  c #61422D",
"1  c #61422E",
"2  c #62422E",
"3  c #62432E",
"4  c #654937",
"5  c #684B36",
"6  c #6A4C38",
"7  c #6A4D39",
"8  c #694C3A",
"9  c #6B4F3E",
"0  c #6E513E",
"q  c #6F513E",
"w  c #735542",
"e  c #8C7E67",
"r  c #8C7E68",
"t  c #8C7F69",
"y  c #8D7F69",
"u  c #8D7F6A",
"i  c #8D806A",
"p  c #8D816A",
"a  c #8D806B",
"s  c #8D816B",
"d  c #8E806A",
"f  c #8E816A",
"g  c #8E806B",
"h  c #8E816B",
"j  c #8E826B",
"k  c #8E816C",
"l  c #8F816C",
"z  c #8F816D",
"x  c #8E826C",
"c  c #8F826C",
"v  c #8F826D",
"b  c #8F836E",
"n  c #90826E",
"m  c #90836E",
"M  c #90836F",
"N  c #90846E",
"B  c #91846E",
"V  c #90846F",
"C  c #91846F",
"Z  c #908470",
"A  c #918470",
"S  c #908471",
"D  c #918471",
"F  c #918571",
"G  c #928570",
"H  c #928671",
"J  c #918572",
"K  c #928572",
"L  c #928672",
"P  c #938772",
"I  c #928673",
"U  c #938673",
"Y  c #938773",
"T  c #938774",
"R  c #948873",
"E  c #968872",
"W  c #968973",
"Q  c #978A73",
"!  c #948874",
"~  c #958974",
"^  c #948875",
"/  c #958975",
"(  c #968975",
")  c #978A74",
"_  c #968A75",
"`  c #978A75",
"'  c #958976",
"]  c #958977",
"[  c #958A76",
"{  c #958A77",
"}  c #978A76",
"|  c #968A77",
" . c #978B77",
".. c #998C77",
"X. c #968A78",
"o. c #968B78",
"O. c #978B78",
"+. c #968B79",
"@. c #978B79",
"#. c #978C79",
"$. c #978C7A",
"%. c #998C78",
"&. c #988D78",
"*. c #998D78",
"=. c #988C79",
"-. c #998D79",
";. c #9A8E79",
":. c #988C7A",
">. c #988D7A",
",. c #988D7B",
"<. c #998E7A",
"1. c #9A8E7A",
"2. c #9A8F7B",
"3. c #988D7C",
"4. c #998E7C",
"5. c #998E7D",
"6. c #998F7D",
"7. c #9A8F7C",
"8. c #9B8F7C",
"9. c #9A8F7D",
"0. c #998E7E",
"q. c #9A8F7E",
"w. c #9A8F7F",
"e. c #9A907E",
"r. c #9B907E",
"t. c #9B917E",
"y. c #9A907F",
"u. c #9B907F",
"i. c #9C907D",
"p. c #9C917D",
"a. c #9C917E",
"s. c #9E917F",
"d. c #9D927F",
"f. c #9B9080",
"g. c #9B9181",
"h. c #9C9180",
"j. c #9C9181",
"k. c #9D9380",
"l. c #9C9281",
"z. c #9D9281",
"x. c #9D9381",
"c. c #9C9282",
"v. c #9D9282",
"b. c #9D9382",
"n. c #9C9283",
"m. c #9D9283",
"M. c #9D9383",
"N. c #9E9382",
"B. c #9E9383",
"V. c #9E9482",
"C. c #9F9482",
"Z. c #9E9483",
"A. c #9D9384",
"S. c #9E9384",
"D. c #9E9484",
"F. c #9E9485",
"G. c #9E9585",
"H. c #9E9684",
"J. c #9E9685",
"K. c #9F9685",
"L. c #9F9586",
"P. c #9F9686",
"I. c #9F9687",
"U. c #9F9787",
"Y. c #A09482",
"T. c #A09483",
"R. c #A09686",
"E. c #A19687",
"W. c #A19787",
"Q. c #A29887",
"!. c #A29987",
"~. c #A19989",
"^. c #A29989",
"/. c #A3998B",
"(. c #A39A8B",
"). c #A49989",
"_. c #A49A8A",
"`. c #A49A8B",
"'. c #A39B8D",
"]. c #A49C8D",
"[. c #A69D8D",
"{. c #A49C8E",
"}. c #A59D8F",
"|. c #A69E90",
" X c #A79E90",
".X c #A79F91",
"XX c #A89E90",
"oX c #A89F90",
"OX c #A7A091",
"+X c #A8A090",
"@X c #A9A190",
"#X c #A8A091",
"$X c #A9A191",
"%X c #A9A192",
"&X c #A9A093",
"*X c #A9A193",
"=X c #AAA193",
"-X c #AAA292",
";X c #AAA293",
":X c #A9A194",
">X c #AAA194",
",X c #AAA294",
"<X c #AAA295",
"1X c #ABA395",
"2X c #ABA396",
"3X c #ABA495",
"4X c #ABA496",
"5X c #ABA596",
"6X c #ACA495",
"7X c #ACA496",
"8X c #ACA497",
"9X c #ACA597",
"0X c #ADA597",
"qX c #ADA598",
"wX c #AEA599",
"eX c #ADA698",
"rX c #ADA699",
"tX c #AEA699",
"yX c #AEA69A",
"uX c #AEA79A",
"iX c #AFA79A",
"pX c #AFA79B",
"aX c #B0A79B",
"sX c #B0A89B",
"dX c #B0A89C",
"fX c #B0A99C",
"gX c #B1A99C",
"hX c #B0A99D",
"jX c #B1A99D",
"kX c #B1A99E",
"lX c #B2AA9E",
"zX c None",
/* pixels */
"zXzXzXzXzXzXzXzXzXzXzXzXzXzXzXzXzXzXzXw w ",
"zXzX7 7 7 7 7 7 7 7 7 7 7 7 7 7 7 9 w <Xw ",
"zX7 tXtXtXtXtXtXtXtXtXtXtXtXwXtXtXw <X<Xw ",
"7 iX+X#X#X#X#X@X@X@X@X@X@X$X$X@X$Xw :X<Xw ",
"7 aX#X%X%X-X-X$X%X%X%X=X=X*X*X*Xw _.[.XX0 ",
"7 sX;X;X,X,X,X,X,X,X,X<X<X<X<X<X,XC.Q.).8 ",
"7 sX1X1X3X6X2X2X2X2X2X2X2X2X2X2X1X1XY.W.4 ",
"7 dX7X7X7X7X7X2X8X8X8X8X8X8X8X8X2X4X4XpX4 ",
"7 dX9X9X8X8X8X8XqXqXqXqXqXqXqX9X8X4X4Xw w ",
"7 fX9X9X8X8XqXqXqXqXqXqXqXqXqX9X8X5Xw *Xw ",
"7 gX9X9X0XqXqXqXqXqXqXqXqXqXqXqXqXw >X,Xw ",
"7 jXqXqXtXtXtXtXqXeXqXqXqXqXqXqXqXw *X&Xw ",
"7 jXeXtXtXtXtXtXqXqXqXqXqXqXqXqXw `. XoXq ",
"7 jXyXtXtXtXtXtXtXqXqXqXqXqXqXqXqXT.!./.6 ",
"7 lXuXuXuXuXuXuXuXuXqXqXqXqXqXqXqXrXs.C.5 ",
"7 kXjXjXjXjXjXjXjXjXjXjXhXhXhXhXhXhXhXkX5 ",
"> OXE.I.L.F.F.D.D.S.S.B.M.m.b.M.c.n.m.|., ",
"3 .XG.F.F.Z.N.v.v.v.v.v.l.j.j.h.h.j.g.}.3 ",
"3 }.A.M.z.j.j.h.f.f.f.f.f.f.u.u.u.f.f.{.3 ",
"3 {.c.l.h.f.u.u.w.y.w.w.w.e.q.q.q.w.w.(.< ",
"3 {.y.r.r.9.9.9.9.9.5.5.5.5.5.5.0.0.q.^.< ",
"3 ].6.6.5.4.4.4.4.4.4.4.3.3.3.3.4.5.5.U.< ",
"2 '.5.4.4.4.,.,.,.,.,.,.,.,.,.3.3.3.3.J.2 ",
"1 (.4.,.>.:.$.#.#.@.=.:.:.:.:.:.:.,.>.K.1 ",
"< ~.:.=.@.@.O.O.O.| | O.O.O.O.O.@.#.$.H.< ",
"; P.@.@.+.o.| | | | | | o.o.O.O.O.O.O.x.; ",
"; R.@.X.X.| | { { ] ] | | X.o.X.X.X.O.k.; ",
"; K.O.X.| ' ' ' ' ' ' | | | | | X.X.X.l.- ",
"; V.o.| ' ' ' ' ' ' ' ' ' ' ' | | | | t.* ",
": d.[ ' ' ' ' ' ' ' ' ' ' ' ' ' ' ' ' 7.& ",
": a./ ^ ' ' ^ ^ ^ ^ ^ ^ ^ ^ ^ ^ ^ ' ' 2.* ",
": p.^ ^ ^ ^ T T T T T T T T T T ^ ^ / 1.& ",
": i.T ! ^ T T T T T T T T T T T T ! ! <.* ",
": 8.Y T T Y Y Y T T T T T T T Y U U P <.* ",
", ;.Y Y U U I I I I I I L L I I K K H <.% ",
", -.L L K K L L L L L J F F F D A A G -.% ",
"; %.G A A S S S S S S S Z Z Z Z Z M M &.$ ",
"; ..B C M Z Z Z V V V V V N N N m M b  .# ",
"; *.n m m m m v v v v v v v v v v v v  .# ",
"= ` v x c v v v z z z z z z z v x j k } O ",
"@ ) g k k c l k l l l l l l l h h s a _ O ",
"@ W d g g h h k h h h h h h h h s a i ( O ",
"@ E t y u i d d d f f f f p p i u y y ~ O ",
". Q e r y y y u u u u y y y y y y y y R   ",
"zXo + + + + + + + + + + + + + + + + + X zX"
};
