/* XPM */
static char *result[] = {
/* columns rows colors chars-per-pixel */
"15 15 146 2 ",
"   c #030203",
".  c gray1",
"X  c #070101",
"o  c #040201",
"O  c #070200",
"+  c #070300",
"@  c #060201",
"#  c #040302",
"$  c #060202",
"%  c #040403",
"&  c #030304",
"*  c #070104",
"=  c #060105",
"-  c #050204",
";  c #070304",
":  c #070307",
">  c #080000",
",  c #080100",
"<  c #0A0101",
"1  c #090301",
"2  c #080102",
"3  c #0A0103",
"4  c #0C0100",
"5  c #0C0200",
"6  c #0E0301",
"7  c #0D0303",
"8  c #080502",
"9  c #090403",
"0  c #0A0306",
"q  c #090506",
"w  c #0A0506",
"e  c #0A0607",
"r  c #02030A",
"t  c #070308",
"y  c #04050B",
"u  c #06020C",
"i  c #05030E",
"p  c #0E0308",
"a  c #08050E",
"s  c #120005",
"d  c #11040C",
"f  c #050612",
"g  c #0A0512",
"h  c #0B0B18",
"j  c #0B0F19",
"k  c #090B1E",
"l  c #0C0C1C",
"z  c #090B21",
"x  c #0A0A20",
"c  c #0E0A20",
"v  c #110D20",
"b  c #222838",
"n  c #2C2F4D",
"m  c #2F3346",
"M  c #32364C",
"N  c #2D3154",
"B  c #353851",
"V  c #2E3765",
"C  c #373961",
"Z  c #3E4972",
"A  c #494F57",
"S  c #414C5A",
"D  c #7A87BA",
"F  c #7F94D4",
"G  c #7CA0E3",
"H  c #8492B6",
"J  c #869BBF",
"K  c #8692C0",
"L  c #899DDA",
"P  c #93A8CF",
"I  c #82A1D7",
"U  c #86A0DC",
"Y  c #94A9D6",
"T  c #A0B7D3",
"R  c #AEBBDD",
"E  c #819AE7",
"W  c #81A4E2",
"Q  c #84A3EB",
"!  c #96AEE0",
"~  c #99B4E9",
"^  c #9EB2EF",
"/  c #82AAF2",
"(  c #87ABF3",
")  c #86ACF3",
"_  c #84A9F6",
"`  c #84ACF5",
"'  c #8AAAF7",
"]  c #8FACF4",
"[  c #85AAFB",
"{  c #82A9FE",
"}  c #84AAFC",
"|  c #84ABFE",
" . c #98B4F3",
".. c #9BB8F4",
"X. c #A5BFE6",
"o. c #B4C4EF",
"O. c #B8D5EB",
"+. c #AFCBF6",
"@. c #A8CDF7",
"#. c #AFCFF9",
"$. c #A8CBFE",
"%. c #AFCDFC",
"&. c #B1C6FB",
"*. c #B3CBF9",
"=. c #B0CEFA",
"-. c #B7CDFB",
";. c #B2CBFC",
":. c #B0CEFD",
">. c #B4CFFF",
",. c #BBCFFD",
"<. c #B9CFFE",
"1. c #B9CFFF",
"2. c #BACFFE",
"3. c #B3D4F6",
"4. c #B9D2F5",
"5. c #B9D1F7",
"6. c #BBD3F6",
"7. c #B2D2FD",
"8. c #B6D0FE",
"9. c #B6D0FF",
"0. c #B9D0FA",
"q. c #B8D1FA",
"w. c #BAD1FA",
"e. c #BAD1FB",
"r. c #B9D0FC",
"t. c #B8D1FC",
"y. c #B9D0FD",
"u. c #B8D0FE",
"i. c #C1CEF5",
"p. c #C1D0F9",
"a. c #C4D1FC",
"s. c #DBDDF3",
"d. c #E4F4FA",
"f. c #E7F5FB",
"g. c #E0F0FD",
"h. c #E3F3FC",
"j. c #EEF2FA",
"k. c #EFF8FD",
"l. c #FAFFF7",
"z. c #FEFEF4",
"x. c #F0F6FD",
"c. c #FFFCF9",
"v. c #FDFEFA",
"b. c #FAFDFF",
"n. c #FEFDFF",
"m. c None",
/* pixels */
"m.m.m.m.m.m.m.m.m.m.m.m.m.m.m.",
"m.m.m.m.m.m.s u 5 m.m.m.m.m.m.",
"m.m.m.m.d : B S C a 1 m.m.m.m.",
"m.m.m.7 m A R -...Z M g m.m.m.",
"m.m.% n T k.v.s.O.>.^ V f m.m.",
"m.4 # Y x.z.c.l.i.4.7. .l $ m.",
"m.p b o.h.b.n.j.6.e.<.1.N i m.",
"8 = P :.2.d.f.p.w.0.y.1.~ z 9 ",
"* . X.3.<.5.5.u.r.r.r.r.@.j , ",
"o & D &.*.9.8.q.,.t.%.;.F x > ",
"m.- @ U ( $.#.=.+.a.] / k , m.",
"m.  X H ) [ } ` { g.! E h O m.",
"m.m.0 y K L ' | _ G I v t m.m.",
"m.m.m.+ < r J Q W c 3 6 m.m.m.",
"m.m.m.m.; ; e ; 2 w q m.m.m.m."
};
