/* XPM */
static char *result[] = {
/* columns rows colors chars-per-pixel */
"15 15 2 1 ",
"  c #72751B",
". c None",
/* pixels */
"...............",
".....    ......",
"....       ....",
"...         ...",
"..           ..",
".             .",
".             .",
"               ",
"               ",
"               ",
".             .",
".             .",
"..           ..",
"...         ...",
"....       ...."
};
